/* XPM */
static char *cancel_icon[] = {
/* columns rows colors chars-per-pixel */
"16 16 111 2",
"   c black",
".  c #010101",
"X  c #020202",
"o  c gray1",
"O  c #040404",
"+  c gray2",
"@  c #080505",
"#  c #090504",
"$  c #0F0907",
"%  c gray3",
"&  c #090909",
"*  c gray4",
"=  c #0B0B0B",
"-  c #0E0B09",
";  c #0C0C0C",
":  c gray5",
">  c #120502",
",  c #1B0704",
"<  c #180906",
"1  c #1C0905",
"2  c #1D0F0C",
"3  c #101010",
"4  c #200804",
"5  c #230A06",
"6  c #200B08",
"7  c #240D09",
"8  c #2C0B05",
"9  c #2F0E07",
"0  c #2C0E09",
"q  c #25120F",
"w  c #26110D",
"e  c #26110E",
"r  c #2B130E",
"t  c #2C140F",
"y  c #2F1510",
"u  c #2D1714",
"i  c #311712",
"p  c #321813",
"a  c #301914",
"s  c #341A15",
"d  c #3B1711",
"f  c #381914",
"g  c #391C17",
"h  c #3C1812",
"j  c #3E1E18",
"k  c #49160C",
"l  c #4E160D",
"z  c #411710",
"x  c #4C1B13",
"c  c #4E1D14",
"v  c #422019",
"b  c #572119",
"n  c #5C251B",
"m  c #484847",
"M  c #822617",
"N  c #922C1B",
"B  c #912F1E",
"V  c #922F1E",
"C  c #962E1C",
"Z  c #992F1D",
"A  c #94301E",
"S  c #96311E",
"D  c #98311E",
"F  c #A13521",
"G  c #A23A26",
"H  c #AD3620",
"J  c #B03720",
"K  c #B23821",
"L  c #B43922",
"P  c #B43A23",
"I  c #B63922",
"U  c #B73922",
"Y  c #B63D26",
"T  c #B93A22",
"R  c #BA3A22",
"E  c #BA3B22",
"W  c #BB3B22",
"Q  c #B93B24",
"!  c #B83E27",
"~  c #BC3B22",
"^  c #BD3B22",
"/  c #BE3B22",
"(  c #BF3B22",
")  c #BD3C24",
"_  c #BD3D25",
"`  c #BE3F27",
"'  c #BD3F28",
"]  c #AD4632",
"[  c #B45B4A",
"{  c #C03B22",
"}  c #C23B22",
"|  c #C24129",
" . c #C34C36",
".. c #C44D36",
"X. c #C64D37",
"o. c #C84E37",
"O. c #CE523A",
"+. c #C95641",
"@. c #D05F49",
"#. c #C16E5E",
"$. c #CE6653",
"%. c #CA6D5B",
"&. c #D3634E",
"*. c #D66F5B",
"=. c #D9705B",
"-. c #CC7261",
";. c #CD7261",
":. c #CB7868",
">. c #D17F70",
",. c #DD8D7D",
"<. c None",
/* pixels */
"<.    O <.<.<.<.<.<.<.<.<.<.<.<.",
"<.; v g ; <.<.<.<.<.<.=   O O <.",
"<.p ,.@.c ; <.<.<.<.- u #.] # <.",
"<.j &.+...c ; <.<.= a =.| D > <.",
"<.-  .{ ( ..n ; 3 2 *.Q N l   <.",
"<.m y  .( ( L h O %.! M 8 O <.<.",
"<.<.= r  .( U U [ O.D 5 O <.<.<.",
"<.<.<.= h  .U U o.U 9   <.<.<.<.",
"<.<.<.<.  k $._ U ( L y = <.<.<.",
"<.<.<.O 1 >._ Y L ( ( H r & <.<.",
"<.<.  g :.' N = d ..( ( P q   <.",
"<.  b ;.Q S 6 3 ; z ..( ( G # <.",
"<.5 ;._ D 7 = <.<.; x X.( H r <.",
"<.$ N S > = <.<.<.<.; c o.F q <.",
"<.O 0 1 = <.<.<.<.<.<.; s p ; <.",
"<.<.<.<.<.<.<.<.<.<.<.<.O     <."
};
