/* XPM */
static char *close_icon[] = {
/* columns rows colors chars-per-pixel */
"16 16 61 1",
"  c black",
". c #666951",
"X c #6D705F",
"o c #8D9270",
"O c #8F9372",
"+ c #8F9474",
"@ c #919576",
"# c #929778",
"$ c #95997C",
"% c #8D8E8C",
"& c #A3A39D",
"* c #ADB198",
"= c #B4B89D",
"- c #BFC598",
"; c #C1C79B",
": c #C2C89D",
"> c #C0C3A7",
", c #C2C6A9",
"< c #C4CAA0",
"1 c #C5CAA1",
"2 c #C5CAA2",
"3 c #C6CCA3",
"4 c #C6CCA4",
"5 c #C8CDA5",
"6 c #C9CEA7",
"7 c #CACFA8",
"8 c #CACFA9",
"9 c #C7C9B6",
"0 c #C9CCB9",
"q c #CBD0AB",
"w c #CBD1AA",
"e c #CDD2AD",
"r c #CED3AE",
"t c #CED3AF",
"y c #CFD4AF",
"u c #D1D6B2",
"i c #D3D7B4",
"p c #D5D9B7",
"a c #D6DBB9",
"s c #D8DCBC",
"d c #DADEBE",
"f c #DADEBF",
"g c #D5D6CB",
"h c #D6D7CA",
"j c #E4E7D2",
"k c #E4E5DF",
"l c #E5E8D4",
"z c #E6E8D5",
"x c #E8EAD8",
"c c #E9EBDB",
"v c #EAECDA",
"b c #EAECDB",
"n c #EBECDE",
"m c #EFF1E5",
"M c #F1F3E9",
"N c #F3F3EA",
"B c #F3F4EA",
"V c #F5F6F0",
"C c #F6F6F4",
"Z c gray97",
"A c None",
/* pixels */
"AAAAAAAAAAAAAAAA",
"AAAAAAAAAAAAAAAA",
"A      AAAAAAAAA",
" %kgg& AAAAAAAAA",
" V*,>=X      AAA",
" bVbbbccllj9 AAA",
" Zfffaaiyrw$ AAA",
" Nffaapirrw$ AAA",
" Nfappyrw75# AAA",
" Npiyyrw531+ AAA",
" mtrrr77411o AAA",
" b754:::---o AAA",
" 0#++oooooo. AAA",
"             AAA",
"AAAAAAAAAAAAAAAA",
"AAAAAAAAAAAAAAAA"
};
