/* XPM */
static char *exit_icon[] = {
/* columns rows colors chars-per-pixel */
"16 16 66 1",
"  c black",
". c #040603",
"X c #060806",
"o c #070907",
"O c #0E110C",
"+ c #0F120D",
"@ c #161C14",
"# c #191F16",
"$ c #1D251B",
"% c #202B18",
"& c #20281D",
"* c #273124",
"= c #2A3526",
"- c #2B3727",
"; c #2D3A29",
": c #313D2C",
"> c #34412F",
", c #354331",
"< c #3B4A35",
"1 c #42543D",
"2 c #495C42",
"3 c #495D43",
"4 c #51544F",
"5 c #5B5B5A",
"6 c #4F6448",
"7 c #53684B",
"8 c #546A4D",
"9 c #5C6059",
"0 c #6C6C6A",
"q c #797977",
"w c #608148",
"e c #880000",
"r c #990000",
"t c #993929",
"y c #A1100B",
"u c #A3140E",
"i c #B0160A",
"p c #B11B10",
"a c #AA3F2C",
"s c #B14D36",
"d c #B3533E",
"f c #C83E2B",
"g c #DF421E",
"h c #E46245",
"j c #E7755B",
"k c #8D8D8B",
"l c #929291",
"z c #939491",
"x c #9A9A98",
"c c #9C9C9B",
"v c #A4A4A2",
"b c #ADADAB",
"n c #B4B4B2",
"m c #B7B7B5",
"M c #B9B9B7",
"N c #BDBDBB",
"B c #C0C0BD",
"V c #C1C1BE",
"C c #C9C9C7",
"Z c #D0D0CD",
"A c #D3D3D0",
"S c #D4D4D1",
"D c #DEDEDC",
"F c #E0E0DE",
"G c #E2E2E0",
"H c None",
/* pixels */
"HHHHHHHHHHHHHHHH",
"HHHHH          H",
"HHHHH GABbl    H",
"HHH   GABmx    H",
"HHH h DABMc XX H",
"    jd ZBMc OO H",
" hhhhgs Nvc @$ H",
" hiiiipt q5 $& H",
" hrrrrea 0c *- H",
" fyueea BMc -: H",
"    ea SVMc -, H",
"www a GSVmk ;< H",
"www   FCz4 >12 H",
"HHH.% m9 <2678 H",
"HHHHH          H",
"HHHHHHHHHHHHHHHH"
};
