/* XPM */
static char *file_icon[] = {
/* columns rows colors chars-per-pixel */
"16 16 109 2",
"   c #000000",
".  c #010101",
"X  c #020202",
"o  c #030303",
"O  c #040404",
"+  c #050505",
"@  c #060606",
"#  c #070707",
"$  c #080707",
"%  c #0B0B0B",
"&  c #0C0C0C",
"*  c #0D0D0D",
"=  c #11100F",
"-  c #101010",
";  c #111111",
":  c #151515",
">  c #1B1B1B",
",  c #1D1D1D",
"<  c #1E1E1E",
"1  c #1F1F1F",
"2  c #202020",
"3  c #212121",
"4  c #242424",
"5  c #252525",
"6  c #272626",
"7  c #2A2A2A",
"8  c #2D2D2D",
"9  c #303030",
"0  c #353331",
"q  c #353432",
"w  c #3A3A3A",
"e  c #434240",
"r  c #4E4E4E",
"t  c #555553",
"y  c #5C5C5C",
"u  c #686868",
"i  c #696969",
"p  c #6B6B6B",
"a  c #6C6C6C",
"s  c #6D6D6D",
"d  c #71706F",
"f  c #707070",
"g  c #717171",
"h  c #727272",
"j  c #7A7A79",
"k  c #7A7A7A",
"l  c #7F7F7F",
"z  c #807F7F",
"x  c #80807F",
"c  c #808080",
"v  c #818180",
"b  c #828281",
"n  c #858482",
"m  c #848484",
"M  c #8A8A8A",
"N  c #8B8B8B",
"B  c #8D8D8D",
"V  c #8E8E8E",
"C  c #909090",
"Z  c gray57",
"A  c #929291",
"S  c #949493",
"D  c #959594",
"F  c #979797",
"G  c #989797",
"H  c #9C9B9B",
"J  c #9F9F9F",
"K  c #A09D97",
"L  c #A3A2A2",
"P  c #A3A3A3",
"I  c #A5A5A5",
"U  c #ABABAB",
"Y  c #AEADAB",
"T  c #B0B0B0",
"R  c #B3B3B3",
"E  c #B4B4B4",
"W  c #BABABA",
"Q  c #BBBBBB",
"!  c #BEBEBE",
"~  c #BFBFBF",
"^  c #C2C1C1",
"/  c #C7C7C6",
"(  c #CACACA",
")  c #CBCBCB",
"_  c #CDCDCD",
"`  c #CFCFCE",
"'  c #CFCFCF",
"]  c #D1D1D1",
"[  c #D2D2D2",
"{  c #D3D3D3",
"}  c #D4D4D4",
"|  c #D5D5D5",
" . c #D6D6D6",
".. c #D9D9D9",
"X. c #DADADA",
"o. c #DBDBDB",
"O. c #DCDCDC",
"+. c #DEDEDE",
"@. c #E0DFDE",
"#. c #E4E4E4",
"$. c #E7E7E7",
"%. c #EAEAE9",
"&. c #ECECEC",
"*. c #EDEDED",
"=. c #F1F1F1",
"-. c #F2F2F2",
";. c #F6F6F6",
":. c #FEFEFE",
">. c None",
/* pixels */
">.  & < 2 2 2 < < w 2   >.>.>.>.",
">.  u O.| | X.| ' ( L > >.>.>.>.",
">.  c *.[ [ [ [ X.I n 9   >.>.>.",
">.  c *.` / L c B Z n q   >.>.>.",
">.  c %.R c L E U B d q   >.>.>.",
">.  c @.g I [ -.O.E F 5   >.>.>.",
">.  c ^ u Q O.X.| ^ T a # >.>.>.",
">.  c H k [ | #.{ R ! M ; >.>.>.",
">.  z S B -.;.:.O.W *.M & >.>.>.",
">.  j Y a ' #.*.[ ' | h   >.>.>.",
">.  t K e u | ' Z F F 6   >.>.>.",
">.  $ ; @ ; u g y r ;       >.>.",
">.>.>.>.    @ @ @     % 5 @   >.",
">.>.>.>.>.>.        >.  2 8 @   ",
">.>.>.>.>.>.>.>.>.>.>.    < 8 @ ",
">.>.>.>.>.>.>.>.>.>.>.>.    < % "
};
