/* XPM */
static char *help_icon[] = {
/* columns rows colors chars-per-pixel */
"16 16 123 2",
"   c black",
".  c #010101",
"X  c #020101",
"o  c #040404",
"O  c #050404",
"+  c #080706",
"@  c #090807",
"#  c #0C0B0B",
"$  c #0C0C0C",
"%  c #0F0E0E",
"&  c #111110",
"*  c #131212",
"=  c #161615",
"-  c #1E1E1D",
";  c #201F1F",
":  c #2A1D19",
">  c #27201E",
",  c #222121",
"<  c #232221",
"1  c #272624",
"2  c #2E2D2C",
"3  c #3B3A39",
"4  c #3D3D3C",
"5  c #612E22",
"6  c #7E3B2B",
"7  c #434343",
"8  c #454343",
"9  c #4E4E4B",
"0  c #4D4C4C",
"q  c #4F4F4C",
"w  c #52514F",
"e  c #595654",
"r  c #60514C",
"t  c #625855",
"y  c #65625E",
"u  c #656462",
"i  c #757470",
"p  c #767472",
"a  c #7D7C77",
"s  c #7E7D79",
"d  c #803F2E",
"f  c #814B3E",
"g  c #914632",
"h  c #924633",
"j  c #88645A",
"k  c #8F645A",
"l  c #A35642",
"z  c #B25C45",
"x  c #B25E48",
"c  c #B85E46",
"v  c #B2644F",
"b  c #A27F74",
"n  c #B17060",
"m  c #BC7A69",
"M  c #BF7C6B",
"N  c #C15F46",
"B  c #C3654D",
"V  c #C7674E",
"C  c #CD755E",
"Z  c #C07561",
"A  c #CF7C65",
"S  c #84827F",
"D  c #85837F",
"F  c #B88073",
"G  c #C58A7B",
"H  c #CF8E7C",
"J  c #D1836E",
"K  c #D48C79",
"L  c #A2928B",
"P  c #B0AEAA",
"I  c #B1B1AF",
"U  c #B4B3AF",
"Y  c #B6B4B1",
"T  c #BAB8B6",
"R  c #C69C90",
"E  c #C99C91",
"W  c #D19787",
"Q  c #DB9F90",
"!  c #D2AA9E",
"~  c #DCA292",
"^  c #C0BEB9",
"/  c #C7BDB8",
"(  c #DAACA0",
")  c #D3BEB7",
"_  c #D8BAB1",
"`  c #DEBAB1",
"'  c #E0B1A4",
"]  c #E2B3A6",
"[  c #E3B4A8",
"{  c #D6C1B9",
"}  c #DBC0B7",
"|  c #C8C7C4",
" . c #CAC8C6",
".. c #CBCAC7",
"X. c #D0CFCC",
"o. c #D4D2D0",
"O. c #D4D3D0",
"+. c #D8D6D3",
"@. c #D8D7D4",
"#. c #DDDCD8",
"$. c #DDDCDA",
"%. c #E2CDC6",
"&. c #EAD6CF",
"*. c #E1E0DC",
"=. c #E2E0DD",
"-. c #E4E3E0",
";. c #E6E3E0",
":. c #E6E3E2",
">. c #E6E4E0",
",. c #E8E6E3",
"<. c #EAE7E5",
"1. c #ECEBE8",
"2. c #EDEBE8",
"3. c #F1E6E2",
"4. c #F2EAE6",
"5. c #F0EEEC",
"6. c #F2EFED",
"7. c #F2F0EC",
"8. c #F2F1ED",
"9. c #F2F1EE",
"0. c #F3F2EF",
"q. c #F5F3F0",
"w. c None",
/* pixels */
"w.      <             $ %       ",
"w.    1   p @.9.9.:.T y $ &     ",
"w.  >   ( &.:.;.>.1.1.W h   @   ",
"w.:   ` ] G / U { $.o.V B 5     ",
"w.- w [ Z d t ;   w f K C z r 2 ",
"w.  ;.! l 3       o   n Q _ y   ",
"w.  9.X.L 3         q 3 4.*.D   ",
"w.  9.o.P       w.w.<   9.+.p   ",
"w.  :.$...4 o   w.I 7 3 5. .p   ",
"w.  T <.} k   0 < 0   R ) Y 4   ",
"w.$ w H J ~ M .     E M z j 8 $ ",
"w.*   h B A ' 9.q.3.m c 6 6     ",
"w.  =   5 v { #.O. .b 6 6       ",
"w.    +   w D a a p e           ",
"w.w.                            ",
"w.w.w.w.                    w.w."
};
