/* XPM */
static char *hex_icon[] = {
/* columns rows colors chars-per-pixel */
"16 16 65 1",
"  c black",
". c #161616",
"X c gray25",
"o c #4B4B49",
"O c #5D5D5D",
"+ c #767676",
"@ c #748495",
"# c #768798",
"$ c #798A9B",
"% c #788A9C",
"& c #798A9C",
"* c #798A9D",
"= c #7A8B9D",
"- c #7A8C9E",
"; c #7B8C9F",
": c #7B8D9F",
"> c #7D8EA0",
", c gray52",
"< c #A0A0A0",
"1 c gray66",
"2 c gray68",
"3 c #BBBBBB",
"4 c #BCBCBC",
"5 c gray74",
"6 c gray",
"7 c gray75",
"8 c #C0C0C0",
"9 c #C1C1C1",
"0 c #C3C3C3",
"q c gray77",
"w c #C5C5C5",
"e c #CACACA",
"r c #D7D7D7",
"t c gray85",
"y c #DADADA",
"u c gray86",
"i c gainsboro",
"p c #DDDDDD",
"a c gray88",
"s c #E1E1E1",
"d c #E2E2E2",
"f c gray89",
"g c #E4E4E4",
"h c gray90",
"j c #E6E6E6",
"k c #E7E7E7",
"l c gray91",
"z c #E9E9E9",
"x c #EAEAEA",
"c c gray92",
"v c #ECECEC",
"b c gray93",
"n c #EEEEEE",
"m c #EFEFEF",
"M c gray94",
"N c #F1F1F1",
"B c #F4F4F4",
"V c gray96",
"C c gray97",
"Z c #F8F8F8",
"A c #F9F9F9",
"S c #FBFBFB",
"D c #FDFDFD",
"F c #FEFEFE",
"G c None",
/* pixels */
"GG           GGG",
"GG FFFFFFFs9  GG",
"GG Fppps:N0S1  G",
"GG FpppxNA2+OX G",
"GG FpppN:Ns,o. G",
"GG FpufbbANbbw G",
"GG Fuu$b:b;bxw G",
"GG FupxCcAxAxw G",
"GG Fu#xb;xx;x9 G",
"GG FufCxkCfxC7 G",
"GG F@xxx&fxx&6 G",
"GG FsCfxxCxff6 G",
"GG Fxfxx;ffff6 G",
"GG FfffffCfsf6 G",
"GG e666663333< G",
"GG             G"
};
