/* XPM */
static char *open_icon[] = {
/* columns rows colors chars-per-pixel */
"16 16 64 1",
"  c black",
". c #1A1A16",
"X c #25261F",
"o c #3C3D32",
"O c #404135",
"+ c #404236",
"@ c #424337",
"# c #434437",
"$ c #48493C",
"% c #4B4D3F",
"& c #4D4F40",
"* c #5F6152",
"= c #666858",
"- c #6D705F",
"; c #6E715C",
": c #767671",
"> c #83866D",
", c #848672",
"< c #80817B",
"1 c #878A70",
"2 c #878A75",
"3 c #8B8E7A",
"4 c #8A8C7D",
"5 c #8D907B",
"6 c #8E917B",
"7 c #90937D",
"8 c #91947F",
"9 c #92957E",
"0 c #888980",
"q c #919480",
"w c #96968D",
"e c #979B84",
"r c #97998D",
"t c #989B80",
"y c #989B86",
"u c #999B87",
"i c #989C80",
"p c #9EA284",
"a c #9FA19A",
"s c #A2A688",
"d c #A7AB8C",
"f c #A2A394",
"g c #A3A39D",
"h c #BBBF9D",
"j c #B1B4A2",
"k c #C7CCA7",
"l c #C6C6BE",
"z c #C6C7BE",
"x c #CDD2AC",
"c c #D1D3BD",
"v c #D6DABB",
"b c #D5D6CB",
"n c #D6D7CA",
"m c #DDE0C7",
"M c #E3E5D1",
"N c #E4E5DF",
"B c #E7E9DA",
"V c #EAECDB",
"C c #EDEFE2",
"Z c #EFF0E5",
"A c #F1F2E9",
"S c #F5F6F0",
"D c gray97",
"F c None",
/* pixels */
"FFFFFFFFFFFFFFFF",
"FFFFFFFFFFFFFFFF",
"FF      FFFFFFFF",
"F  Nbng  FFFFFFF",
"F S597e-      FF",
"F V4593uquqjf FF",
"F D2=%&OO##Oo$. ",
"F l,XAmvxxxxxki ",
"F z*0mxxxxxxxd1 ",
"F aXZvxxxxxxxp  ",
"F <wMxxxxxxxx> F",
"F rZxxxxxxxxs  F",
"F :Bchhhhhhi- FF",
"F             FF",
"FFFFFFFFFFFFFFFF",
"FFFFFFFFFFFFFFFF"
};
