/* XPM */
static char *options_icon[] = {
/* columns rows colors chars-per-pixel */
"16 16 47 1",
"  c black",
". c #070707",
"X c #1D1D1D",
"o c #1F272F",
"O c gray16",
"+ c gray19",
"@ c #313131",
"# c gray21",
"$ c #494746",
"% c #50504F",
"& c gray32",
"* c #4D5F73",
"= c #6C6967",
"- c #6B6A69",
"; c #72706D",
": c #66798F",
"> c #708295",
", c #7D8C9C",
"< c #748AA2",
"1 c #788DA4",
"2 c #7C91A7",
"3 c #7D91A7",
"4 c #7F99B3",
"5 c #8A8784",
"6 c #8D99A5",
"7 c #849EB9",
"8 c #849EBA",
"9 c #A4A19C",
"0 c #B1B1B1",
"q c #C8C7C6",
"w c #CAC8C1",
"e c #CFD6DD",
"r c #D2D0CC",
"t c #D3D2CF",
"y c #D2D1D0",
"u c #D5D4D3",
"i c #D6D5D5",
"p c #DBDAD7",
"a c #DEDBD6",
"s c #D8D8D8",
"d c #DFDEDC",
"f c #E3E2E1",
"g c #EBEBE8",
"h c #ECEBEA",
"j c gray97",
"k c #F9F8F8",
"l c None",
/* pixels */
"llllllllllllllll",
"lll   llllll   l",
"lll w  llll  0 l",
"llll g  lll s  l",
"  ll k  ll@   ll",
" r  ka  l  @llll",
"  rfds9 XO lllll",
"l     y% Xllllll",
"llllll  $   llll",
"lll   # q=  llll",
"ll >e3 l i5   ll",
"l ,e14ol  g;  ll",
" 6e<7* lll i-  l",
" e37*  lll  y& l",
" 3:*  llllll   l",
"     lllllllllll"
};
