/* XPM */
static char *save_icon[] = {
/* columns rows colors chars-per-pixel */
"16 16 83 1",
"  c black",
". c #112835",
"X c #112C3A",
"o c #132D3C",
"O c #183042",
"+ c #1A3140",
"@ c #213648",
"# c #2D3949",
"$ c #2E4353",
"% c #2F4656",
"& c #33495A",
"* c #3E4F5C",
"= c #496072",
"- c #4F6475",
"; c #59636D",
": c #54697C",
"> c gray43",
", c gray48",
"< c #586D80",
"1 c #5A7082",
"2 c #5F7989",
"3 c #6B7882",
"4 c #7D97AC",
"5 c #7E99AD",
"6 c #7F9AAE",
"7 c #C77466",
"8 c #C77467",
"9 c #C77568",
"0 c #C87668",
"q c #B7877E",
"w c #CD867A",
"e c #868686",
"r c #80868C",
"t c #80878F",
"y c #909090",
"u c #9C9D9D",
"i c #819AAE",
"p c #839EB2",
"a c #84A0B5",
"s c #86A4B9",
"d c #89A6BC",
"f c #8CA8BD",
"g c #8DA9BE",
"h c #97A5B0",
"j c #9DA9B0",
"k c #9FA9B0",
"l c gray63",
"z c #A8B1BD",
"x c #B2B2B2",
"c c #B9B9B9",
"v c gray75",
"b c #A1B6C4",
"n c #AEBFCD",
"m c #BFCBD6",
"M c #BFD5E8",
"N c #C88A80",
"B c #D18F84",
"V c #D19084",
"C c #D39186",
"Z c #C0C0C0",
"A c gray76",
"S c #C5C5C5",
"D c #CDCDCD",
"F c #CECECE",
"G c #C7CFDA",
"H c #CAD6DF",
"J c gray83",
"K c gray84",
"L c #D7D7D7",
"P c #CBDDEB",
"I c #CFE0ED",
"U c #DBE7F1",
"Y c #E6E6E6",
"T c gray92",
"R c #EEEEEE",
"E c #F1F1F1",
"W c gray95",
"Q c #F4F4F4",
"! c #F7F8FA",
"~ c #F9F9F9",
"^ c gray99",
"/ c #FEFEFE",
"( c None",
/* pixels */
"                ",
" !PNCNBBBBCNCPM ",
" Ugq77770880wg: ",
" IgL////////~p- ",
" IgLLLLLLLLLWi= ",
" IgL/////WTTWi= ",
" IgLLLLLSSSSWi= ",
" IgR//WTTTTTRi= ",
" IgnPGmmmmmmbi= ",
" Iggaiiiii44ii= ",
" IggzSSFTLu%ri= ",
" IgpSS+&LScX<h= ",
" IsiSF$<SSv.1k= ",
" 3piFY@2SAxX1k= ",
"  ;-lZyye>,#*4+ ",
"(               "
};
