/* XPM */
static char *xpm_15[] = {
/* columns rows colors chars-per-pixel */
"16 16 52 1",
"  c black",
". c #000800",
"X c #100810",
"o c #101010",
"O c #181818",
"+ c #211821",
"@ c gray13",
"# c #292129",
"$ c gray16",
"% c #313131",
"& c #393139",
"* c #393939",
"= c #423942",
"- c #4A424A",
"; c gray32",
": c #5A525A",
"> c #5A5A5A",
", c gray39",
"< c #6B636B",
"1 c gray42",
"2 c #736B73",
"3 c #7B737B",
"4 c #847B84",
"5 c magenta",
"6 c #848484",
"7 c gray55",
"8 c #948C94",
"9 c gray58",
"0 c gray61",
"q c #A59CA5",
"w c #A5A5A5",
"e c #ADA5AD",
"r c gray68",
"t c #B5ADB5",
"y c gray71",
"u c #BDB5BD",
"i c gray74",
"p c #C6BDC6",
"a c #CEC6CE",
"s c #CECECE",
"d c #D6CED6",
"f c gray84",
"g c #DED6DE",
"h c gray87",
"j c #E7DEE7",
"k c #E7E7E7",
"l c #EFE7EF",
"z c #EFEFEF",
"x c #F7EFF7",
"c c gray97",
"v c gray100",
"b c None",
/* pixels */
"bbbbbbbbbbbbbbbb",
"bbbb.$......bbbb",
"bbo%ixzlkjht%$bb",
"b 1zcxzlkjhgf,%b",
"o>vp3xzu2d*g=d>o",
".sv0=xz3-a1g+dy.",
"&vv0=xk<:aag+ds&",
"&vv0o+  :a*g+ds&",
"#xv9$uf3:a*gads#",
".qv4=xz3:a*p*d8.",
"b-haexzuep9s6p-b",
"bXO6cxzlkjhg7OXb",
"bbb&cjreww;%@bbb",
"bb r7+    bbbbbb",
"bb&& bbbbbbbbbbb",
"b  bbbbbbbbbbbbb"
};
