/* XPM */
static char *xpm_53[] = {
/* columns rows colors chars-per-pixel */
"16 16 68 1",
"  c #101010",
". c #313100",
"X c #2921CE",
"o c #2929CE",
"O c #2931C6",
"+ c #2939C6",
"@ c #3121CE",
"# c #3129C6",
"$ c #3121D6",
"% c #3921D6",
"& c #3931C6",
"* c #4221D6",
"= c #4229D6",
"- c #4A21D6",
"; c #4A21DE",
": c #4A31DE",
"> c #5231CE",
", c #5239D6",
"< c #4A52BD",
"1 c #737BAD",
"2 c #7B7BAD",
"3 c #4A42CE",
"4 c #4A42D6",
"5 c #5263CE",
"6 c #6352C6",
"7 c #6352D6",
"8 c #7363D6",
"9 c #7B63D6",
"0 c #847BC6",
"q c #947BC6",
"w c magenta",
"e c #A5A500",
"r c #CECE7B",
"t c #D6CE7B",
"y c #D6D663",
"u c #D6D67B",
"i c #8C8CAD",
"p c #9494AD",
"a c #9C9CAD",
"s c #9C94B5",
"d c #ADB594",
"f c #B5BD94",
"g c #ADB5AD",
"h c #ADBDA5",
"j c #BDB5B5",
"k c #BDC68C",
"l c #BDC6A5",
"z c #C6C68C",
"x c #CECE8C",
"c c #CED694",
"v c #CED69C",
"b c #D6D684",
"n c #DED684",
"m c #DEDE84",
"M c #C6C6A5",
"N c #DED6AD",
"B c #E7DE8C",
"V c #E7E78C",
"C c #EFE78C",
"Z c #EFEF94",
"A c #EFEF9C",
"S c #F7F794",
"D c #F7F79C",
"F c #FFFF9C",
"G c #E7E7A5",
"H c #E7EFA5",
"J c #FFFFA5",
"K c None",
/* pixels */
"KKKKKKKKKKKKKKKK",
"KKeeee KKKKKKKKK",
"KumVZDF KKKKKKKK",
"yyyyyyyyeeeeeeeK",
"tubmmBVCZNSDFFJ ",
"tubms7cCj4ADFFJ ",
"tubmz>6i9aSDFFJ ",
"tubmm,-**3q:GFJ.",
"tubx8;**%$&MFFJ.",
"tubp=**%@@<DFFJ.",
"tubmk2$@@XO5HFJ.",
"tubmm0##oOlhFFJ.",
"tubmm1df1+gDFFJ.",
"rubnmBVCZvSDFFJ.",
"...............K",
"KKKKKKKKKKKKKKKK"
};
