/* XPM */
static char *xpm_59_big[] = {
/* columns rows colors chars-per-pixel */
"32 32 58 1",
"  c black",
". c gray3",
"X c #101008",
"o c #181808",
"O c #101010",
"+ c #212110",
"@ c #292918",
"# c #313100",
"$ c #313118",
"% c gray13",
"& c #313121",
"* c #393921",
"= c #393931",
"- c #393939",
"; c #424229",
": c #4A4A31",
"> c #524A31",
", c #525231",
"< c #5A5A31",
"1 c #636339",
"2 c gray29",
"3 c gray32",
"4 c #5A5A52",
"5 c #5A5A5A",
"6 c #6B6B42",
"7 c #6B6B5A",
"8 c #7B7B52",
"9 c gray45",
"0 c magenta",
"q c #9C9C00",
"w c #84844A",
"e c #8C8C52",
"r c #94945A",
"t c #9C9C5A",
"y c #A5A563",
"u c #ADAD63",
"i c #B5B56B",
"p c #BDBD73",
"a c #CECE63",
"s c #CECE73",
"d c #CECE7B",
"f c #D6CE7B",
"g c #D6D67B",
"h c #848484",
"j c gray71",
"k c #D6D684",
"l c #DED684",
"z c #DEDE84",
"x c #E7DE84",
"c c #E7E78C",
"v c #EFE78C",
"b c #EFEF8C",
"n c #EFEF94",
"m c #F7EF94",
"M c #F7F794",
"N c #F7F79C",
"B c #FFFF9C",
"V c None",
/* pixels */
"VVVVVVVVVVVVVVVVVVVVVVVVVVVVVVVV",
"VVVVVVVVVVVVVVVVVVVVVVVVVVVVVVVV",
"VVVVVVVVVVVVVVVVVVVVVVVVVVVVVVVV",
"VVVVqqqqqqqqq.VVVVVVVVVVVVVVVVVV",
"VVVqgzzccbnMMq.VVVVVVVVVVVVVVVVV",
"VVqfglzxcvnMMBq.VVVVVVVVVVVVVVVV",
"VqsdgkzzccnnMNBq.VVVVVVVVVVVVVVV",
"qaaaaaaaaaaaaaaaqqqqqqqqqqqqqqVV",
"qdddgggkzzzzzccccbbnnmMMMNBBBB V",
"qdddgggklzzzzccccbbnn*MMMNBBBBa.",
"qdddgggkzzzzzccccbbnn*MMMNBBBBa#",
"qdddgggklzzzzccccbbnn*MMMNBBBBa#",
"qdddgggkzzzzzccccbbnn*MMMNBBBBa#",
"qdddgggklzzzpccccbbnn*MMMNBBBBa#",
"qdddgggkzzzz<icccbbnn*MMMNBBBBa#",
"qdddgggklwiz<icccbbnn*MMMNBBBBa#",
"qdddgggkz1uz<eiccbbnn*MMMNBBBBa#",
"qdddgggkl1ui@ ,ccbbnn*MMMNBBBBa#",
"qdddgggkz1@+ Xcccbbnn*MMMNBBBBa#",
"qdddgggk  @&Xicccbbny@MMMNBBBBa#",
"qdddgggk6$uz<iccc872O MMMNBBBBa#",
"qdddgggkl1uz<icc:592. MMMNBBBBa#",
"qdddgggkz1uy; ,i=j9  yMMMNBBBBa#",
"qdddgggkl1>  <r,3h% $nMMMNBBBBa#",
"qdddgggk&o $;ici4- tnmMMMNBBBBa#",
"qdddgggk&ozz&ccccbbnnnMMMNBBBBa#",
"qsddgggkl&zzzccccbbnnnMMMNBBBBa#",
"qsddgggklzzzzccccbbnnnMMMNBBBBa#",
"qaaaaaaaaaaaaaaaaaaaaaaaaaaaaaa#",
"V##############################V",
"VVVVVVVVVVVVVVVVVVVVVVVVVVVVVVVV",
"VVVVVVVVVVVVVVVVVVVVVVVVVVVVVVVV"
};
