/* XPM */
static char *xpm_6[] = {
/* columns rows colors chars-per-pixel */
"16 16 77 1",
"  c #181010",
". c #393131",
"X c #004A00",
"o c #184200",
"O c #184A18",
"+ c #185A18",
"@ c #007300",
"# c #007B00",
"$ c #106B00",
"% c #186B00",
"& c #107B10",
"* c #214A00",
"= c #294A10",
"- c #215A18",
"; c #295A10",
": c #295A29",
"> c #395239",
", c #296310",
"< c #316310",
"1 c #316B10",
"2 c #296B29",
"3 c #217321",
"4 c #297B29",
"5 c #316B31",
"6 c #397B39",
"7 c #521818",
"8 c #5A1010",
"9 c #5A2110",
"0 c #523118",
"q c #6B1800",
"w c #6B1018",
"e c #6B1810",
"r c #7B0810",
"t c #731010",
"y c #731810",
"u c #7B1018",
"i c #632110",
"p c #4A5218",
"a c #5A4239",
"s c #735210",
"d c #5A7B5A",
"f c #008400",
"g c #008C00",
"h c #009400",
"j c #009C00",
"k c #108410",
"l c #00A500",
"z c #00AD00",
"x c #00B500",
"c c #219C10",
"v c #21BD21",
"b c #739473",
"n c #8C0810",
"m c #841010",
"M c #8C1010",
"N c #940000",
"B c #941010",
"V c #9C1010",
"C c #9C1810",
"Z c #8C2100",
"A c #9C2910",
"S c #A51810",
"D c #AD2900",
"F c #A52110",
"G c #AD2110",
"H c #AD3118",
"J c #B52110",
"K c #BD2910",
"L c #BD3100",
"P c #BD3110",
"I c #844218",
"U c #A55239",
"Y c #C63900",
"T c #C63110",
"R c #D63900",
"E c magenta",
"W c None",
/* pixels */
"WWWWWWWWWWWWWWWW",
"WWWWWWW:+dWWWWWW",
"WWWWWW:xxz:WWWWW",
"WWWOzb>xx++WWWWW",
"WWWXxxllk+3#lWWW",
"WWWjrXl#X4Xal&WW",
"WARscv2lUffXj5iW",
"Wrr*f6lXYLDIffNT",
"Wrr0fXjXGTTZffPA",
"Wur7#XjgFNNN##KW",
"WAr8#Xh#NJJH#@GW",
"WWte#-XXCGSS@@SW",
"WWyy$1yyMVVV%,VW",
"WWqq;<qqMBBB$p9W",
"WWuuo<qqmnnn=WWW",
"WWWWWu 9mw.WWWWW"
};
