/* XPM */
static char *xpm_13_big[] = {
/* columns rows colors chars-per-pixel */
"32 32 34 1",
"  c black",
". c #291000",
"X c #311818",
"o c #391818",
"O c #736B73",
"+ c #525AFF",
"@ c #5A5AFF",
"# c #5A63FF",
"$ c #6363FF",
"% c #636BFF",
"& c #6B6BFF",
"* c #6B73FF",
"= c #7373FF",
"- c #737BFF",
"; c #7B7BFF",
": c #847B84",
"> c magenta",
", c #A59CA5",
"< c #B59CAD",
"1 c #BDA5B5",
"2 c #BDADBD",
"3 c #BDB5BD",
"4 c #C6ADBD",
"5 c #D6CED6",
"6 c #E7D6E7",
"7 c #E7DEE7",
"8 c #EFDEEF",
"9 c #EFE7EF",
"0 c #F7E7F7",
"q c #F7EFF7",
"w c #FFEFFF",
"e c #FFF7FF",
"r c gray100",
"t c None",
/* pixels */
"tttttttttttttttttttttttttttttttt",
"t:,,,,,,,,,,,,,,,,,,,,,,,,,,,:tt",
"t,5666777788889990000qqqqwww5,tt",
"t,3......1888997...1q7......3,tt",
"t,3......1888997...1q7......3,Ot",
"t,66677788889999000qqqqwwwwe6,Ot",
"t,66777788899990000qqqqwwwee6,Ot",
"t,3o.........197...1q7....ee6,Ot",
"t,3o.........107...1q7....ee6,Ot",
"t,6777888            ttweeee6,Ot",
"t,6778888            ttweeee6,Ot",
"t,3......  =*&&$$#@    ....o6,Ot",
"t,3......  ==&&%$$@    ....o6,Ot",
"t,6788888        $@@+  reeee6,Ot",
"t,6888888        $@@+  eeeer6,Ot",
"t,3....    ==&&%$$@@+  ...ee6,Ot",
"t,3....    ==&&%$$@@+  ...ee6,Ot",
"t,68899  ;-==    $#@+  eeeer6,Ot",
"t,68899  ;;==    $#@@  eeeer6,Ot",
"t,3....  ;;==    $#@@  .....6,Ot",
"t,3....  ;;==    $#@@  .....6,Ot",
"t,69999    ==*&&$$#@@  eerrr6,Ot",
"t,69990    ==*&&$$#@@  eerrr6,Ot",
"t,3......              ....76,Ot",
"t,3......              ....76,Ot",
"t,690000qqqqwwweeeeeeerrrrrr6,Ot",
"t,69000qqqqwwwweeeeeeerrrrrr6,Ot",
"t,3..........1e1...1e7....4r5,Ot",
"t,3..........1e<...1e7...X7r5,Ot",
"t,2qqqqqqqqqqqqrrrrrrrrrrrrr2,Ot",
"t:,,,,,,,,,,,,,,,,,,,,,,,,,,,:Ot",
"ttttOOOOOOOOOOOOOOOOOOOOOOOOOOtt"
};
