/* XPM */
static char *xpm_48[] = {
/* columns rows colors chars-per-pixel */
"16 16 43 1",
"  c #8C3910",
". c #8C3918",
"X c #943910",
"o c #9C3918",
"O c #944218",
"+ c #9C4218",
"@ c #A54A18",
"# c #B54218",
"$ c #B55218",
"% c #BD5218",
"& c #A5735A",
"* c #AD735A",
"= c #B56B4A",
"- c #B57B5A",
"; c #C64A18",
": c #CE4A18",
"> c #CE5218",
", c #D65218",
"< c #D65A18",
"1 c #DE5218",
"2 c #DE5A18",
"3 c #CE5A21",
"4 c #CE6321",
"5 c #D66321",
"6 c #DE6321",
"7 c #E76321",
"8 c #E76B21",
"9 c #EF6321",
"0 c #EF6B21",
"q c #F76B21",
"w c #F77321",
"e c magenta",
"r c #B58C7B",
"t c #ADA5AD",
"y c gray71",
"u c #BDB5BD",
"i c #C69C8C",
"p c gray84",
"a c #E7D6CE",
"s c #E7E7E7",
"d c #EFEFEF",
"f c gray100",
"g c None",
/* pixels */
"gggggggggggggggg",
"gggggggggggggggg",
"gggg....gggggggg",
"ggg.8ww05-rtttgg",
"gg.+ww>ww04idptg",
"g.0@w,X;qww$astg",
".9#+2: X;2w$aftg",
".#..XX5%Xo20=fdu",
"..ww866.O@%ww*ft",
"g.7<...@3wwww*ft",
"g.,.8w1.3www2*ft",
"gg..w2.%wqq2.&dt",
"ggg.77777..ggyyy",
"gggg.....ggggggg",
"gggggggggggggggg",
"gggggggggggggggg"
};
