/* XPM */
static char *xpm_7_big[] = {
/* columns rows colors chars-per-pixel */
"32 32 120 2",
"   c black",
".  c #292129",
"X  c gray16",
"o  c #312121",
"O  c #312921",
"+  c #312929",
"@  c #392121",
"#  c #392921",
"$  c #392929",
"%  c #00217B",
"&  c #00297B",
"*  c #18397B",
"=  c #21397B",
"-  c #186373",
";  c #21427B",
":  c #422118",
">  c #4A2110",
",  c #4A2118",
"<  c #522110",
"1  c #522918",
"2  c #5A2110",
"3  c #523118",
"4  c #5A3118",
"5  c #422921",
"6  c #4A3129",
"7  c #523921",
"8  c #4A4231",
"9  c #524229",
"0  c #6B4229",
"q  c #634231",
"w  c #634239",
"e  c #634A39",
"r  c #6B4231",
"t  c #6B4239",
"y  c #6B4A39",
"u  c #6B5242",
"i  c #635A52",
"p  c #735242",
"a  c #73524A",
"s  c #7B5A52",
"d  c #737363",
"f  c #7B736B",
"g  c #000084",
"h  c #00008C",
"j  c #000884",
"k  c #001084",
"l  c #10108C",
"z  c #182984",
"x  c #21188C",
"c  c #39318C",
"v  c #39399C",
"b  c #214284",
"n  c #294284",
"m  c #314A8C",
"M  c #394A84",
"N  c #395284",
"B  c #524A94",
"V  c #426394",
"C  c #5A6B8C",
"Z  c #526B94",
"A  c #527B8C",
"S  c #636394",
"D  c #63639C",
"F  c #637B8C",
"G  c #736B94",
"H  c #7B7384",
"J  c #52848C",
"K  c #5A8494",
"L  c #5A8C94",
"P  c #7B8CB5",
"I  c #84735A",
"U  c #84736B",
"Y  c #947B7B",
"T  c #847B84",
"R  c #847B9C",
"E  c magenta",
"W  c #8C8C7B",
"Q  c #948C7B",
"!  c #84848C",
"~  c #8C8494",
"^  c #8C849C",
"/  c #8C8C9C",
"(  c #8C948C",
")  c #948C8C",
"_  c #949484",
"`  c #9C948C",
"'  c #94949C",
"]  c #949C94",
"[  c #9C9494",
"{  c #9C9C94",
"}  c gray61",
"|  c #8C8CAD",
" . c #848CBD",
".. c #9494A5",
"X. c #949CA5",
"o. c #9CA59C",
"O. c #8CADB5",
"+. c #9CA5A5",
"@. c #9CADA5",
"#. c #A59C9C",
"$. c #A59CA5",
"%. c #A5A59C",
"&. c #A5A5A5",
"*. c #A5ADA5",
"=. c #A5ADAD",
"-. c #ADA5AD",
";. c gray68",
":. c #ADADB5",
">. c #A5B5AD",
",. c #A5B5B5",
"<. c #ADB5B5",
"1. c #ADB5BD",
"2. c #ADBDBD",
"3. c #B5BDC6",
"4. c #ADC6BD",
"5. c #ADC6C6",
"6. c #B5C6C6",
"7. c #B5C6CE",
"8. c #B5CECE",
"9. c None",
/* pixels */
"9.9.9.9.9.9.9.9.9.9.9.9.9.9.9.9.9.9.9.9.9.9.9.9.9.9.9.9.9.9.9.9.",
"9.9.9.9.9.9.9.9.9.9.9.9.9.9.9.9.9.9.9.9.9.9.9.9.9.9.9.9.9.9.9.9.",
"9.9.9.9.9.9.9.9.9.9.9.9.9.9.9.9.9.9.9.9.9.9.9.9.9.9.9.9.9.9.9.9.",
"9.9.9.9.9.9.9.2.6.6.6.6.8.7.( 9.9.9.9.9.9.9.9.9.9.9.9.9.9.9.9.9.",
"9.9.9.9.9.9.{ 8.8.8.8.8.8.8.+.f 9.9.9.9.Q _ _ W 9.9.9.9.9.9.9.9.",
"9.9.9.9.9.{ :.8.8.8.8.8.8.8.2.-.#.9.9.%.6.8.8.2.` I 5.9.9.9.9.9.",
"9.9.9.9.9.{ 3.;.;.8.8.8.<.D B -.$.H 4.6.8.8.8.8.6.2.;.#.9.9.9.9.",
"9.9.9.9.{ o.6.<.<.8.2.2.D l k N ' ..2.8.3.6.6.6.8.7.<.<.Q 9.9.9.",
"9.9.9.9.{ 8.8.8.8.8.;.-.v h % & ! 8.-.7.;.3.1.<.8.8.8.8.8.i 3 9.",
"9.9.9.9.{ 3.;.:.8.8.6.6.| x j C ! 8.6.8.6.8.7.2.;.;.;.8.;.q @ 9.",
"9.9.9.9.*.6.<.<.8.3.3.3.:.^ G / X.3.3.8.6.3.6.3.<.<.<.8.<.0 o 9.",
"9.9.9.o.8.8.8.8.8.-.-.-.-.-.' / 6.-.-.7.;.-.2.8.8.8.8.8.8.r o 9.",
"9.9.9.o.2.;.<.8.8.6.6.Z b ; = * 8.6.6.8.6.6.1.;.;.<.8.8.y $ 9.9.",
"9.9.9.=.2.<.1.8.3.3.8.V k j j j 6.8.3.3.7.8.2.<.<.<.8.3.4 o 9.9.",
"9.9.>.8.8.8.8.6.-.-.7.:.m k g h ;.8.-.-.6.8.8.8.8.8.8.-.. o 9.9.",
"9.9.>.2.:.:.<.8.6.6.<.-.-.n j h 6.8.6.6.8.8.2.:.1.8.8.6.. 9.9.9.",
"9.9.<.2.:.:.<.6.6.6.;.-.$.n j h 8.6.6.6.8.8.2.:.1.5.@.. . 9.9.9.",
"9.2.8.8.8.8.6.-.-.-.-.-.~ ; j h 6.-.-.-.6.8.8.8.8.,.{ . 9.9.9.9.",
"9.2.1.<.<.2.7.3.3.-.-.-.~ ; j h 8.3.3.3.7.2.<.2.6.{ 1 . 9.9.9.9.",
"9.4.<.;.;.<.6.6.6.-.-.R S z j h P  .O.8.8.1.;.2.6.} q . 9.9.9.9.",
"2.8.8.8.8.2.-.-.-.-.-.c h h h h h j - 7.8.8.8.8.8.{ 8 9.9.9.9.9.",
"<.<.<.<.<.;.-.-.-.-.-.M % % % % % & L 8.1.<.3.+.{ d 8 9.9.9.9.9.",
"[ [ [ [ [ [ } -.-.-.$.F A J J J J K 8.8.<.;.2.] { 9 8 9.9.9.9.9.",
"2 2 2 2 2 2 t -.-.-.T } -.-.-.-.-.-.8.8.8.8.8.2.Y > . 9.9.9.9.9.",
"7 7 5 @ @ @ 6 a a a w p a #.#.#.-.-.<.<.<.6.2.) e # 9.9.9.9.9.9.",
"9.9.9.X X X O < < < < < < 2 8 #.#.#.#.#.&.2.<.U , X 9.9.9.9.9.9.",
"9.9.9.9.9.9.9.. . . . . : 2 2 2 2 2 2 2 ) -.-.U , X 9.9.9.9.9.9.",
"9.9.9.9.9.9.9.9.9.9.9.9.# . . . . . @ @ u s s w # 9.9.9.9.9.9.9.",
"9.9.9.9.9.9.9.9.9.9.9.9.9.9.9.9.        > < < : + 9.9.9.9.9.9.9.",
"9.9.9.9.9.9.9.9.9.9.9.9.9.9.9.9.9.9.9.9.+ . . . 9.9.9.9.9.9.9.9.",
"9.9.9.9.9.9.9.9.9.9.9.9.9.9.9.9.9.9.9.9.9.9.9.9.9.9.9.9.9.9.9.9.",
"9.9.9.9.9.9.9.9.9.9.9.9.9.9.9.9.9.9.9.9.9.9.9.9.9.9.9.9.9.9.9.9."
};
