/* XPM */
static char *xpm_49_big[] = {
/* columns rows colors chars-per-pixel */
"32 32 21 1",
"  c black",
". c gray3",
"X c #101010",
"o c gray13",
"O c gray16",
"+ c #313131",
"@ c gray26",
"# c gray29",
"$ c gray32",
"% c gray42",
"& c magenta",
"* c #848484",
"= c gray58",
"- c gray68",
"; c gray71",
": c #CECECE",
"> c gray84",
", c #E7E7E7",
"< c #EFEFEF",
"1 c gray100",
"2 c None",
/* pixels */
"22222222222222222222222222222222",
"22222222222222222222222222222222",
"222+o@@@Oo222222222222o@@@@ 2222",
"2222O,111+ o222222222O,111$  222",
"22222+111<X  2222222+:111-  o222",
"22222%*111;  o22222%=111>X  2222",
"222222O>111%  $2222#111<o  22222",
"2222222o<11<O  222@<111#  $22222",
"22222222$111>  X2@>111*  O222222",
"22222222+;111=  .-111:  X2222222",
"222222222O,111+ %111,X  22222222",
"2222222222+111<#1111O  222222222",
"2222222222%*1111111$  #222222222",
"22222222222O>11111-  o2222222222",
"222222222222+<111>X X22222222222",
"222222222222$1111>  X22222222222",
"22222222222@<11111=  +2222222222",
"2222222222@>1111111+  2222222222",
"222222222#;111;+111<X  222222222",
"222222222%111,X *111;  o22222222",
"22222222+111<O  .>111%  #2222222",
"2222222O<111$  #2+<11<O  2222222",
"222222O>111-  O222$111>   222222",
"22222$=111>  X2222#;111=  O22222",
"22222$111<o  222222O,111+  22222",
"2222@<111+  22222222+111<X  2222",
"222+>111%  O22222222%*111;  o222",
"22#o@@@@  X2222222222O@@@@X  #22",
"222       222222222222o       22",
"2222@@@@@22222222222222@@@@@@@$2",
"22222222222222222222222222222222",
"22222222222222222222222222222222"
};
