/* XPM */
static char *xpm_44_big[] = {
/* columns rows colors chars-per-pixel */
"32 32 25 1",
"  c #211000",
". c #291810",
"X c #311810",
"o c gray42",
"O c #7B7B7B",
"+ c magenta",
"@ c gray61",
"# c #AD9CA5",
"$ c #B5A5AD",
"% c #B5ADB5",
"& c #BDADB5",
"* c gray71",
"= c #CECEC6",
"- c #CECECE",
"; c #DED6DE",
": c gray87",
"> c #E7DEE7",
", c #E7E7E7",
"< c #EFE7EF",
"1 c #EFEFEF",
"2 c #F7EFF7",
"3 c gray97",
"4 c #FFF7FF",
"5 c gray100",
"6 c None",
/* pixels */
"66666666666666666666666666666666",
"6O@@@@@@@@@@@@@@@@@@@@@@@@@@@O66",
"6@-;;;::::>>>>,,,<<<<1111222-@66",
"6@*      $>>>,,:   $1:      *@66",
"6@*      $>>>,,:   $1:      *@o6",
"6@;;;:::>>>>,,,,<<<111122223;@o6",
"6@;;::::>>>,,,,<<<<111122233;@o6",
"6@*X         $,:   $1:    33;@o6",
"6@*X         $<:   $1:    33;@o6",
"6@;:::>>>>,,,<<<<11112223333;@o6",
"6@;::>>>>,,,,<<<111122223333;@o6",
"6@*        $<<<:   $2:     X;@o6",
"6@*        $<<<:   $2:     X;@o6",
"6@;:>>>>,,,<<<<1111222353344;@o6",
"6@;>>>>,,,,<<<11112222333445;@o6",
"6@*          $1:   $2:    44;@o6",
"6@*          $1:   $2:    44;@o6",
"6@;>>,,,,<<<<111222233334445;@o6",
"6@;>>,,,<<<<1111222333344445;@o6",
"6@*      $<1111:   $3:      ;@o6",
"6@*      $<1111:   $3:      ;@o6",
"6@;,,,,<<<111122223334444555;@o6",
"6@;,,,<<<<111122233334444555;@o6",
"6@*          $2=   $4:     :;@o6",
"6@*          $2: . $4:     :;@o6",
"6@;,<<<<11112223333444555555;@o6",
"6@;,<<<111122223333444555555;@o6",
"6@*          $3$   $4:    &5-@o6",
"6@*          $3#   $4:   .:5-@o6",
"6@%1111111111115555555555555%@o6",
"6O@@@@@@@@@@@@@@@@@@@@@@@@@@@Oo6",
"6666oooooooooooooooooooooooooo66"
};
