/* XPM */
static char *xpm_41[] = {
/* columns rows colors chars-per-pixel */
"16 16 43 1",
"  c #392118",
". c #212129",
"X c #292121",
"o c #292129",
"O c gray16",
"+ c #4A2108",
"@ c #4A2110",
"# c #522108",
"$ c #423929",
"% c #5A4239",
"& c #634229",
"* c #634231",
"= c #735A4A",
"- c #7B6B4A",
"; c #7B735A",
": c #737363",
"> c #846B63",
", c #847B6B",
"< c #847B8C",
"1 c magenta",
"2 c #848C94",
"3 c #8C8C94",
"4 c #8C949C",
"5 c #94949C",
"6 c #9C9494",
"7 c #9C9C94",
"8 c gray61",
"9 c #949CA5",
"0 c #9C9CA5",
"q c #94A59C",
"w c #9CA594",
"e c #94A5A5",
"r c #9CA5AD",
"t c #9CB5AD",
"y c #A5A5A5",
"u c #A5ADA5",
"i c #A5ADAD",
"p c #ADB5B5",
"a c #ADBDB5",
"s c #ADBDBD",
"d c #ADC6C6",
"f c #B5CECE",
"g c None",
/* pixels */
"gggggggggggggggg",
"gggddddggggggggg",
"gg,ffffyg8fs;ggg",
"ggwpfsy04ddddpgg",
"g-sifdy5dddsif&g",
"gwffyyy2ydyfff*g",
"guidsi89dsfip.Xg",
"gpidsy3ddsfif.gg",
"affyyyeiyyfft.gg",
"sipdy8rdddpp7.gg",
"ppiyy<dssdpq:$gg",
"###yy8yyyffs@ggg",
"goo+++#666s>Oggg",
"gggggg... =%gggg",
"gggggggggg..gggg",
"gggggggggggggggg"
};
