/* XPM */
static char *xpm_24_big[] = {
/* columns rows colors chars-per-pixel */
"32 32 25 1",
"  c black",
". c gray3",
"X c #101010",
"o c #181818",
"O c gray13",
"+ c gray16",
"@ c #313131",
"# c #393939",
"$ c gray26",
"% c gray29",
"& c gray32",
"* c #5A5A5A",
"= c gray39",
"- c gray42",
"; c gray45",
": c #7B7B7B",
"> c magenta",
", c #848484",
"< c gray55",
"1 c gray58",
"2 c gray61",
"3 c #A5A5A5",
"4 c #C6C6C6",
"5 c #E7E7E7",
"6 c None",
/* pixels */
"66666666666666666666666666666666",
"66XXXXXXXXXXXXXXXXXXXXXXX6666666",
"66.66o33333222222111111@*X666666",
"66.66o3333222222111111<@*-X66666",
"66 66o332222222111111<<@&==.6666",
"66   o32222222111111<<<#OX.. 666",
"66   o222222211111 <<<<<<o   666",
"66 oXo222222111111 <<<<<,oXo ;66",
"66.66o22222111111< <<<<,,o66.;66",
"66.66o2221111111<< <<<,,,o66o;66",
"66 66o22111111<<<< <<,,,,o66X;66",
"66   o2111111<<<<< <,,,,,o   ;66",
"66   o111111<<<<<< ,,,,,,o   ;66",
"66 @+o11111<<<<<<, ,,,,,:o+@ ;66",
"66.66o1111<<<<<<,, ,,,,::o66X;66",
"66.66o111<<<<<<,,, ,,,:::o66o;66",
"66 66o11<<<<<<,,,, ,,::::o66.;66",
"66   o1<<<<<<,,,,, ::::::o   ;66",
"66   o<<<<<<,,&&   ::::::o   ;66",
"66 %$o<<<<<, &&&&  ::::;;o$% ;66",
"66.66o<<<<, &,:&   :::;;;X66X;66",
"66.66o<<<,, 25=   :::;;;;X66o;66",
"66 66X<<,, &4,    ::;;;;;X66 ;66",
"66   X<,,, &==   ::;;;;;;X   ;66",
"66    ,,,,,&&  :::;;;;;;-    ;66",
"66   X,,,,,::::::;;;;;;--X   ;66",
"66 66X,,,,::::::;;;;;;---X66.;66",
"66.66X,,,::::::;;;;;;----X66X;66",
"66.66X,,::::::;;;;;;-----X66o;66",
"66 .XX,::::::;;;;;;------X.X ;66",
"66                           ;66",
"6666,,,,,,,,,,,,,,,,,,,,,,,,,,66"
};
