/* XPM */
static char *xpm_43[] = {
/* columns rows colors chars-per-pixel */
"16 16 42 1",
"  c #6B0000",
". c #7B2129",
"X c #840000",
"o c #8C0000",
"O c #8C0800",
"+ c #8C1010",
"@ c #940800",
"# c #9C0800",
"$ c #8C3939",
"% c #9C2929",
"& c #A50800",
"* c #AD1000",
"= c #B50800",
"- c #BD0800",
"; c #BD1000",
": c #C61000",
"> c #CE1000",
", c #D61000",
"< c #D61800",
"1 c #DE1800",
"2 c #CE2918",
"3 c #DE2110",
"4 c #DE2918",
"5 c #DE3931",
"6 c #D64239",
"7 c #DE4231",
"8 c #DE4239",
"9 c #E74231",
"0 c #D64242",
"q c #DE4A42",
"w c #DE5242",
"e c #DE5252",
"r c #E75A4A",
"t c #E7635A",
"y c #E76B5A",
"u c #E7736B",
"i c #EF736B",
"p c #E77B7B",
"a c magenta",
"s c #E78473",
"d c #E7847B",
"f c None",
/* pixels */
"ffffffffffffffff",
"ffffffffffffffff",
"fffffffffy39ffff",
"fffffqtf75:=;*ff",
"fffff414e4>=##pf",
"ffff91>>11-&;51f",
"ffff11:====o03<f",
"ffff1<=XOO+%s1:f",
"fffi1<o#2udrw>=f",
"fff8>#@4q11>===f",
"fff:&O<11<,-==@f",
"ff6o#:::::===& f",
"fffffff. o@X $ff",
"ffffffffffffffff",
"ffffffffffffffff",
"ffffffffffffffff"
};
