/* XPM */
static char *xpm_48_big[] = {
/* columns rows colors chars-per-pixel */
"32 32 55 1",
"  c #8C3910",
". c #8C3918",
"X c #943910",
"o c #9C3910",
"O c #A53910",
"+ c #944218",
"@ c #9C4218",
"# c #8C4221",
"$ c #944A29",
"% c #9C5239",
"& c #A54A18",
"* c #AD4210",
"= c #AD4A18",
"- c #B54218",
"; c #BD4210",
": c #B55218",
"> c #BD5218",
", c #BD5A18",
"< c #BD5A21",
"1 c #BD5A29",
"2 c #BD6329",
"3 c #94736B",
"4 c #C64210",
"5 c #C64A18",
"6 c #CE4210",
"7 c #CE5218",
"8 c #D64A18",
"9 c #D65218",
"0 c #DE5218",
"q c #DE5A18",
"w c #C65A21",
"e c #CE5A21",
"r c #D66321",
"t c #DE6321",
"y c #E75A18",
"u c #E75A21",
"i c #E76321",
"p c #E76B21",
"a c #EF6321",
"s c #EF6B21",
"d c #EF7321",
"f c #F76B21",
"g c #F77321",
"h c magenta",
"j c #948C94",
"k c #9C949C",
"l c #BD9C84",
"z c #CEAD9C",
"x c #CEB5A5",
"c c #C6BDC6",
"v c #DED6C6",
"b c #E7D6CE",
"n c gray97",
"m c gray100",
"M c None",
/* pixels */
"MMMMMMMMMMMMMMMMMMMMMMMMMMMMMMMM",
"MMMMMMMMMMMMMMMMMMMMMMMMMMMMMMMM",
"MMMMMMMMMMMMMMMMMMMMMMMMMMMMMMMM",
"MMMMMMMMMMMMMMMMMMMMMMMMMMMMMMMM",
"MMMMMMMMM%.....MMMMMMMMMMMMMMMMM",
"MMMMMMMM.pggggg&.MMMMMMMMMMMMMMM",
"MMMMMMM.,dggggge,,MMMMMMMMMMMMMM",
"MMMMMM$:gggggggggg&..3jjjjjMMMMM",
"MMMM...:gggg89ggggggg=%mmmmckMMM",
"MMM<,,.:ggsq--qfgggggr2lbmmckMMM",
"M..ggg+:ggi4Xo4sggggggp.xmmckMMM",
".>ggu4 :ggi4X..;8gggggp.xmmmnjMM",
".>gy5O =qq94X..o-qqiggp.xmmmnjMM",
".>g6*..O4444X...X448ggp.xmmmnjMM",
".O4 :g+.....pgg&...X4igg:$mmmmjM",
".XO>rgw,,,,,sfq@... Otggr1lvmmjM",
"...gggggggggga4X.....rgggs.zmmjM",
"MM.ggggi4X......&ggggggggs.zmmjM",
"MM.gsqq7O>,,,,,+&ggggggggs.zmmjM",
"MM.gu44*.pggggg&&ggggggggs.zmmjM",
"MM.gu4 :gggg844X&ggggggg04.zmmjM",
"MMM<54 :ggsq-OO>eggggggq84.zmmjM",
"MMM#O4 :ggi4X..tggggggf444.zmmjM",
"MMMMM..:gggggggggg9444;..MjjjjjM",
"MMMMMM#=qqqqqqqqqq-OOMMMMMMMMMMM",
"MMMMMM$O4444444444oMMMMMMMMMMMMM",
"MMMMMMMM..........MMMMMMMMMMMMMM",
"MMMMMMMMMMMMMMMMMMMMMMMMMMMMMMMM",
"MMMMMMMMMMMMMMMMMMMMMMMMMMMMMMMM",
"MMMMMMMMMMMMMMMMMMMMMMMMMMMMMMMM",
"MMMMMMMMMMMMMMMMMMMMMMMMMMMMMMMM",
"MMMMMMMMMMMMMMMMMMMMMMMMMMMMMMMM"
};
