/* XPM */
static char *xpm_47_big[] = {
/* columns rows colors chars-per-pixel */
"32 32 11 1",
"  c #8C0000",
". c #940000",
"X c #9C0000",
"o c #A50000",
"O c #AD0000",
"+ c #B50000",
"@ c #BD0000",
"# c #C60000",
"$ c #CE0000",
"% c magenta",
"& c None",
/* pixels */
"&&&&&&&&&&&&&&&&&&&&&&&&&&&&&&&&",
"&&&&&&&&&&&....XXXXo.&&&&&&&&&&&",
"&&&&&&&&  ....XXXXooooO&&&&&&&&&",
"&&&&&&&  ....XXXXooooOOOO&&&&&&&",
"&&&&&&   ...XXXXooooOOOO++&&&&&&",
"&&&&&   ....XXXXooooOOOO++&&&&&&",
"&&&&   ....XXXXooooOOOO++++&&&&&",
"&&&&  ....XX&&&&&oOOOO++++@&&&&&",
"&&&&&....XX&&&&&&&&OO++++@@&&&&&",
"&&&&&&..X&&&&&&&&&&O++++@@@&&&&&",
"&&&&&&&&&&&&&&&&&&&++++@@@@&&&&&",
"&&&&&&&&&&&&&&&&&&&++++@@@@&&&&&",
"&&&&&&&&&&&&&&&&&&++++@@@@#&&&&&",
"&&&&&&&&&&&&&&&&&++++@@@@#&&&&&&",
"&&&&&&&&&&&&&&&O++++@@@@##&&&&&&",
"&&&&&&&&&&&&&OO++++@@@@##&&&&&&&",
"&&&&&&&&&&&OOO++++@@@@##&&&&&&&&",
"&&&&&&&&&&&OOO++++@@@@&&&&&&&&&&",
"&&&&&&&&&&&OO++++&&&&&&&&&&&&&&&",
"&&&&&&&&&&&O++++@&&&&&&&&&&&&&&&",
"&&&&&&&&&&&++++@&&&&&&&&&&&&&&&&",
"&&&&&&&&&&&&++@@&&&&&&&&&&&&&&&&",
"&&&&&&&&&&&&+@@@&&&&&&&&&&&&&&&&",
"&&&&&&&&&&&&&&&&&&&&&&&&&&&&&&&&",
"&&&&&&&&&&&&&&&&&&&&&&&&&&&&&&&&",
"&&&&&&&&&&&&&&&&&&&&&&&&&&&&&&&&",
"&&&&&&&&&&&&@@##&&&&&&&&&&&&&&&&",
"&&&&&&&&&&@@@####$&&&&&&&&&&&&&&",
"&&&&&&&&&&@@#####$&&&&&&&&&&&&&&",
"&&&&&&&&&&@@####$$&&&&&&&&&&&&&&",
"&&&&&&&&&&&####$$&&&&&&&&&&&&&&&",
"&&&&&&&&&&&&&&&&&&&&&&&&&&&&&&&&"
};
