/* XPM */
static char *xpm_40_big[] = {
/* columns rows colors chars-per-pixel */
"32 32 257 2",
"   c black",
".  c #000800",
"X  c #000010",
"o  c #100810",
"O  c #181018",
"+  c #181818",
"@  c #000021",
"#  c #000029",
"$  c #000031",
"%  c #000039",
"&  c #000839",
"*  c #001829",
"=  c #001031",
"-  c #001831",
";  c #101831",
":  c #002918",
">  c #003900",
",  c #003910",
"<  c #003918",
"1  c #002121",
"2  c #002129",
"3  c #002929",
"4  c #002139",
"5  c #002931",
"6  c #003129",
"7  c #102129",
"8  c #103921",
"9  c #290831",
"0  c #312118",
"q  c #292129",
"w  c #292131",
"e  c #292931",
"r  c #312131",
"t  c #392931",
"y  c #393333",
"u  c #000042",
"i  c #00004A",
"p  c #000052",
"a  c #00005A",
"s  c #000852",
"d  c #001842",
"f  c #001852",
"g  c #181852",
"h  c #000063",
"j  c #00006B",
"k  c #000863",
"l  c #00086B",
"z  c #000073",
"x  c #00007B",
"c  c #000873",
"v  c #001063",
"b  c #180863",
"n  c #18086B",
"m  c #101863",
"M  c #313152",
"N  c #393152",
"B  c #004200",
"V  c #104A00",
"C  c #184A00",
"Z  c #185200",
"A  c #185210",
"S  c #214A10",
"D  c #294A10",
"F  c #215200",
"G  c #215A00",
"H  c #295A00",
"J  c #295A18",
"K  c #315210",
"L  c #395A10",
"P  c #295221",
"I  c #314A29",
"U  c #316300",
"Y  c #396B00",
"T  c #396329",
"R  c #396331",
"E  c #4A0000",
"W  c #420810",
"Q  c #421010",
"!  c #520000",
"~  c #5A0800",
"^  c #521000",
"/  c #521018",
"(  c #5A1810",
")  c #4A1031",
"_  c #522110",
"`  c #5A2118",
"'  c #522121",
"]  c #4A3939",
"[  c #630000",
"{  c #6B0000",
"}  c #6B0800",
"|  c #631818",
" . c #6B1810",
".. c #730000",
"X. c #7B0000",
"o. c #7B0800",
"O. c #731000",
"+. c #731010",
"@. c #7B1810",
"#. c #632100",
"$. c #7B3910",
"%. c #6B3121",
"&. c #42395A",
"*. c #733942",
"=. c #425A00",
"-. c #4A5200",
";. c #525200",
":. c #4A5229",
">. c #525221",
",. c #426B00",
"<. c #4A6B00",
"1. c #4A7B18",
"2. c #5A6B10",
"3. c #426B29",
"4. c #426339",
"5. c #4A7B29",
"6. c #5A6321",
"7. c #527B21",
"8. c #634A00",
"9. c #6B5A29",
"0. c #635A31",
"q. c #7B4A31",
"w. c #736321",
"e. c #737329",
"r. c #7B7331",
"t. c gray26",
"y. c #52424A",
"u. c #565656",
"i. c #73424A",
"p. c #676767",
"a. c #736B73",
"s. c #7B737B",
"d. c #7B738C",
"f. c #5A8421",
"g. c #6B8C42",
"h. c #638452",
"j. c #73944A",
"k. c #840000",
"l. c #840800",
"z. c #8C0800",
"x. c #940800",
"c. c #9C0800",
"v. c #941000",
"b. c #941800",
"n. c #941010",
"m. c #8C2900",
"M. c #843118",
"N. c #8C3118",
"B. c #942110",
"V. c #842929",
"C. c #943921",
"Z. c #A50800",
"A. c #AD0800",
"S. c #B50800",
"D. c #BD1000",
"F. c #BD1010",
"G. c #BD1818",
"H. c #BD2921",
"J. c #8C3942",
"K. c #9C4A18",
"L. c #844229",
"P. c #8C4239",
"I. c #9C4221",
"U. c #9C5A29",
"Y. c #945231",
"T. c #AD4239",
"R. c #AD4A39",
"E. c #A55229",
"W. c #AD5229",
"Q. c #A55231",
"!. c #BD4A29",
"~. c #B54239",
"^. c #B95A39",
"/. c #A56339",
"(. c #BD6335",
"). c #884646",
"_. c #845A4A",
"`. c #9C5A5A",
"'. c #9C6352",
"]. c #94735A",
"[. c #847B63",
"{. c #A55A4A",
"}. c #B54A4A",
"|. c #B55A4A",
" X c #A55A63",
".X c #A56B42",
"XX c #A56B52",
"oX c #A5734A",
"OX c #A9775A",
"+X c #B57B4A",
"@X c #AD6B6B",
"#X c #AD7373",
"$X c #BD736B",
"%X c #C62118",
"&X c #D63931",
"*X c #CE4A42",
"=X c #CE5242",
"-X c #D65A5A",
";X c #C66B42",
":X c #C6734A",
">X c #C67356",
",X c #D66B4A",
"<X c #DE6B52",
"1X c #DE734A",
"2X c #CE7363",
"3X c #D66767",
"4X c #D8756B",
"5X c #D67B73",
"6X c #E75A52",
"7X c #EF635A",
"8X c #E7735A",
"9X c #E77B5A",
"0X c #EF7352",
"qX c #E77363",
"wX c #F77363",
"eX c #F77B6B",
"rX c #FF7B63",
"tX c #FF7B6B",
"yX c #947394",
"uX c #8C73A5",
"iX c magenta",
"pX c #948C5A",
"aX c #8CA57B",
"sX c #94AD7B",
"dX c #B5844A",
"fX c #AD8463",
"gX c #A58473",
"hX c #B5946B",
"jX c #B5947B",
"kX c #CE847B",
"lX c #DA8473",
"zX c #E78463",
"xX c #EF846B",
"cX c #FF846B",
"vX c #FF8473",
"bX c #FF8C7B",
"nX c #8C848C",
"mX c #8C948C",
"MX c #9C8484",
"NX c #948C94",
"BX c #8484AD",
"VX c #A58484",
"CX c #BD8C8C",
"ZX c #BD9888",
"AX c #BD9C94",
"SX c #BDA594",
"DX c #BDADAD",
"FX c #C69C84",
"GX c #CE9494",
"HX c #DAAD88",
"JX c #DEA594",
"KX c #CEB5AD",
"LX c #EF948C",
"PX c #E79494",
"IX c #FF9484",
"UX c #FF9C8C",
"YX c None",
/* pixels */
"YXYXYXYXYXYXYXYXYXYXYXYXYXYXYXYXYXYXYXYXYXYXYXYXYXYXYXYXYXYXYXYX",
"YXYXYXYXYX4XD.D.D.....{ @XYXYXYXYXYXYXYXYXYXYXYXYXYXYXYXYXYXYXYX",
"YXYXYXYXPXD.D.D.D.D.A...{ #XYXYXYXYXYXYXYXYXYXYXYXYXYXYXYXYXYXYX",
"YXYXYXYX3XD.D.D.D.D.S.z.{ [ VXYXYXYXYXYXYXYXYXYXYXYXYXYXYXYXYXYX",
"YXYXYXYXD.Z.H.&XF.x.x.B.X.{ | YXYXYXYXYXYXYXYXYXYXYXYXYXYXYXYXYX",
"YXYXYXYX-Xz.=XcX6X~.R.!.x.{ { YXYXYXYXYXYX*XD.D.l...J.YXYXYXYXYX",
"YXYXYXYXGX..=XbXIXwX2XW.b.k.} YXYXYXYXYXYXD.D.D.D.Z.{ ).YXYXYXYX",
"YXYXYXYXYX X}.eXtX4XLXFXK.O.CXYXYXYXYXYXG.A.%XF.Z.n...{ MXYXYXYX",
"YXYXYXYXYXJX(.KX:X:XDX].gXZXYXYXYXYXYXYX3Xl.rX7XT.^.c.{ `.YXYXYX",
"YXYXYXYXYXYX9XbX5X;XkXSXU.YXYXYXYXYXYXYXYX+.eXbXqX>Xm.o.#XYXYXYX",
"YXYXYXYXYXYXYXbXbX0X(.$.jXYXYXYXYXYXYXYXYX$X4XzXlXZXOX'.YXYXYXYX",
"YXYXYXYXYXYXYXYXrX,X<X/.YXYXYXYXYXYXYXYXYXHXxXlX>XAX.XYXYXYXYXYX",
"YXYXYXYXYXYXYXYXdX^.Y.pXYXYXYXYXYXYXYXYXYXYXUXvX1XE.OXYXYXYXYXYX",
"YXYXYXYXYXYXsXBXJ ;.-.4.mXaXYXYXYXYXYXYXYXYXYXIX8XQ.YXYXYXYXYXYX",
"YXYXYXYXYX3.U m , <.w.: 7 H g.YXYXYXYXYXYXYXYXh.8.U YXYXYXYXYXYX",
"YXYXYXYXf.Y Z v , ,.D : 2 H G R YXYXYXYXYXT I 3 2.K ; H YXYXYXYX",
"YXYXYXYXH H Z v c l l k 2 B B U 7.YXYXYX1.Y 6 4 P 8 - H A YXYXYX",
"YXYXYXZ Y F B v x x j i i 1 H V B YXYXYXY H 3 x x j & , G H YXYX",
"YXYXY V B B < k x z i i i 1 B V C YXYXJ V B 5 x j i i : V V YXYX",
"YXYXj.L >.D f x x z i i i - > 6.e.YXYX5.9.S x x j i i * K r.YXYX",
"YXYXYX[.|.0.d h h h i i i i : XX).YXYXYXP.:.p p p i i i :.*.YXYX",
"YXYXYXYX' t s i h h i a i i = hXq YXYXYXQ 9 j j z z i i N y.YXYX",
"YXYXYXYX( ) j p z x j j i i i &.w YXYXYXyXb j j z z i i i d.YXYX",
"YXYXYXYXuXn x p z z a j i i i i YXYXYXYXYXz j j j i p i i YXYXYX",
"YXYXYXYXYXx x p z z i i i i i i YXYXYXYXYXp a a p # % @ M YXYXYX",
"YXYXYXYXYXh z z z z h p a u u g YXYXYXYXYXX X X e q q O s.YXYXYX",
"YXYXYXYXYX% % % % # o o o .   YXYXYXYXYXYX` + u.YXy y NXYXYXYXYX",
"YXYXYXYXYX        u.q q q + t.YXYXYXYXYXYXM.q.YXYXa.%.dXYXYXYXYX",
"YXYXYXYXYX_ 0 + p.YXp.+ I nXYXYXYXYXYXYX .I.! YXYXE E E fXYXYXYX",
"YXYXYXYXYXC.L.] YXYXYXt _.HXYXYXYXYXYXYXYXYXYXYXYXYXYXYXYXYXYXYX",
"YXYXYXYX{.W.N./ YXYXi.W ( #.oXYXYXYXYXYXYXYXYXYXYXYXYXYXYXYXYXYX",
"YXYXYXV.} @.~ E YXYXE E E E ^ YXYXYXYXYXYXYXYXYXYXYXYXYXYXYXYXYX"
};
