/* XPM */
static char *xpm_21[] = {
/* columns rows colors chars-per-pixel */
"16 16 78 1",
"  c #633129",
". c #6B3121",
"X c #733921",
"o c #7B4229",
"O c #7B4231",
"+ c #7B4A31",
"@ c #7B4A39",
"# c #736363",
"$ c #736B6B",
"% c #8C0000",
"& c #940000",
"* c #9C0000",
"= c #A50000",
"- c #AD0000",
"; c #B50000",
": c #BD0000",
"> c #844229",
", c #844A29",
"< c #8C4A29",
"1 c #844A39",
"2 c #8C4A31",
"3 c #944A31",
"4 c #945231",
"5 c #9C5A31",
"6 c #9C5A39",
"7 c #A55A39",
"8 c #AD6339",
"9 c #945A42",
"0 c #945A4A",
"q c #8C6352",
"w c #9C634A",
"e c #846363",
"r c #8C6B63",
"t c #847373",
"y c #8C7B7B",
"u c #94736B",
"i c #947B73",
"p c #A56342",
"a c #AD6342",
"s c #AD6B42",
"d c #AD735A",
"f c #B56342",
"g c #B56B42",
"h c #B56B4A",
"j c #B57352",
"k c #BD7352",
"l c #A57B6B",
"z c #AD7B6B",
"x c #C60000",
"c c #CE7B4A",
"v c #C67352",
"b c #C67B52",
"n c #CE7B52",
"m c #D67B52",
"M c magenta",
"N c #AD846B",
"B c #A5847B",
"V c #B58473",
"C c #CE845A",
"Z c #D6845A",
"A c #948C84",
"S c #9C8C84",
"D c #9C8C8C",
"F c #9C948C",
"G c #A58484",
"H c #AD8C84",
"J c #A5948C",
"K c #AD948C",
"L c #AD9C8C",
"P c #B5948C",
"I c #B59C8C",
"U c #BD948C",
"Y c #BD9C8C",
"T c #B5A58C",
"R c #BDA58C",
"E c #C6A58C",
"W c #CEA58C",
"Q c None",
/* pixels */
"QQQQQQQQQQQQQQQQ",
"QQQQQQQ<>>oooX. ",
"QQQQQQQ<366666pO",
"QQQQQQQ239ww0wh+",
"QQQQQQQ24zETJUj@",
"QQQxQQQ46NWILYk@",
"QQQ::QQ46NEIIPk@",
"=-;;;;Q46lRIKPv@",
"==----;4DlLKJIb@",
"=*====-4EeJSSBb@",
"=*****Q41qFSAHC1",
"QQQ&&QQ4auAyyGC@",
"QQQ%QQQ2srt$#iZ@",
"QQQQQQQ2gdVzzVZ@",
"QQQQQQQ2gmmmncn,",
"QQQQQQQ,5f8887g>"
};
