/* XPM */
static char *xpm_57_big[] = {
/* columns rows colors chars-per-pixel */
"32 32 99 2",
"   c black",
".  c gray3",
"X  c #211818",
"o  c #291810",
"O  c #313100",
"+  c #422110",
"@  c #422118",
"#  c #4A2110",
"$  c #522910",
"%  c #4A3129",
"&  c #4A3929",
"*  c #523129",
"=  c #524229",
"-  c #524A39",
";  c #5A4239",
":  c #5A4A31",
">  c #5A5239",
",  c #634A39",
"<  c #4A4A42",
"1  c #6B524A",
"2  c #6B5A52",
"3  c #735A4A",
"4  c #6B6342",
"5  c #6B6B4A",
"6  c #736B4A",
"7  c #736352",
"8  c #73734A",
"9  c #7B736B",
"0  c #846B63",
"q  c #84736B",
"w  c #847B73",
"e  c #8C7B73",
"r  c magenta",
"t  c #9C9C00",
"y  c #948C52",
"u  c #94945A",
"i  c #8C847B",
"p  c #9C9C73",
"a  c #A59C63",
"s  c #A5A563",
"d  c #B5AD6B",
"f  c #BDB573",
"g  c #BDBD73",
"h  c #CECE63",
"j  c #CECE73",
"k  c #CECE7B",
"l  c #D6CE7B",
"z  c #D6D67B",
"x  c #8C8C94",
"c  c #8C9494",
"v  c #9C948C",
"b  c #9C9C8C",
"n  c #94949C",
"m  c #949C94",
"M  c #949C9C",
"N  c #9C9494",
"B  c gray61",
"V  c #949CA5",
"C  c #9C9CA5",
"Z  c #94A5A5",
"A  c #9CA5A5",
"S  c #9CADB5",
"D  c #A5AD8C",
"F  c #ADAD94",
"G  c #ADB594",
"H  c #B5B58C",
"J  c #BDBD84",
"K  c #BDBD94",
"L  c #A5A5A5",
"P  c #A5ADAD",
"I  c #A5B5AD",
"U  c #ADBDAD",
"Y  c #A5B5B5",
"T  c #A5BDBD",
"R  c #ADB5B5",
"E  c #ADBDB5",
"W  c #ADBDBD",
"Q  c #B5BDA5",
"!  c #B5C6B5",
"~  c #ADC6C6",
"^  c #CECE84",
"/  c #CECE8C",
"(  c #C6CE94",
")  c #C6CE9C",
"_  c #CED694",
"`  c #D6D684",
"'  c #D6D68C",
"]  c #DED684",
"[  c #DEDE84",
"{  c #E7DE84",
"}  c #E7E78C",
"|  c #EFE78C",
" . c #EFEF8C",
".. c #EFEF94",
"X. c #F7EF94",
"o. c #F7F794",
"O. c #F7F79C",
"+. c #FFFF9C",
"@. c None",
/* pixels */
"@.@.@.@.@.@.@.@.@.@.@.@.@.@.@.@.@.@.@.@.@.@.@.@.@.@.@.@.@.@.@.@.",
"@.@.@.@.@.@.@.@.@.@.@.@.@.@.@.@.@.@.@.@.@.@.@.@.@.@.@.@.@.@.@.@.",
"@.@.@.@.@.@.@.@.@.@.@.@.@.@.@.@.@.@.@.@.@.@.@.@.@.@.@.@.@.@.@.@.",
"@.@.@.@.t t t t t t t t t . @.@.@.@.@.@.@.@.@.@.@.@.@.@.@.@.@.@.",
"@.@.@.t z [ [ } }  ...o.o.t . @.@.@.@.@.@.@.@.@.@.@.@.@.@.@.@.@.",
"@.@.t l z ] [ { } | ..o.o.+.t . @.@.@.@.@.@.@.@.@.@.@.@.@.@.@.@.",
"@.t j k z ` [ [ } } ....o.O.+.t . @.@.@.@.@.@.@.@.@.@.@.@.@.@.@.",
"t h h h h h h h h h h h h h h h t t t t t t t t t t t t t t @.@.",
"t k k k z z z ` [ [ [ [ [ } } } }  . .....X.o.o.o.O.+.+.+.+.  @.",
"t k k k z z z ` ] [ [ [ [ } } } }  . .......o.o.o.O.+.+.+.+.h . ",
"t j k k z z z ` ] [ [ _ _ _ _ ^ }  . .......o.o.o.O.+.+.+.+.h O ",
"t j k k z z z ` ] [ K ~ ~ ~ ~ b ` ` H D J ^ o.o.o.O.+.+.+.+.h O ",
"t k k k z z z ` [ ^ P R ~ ~ R L b Q ~ ~ R A K ] o.O.+.+.+.+.h O ",
"t k k k z z z ` ] F W W W P L B M R W W ~ ~ R p o.O.+.+.+.+.h O ",
"t j k k z z z ` ] G R W ~ W L B Z ~ ~ ~ R P W 7 y O.+.+.+.+.h O ",
"t j k k z z z ` / E W ~ R P L x R R R R W W W 2 a O.+.+.+.+.h O ",
"t k k k z z z ` ( Y R ~ W P B n ~ W ~ W Y W M = o.O.+.+.+.+.h O ",
"t k k k z z z ` U W W W R P n S W R ~ ~ W ~ c 8 o.O.+.+.+.+.h O ",
"t j k k z z z ' E W R R P C n Y W R ~ ~ W I < g o.O.+.+.+.+.h O ",
"t j k k z z z ) R R W W L B V W ~ W ~ R W w > o.o.O.+.+.+.+.h O ",
"t k k k z z z ! W W P P L n P R W R ~ W W 9 s o.o.O.+.+.+.+.h O ",
"t k k k z z z N N N N L L c T W ~ ~ R R m - g o.o.O.+.+.+.+.h O ",
"t j k k z z z $ # + * e q q v B L W W ~ i : k o.o.O.+.+.+.+.h O ",
"t j k k z z z ` d 5 4 @ @ @ $ 1 0 0 v P , 5 o.o.o.O.+.+.+.+.h O ",
"t k k k z z z ` [ [ [ f f a > > X o ; 3 % g o.o.o.O.+.+.+.+.h O ",
"t k k k z z z ` ] [ [ [ [ } } } u u > & 6 ..o.o.o.O.+.+.+.+.h O ",
"t j k k z z z ` ] [ [ [ [ } } } }  . .......o.o.o.O.+.+.+.+.h O ",
"t j k k z z z ` ] [ [ [ [ } } } }  . .......o.o.o.O.+.+.+.+.h O ",
"t h h h h h h h h h h h h h h h h h h h h h h h h h h h h h h O ",
"@.O O O O O O O O O O O O O O O O O O O O O O O O O O O O O O @.",
"@.@.@.@.@.@.@.@.@.@.@.@.@.@.@.@.@.@.@.@.@.@.@.@.@.@.@.@.@.@.@.@.",
"@.@.@.@.@.@.@.@.@.@.@.@.@.@.@.@.@.@.@.@.@.@.@.@.@.@.@.@.@.@.@.@."
};
