/* XPM */
static char *xpm_19[] = {
/* columns rows colors chars-per-pixel */
"16 16 45 1",
"  c #291000",
". c #634A4A",
"X c #6B5252",
"o c #735252",
"O c #735A5A",
"+ c #736B73",
"@ c #947B7B",
"# c magenta",
"$ c #8C848C",
"% c #8C8C84",
"& c #8C9C9C",
"* c #9C948C",
"= c #9C9C94",
"- c #9CA5A5",
"; c #A59C9C",
": c #ADA59C",
"> c #A5ADA5",
", c #A5ADAD",
"< c gray68",
"1 c #ADB5B5",
"2 c #ADBDB5",
"3 c #ADBDBD",
"4 c #BDA5B5",
"5 c #B5BDBD",
"6 c #BDB5B5",
"7 c gray74",
"8 c #ADC6BD",
"9 c #B5C6BD",
"0 c #BDC6BD",
"q c #B5C6C6",
"w c #BDCECE",
"e c #CECECE",
"r c #CED6D6",
"t c gray87",
"y c #DEE7DE",
"u c #E7D6E7",
"i c #E7DEE7",
"p c #EFDEEF",
"a c #EFE7EF",
"s c #F7E7F7",
"d c #F7EFF7",
"f c #FFEFFF",
"g c #FFF7FF",
"h c gray100",
"j c None",
/* pixels */
"jjjjjjjjjjjjjjjj",
"j$$$$$$$$$$$$$$j",
"j$uiipaassddfg$j",
"j$i  4aai d  g$j",
"j$iiptq97r0tgg$+",
"j$i  58<-983:g$+",
"j$ipa29,,532;g$+",
"j$p y33-358&tg$+",
"j$paw2<-993%gg$+",
"j$p OO*=18>; h$+",
"j$aaa7@o.XOthh$+",
"j$aassddfe6ggh$+",
"j$a    4f g  h$+",
"j$assddfggghhh$+",
"j$$$$$$$$$$$$$$+",
"jj++++++++++++++"
};
