/* XPM */
static char *xpm_12_big[] = {
/* columns rows colors chars-per-pixel */
"32 32 166 2",
"   c black",
".  c #000800",
"X  c #001000",
"o  c #100810",
"O  c #101000",
"+  c #181800",
"@  c #181018",
"#  c #002100",
"$  c #002900",
"%  c #003100",
"&  c #003900",
"*  c #102900",
"=  c #182900",
"-  c #102910",
";  c #182918",
":  c #103100",
">  c #103900",
",  c #183100",
"<  c #183110",
"1  c #183910",
"2  c #213118",
"3  c #293110",
"4  c #313100",
"5  c #313110",
"6  c #213121",
"7  c #293129",
"8  c #293929",
"9  c #393931",
"0  c #004200",
"q  c #004A00",
"w  c #005200",
"e  c #005A00",
"r  c #104200",
"t  c #104A00",
"y  c #185200",
"u  c #185A00",
"i  c #106300",
"p  c #106B00",
"a  c #186300",
"s  c #107300",
"d  c #107B00",
"f  c #214A10",
"g  c #294A10",
"h  c #215200",
"j  c #215210",
"k  c #295210",
"l  c #315210",
"z  c #315A10",
"x  c #394231",
"c  c #217B00",
"v  c #316310",
"b  c #396310",
"n  c #396B10",
"m  c #424210",
"M  c #4A4A10",
"N  c #425210",
"B  c #4A5218",
"V  c #4A5A18",
"C  c #525210",
"Z  c #525A18",
"A  c #5A5A10",
"S  c #424221",
"D  c #424229",
"F  c #424239",
"G  c #427B18",
"H  c #4A7B18",
"J  c #526318",
"K  c #5A6310",
"L  c #5A6318",
"P  c #5A6B18",
"I  c #5A7318",
"U  c #635A10",
"Y  c #636318",
"T  c #636B10",
"R  c #636B18",
"E  c #6B6310",
"W  c #6B6B10",
"Q  c #6B6B18",
"!  c #637318",
"~  c #6B7318",
"^  c #6B7B18",
"/  c #736B10",
"(  c #737310",
")  c #737318",
"_  c #737B18",
"`  c #7B7318",
"'  c #7B7B10",
"]  c #7B7B18",
"[  c #6B7B21",
"{  c #52524A",
"}  c gray39",
"|  c #108400",
" . c #218410",
".. c #218C10",
"X. c #4A8418",
"o. c #4A8C18",
"O. c #528C18",
"+. c #529418",
"@. c #529C18",
"#. c #5A9C18",
"$. c #52A518",
"%. c #5AA518",
"&. c #5AAD18",
"*. c #7B8410",
"=. c #6B8421",
"-. c #738421",
";. c #738C21",
":. c #7B9421",
">. c #847B21",
",. c magenta",
"<. c #848410",
"1. c #848C10",
"2. c #8C8C10",
"3. c #949410",
"4. c #848421",
"5. c #849C21",
"6. c #849C29",
"7. c #84A521",
"8. c #8CA529",
"9. c #8CAD29",
"0. c #94AD29",
"q. c #94B529",
"w. c #9CB529",
"e. c #9CBD29",
"r. c #BDCE18",
"t. c #A5C631",
"y. c #A5CE31",
"u. c #ADCE31",
"i. c #ADD631",
"p. c #BDC629",
"a. c #BDCE21",
"s. c #D6D618",
"d. c #C6C621",
"f. c #C6CE21",
"g. c #C6CE29",
"h. c #C6CE31",
"j. c #C6D621",
"k. c #C6D629",
"l. c #CED629",
"z. c #CEDE29",
"x. c #C6D631",
"c. c #CED631",
"v. c #CEDE31",
"b. c #D6D629",
"n. c #DED621",
"m. c #DED629",
"M. c #DEDE21",
"N. c #D6DE31",
"B. c #D6E731",
"V. c #E7DE21",
"C. c #E7DE29",
"Z. c #E7DE31",
"A. c #E7E729",
"S. c #EFE729",
"D. c #EFE731",
"F. c #EFE739",
"G. c #EFEF31",
"H. c #F7EF31",
"J. c #F7EF39",
"K. c #F7F731",
"L. c #F7F739",
"P. c #FFF739",
"I. c #FFFF39",
"U. c #FFF742",
"Y. c #FFFF42",
"T. c None",
/* pixels */
"T.T.T.T.T.T.T.T.T.T.T.T.T.T.T.T.T.T.T.T.T.T.T.T.T.T.T.T.T.T.T.T.",
"T.T.T.T.T.T.T.T.T.T.T.T.. O O . . . . } T.T.T.T.T.T.T.T.T.T.T.T.",
"T.T.T.T.T.T.T.T.T.. O O -.u.u.J l &.&.n X X { T.T.T.T.T.T.T.T.T.",
"T.T.T.T.T.T.T.. + 6.i.i.u.u.u.J l &.&.%.%.%.G O F T.T.T.T.T.T.T.",
"T.T.T.T.T.T.. 9.i.i.i.u.u.u.u.J l &.&.%.%.%.%.%.X.x T.T.T.T.T.T.",
"T.T.T.T.T.. :.y.i.i.u.u.u.u.y.J l &.%.%.%.%.%.@.+.n 8 T.T.T.T.T.",
"T.T.T.T.D p.C ;.t.u.u.u.u.y.y.J l %.%.%.%.%.@.+.b : c 6 T.T.T.T.",
"T.T.T.S g.B.N.A -.e.u.u.y.y.t.J l %.%.%.%.#.+.v > ....c 2 T.T.T.",
"T.T.. h.B.B.z.z.Y [ e.u.y.y.t.J l %.%.%.#.+.z r ...... .c @ T.T.",
"T.T.. x.B.N.z.z.z.Q ! q.y.t.t.J k %.%.#.o.z t ........ .c < T.T.",
"T.o c.B.B.z.z.z.l.j.m =.t.t.t.J k %.#.@.b * ........ . . .c o T.",
"T.o c.B.N.z.z.z.k.j._ R 9.t.t.J g %.@.X.k y ...... . . . .c o T.",
"T.. v.B.z.z.z.l.k.j.j.] P 8.t.Z g #.X.k y ........ . . . .c 1 T.",
"  v.B.N.z.z.z.l.j.j.f.a.*.L 6.Z g X.f u ........ . . . . . .c   ",
"  v.B.N.z.z.l.k.j.j.f.a.r.1.L 3 = f a .......... . . . . . .c   ",
"  ~ ) ~ ~ ~ ~ Q W T T T T T 4     # t t t t t r r r r r r r r   ",
"  4.4.4.>.>.] ] ` ` ( ( / / 4     # 0 0 0 0 0 0 0 0 0 & & & &   ",
"  U.Y.P.L.H.G.D.A.A.M.M.s.3.K 5 , h e | | | d d d d d s s s p   ",
"  U.I.P.L.H.G.S.A.V.M.n.2.L 5.Z l o.h w | | d d d d s s s s p   ",
"T.. J.L.K.G.G.A.A.M.M.<.R 7.e.V k %.o.j w | d d d d s s s p : T.",
"T.. F.L.H.G.S.A.C.M.' R 8.e.e.V k %.$.o.k q d d d s s s s p o T.",
"T.o D.K.G.G.A.A.M.M.M [ e.e.e.V k %.@.@.b $ d d d s s s s p o T.",
"T.T.. Z.G.S.A.C.M./ ! 9.e.e.w.V g @.@.@.X.k 0 d d s s s p - T.T.",
"T.T.@ m.G.S.A.V.E ! 0.e.e.w.q.V g @.@.@.+.X.k & d s s s i @ T.T.",
"T.T.T.. b.A.C.U ^ q.e.e.e.q.q.V g @.@.+.+.+.X.k % s s i ; T.T.T.",
"T.T.T.T.. d.C =.q.e.e.e.q.q.q.B g @.+.+.+.o.o.X.z $ i 6 T.T.T.T.",
"T.T.T.T.T.. ;.e.e.e.e.q.q.q.0.B g +.+.+.o.o.o.X.H z 7 T.T.T.T.T.",
"T.T.T.T.T.T.. 5.e.e.q.q.q.0.9.B g +.+.o.o.o.X.X.n 9 T.T.T.T.T.T.",
"T.T.T.T.T.T.T.. + ;.q.q.0.9.9.N g +.O.o.o.o.b O . T.T.T.T.T.T.T.",
"T.T.T.T.T.T.T.T.T.. O O I 9.8.N g +.o.z X X . T.T.T.T.T.T.T.T.T.",
"T.T.T.T.T.T.T.T.T.T.T.T.. . . . . . . . T.T.T.T.T.T.T.T.T.T.T.T.",
"T.T.T.T.T.T.T.T.T.T.T.T.T.T.T.T.T.T.T.T.T.T.T.T.T.T.T.T.T.T.T.T."
};
