/* XPM */
static char *xpm_30_big[] = {
/* columns rows colors chars-per-pixel */
"32 32 257 2",
"   c #313100",
".  c #313900",
"X  c #393100",
"o  c #393900",
"O  c #313110",
"+  c #313118",
"@  c #313914",
"#  c #353121",
"$  c #394200",
"%  c #394A00",
"&  c #314A00",
"*  c #314218",
"=  c #354A14",
"-  c #365400",
";  c #365415",
":  c #354225",
">  c #315221",
",  c #396300",
"<  c #396B00",
"1  c #396B10",
"2  c #336812",
"3  c #317B18",
"4  c #396821",
"5  c #396B31",
"6  c #397321",
"7  c #423900",
"8  c #4A3100",
"9  c #4A3900",
"0  c #423100",
"q  c #4A3110",
"w  c #4A3118",
"e  c #523100",
"r  c #5A3900",
"t  c #563500",
"y  c #523118",
"u  c #523918",
"i  c #423121",
"p  c #4A3121",
"a  c #523121",
"s  c #633100",
"d  c #633900",
"f  c #6B3100",
"g  c #6B3900",
"h  c #633118",
"j  c #6B3110",
"k  c #6B3118",
"l  c #673910",
"z  c #733110",
"x  c #663424",
"c  c #6B3531",
"v  c #7B3121",
"b  c #7B3131",
"n  c #4A4200",
"m  c #4A4A00",
"M  c #424600",
"N  c #4A4218",
"B  c #4A4A10",
"V  c #454613",
"C  c #425200",
"Z  c #4A5200",
"A  c #4A5A00",
"S  c #425A00",
"D  c #425A10",
"F  c #4A5218",
"G  c #524200",
"H  c #524A00",
"J  c #5A4200",
"K  c #5A4A00",
"L  c #5A4210",
"P  c #524218",
"I  c #525200",
"U  c #525A00",
"Y  c #5A5200",
"T  c #5A5A00",
"R  c #565614",
"E  c #424A29",
"W  c #425A26",
"Q  c #4A5231",
"!  c #524621",
"~  c #564231",
"^  c #565A29",
"/  c #4A6300",
"(  c #4A6B00",
")  c #426700",
"_  c #426B10",
"`  c #4A6B18",
"'  c #466718",
"]  c #427300",
"[  c #427B10",
"{  c #4A7B10",
"}  c #526300",
"|  c #5A6300",
" . c #566B00",
".. c #546810",
"X. c #547512",
"o. c #476B23",
"O. c #4A6B31",
"+. c #427B29",
"@. c #427331",
"#. c #546B25",
"$. c #526B31",
"%. c #527731",
"&. c #654700",
"*. c #634A18",
"=. c #694612",
"-. c #635200",
";. c #675600",
":. c #675214",
">. c #735A18",
",. c #6B4A21",
"<. c #684731",
"1. c #685426",
"2. c #6B5433",
"3. c #754733",
"4. c #7B5A31",
"5. c #636300",
"6. c #656810",
"7. c #637310",
"8. c #6B6B25",
"9. c #6B6B31",
"0. c #676B37",
"q. c #6B7B29",
"w. c #637331",
"e. c #736B39",
"r. c #737B25",
"t. c #737331",
"y. c #526B4A",
"u. c #6B6B42",
"i. c #6B7B42",
"p. c #7B6944",
"a. c #776756",
"s. c #757546",
"d. c #6B6B63",
"f. c #398400",
"g. c #318C10",
"h. c #398421",
"j. c #358831",
"k. c #359C25",
"l. c #399C39",
"z. c #359831",
"x. c #468825",
"c. c #468631",
"v. c #459B34",
"b. c #528C31",
"n. c #528431",
"m. c #529C39",
"M. c #569431",
"N. c #6B8831",
"B. c #639C39",
"V. c #7B8431",
"C. c #429C42",
"Z. c #469C46",
"A. c #469C53",
"S. c #539943",
"D. c #529C52",
"F. c #4A9C63",
"G. c #529C63",
"H. c #44A757",
"J. c #4AB552",
"K. c #56A756",
"L. c #5AA54A",
"P. c #4AA56B",
"I. c #6B844A",
"U. c #6B8856",
"Y. c #659C47",
"T. c #699C56",
"R. c #738452",
"E. c #7B9846",
"W. c #7B9452",
"Q. c #7B844A",
"!. c #6B846B",
"~. c #689B67",
"^. c #7B8C6B",
"/. c #7B9863",
"(. c #6BAD4A",
"). c #6BB552",
"_. c #6FA55A",
"`. c #63A563",
"'. c #73A56B",
"]. c #73B56B",
"[. c #73C673",
"{. c #7BD673",
"}. c #883925",
"|. c #883531",
" X c #943129",
".X c #9C3639",
"XX c #9C3942",
"oX c #9C395A",
"OX c #9C3963",
"+X c #844231",
"@X c #845231",
"#X c #9A4335",
"$X c #9C5436",
"%X c #8C6B31",
"&X c #946739",
"*X c #AD4231",
"=X c #BD5239",
"-X c #845242",
";X c #9C4447",
":X c #9C4756",
">X c #9A5647",
",X c #9C5A56",
"<X c #9C4A63",
"1X c #9C5465",
"2X c #8C634A",
"3X c #846B52",
"4X c #9C6744",
"5X c #9A6756",
"6X c #8C7B6B",
"7X c #9C6B69",
"8X c #96786B",
"9X c #AA4744",
"0X c #A54A5A",
"qX c #B54A52",
"wX c #B5524A",
"eX c #B5526B",
"rX c #BD5A73",
"tX c #A55A63",
"yX c #A56342",
"uX c #AD635A",
"iX c #AD7B42",
"pX c #B57352",
"aX c #B5636B",
"sX c #B97B67",
"dX c #A57B6B",
"fX c #C64A63",
"gX c #C66B5A",
"hX c magenta",
"jX c #CE6B84",
"kX c #8C8C5A",
"lX c #948452",
"zX c #9C9C52",
"xX c #8C846B",
"cX c #9C846B",
"vX c #94946B",
"bX c #B9886B",
"nX c #ADA54A",
"mX c #ADBD5A",
"MX c #A5AD6B",
"NX c #88CA6B",
"BX c #B5CE73",
"VX c #D6D673",
"CX c #8CBD84",
"ZX c #9CDE8C",
"AX c #ADCE98",
"SX c #D6A584",
"DX c #EBA998",
"FX c #E7A584",
"GX c #DEDEBD",
"HX c #CEEF9C",
"JX c #D6F7B5",
"KX c #FBC6AD",
"LX c #FFD6AD",
"PX c #F7D6BD",
"IX c #E7EF8C",
"UX c #F7FFC6",
"YX c None",
/* pixels */
"YXYXYXYXYXYXYXYXYXYXYXYXYXYXYXYXYXYXYXYXYXYXYXYXYXYXYXYXYXYXYXYX",
"YXYXYXYXYXYXYXYXYXYXYXYXYXYXYXYXYXYXYXYXYXYXYXYXYXYXYXYXYXYXYXYX",
"YXYXYXYXYXYXYXYXYXYXYXYXYXP.H.F.G.K.K.K.D.~./.~.~.~.YXYXYXYXYXYX",
"YXYXYXYXYXYXYXYXYXYXYXP.J.A.H.Y.G.K.K.L.J.~.T.T.T.!.~.YXYXYXYXYX",
"YXYXYXYXYXYXYXYXYXH.S.Z.K.D.Y.A.Y.D.H.Y.K.Y.T.Y.I.U.6X^.YXYXYXYX",
"YXYXYXYXYXYXYXC.D.Z.T.l.S.D.A.m.l.T.).].[.NX~.I.I.i.kX8XcXYXYXYX",
"YXYXYXYXYXYXC.Z.v.l.B.A.m.m.m.~.(.{.ZXJXUXCXN.0.0.R.s.xX7XYXYXYX",
"YXYXYXYX`.l.m.C.Z.v.n.z.S.m.B.~.NXAXHXGXAXi.e.u.u.p.5X3X8XYXYXYX",
"YXYXYXK.z.v.l.v.c.v.b.c.n.n.S.Y.E._.W.Q.y.0.9.9.9.p.a.4X8X7XYXYX",
"YXYXYXk.k.v.M.j.n.5 w.5 c.n.%.@.w.@.$.#.$.O.9.9.9.%Xd.4X7X7XYXYX",
"YXYX'.j.X.z.{ x.h.X.x.X.5 o.o.2 #.` #.P D ~ 9.9.9.%X#X5X>X1XYXYX",
"YXYXM.3 g.6 f.` 1 4 1 4 ( 4 ; ^ , : F Q ~ D <.2.2.+Xd.$X:X5XYXYX",
"YXYX3 ] 1  .< ` 2 ( #., W V = # ; N * P W x 1.,.@X-X&X0X,X1XYXYX",
"YXYX+.[ < ` < _ ' - ' % = = & - @ : + y E ^ ,.3.4.>X;X&X:X,XYXYX",
"YXYX/.( < _ X.N.q.W 2 . ; . . *   O X i R <.1.3.2X&X>X:X4X<XYXYX",
"YXYXYX{ <  .t.mXIXMX6.A M m > @   O + a l 2.=.p.7X4X:X>X<XaXYXYX",
"YXYXYXE.) < ) r.BXVX/.T = F 9 X X X w w ^ l p.bXsX4X#X5X,XOXYXYX",
"YXYXYXYX../ H ( r.nXzX8.K % Z 9 # 8 X y N c iXFXsX,XyXoXuXfXYXYX",
"YXYXYXYX$.5.C } ..6.V.q.Y Z $ 8 w X w q *.2.bXKXsX$X<X9X0XjXYXYX",
"YXYXYXYXvX( I m m / =.6.6.B I o :.X q p s t.DXPXsX>X>XqXwXYXYXYX",
"YXYXYXYXYX7./ I I | 7 | m m r - d i h *.x s.LXKXpX.XgXXXYXYXYXYX",
"YXYXYXYXYXYXB } H A J S H H -.$ s M H e s 3.DXSX>X,X9XtXYXYXYXYX",
"YXYXYXYXYXYXYXD m U A J Z I G C ! 8 k u x >.gXsX$X:X=XeXYXYXYXYX",
"YXYXYXYXYXYXYXs.H A t ;.9 K H t m r u :.f c $X>X*X0X.XYXYXYXYXYX",
"YXYXYXYXYXYXYXYXs.Y o &.m n K I 8 r L h g <.}.#X;XXXrXYXYXYXYXYX",
"YXYXYXYXYXYXYXYXYXYXR 8 H G m d I G &.f k =.}.$X.X=XYXYXYXYXYXYX",
"YXYXYXYXYXYXYXYXYXYXYXB -.d 9 t 7 s k :.g c |.|..XYXYXYXYXYXYXYX",
"YXYXYXYXYXYXYXYXYXYXYXYX8X9.:.0 f ;.f k j z  X#XYXYXYXYXYXYXYXYX",
"YXYXYXYXYXYXYXYXYXYXYXYXYXYXYXlXf f j j v b j 9XYXYXYXYXYXYXYXYX",
"YXYXYXYXYXYXYXYXYXYXYXYXYXYXYXYXYXdXj j >XYXYXYXYXYXYXYXYXYXYXYX",
"YXYXYXYXYXYXYXYXYXYXYXYXYXYXYXYXYXYXYXYXYXYXYXYXYXYXYXYXYXYXYXYX",
"YXYXYXYXYXYXYXYXYXYXYXYXYXYXYXYXYXYXYXYXYXYXYXYXYXYXYXYXYXYXYXYX"
};
