/* XPM */
static char *xpm_59[] = {
/* columns rows colors chars-per-pixel */
"16 16 33 1",
"  c black",
". c gray3",
"X c #181808",
"o c #292918",
"O c #313100",
"+ c #313121",
"@ c #393921",
"# c #5A5A31",
"$ c #636339",
"% c gray29",
"& c #5A5A5A",
"* c magenta",
"= c #9C9C00",
"- c #84844A",
"; c #B5B56B",
": c #CECE63",
"> c #CECE73",
", c #CECE7B",
"< c #D6CE7B",
"1 c #D6D67B",
"2 c #848484",
"3 c #D6D684",
"4 c #DED684",
"5 c #DEDE84",
"6 c #E7DE84",
"7 c #E7E78C",
"8 c #EFE78C",
"9 c #EFEF8C",
"0 c #EFEF94",
"q c #F7F794",
"w c #F7F79C",
"e c #FFFF9C",
"r c None",
/* pixels */
"rrrrrrrrrrrrrrrr",
"rr====.rrrrrrrrr",
"r<468qe.rrrrrrrr",
"::::::::=======r",
",,135577900qwee.",
",,13557790@qweeO",
",,13557790@qweeO",
",,13-5;790@qweeO",
",,13$; 790@qweeO",
",,13 +;790oqweeO",
",,13$5;7&% qweeO",
",,13$ #02 0qweeO",
",,13X577900qweeO",
">,135577900qweeO",
"OOOOOOOOOOOOOOOr",
"rrrrrrrrrrrrrrrr"
};
