/* XPM */
static char *xpm_8_big[] = {
/* columns rows colors chars-per-pixel */
"32 32 14 1",
"  c black",
". c #5252FF",
"X c #525AFF",
"o c #5A5AFF",
"O c #5A63FF",
"+ c #6363FF",
"@ c #636BFF",
"# c #6B6BFF",
"$ c #6B73FF",
"% c #7373FF",
"& c #737BFF",
"* c #7B7BFF",
"= c magenta",
"- c None",
/* pixels */
"----                        ----",
"----                        ----",
"----                        ----",
"----                        ----",
"----    %$$###@@+++OOooo        ",
"----    %$$###@@+++OOooo        ",
"----    %$$###@@+++OOooo        ",
"----    %$$###@@+++OOOoo        ",
"----                OOooXXX.    ",
"----                OOooXXX.    ",
"----                OOooXXX.    ",
"----                OOooXXX.    ",
"        %%$$###@@+++OOoooXX.    ",
"        %%$$###@@+++OOoooXX.    ",
"        %%$$###@@+++OOoooXX.    ",
"        %%$$###@@+++OOoooXX.    ",
"    *&&%%%$$        OOoooXX.    ",
"    *&&%%%$$        OOoooXX.    ",
"    *&&%%%$$        OOoooXX.    ",
"    *&&%%%$$        OOoooXXX    ",
"    *&&%%%$$        OOOooXXX    ",
"    *&&%%%$$        OOOooXXX    ",
"    *&&%%%$$        OOOooXXX    ",
"    *&&%%%$$        OOOooXXX    ",
"        %%%$$###@@+++OOoooXX    ",
"        %%%$$###@@+++OOoooXX    ",
"        %%%$$###@@+++OOoooXX    ",
"        %%%$$###@@+++OOoooXX    ",
"----                            ",
"----                            ",
"----                            ",
"----                            "
};
