/* XPM */
static char *xpm_51_big[] = {
/* columns rows colors chars-per-pixel */
"32 32 31 1",
"  c #085A5A",
". c #086363",
"X c #106363",
"o c #10636B",
"O c #106B6B",
"+ c #186B73",
"@ c #186B7B",
"# c #18737B",
"$ c #21737B",
"% c #4A637B",
"& c #217384",
"* c #217B84",
"= c #297B84",
"- c #297B8C",
"; c #29848C",
": c #298494",
"> c #318494",
", c magenta",
"< c #9CCEC6",
"1 c #A5CEC6",
"2 c #A5D6C6",
"3 c #A5D6CE",
"4 c #ADD6CE",
"5 c #B5D6CE",
"6 c #B5DECE",
"7 c #B5DED6",
"8 c #BDDED6",
"9 c #C6DED6",
"0 c #C6DEDE",
"q c #C6E7DE",
"w c None",
/* pixels */
"wwwwwwwwwwwwwwwwwwwwwwwwwwwwwwww",
"w09888888777655444444332222<<<<w",
"w09888888777655444444332222<<<<w",
"w0988.88877766.444444332222<<<.w",
"w0988X88877776X444444344222<<<Xw",
"w0988o88877776o4444444442221<<ow",
"wO988O8888O776O54O44444422O1<<Ow",
"w+098+8888+776+54+44444422+1<<+w",
"w+098+8888+476+54+44444422+2<<+w",
"w#09###8#8#476#54#44#444#2#2<<#w",
"w$09$$$4$8$476$54$44$444$2$2<<$w",
"w==9===4=8-444=5===4=444=2=2<==w",
"w--9---4-8-444-5---4-44>-2-21--w",
"w;;9;;-4-4-44;;5;;;4;44>;2;21;;w",
"w>>0>--4-4-44>>5>>>4>44>>2>21>>w",
"w>>0>--%%8>4<>>5>>>4>44>>2>22>>w",
"w%%%%%%%%%%%%%%%%%%%%%%%%%%%%%%w",
"wq---8--8-----6-54--;<>43::>>><w",
"wq***8--8=<---6-54---4>43-2-;:<w",
"wq&&&8--844---7*54---4>43-2---<w",
"wq$$$8--444--&7654***4$43=2---<w",
"wq##$4--448-$$7654###4O43*2***<w",
"wqq@04--888-$$7644###444322&&&<w",
"wqq+09--888-@#7444###444322$$$<w",
"wqq+09+-888+++74444#4444332#$$<w",
"wqq0098-8888+744444O44443322@2<w",
"wqq0098+8888O744444O44443322+2<w",
"wqq0098o8888o744444444443322+2<w",
"wqqq098.88888777655444444322221w",
"wqqq009 88888777655444444322221w",
"wqqq009888888777655444444322222w",
"wwwwwwwwwwwwwwwwwwwwwwwwwwwwwwww"
};
