/* XPM */
static char *xpm_37[] = {
/* columns rows colors chars-per-pixel */
"16 16 65 1",
"  c #7B4A39",
". c #7B5242",
"X c #9C3921",
"o c #B51818",
"O c #BD1818",
"+ c #AD1821",
"@ c #AD1831",
"# c #B51821",
"$ c #BD1821",
"% c #B51831",
"& c #BD1831",
"* c #BD2118",
"= c #BD2918",
"- c #B53918",
"; c #A53121",
": c #AD3921",
"> c #B53921",
", c #B53929",
"< c #8C4A39",
"1 c #944A31",
"2 c #945239",
"3 c #9C5239",
"4 c #9C5A39",
"5 c #AD4218",
"6 c #A54221",
"7 c #A55A39",
"8 c #844A42",
"9 c #845242",
"0 c #945A42",
"q c #945A4A",
"w c #9C6B52",
"e c #846B6B",
"r c #947373",
"t c #A56B52",
"y c #B57B6B",
"u c #C61818",
"i c #C62918",
"p c #CE2918",
"a c #C63918",
"s c #CE3918",
"d c #D62918",
"f c #DE3939",
"g c #C64A18",
"h c #CE4A18",
"j c #DE4A29",
"k c #E74218",
"l c #E75229",
"z c #EF5229",
"x c #EF5A39",
"c c #C67B52",
"v c #C67B5A",
"b c #CE7B5A",
"n c magenta",
"m c #94847B",
"M c #A58C7B",
"N c #BD846B",
"B c #B58473",
"V c #BD8473",
"C c #B5947B",
"Z c #BD947B",
"A c #948484",
"S c #A58C84",
"D c #AD9C84",
"F c #B59C8C",
"G c None",
/* pixels */
"GGGGGGGGGGGGGGGG",
"GGzkuGGGG@@GGGGG",
"GuisuGGGGj=@GGGG",
"GGuhhO--5s@GGGGG",
"GGGOg6666X@GG@@G",
"GGuga1twt i@-si@",
"Guxaa2ZDN8ii=o@G",
"ulsaa3CFV.i=o@GG",
"psaaaqMSB.==+GGG",
"oooaa0mAB9==#@GG",
"GGGoi4rey9***&f@",
"GGGG$7bvc<**@@%@",
"GGG-i:,,>;*@G@@G",
"GGoiooo@#**doGGG",
"GGGooGGGoo%%oGGG",
"GGGGGGGGGGooGGGG"
};
