/* XPM */
static char *xpm_17_big[] = {
/* columns rows colors chars-per-pixel */
"32 32 74 1",
"  c black",
". c #001000",
"X c #001810",
"o c #181018",
"O c #002918",
"+ c #003921",
"@ c #291000",
"# c #311818",
"$ c #391818",
"% c #291829",
"& c #293931",
"* c #392939",
"= c #393139",
"- c #214A31",
"; c #314A39",
": c #423142",
"> c #4A394A",
", c #4A424A",
"< c #524A5A",
"1 c #5A525A",
"2 c #6B5A6B",
"3 c #6B636B",
"4 c #6B6B73",
"5 c #637B6B",
"6 c #736373",
"7 c #736B73",
"8 c #7B7B84",
"9 c #9C2121",
"0 c #9C3139",
"q c #A50800",
"w c #A51018",
"e c #A51818",
"r c #B50800",
"t c #BD3129",
"y c #8C5A6B",
"u c #945A63",
"i c #8C6373",
"p c #8C6B73",
"a c #8C6B7B",
"s c #84737B",
"d c #8C737B",
"f c #BD4A4A",
"g c #C61000",
"h c #C61810",
"j c #C62118",
"k c #C62929",
"l c #C65A5A",
"z c #847384",
"x c #847B84",
"c c #8C7B8C",
"v c #BD7B84",
"b c magenta",
"n c #948C94",
"m c #A5949C",
"M c #BD949C",
"N c #A59CA5",
"B c #B59CAD",
"V c #B5A5AD",
"C c #B5ADB5",
"Z c #BDA5B5",
"A c #BDADBD",
"S c #BDB5BD",
"D c #C6ADBD",
"F c #D6CED6",
"G c #E7D6E7",
"H c #E7DEE7",
"J c #EFDEEF",
"K c #EFE7EF",
"L c #F7E7F7",
"P c #F7EFF7",
"I c #FFEFFF",
"U c #FFF7FF",
"Y c gray100",
"T c None",
/* pixels */
"TTTTTTTTTTTTTTTTTTTTTTTTTTTTTTTT",
"TxNNNNNNNNNNNNNNNNNNNNNNNNNNNxTT",
"TNFGGGHHHHJJJJKKKLLLLPPPPIIIFNTT",
"TNS@@@@@@ZJJJKKH@@@ZPH@@@@@@SNTT",
"TNS@@@@@@ZJJJKKH@@@ZPH@@@@@@SN7T",
"TNGGGHHHJJJJKKKKLLLPPPPIIIIUGN7T",
"TNGGHHHHJJJKKKKLLLLPPPPIIIUUGN7T",
"TNS$@@@@@@@@@ZKH@@@ZPH@@@@UUGN7T",
"TNS$@@@@@@@@@ZLH@@@ZPH@@@@UUGN7T",
"TNGHHHJJJJKKK:>333PPPIIIUUUUGN7T",
"TNGHHJJJJKK>,16xcnn4IIIIUUUUGN7T",
"TNS@@@@@@@><16zcNCSC8H@=<5+UGN7T",
"TNS@@@@@@*,16sdmVljkC6>*o;@UGN7T",
"TNGHJJJJ&>13ieqkfgghMn3o UUUGN7T",
"TNGJJJJK%*130qqrggggtn3UUUUYGN7T",
"TNS@@@@@%*13yeqqrrghvc3@@@UUGN7T",
"TNS@@@@@%*13xiwqqqqwnx3@@@UUGN7T",
"TNGJJKKK%*<3zxaewqqax61UUUUYGN7T",
"TNGJJKKKo*=<3zxxye9dz2,UUUUYGN7T",
"TNS@@@@@X**=<36xxup62>@@@@@@GN7T",
"TNS@@@@@Oo**=<122221=*@@@@@@GN7T",
"TNGKKKKLL.o***=111>=:UUUUYYYGN7T",
"TNGKKKLLLLXo%*******UUUUUYYYGN7T",
"TNS@@@@@@@@@Xo%%%%-ZUH@@@@@HGN7T",
"TNS@@@@@@@@@@ZIH@#@ZUH@@@@@HGN7T",
"TNGKLLLLPPPPIIIUUUUUUUYYYYYYGN7T",
"TNGKLLLPPPPIIIIUUUUUUUYYYYYYGN7T",
"TNS@@@@@@@@@@ZUZ@@@ZUH@@@@DYFN7T",
"TNS@@@@@@@@@@ZUB@@@ZUH@@@#HYFN7T",
"TNAPPPPPPPPPPPPYYYYYYYYYYYYYAN7T",
"TxNNNNNNNNNNNNNNNNNNNNNNNNNNNx7T",
"TTTT77777777777777777777777777TT"
};
