/* XPM */
static char *xpm_29[] = {
/* columns rows colors chars-per-pixel */
"16 16 102 2",
"   c #296B4A",
".  c #7B2910",
"X  c #4A7318",
"o  c #5A6B29",
"O  c #5A7B21",
"+  c #734218",
"@  c #737331",
"#  c #188C42",
"$  c #4A9C00",
"%  c #4AA500",
"&  c #42BD42",
"*  c #63CE39",
"=  c #10B5CE",
"-  c #31BDDE",
";  c #18C6D6",
":  c #10CEF7",
">  c #6BA5B5",
",  c #42BDCE",
"<  c #5ABDC6",
"1  c #52C6C6",
"2  c #52C6CE",
"3  c #5AD6D6",
"4  c #844210",
"5  c #8C4A10",
"6  c #8C4A18",
"7  c #8C5218",
"8  c #A56B31",
"9  c #B56B31",
"0  c #AD734A",
"q  c #B56B52",
"w  c #CE7B39",
"e  c #C65A4A",
"r  c #C6634A",
"t  c #C66B4A",
"y  c #CE6B42",
"u  c #CE7342",
"i  c #C67B73",
"p  c #F76B52",
"a  c #F77B5A",
"s  c #FF7352",
"d  c #FF7B5A",
"f  c magenta",
"g  c #948463",
"h  c #B5844A",
"j  c #BD9C5A",
"k  c #ADA56B",
"l  c #B5CE31",
"z  c #CE9439",
"x  c #CE844A",
"c  c #C69C5A",
"v  c #CE9C52",
"b  c #DE8C4A",
"n  c #D69442",
"m  c #CE8473",
"M  c #CEA55A",
"N  c #D6A55A",
"B  c #D6A56B",
"V  c #D6B56B",
"C  c #E7945A",
"Z  c #EF9C52",
"A  c #F78C42",
"S  c #FF8452",
"D  c #F7944A",
"F  c #FF9442",
"G  c #FF944A",
"H  c #FF9C42",
"J  c #F79C52",
"K  c #FF9C5A",
"L  c #FF9463",
"P  c #EFB55A",
"I  c #FFA54A",
"U  c #FFA55A",
"Y  c #FFAD5A",
"T  c #FFB55A",
"R  c #F7BD6B",
"E  c #FFB563",
"W  c #FFBD63",
"Q  c #FFBD6B",
"!  c #D6EF73",
"~  c #FFC663",
"^  c #FFC66B",
"/  c #FFCE6B",
"(  c #FFC673",
")  c #FFCE73",
"_  c #FFD673",
"`  c #FFD67B",
"'  c #FFDE7B",
"]  c #9C8C8C",
"[  c #94B5A5",
"{  c #A5948C",
"}  c #F7DE84",
"|  c #FFDE84",
" . c #FFE78C",
".. c #F7E79C",
"X. c #FFE79C",
"o. c #FFEF94",
"O. c #FFF79C",
"+. c #E7E7A5",
"@. c #FFF7A5",
"#. c #FFFFA5",
"$. c #FFFFAD",
"%. c None",
/* pixels */
"%.%.%.%.%.%.%.%.%.%.%.%.%.%.%.%.",
"%.%.%.%.%.%.%.%.%.%.%.%.%.%.%.%.",
"%.%.%.%.%.%.%.%.%.%.%.%.%.%.) %.",
"j %.%.y e %.w w M t w 9 w w r + ",
"c ' ' W U o.) ) Y Y ` _ ) ) L 6 ",
"c ^ p > $ ! ~ I s { H / Z F #.5 ",
"..v [ = # z ) ~ S R ,   * < @.%.",
"#.v | 3 o q ` ` +.} 2 @ % ; @.%.",
"#.4 ~ K ~ C / 1 i ~ O.- : ~ @.%.",
"k h  .X.^ A l X m ~ O.] Q a 8 %.",
"g V n I I B & O J E O.W ~ G 7 %.",
"g 0 N  . .O.$._ H X.#.$.$.I 7 %.",
"%.. 5 u D I b x L ( T / / d P %.",
"%.%.%.%.%.%.%.%.%.%.%.%.%.%.%.%.",
"%.%.%.%.%.%.%.%.%.%.%.%.%.%.%.%.",
"%.%.%.%.%.%.%.%.%.%.%.%.%.%.%.%."
};
