/* XPM */
static char *xpm_10[] = {
/* columns rows colors chars-per-pixel */
"16 16 105 2",
"   c #10184A",
".  c #181842",
"X  c #181852",
"o  c #18185A",
"O  c #00187B",
"+  c #21186B",
"@  c #29186B",
"#  c #292152",
"$  c #312152",
"%  c #312173",
"&  c #39316B",
"*  c #42215A",
"=  c #423152",
"-  c #422963",
";  c #42296B",
":  c #422973",
">  c #4A2973",
",  c #4A297B",
"<  c #4A317B",
"1  c #4A397B",
"2  c #5A2963",
"3  c #523173",
"4  c #52317B",
"5  c #5A317B",
"6  c #6B3963",
"7  c #63317B",
"8  c #6B427B",
"9  c #6B4A73",
"0  c #7B6B73",
"q  c #000884",
"w  c #001084",
"e  c #181094",
"r  c #292194",
"t  c #29219C",
"y  c #3939A5",
"u  c #29428C",
"i  c #423184",
"p  c #52298C",
"a  c #523984",
"s  c #5A3184",
"d  c #5A398C",
"f  c #63398C",
"g  c #6B3984",
"h  c #633194",
"j  c #6B399C",
"k  c #733994",
"l  c #7B39A5",
"z  c #4242A5",
"x  c #6B4A8C",
"c  c #634294",
"v  c #6B4294",
"b  c #734284",
"n  c #734A8C",
"m  c #734294",
"M  c #73429C",
"N  c #734A9C",
"B  c #735294",
"V  c #735A94",
"C  c #7B529C",
"Z  c #7B4AA5",
"A  c #7B52A5",
"S  c #6363B5",
"D  c #844A6B",
"F  c #946B7B",
"G  c #9C637B",
"H  c #8439A5",
"J  c #8C39B5",
"K  c #A539CE",
"L  c #845A84",
"P  c #845A94",
"I  c #844AAD",
"U  c #8C42B5",
"Y  c #8C4AB5",
"T  c #845AAD",
"R  c #8C52B5",
"E  c #8C5AB5",
"W  c #944ABD",
"Q  c #9452BD",
"!  c #84639C",
"~  c #8C6394",
"^  c #946B9C",
"/  c #8463A5",
"(  c #8C6BAD",
")  c #946BB5",
"_  c #9C73BD",
"`  c #944AC6",
"'  c #9452C6",
"]  c #9C52C6",
"[  c #A54ACE",
"{  c #A542D6",
"}  c #A54AD6",
"|  c #AD42D6",
" . c #AD42DE",
".. c #AD4AD6",
"X. c #A552CE",
"o. c #B542DE",
"O. c magenta",
"+. c #8C8CB5",
"@. c #9C94BD",
"#. c #94A5BD",
"$. c #BD84DE",
"%. c #B594D6",
"&. c #D6ADEF",
"*. c #EFE7F7",
"=. c None",
/* pixels */
"=.=.L K 7 ~ =.=.=.=.=.5 A ~ =.=.",
"=.=.8 { H ^ =.=.=.=.~ M W ~ =.=.",
"=.=.~ Z I T D G $.$.n Z | U F =.",
"=.=.=.~ - Q  .*.y *.l 4 m 2 =.=.",
"=.=.=.=.0 j $.S w u &.V ~ =.=.=.",
"=.=.=.=.=.X + *.z *.% ~ =.=.=.=.",
"=.=.=.=.=.  +.*.*.*.o ~ =.=.=.=.",
"=.=.=.=./ a *.O q r *.B =.=.=.=.",
"=.=.=.E A v %.*.w t *.Q ) =.=.=.",
"=.=._ ` p k ] *.O t *...[ B =.=.",
"=.( | i d ] R *.O t *.N } C x =.",
"~ Y J : I o.%.*.w e *.#.' ..< ~ ",
"~ N > 1 Q } *.w w w w *.Z o.h @ ",
"=.=.= c ..] @.*.*.*.*.# f ] R 9 ",
"=.=.=.! X.T s , . & ; $ 3 E T =.",
"=.=.=.=.=.P g * =.=.=.~ 6 b =.=."
};
