/* XPM */
static char *xpm_17[] = {
/* columns rows colors chars-per-pixel */
"16 16 45 1",
"  c black",
". c #001810",
"X c #181018",
"o c #291000",
"O c #291829",
"+ c #293931",
"@ c #392939",
"# c #393139",
"$ c #423142",
"% c #4A394A",
"& c #524A5A",
"* c #5A525A",
"= c #6B5A6B",
"- c #6B636B",
"; c #736373",
": c #736B73",
"> c #7B7B84",
", c #A50800",
"< c #A51018",
"1 c #B50800",
"2 c #8C5A6B",
"3 c #8C6373",
"4 c #8C6B73",
"5 c #8C6B7B",
"6 c #BD4A4A",
"7 c #C61000",
"8 c #847384",
"9 c #847B84",
"0 c #BD7B84",
"q c magenta",
"w c #8C848C",
"e c #BD949C",
"r c #A59CA5",
"t c #BDA5B5",
"y c #BDB5BD",
"u c #E7D6E7",
"i c #E7DEE7",
"p c #EFDEEF",
"a c #EFE7EF",
"s c #F7E7F7",
"d c #F7EFF7",
"f c #FFEFFF",
"g c #FFF7FF",
"h c gray100",
"j c None",
/* pixels */
"jjjjjjjjjjjjjjjj",
"jwwwwwwwwwwwwwwj",
"jwuiipaassddfgwj",
"jwiootaaiodoogwj",
"jwiipaa%-ddfggw:",
"jwioo%*8ry>o&gw:",
"jwip+*3,67e- gw:",
"jwpoO*2,170-ggw:",
"jwpaO&85<,9*ggw:",
"jwpo.@&;94=oohw:",
"jwaaaX@#*%$ghhw:",
"jwaass.OOtggghw:",
"jwaooootfogoohw:",
"jwassddfggghhhw:",
"jwwwwwwwwwwwwww:",
"jj::::::::::::::"
};
