/* XPM */
static char *xpm_23_big[] = {
/* columns rows colors chars-per-pixel */
"32 32 116 2",
"   c #000800",
".  c #001000",
"X  c #001800",
"o  c #001018",
"O  c #001021",
"+  c #001821",
"@  c #001829",
"#  c #002100",
"$  c #002900",
"%  c #003100",
"&  c #003900",
"*  c #002131",
"=  c #002139",
"-  c #002939",
";  c #003931",
":  c #082942",
">  c #08294A",
",  c #08314A",
"<  c #083152",
"1  c #083952",
"2  c #08395A",
"3  c #004200",
"4  c #004A00",
"5  c #005200",
"6  c #005A00",
"7  c #006300",
"8  c #006B00",
"9  c #007300",
"0  c #007B00",
"q  c #087B08",
"w  c #107310",
"e  c #006B21",
"r  c #006339",
"t  c #084A4A",
"y  c #084263",
"u  c #08426B",
"i  c #084A6B",
"p  c #084A73",
"a  c #084A7B",
"s  c #08527B",
"d  c #10527B",
"f  c #105284",
"g  c #105A84",
"h  c #105A8C",
"j  c #105A94",
"k  c #106394",
"l  c #10639C",
"z  c #106B9C",
"x  c #106BA5",
"c  c #1073AD",
"v  c #1073B5",
"b  c #107BB5",
"n  c #107BBD",
"m  c #187BBD",
"M  c #187BC6",
"N  c #008400",
"B  c #008C00",
"V  c #009400",
"C  c #009C00",
"Z  c #108410",
"A  c #188418",
"S  c #39AD39",
"D  c #088C63",
"F  c #08AD7B",
"G  c #4ABD4A",
"H  c #109484",
"J  c #10A594",
"K  c #1884C6",
"L  c #1884CE",
"P  c #188CCE",
"I  c #188CD6",
"U  c #188CDE",
"Y  c #1894DE",
"T  c #1894E7",
"R  c #189CE7",
"E  c #189CEF",
"W  c #189CF7",
"Q  c #18A5F7",
"!  c #18A5FF",
"~  c #18ADFF",
"^  c #219CCE",
"/  c #219CEF",
"(  c #299CE7",
")  c #21A5F7",
"_  c #21ADFF",
"`  c #29A5F7",
"'  c #29ADFF",
"]  c #21B5FF",
"[  c #21BDFF",
"{  c #29B5FF",
"}  c #29BDFF",
"|  c #31ADFF",
" . c #39ADFF",
".. c #31B5FF",
"X. c #31BDFF",
"o. c #39B5FF",
"O. c #21C6FF",
"+. c #21CEFF",
"@. c #29CEFF",
"#. c #29DEFF",
"$. c #31C6FF",
"%. c #39CEFF",
"&. c #42BDD6",
"*. c #42B5FF",
"=. c #42C6FF",
"-. c #42CEFF",
";. c #52CEFF",
":. c #5AD6EF",
">. c #52DEFF",
",. c #63E7FF",
"<. c #63EFFF",
"1. c #6BEFFF",
"2. c #7BFFFF",
"3. c magenta",
"4. c #94FFFF",
"5. c None",
/* pixels */
"5.5.5.5.5.5.5.5.5.5.5.5.5.5.5.5.5.5.5.5.5.5.5.5.5.5.5.5.5.5.5.5.",
"5.5.5.5.5.5.5.5.5.5.5.5.5.5.C C C C 5.5.5.5.5.5.5.5.5.5.5.5.5.5.",
"5.5.5.5.5.5.5.5.5.5.V V V C C C #.#.#.F V 5.5.5.5.5.5.5.5.5.5.5.",
"5.5.5.5.5.5.5.5.N N V V V V V V V V V V V B B 5.5.5.5.5.5.5.5.5.",
"5.5.5.5.5.5.5._ 9 N B B V V V V V B B B B N N N N 5.5.5.5.5.5.5.",
"5.5.5.5.5.5._ ! N N B B B B B B B B B B N 0 8 9 ~ H 5.5.5.5.5.5.",
"5.5.5.5.5._ Q 9 9 0 N N N N N N N N N N Z 8 E ] ] ] _ 5.5.5.5.5.",
"5.5.5.5.Q _ ! E N 9 N N N N 0 9 7 0 7 G q ` _ ] ] _ _ ! 5.5.5.5.",
"5.5.5.Q Q Q ! E T w A S 0 0 9 6 r 6 L 7 &.%.-.$.] ~ ! Q 5.5.5.5.",
"5.5.5.W E E Q { ;.5 6 w 9 0 8 ! _ ] _ R L ) -.>.X._ E E Q 5.5.5.",
"5.5.W E T T ' ,.4.2.1.I 8 q A _ ] O.] _ D ] _ [ X.| R T E 5.5.5.",
"5.5.E T Y Y | ;.1.;.o.K 3 5 6 J +.0 8 } Q L 6 I R Y Q U T E 5.5.",
"5.5.T Y I I ( o. ./ Y P z h & & 4 4 0 $.*.Y E =.:.7 _ I Y R 5.5.",
"5.T Y I I K I I I I I U Y Y Y P x t & 6 Y R ..@.@.[ <.I I Y 5.5.",
"5.Y I P L M m K L L L P P P I I P P x 4 ^ [ _ 7 7 7 7 E P U 5.5.",
"5.I I L K b v n n n K K K K K K K K n h & 3 8 6 5 5 6 9 E I 5.5.",
"5.P L K n v c c v v b b n n n n n n n n K P 6 5 5 5 5 7 8 Y 5.5.",
"5.L M n b c x x x x c c c c c c v v v n K e 5 4 4 4 5 5 6 T 5.5.",
"5.M n b v x z l l l z z x x x x x x x x x 4 4 3 3 4 4 5 5 7 5.5.",
"5.5.v c c x l k h h j k k k k k l l l h k 3 3 3 3 4 4 4 5 5 5.5.",
"5.5.c x x l k h g f f g g g h h h h h d f % & & 3 3 4 4 4 & 5.5.",
"5.5.x z l k h f s s p p s s s s s f s s p $ $ & & 3 3 3 4 5.5.5.",
"5.5.5.k k h f d p p u u u u i i p p i u y ,   $ % & 3 3 3 5.5.5.",
"5.5.5.h g f s p i u y 2 2 2 2 2 y y 2 2 1 , , $ $ & & & 5.5.5.5.",
"5.5.5.5.s a p i y y 2 1 , , , , < < , , < 1 , ; % % & p 5.5.5.5.",
"5.5.5.5.5.u u y 2 2 < , : - = - - - - : > : , $ $ % u 5.5.5.5.5.",
"5.5.5.5.5.5.2 2 < < : : = * @ @ @ @ * * * , X # $ 1 5.5.5.5.5.5.",
"5.5.5.5.5.5.5., : : = * @ @ O o o O + o @ O X X , 5.5.5.5.5.5.5.",
"5.5.5.5.5.5.5.5.* * @ @ O o o o o o o o o # * 5.5.5.5.5.5.5.5.5.",
"5.5.5.5.5.5.5.5.5.5.o o o o o o o o o o . o 5.5.5.5.5.5.5.5.5.5.",
"5.5.5.5.5.5.5.5.5.5.5.5.5.o o o o o 5.5.5.5.5.5.5.5.5.5.5.5.5.5.",
"5.5.5.5.5.5.5.5.5.5.5.5.5.5.5.5.5.5.5.5.5.5.5.5.5.5.5.5.5.5.5.5."
};
