/* XPM */
static char *xpm_49[] = {
/* columns rows colors chars-per-pixel */
"16 16 16 1",
"  c black",
". c gray3",
"X c gray13",
"o c #393939",
"O c gray29",
"+ c gray39",
"@ c magenta",
"# c #848484",
"$ c gray61",
"% c gray68",
"& c #C6C6C6",
"* c #CECECE",
"= c gray87",
"- c gray97",
"; c gray100",
": c None",
/* pixels */
"::::::::::::::::",
":+    O::O    +:",
": #;;  :: ;-# +:",
":: ;;;   ;--  ::",
":::o;;   ;-  :::",
":::o$;; ;-- X:::",
"::::X;;;-- X::::",
"::::: ;--  :::::",
"::::: ;--  :::::",
":::: ;--== O::::",
":::o$-- ==% ::::",
":::X--   **+.:::",
":: ;--   &&& X::",
": #--  :: %%% +:",
":+     ::     +:",
"::::::::::::::::"
};
