/* XPM */
static char *xpm_34[] = {
/* columns rows colors chars-per-pixel */
"16 16 58 1",
"  c #003131",
". c #083939",
"X c #103939",
"o c #183131",
"O c #391800",
"+ c #087B08",
"@ c #187373",
"# c #395A5A",
"$ c #421800",
"% c #422100",
"& c #422108",
"* c #4A2100",
"= c #4A2908",
"- c #522910",
"; c #633108",
": c #6B3918",
"> c #733918",
", c #631863",
"< c #5A4229",
"1 c #426310",
"2 c #7B4218",
"3 c #734221",
"4 c #7B4221",
"5 c #7B4A29",
"6 c #4A5A4A",
"7 c #5A00B5",
"8 c #632994",
"9 c #6300C6",
"0 c #6300CE",
"q c #7B29CE",
"w c #008400",
"e c #298C29",
"r c #08847B",
"t c #42847B",
"y c #844221",
"u c #8C4A21",
"i c #845221",
"p c #8C5221",
"a c #944A21",
"s c #945221",
"d c #9C5221",
"f c #9C5229",
"g c #A55221",
"h c #A55229",
"j c #A55A29",
"k c #AD5221",
"l c #AD5A29",
"z c #B54231",
"x c #EF3129",
"c c #F73129",
"v c #FF3129",
"b c #DE6321",
"n c #FF7B31",
"m c magenta",
"M c #FF8431",
"N c #94BDBD",
"B c #C6D6D6",
"V c None",
/* pixels */
"VVVVVVVVVVVVVVVV",
"VVVVVVVVVVVVV>4V",
"VVVVVV22a52VV45V",
"VVVVyaaasdduB4VV",
"VVVaww1sdddXNVVV",
"VVuue+isdd# h2VV",
"Vurr6aaddo ph2VV",
"-ut@sasd3 uh;VVV",
">907aad-.&h*VVVV",
"-8q,asddV<hVVVVV",
"Ouacxdddfhh2VVVV",
"V-zvvdddhhjl2VVV",
"VV:asjMMhhjll4VV",
"VVV=dbMnhjlllOVV",
"VV  %:kghjla$VVV",
"V  VVV$O%%%VVVVV"
};
