/* XPM */
static char *xpm_5[] = {
/* columns rows colors chars-per-pixel */
"16 16 62 1",
"  c #73737B",
". c #7B737B",
"X c #7B7B7B",
"o c #181894",
"O c #21188C",
"+ c #29298C",
"@ c #292994",
"# c #31298C",
"$ c #31299C",
"% c #31318C",
"& c #39318C",
"* c #31319C",
"= c #39319C",
"- c #39399C",
"; c #423984",
": c #4239A5",
"> c #524A84",
", c #5A5284",
"< c #5A5A84",
"1 c #4A42A5",
"2 c #524AA5",
"3 c #5A52AD",
"4 c #635AAD",
"5 c #736B84",
"6 c #6363B5",
"7 c #736BBD",
"8 c #7B73B5",
"9 c magenta",
"0 c #8484B5",
"q c #8484BD",
"w c #8C84BD",
"e c #948CBD",
"r c #8484C6",
"t c #9494C6",
"y c #A5A5D6",
"u c #B5ADC6",
"i c #B5ADCE",
"p c #B5ADD6",
"a c #BDB5CE",
"s c #BDB5D6",
"d c #C6BDCE",
"f c #C6BDD6",
"g c #CEC6CE",
"h c #CEC6D6",
"j c #CEC6DE",
"k c #D6C6D6",
"l c #D6CED6",
"z c #D6CEDE",
"x c #DED6DE",
"c c #D6CEE7",
"v c #DED6EF",
"b c #DEDEE7",
"n c #E7DEE7",
"m c #E7DEEF",
"M c #EFE7EF",
"N c #EFEFEF",
"B c #EFEFF7",
"V c #F7EFF7",
"C c gray97",
"Z c #FFF7FF",
"A c gray100",
"S c None",
/* pixels */
"SSSSSSSSSSSSSSSS",
"XXXXXXXXXSSSSSSS",
"XlxxnMVCXSXXXXXS",
"XllxnMVCXSXfsNXS",
"XklxnMmc<r%-4bXS",
"Xgdww61:#r,uzMXS",
"Xg0o=qpv.SXXXXXS",
"Xghe*2jVXSSSSSSS",
"Xglla1-pXSSSSSSS",
"XXXXX ;O>SSSSSSS",
"SSSSSSSy$75XXXXX",
"SSSSSSSS71+iMVAX",
"SSSSSSSSSS&@tBZX",
"SSSSSSSSSS.83bZX",
"SSSSSSSSSSXlzMVX",
"SSSSSSSSSSXXXXXX"
};
