/* XPM */
static char *xpm_30[] = {
/* columns rows colors chars-per-pixel */
"16 16 132 2",
"   c #393100",
".  c #393900",
"X  c #313110",
"o  c #313910",
"O  c #394200",
"+  c #394A00",
"@  c #314218",
"#  c #314A18",
"$  c #315200",
"%  c #395200",
"&  c #394229",
"*  c #317B18",
"=  c #396321",
"-  c #396B21",
";  c #396B31",
":  c #397321",
">  c #423100",
",  c #4A3100",
"<  c #4A3900",
"1  c #523100",
"2  c #5A3900",
"3  c #523118",
"4  c #4A3121",
"5  c #523121",
"6  c #6B3100",
"7  c #6B3110",
"8  c #6B3118",
"9  c #6B3131",
"0  c #6B3931",
"q  c #424200",
"w  c #4A4200",
"e  c #4A4A00",
"r  c #4A4A10",
"t  c #425A00",
"y  c #4A5200",
"u  c #4A5A00",
"i  c #425A10",
"p  c #524200",
"a  c #524A00",
"s  c #5A4A00",
"d  c #525A00",
"f  c #4A5231",
"g  c #525A29",
"h  c #4A6300",
"j  c #4A6B00",
"k  c #426B10",
"l  c #4A6B18",
"z  c #427B10",
"x  c #4A7B10",
"c  c #526300",
"v  c #5A6B00",
"b  c #4A6B31",
"n  c #427331",
"m  c #526B21",
"M  c #634200",
"N  c #634A18",
"B  c #6B4210",
"V  c #635A00",
"C  c #6B5200",
"Z  c #635221",
"A  c #6B5231",
"S  c #6B5A31",
"D  c #734239",
"F  c #734A31",
"G  c #6B6B10",
"H  c #6B6B29",
"J  c #6B6B31",
"K  c #736B39",
"L  c #6B6B42",
"P  c #6B7B42",
"I  c #7B634A",
"U  c #7B6B42",
"Y  c #737B4A",
"T  c #398431",
"R  c #399C21",
"E  c #399C39",
"W  c #4A8431",
"Q  c #429C31",
"!  c #429C39",
"~  c #4A9C39",
"^  c #429C42",
"/  c #4A9C52",
"(  c #529442",
")  c #529C4A",
"_  c #5A9C42",
"`  c #5AA54A",
"'  c #52A552",
"]  c #4AA563",
"[  c #6B844A",
"{  c #6B8452",
"}  c #639C4A",
"|  c #6B9C5A",
" . c #6B846B",
".. c #639C63",
"X. c #6B9C63",
"o. c #63A55A",
"O. c #73B56B",
"+. c #9C395A",
"@. c #844231",
"#. c #9C4231",
"$. c #9C5231",
"%. c #8C6B31",
"&. c #BD5239",
"*. c #94524A",
"=. c #9C5242",
"-. c #9C524A",
";. c #9C5A42",
":. c #9C5A52",
">. c #9C5A5A",
",. c #846B52",
"<. c #9C6342",
"1. c #9C6B42",
"2. c #9C6352",
"3. c #9C6B6B",
"4. c #947B6B",
"5. c #A54A5A",
"6. c #B54A52",
"7. c #A55A63",
"8. c #A57B6B",
"9. c #B5636B",
"0. c #C64A63",
"q. c magenta",
"w. c #ADA54A",
"e. c #ADBD5A",
"r. c #A5AD6B",
"t. c #8CC66B",
"y. c #A5D69C",
"u. c #D6A584",
"i. c #E7A584",
"p. c #DEDEBD",
"a. c #F7D6BD",
"s. c None",
/* pixels */
"s.s.s.s.s.s.s.s.s.s.s.s.s.s.s.s.",
"s.s.s.s.s.] / } ' ` ..|  .s.s.s.",
"s.s.s.^ ^ ! ) _ o.O.t.[ P 4.s.s.",
"s.s.E ^ ~ Q ( X.y.p.{ L U ,.s.s.",
"s.R Q T n ; W n n m b J %.1.3.s.",
"s.* : l - - = g & f i A @.;.2.s.",
"s.z l k % + # $ @ 3 Z F *.<.>.s.",
"s.x v e.r.d e o X 5 S I 1.;.9.s.",
"s.s.h j w.H + < , 3 0 i.:.+.0.s.",
"s.s.j e h G r .   4 K a.-.6.s.s.",
"s.s.s.c u t a O q 1 D u.>.7.s.s.",
"s.s.s.Y y V s 1 2 N 9 =.5.s.s.s.",
"s.s.s.s.s., p M w 6 B $.&.s.s.s.",
"s.s.s.s.s.s.J > C 8 7 #.s.s.s.s.",
"s.s.s.s.s.s.s.s.8.7 s.s.s.s.s.s.",
"s.s.s.s.s.s.s.s.s.s.s.s.s.s.s.s."
};
