/* XPM */
static char *xpm_23[] = {
/* columns rows colors chars-per-pixel */
"16 16 65 1",
"  c #001800",
". c #001018",
"X c #001021",
"o c #001829",
"O c #002900",
"+ c #003100",
"@ c #003900",
"# c #002131",
"$ c #002939",
"% c #082942",
"& c #08314A",
"* c #08395A",
"= c #004200",
"- c #004A00",
"; c #005200",
": c #005A00",
"> c #007300",
", c #007B00",
"< c #107310",
"1 c #006B21",
"2 c #084A4A",
"3 c #084263",
"4 c #08426B",
"5 c #084A73",
"6 c #08527B",
"7 c #105284",
"8 c #105A8C",
"9 c #106394",
"0 c #10639C",
"q c #106B9C",
"w c #106BA5",
"e c #1073AD",
"r c #1073B5",
"t c #107BB5",
"y c #107BBD",
"u c #008400",
"i c #008C00",
"p c #009400",
"a c #009C00",
"s c #4ABD4A",
"d c #109484",
"f c #10A594",
"g c #1884C6",
"h c #1884CE",
"j c #188CCE",
"k c #188CD6",
"l c #188CDE",
"z c #1894DE",
"x c #1894E7",
"c c #189CE7",
"v c #189CEF",
"b c #189CF7",
"n c #18A5FF",
"m c #21A5F7",
"M c #21ADFF",
"N c #29A5F7",
"B c #21B5FF",
"V c #21BDFF",
"C c #29B5FF",
"Z c #29BDFF",
"A c #29CEFF",
"S c #52CEFF",
"D c #52DEFF",
"F c magenta",
"G c None",
/* pixels */
"GGGGGGGaaGGGGGGG",
"GGGGupppppiGGGGG",
"GGGnuiiiii,>dGGG",
"GGMv>uu>,sNBMnGG",
"GbvC;<,nBcmDMvGG",
"GxzSSg;f,ZhkzlvG",
"xkgkklzj2:cAVkzG",
"khtyygggg8=:;>kG",
"hyewweeery1--;xG",
"Gew9899908==--;G",
"Gq97656676O@==GG",
"G8754***3*&O@@GG",
"GG43*&$$$%%O+GGG",
"GGG&%#o.X.X GGGG",
"GGGGG......GGGGG",
"GGGGGGGGGGGGGGGG"
};
