/* XPM */
static char *xpm_11_big[] = {
/* columns rows colors chars-per-pixel */
"32 32 203 2",
"   c #080000",
".  c #100000",
"X  c #100800",
"o  c #100808",
"O  c #180800",
"+  c #290800",
"@  c #211008",
"#  c #291810",
"$  c #311808",
"%  c #211821",
"&  c #212139",
"*  c #101042",
"=  c #101842",
"-  c #10184A",
";  c #18184A",
":  c #18105A",
">  c #181852",
",  c #18185A",
"<  c #181863",
"1  c #102952",
"2  c #10295A",
"3  c #18316B",
"4  c #211852",
"5  c #21185A",
"6  c #211863",
"7  c #21186B",
"8  c #291863",
"9  c #29186B",
"0  c #212142",
"q  c #312952",
"w  c #392152",
"e  c #39215A",
"r  c #39295A",
"t  c #31394A",
"y  c #39314A",
"u  c #39395A",
"i  c #21296B",
"p  c #29216B",
"a  c #312163",
"s  c #31216B",
"d  c #312963",
"f  c #392163",
"g  c #39296B",
"h  c #312173",
"j  c #31297B",
"k  c #392173",
"l  c #39217B",
"z  c #392973",
"x  c #39297B",
"c  c #31427B",
"v  c #523110",
"b  c #422131",
"n  c #4A294A",
"m  c #4A295A",
"M  c #42315A",
"N  c #52295A",
"B  c #523152",
"V  c #422163",
"C  c #42296B",
"Z  c #4A2963",
"A  c #4A296B",
"S  c #422973",
"D  c #42297B",
"F  c #4A2973",
"G  c #4A297B",
"H  c #423163",
"J  c #4A3163",
"K  c #423973",
"L  c #4A317B",
"P  c #4A397B",
"I  c #523163",
"U  c #52316B",
"Y  c #5A3163",
"T  c #5A396B",
"R  c #523173",
"E  c #52317B",
"W  c #52397B",
"Q  c #5A317B",
"!  c #63394A",
"~  c #6B395A",
"^  c #633963",
"/  c #5A4A39",
"(  c #5A4252",
")  c #5A4263",
"_  c #52427B",
"`  c #7B424A",
"'  c #735252",
"]  c #7B525A",
"[  c #6B4A63",
"{  c #63427B",
"}  c #6B5273",
"|  c #734A6B",
" . c #73427B",
".. c #734A73",
"X. c #7B4A73",
"o. c #7B5A6B",
"O. c #314284",
"+. c #394A9C",
"@. c #422984",
"#. c #4A3184",
"$. c #523184",
"%. c #523984",
"&. c #5A3184",
"*. c #5A318C",
"=. c #5A3984",
"-. c #5A398C",
";. c #63318C",
":. c #633984",
">. c #63398C",
",. c #6B318C",
"<. c #6B3984",
"1. c #633194",
"2. c #73319C",
"3. c #73399C",
"4. c #7329AD",
"5. c #7331A5",
"6. c #7B31A5",
"7. c #7B39A5",
"8. c #5A428C",
"9. c #63428C",
"0. c #6B4284",
"q. c #6B428C",
"w. c #6B4A8C",
"e. c #634294",
"r. c #6B4294",
"t. c #6B429C",
"y. c #6B4A94",
"u. c #6B4A9C",
"i. c #734A84",
"p. c #734A8C",
"a. c #73429C",
"s. c #734A9C",
"d. c #7B5A84",
"f. c #735294",
"g. c #73529C",
"h. c #7B5294",
"j. c #7B529C",
"k. c #7B4AA5",
"l. c #7B52A5",
"z. c #7B5AA5",
"x. c #844A5A",
"c. c #8C5A52",
"v. c #84526B",
"b. c #845A63",
"n. c #845A6B",
"m. c #845273",
"M. c #84527B",
"N. c #845A73",
"B. c #845A7B",
"V. c #945A73",
"C. c #8C634A",
"Z. c #9C6B6B",
"A. c #94737B",
"S. c #8431AD",
"D. c #8C39BD",
"F. c #9431B5",
"G. c #9439C6",
"H. c #9C39C6",
"J. c #9C39CE",
"K. c #A539CE",
"L. c #845A94",
"P. c #8C5A9C",
"I. c #844AAD",
"U. c #8C42B5",
"Y. c #8C4AB5",
"T. c #8452AD",
"R. c #845AAD",
"E. c #8C52BD",
"W. c #8C5AB5",
"Q. c #8C5ABD",
"!. c #944ABD",
"~. c #9452BD",
"^. c #945ABD",
"/. c #8C6384",
"(. c #8C6B8C",
"). c #8C639C",
"_. c #8C6B94",
"`. c #8C6B9C",
"'. c #9C738C",
"]. c #947394",
"[. c #8463A5",
"{. c #8463AD",
"}. c #A55AB5",
"|. c #9442C6",
" X c #944AC6",
".X c #9C42C6",
"XX c #9C4AC6",
"oX c #9C4ACE",
"OX c #9452C6",
"+X c #9C52C6",
"@X c #A542CE",
"#X c #A54ACE",
"$X c #A54AD6",
"%X c #AD42D6",
"&X c #AD42DE",
"*X c #AD4AD6",
"=X c #B542DE",
"-X c #B542E7",
";X c #BD42E7",
":X c magenta",
">X c #C6739C",
",X c #C673A5",
"<X c None",
/* pixels */
"<X<X<X<X<X<X<X<X<X<X<X<X<X<X+   <X<X<X<X<X<X<X<X<X<X<X<X<X<X<X<X",
"<X<X<X<X<X<X<X<X<X<X<X<X<X+ <X<X. <X<X<X<X<X<X<X<X<X<X<X<X<X<X<X",
"<X<X<X<X<X<X<X<X<X<X<X<X<X<X<X<X$ <X<X<X<X<X<X<X<X<X<X<X<X<X<X<X",
"<X<X<X<X<X<X<X<X<X<X<X<X<X#   + + . . + <X<X<X<X<X<X<X<X<X<X<X<X",
"<X<X<X<X<X<X<X<X<X<X<X<X+ <X<X<X<X<X<X<X+ <X<X<X<X<X<X<X<X<X<X<X",
"<X<X<X<X<X<X<X<X<X<X+ + X     o % % o     O <X<X<X<X<X<X<X<X<X<X",
"<X<X<X<X<X<X<Xi. .b v + <X<X<X<X<X<X<X<X<X+ @ ^  .v.<X<X<X<X<X<X",
"<X<X<X<X<X/.M.J.J.,.Y N.<X<X<X<X<X<X<X<X<X<Xw y.l.h.X.<X<X<X<X<X",
"<X<X<X<X<Xo.@.;XoX|.U.g.V.<X<X<X<X<X<X<X<X] y. X#X!.s.V.<X<X<X<X",
"<X<X<X<X<X<X| 4.R.Y.Y.R.s.x.c.Z.>X,X'.A.B.9.y.!.%X=X+X>.n.<X<X<X",
"<X<X<X<X<X<X<X) f.=.=.R.~.7.2.6.G.;XS.2.3.s.E q.Y.@XF.Q [ <X<X<X",
"<X<X<X<X<X<X<X<Xm.r d T.;X;X=XD.E K.%X=XJ.;.E A :.w.n ! <X<X<X<X",
"<X<X<X<X<X<X<X<X<X/ q ;.=X=X+Xg.E E l.oX=X&X*.R U I B <X<X<X<X<X",
"<X<X<X<X<X<X<X<X<X<XC.7 {.{.{.l.>.>.z.{.{.R.7 <X<X<X<X<X<X<X<X<X",
"<X<X<X<X<X<X<X<X<X<X<X= 7 7 7 h >.>.>.>.#.7 7 <X<X<X<X<X<X<X<X<X",
"<X<X<X<X<X<X<X<X<X<X<X= 7 7 l *.>.>.>.D 6 = = <X<X<X<X<X<X<X<X<X",
"<X<X<X<X<X<X<X<X<X<X} = - - 5 p c +.O.i : , e <X<X<X<X<X<X<X<X<X",
"<X<X<X<X<X<X<X<X<X`.g._ g ; * - 1 3 2 - > k y.d.<X<X<X<X<X<X<X<X",
"<X<X<X<X<X<X<X<X[.{.z.s.s.P K K K K K K W r.{.y._.<X<X<X<X<X<X<X",
"<X<X<X<X<X<X<Xr.E.T.r.&.{.~.W.{.{.{.{.l.g.R.~.~.W.).<X<X<X<X<X<X",
"<X<X<X<X<X<XR.Q.@X5.G F Q.$X~.R.l.l.R.9.=.j.%X-X#Xk.R <X<X<X<X<X",
"<X<X<X<X<Xa.W.&Xt.x h &.;XW.R.y.F F g.9.F A R.$X-XH.E E <X<X<X<X",
"<X<X<X<Xg.~.=Xy.9 D r.W.;XW.9.E F A F E F A >.l.oX*XR.E E <X<X<X",
"<X<X<X0.g.~.=Xy.9 8.~.-X;XW.9.E F 7 S E E *.A g.oX-X-XR.j k <X<X",
"<X<X0.l.XX.X1.; L s.~.-XW.R.9.E &.7 S =.-.E A 9.l.OX-X{.%.s s <X",
"<X<Xl.R.a.;.A = y.R.~.=X{.g.=.E *.- f =.9.F ; C y.~.-X*X;.s 7 <X",
"<X<X<X(.{ f 4 , g.OX*X=X{.9.&.E F = 8 S E F = e =.l.+X;XI.%.J <X",
"<X<X<X<Xb.( y l l.#X&X+X{.=.&.&.V = < L :.A = e E e.R.;X^.u...<X",
"<X<X<X<X<X<X' r.R.#X$X{.{.=.&.$.a = > z %.a = e A =.R.#XT.L.<X<X",
"<X<X<X<X<X<X<X].].}.+XR.l.=.$.D 8 & t u H M 0 m Z E l.z.f.<X<X<X",
"<X<X<X<X<X<X<X<X<X<X(.P.q.0.A e N <X<X<X<X<X<X` ~ T <.p.<X<X<X<X",
"<X<X<X<X<X<X<X<X<X<X<X<X<X<X<X<X<X<X<X<X<X<X<X<X<X<X<X<X<X<X<X<X"
};
