/* XPM */
static char *xpm_41_big[] = {
/* columns rows colors chars-per-pixel */
"32 32 78 1",
"  c black",
". c #312118",
"X c #392118",
"o c #392918",
"O c #212129",
"+ c #292121",
"@ c #292129",
"# c gray16",
"$ c #312121",
"% c #312929",
"& c #392921",
"* c #4A2108",
"= c #422110",
"- c #4A2110",
"; c #522108",
": c #522910",
"> c #5A2918",
", c #423129",
"< c #4A3929",
"1 c #523121",
"2 c #633929",
"3 c #5A4239",
"4 c #634229",
"5 c #634231",
"6 c #634239",
"7 c #6B4231",
"8 c #6B4A39",
"9 c #6B4A42",
"0 c #635A4A",
"q c #6B5242",
"w c #735242",
"e c #735A4A",
"r c #7B735A",
"t c #737363",
"y c #7B7363",
"u c #7B737B",
"i c #7B7B84",
"p c #846B63",
"a c #8C7B73",
"s c #847B8C",
"d c magenta",
"f c #8C8C73",
"g c #8C8C7B",
"h c #84848C",
"j c #848C84",
"k c #848C94",
"l c #8C8C94",
"z c #8C948C",
"x c #8C949C",
"c c #948C84",
"v c #949484",
"b c #9C948C",
"n c gray58",
"m c #94949C",
"M c #949C94",
"N c #9C9494",
"B c #9C9C94",
"V c gray61",
"C c #949CA5",
"Z c #9C9CA5",
"A c #94A59C",
"S c #9CA594",
"D c #9CA59C",
"F c #94A5A5",
"G c #9CA5AD",
"H c #9CADA5",
"J c #9CADAD",
"K c #9CB5AD",
"L c #A5A5A5",
"P c #A5ADA5",
"I c #A5ADAD",
"U c #A5B5AD",
"Y c #ADB5B5",
"T c #ADBDB5",
"R c #ADBDBD",
"E c #ADC6C6",
"W c #B5CECE",
"Q c None",
/* pixels */
"QQQQQQQQQQQQQQQQQQQQQQQQQQQQQQQQ",
"QQQQQQQQQQQQQQQQQQQQQQQQQQQQQQQQ",
"QQQQQQQQQQQQQQQQQQQQQQQQQQQQQQQQ",
"QQQQQQQTEEEEEEjQQQQQQQQQQQQQQQQQ",
"QQQQQQNWWWWWWWAyQQQQgggfQQQQQQQQ",
"QQQQQNIWWWWWWWRLBQQVEWWRvrEQQQQQ",
"QQQQQNRLIWWWYLLLVuREEWWEETLVQQQQ",
"QQQQNSEYYWRRILLZnxREREEEWEYYgQQQ",
"QQQQNWWWWWLLLLLmhELEIRYYWWWWW0:Q",
"QQQQMRIIWWEEILLmhEEEEEERIIIWI4.Q",
"QQQQDRYYERRRILVmxRRERRERYYYWY2.Q",
"QQQSWWWWELLLLLnkELLEILYWWWWWW5.Q",
"QQQSRIYWEEEILLnkEEEEEEYIIIWW8&QQ",
"QQQPRIYERREILVnCRERREWRIIYER>+QQ",
"QQPWWWWELLEILlxRIELLEWWWWWELO+QQ",
"QQPYIIYERRILLlxEEERREWRIYWEROQQQ",
"QQUYIIYRRRLLVlCEERRREWRIYEHOOQQQ",
"QTWWWWRLLLLLhFRIELLLEWWWWKNOQQQQ",
"QTYIIRERRLLLhFEEERRREYIREN:OQQQQ",
"QRYIIYEEELLVlGEEEEEEWYIYRB4OQQQQ",
"TWWWWRLLLLLsJYLIELLEWWWWWN<QQQQQ",
"YYYYYILLLLLsJERRERREYYRANt<QQQQQ",
"bbbbbbNLLLVhJEEEEEWWIIRzN<<QQQQQ",
";;;;;;7LLLiVLLLLLLWWWWWRa-OQQQQQ",
"11o...,www6qwNNNLLYYYERc6$QQQQQQ",
"QQQ@@@$*****;;<NNNNNLRYp=#QQQQQQ",
"QQQQQQQOOOOO=;;;;;;;cLLp=#QQQQQQ",
"QQQQQQQQQQQQ&OOOOOXX9ee3&QQQQQQQ",
"QQQQQQQQQQQQQQQQ    -;;X%QQQQQQQ",
"QQQQQQQQQQQQQQQQQQQQ#OOOQQQQQQQQ",
"QQQQQQQQQQQQQQQQQQQQQQQQQQQQQQQQ",
"QQQQQQQQQQQQQQQQQQQQQQQQQQQQQQQQ"
};
