/* XPM */
static char *xpm_55[] = {
/* columns rows colors chars-per-pixel */
"16 16 45 1",
"  c black",
". c #101010",
"X c #292900",
"o c #212110",
"O c #292918",
"+ c #313118",
"@ c gray13",
"# c #292921",
"$ c #313131",
"% c #393939",
"& c #4A4A00",
"* c #4A4A18",
"= c #525200",
"- c #424231",
"; c #424239",
": c #636318",
"> c #7B7B31",
", c gray45",
"< c #7B7B7B",
"1 c magenta",
"2 c #848418",
"3 c #B5B539",
"4 c #CECE52",
"5 c #CECE6B",
"6 c #CECE7B",
"7 c #D6D66B",
"8 c #D6D673",
"9 c #D6D67B",
"0 c #DEDE73",
"q c #DEDE7B",
"w c #E7DE73",
"e c #E7E77B",
"r c #848484",
"t c gray55",
"y c gray58",
"u c gray61",
"i c #DEDE84",
"p c #E7E784",
"a c #E7E78C",
"s c #EFEF8C",
"d c #EFEF94",
"f c #F7F794",
"g c #F7F79C",
"h c #FFFF9C",
"j c None",
/* pixels */
"jjjjjjjjjjjjjjjj",
"jj&&&&Xjjjjjjjjj",
"j29iadwXjjjjjjjj",
">5780qe4=&&&&&&j",
"3699iipaasdfghh+",
"3699Ouuyytt@ghh>",
"3699;uuyytt%ghh>",
"3699oyyyttr ghh>",
"3699;yyttrr%hhh>",
"3699Otttrr<.ghh>",
"3699#rrr<<,.ghh>",
"3699-rr<<,,$ghh>",
"3699orr<<,, ghh>",
"3699iipaasdfghh>",
":>>>>>>>>>>>>>>*",
"jjjjjjjjjjjjjjjj"
};
