/* XPM */
static char *xpm_53_big[] = {
/* columns rows colors chars-per-pixel */
"32 32 141 2",
"   c black",
".  c #101010",
"X  c #313100",
"o  c #2921CE",
"O  c #2929C6",
"+  c #2929CE",
"@  c #2931C6",
"#  c #2931CE",
"$  c #3121C6",
"%  c #3121CE",
"&  c #3129C6",
"*  c #3921CE",
"=  c #3121D6",
"-  c #3129D6",
";  c #3921D6",
":  c #3929D6",
">  c #3131C6",
",  c #3139C6",
"<  c #3139CE",
"1  c #3931C6",
"2  c #3931CE",
"3  c #294ABD",
"4  c #3963B5",
"5  c #2942C6",
"6  c #294AC6",
"7  c #3142C6",
"8  c #314AD6",
"9  c #4221D6",
"0  c #4221DE",
"q  c #4229D6",
"w  c #4229DE",
"e  c #4A21D6",
"r  c #4A21DE",
"t  c #4A29D6",
"y  c #4A29DE",
"u  c #4A31D6",
"i  c #5221D6",
"p  c #5221DE",
"a  c #4A21E7",
"s  c #5229E7",
"d  c #5231EF",
"f  c #5A31F7",
"g  c #4252BD",
"h  c #4A5AB5",
"j  c #525ABD",
"k  c #5A5ABD",
"l  c #526BAD",
"z  c #5263BD",
"x  c #5A63B5",
"c  c #5A6BBD",
"v  c #5273AD",
"b  c #5A73B5",
"n  c #5A7BB5",
"m  c #636BB5",
"M  c #6373AD",
"N  c #737BAD",
"B  c #424AC6",
"V  c #4A52C6",
"C  c #4A5ACE",
"Z  c #524ADE",
"A  c #5252C6",
"S  c #5A5ACE",
"D  c #5A63DE",
"F  c #5A7BC6",
"G  c #6342DE",
"H  c #6B4ADE",
"J  c #6342E7",
"K  c #634AEF",
"L  c #6B4AE7",
"P  c #7B5AEF",
"I  c #7B63E7",
"U  c #738CAD",
"Y  c #7B94AD",
"T  c #7B9CB5",
"R  c #8473D6",
"E  c magenta",
"W  c #A5A500",
"Q  c #CECE7B",
"!  c #CED67B",
"~  c #D6CE7B",
"^  c #D6D663",
"/  c #D6D67B",
"(  c #949C9C",
")  c #8494AD",
"_  c #8C9CA5",
"`  c #8C9CAD",
"'  c #9CAD94",
"]  c #9CADA5",
"[  c #A5B58C",
"{  c #ADB594",
"}  c #ADBD9C",
"|  c #B5BD8C",
" . c #B5B59C",
".. c #B5BD94",
"X. c #BDBD9C",
"o. c #ADADA5",
"O. c #B5B5A5",
"+. c #B5BDB5",
"@. c #8C8CC6",
"#. c #9484D6",
"$. c #9C84D6",
"%. c #9C94DE",
"&. c #AD94CE",
"*. c #B5A5C6",
"=. c #BDC684",
"-. c #BDC68C",
";. c #C6BDB5",
":. c #C6CE84",
">. c #CECE84",
",. c #CECE8C",
"<. c #CED694",
"1. c #D6D684",
"2. c #D6DE84",
"3. c #DED684",
"4. c #DEDE84",
"5. c #DEDE8C",
"6. c #DEDE94",
"7. c #DEDE9C",
"8. c #C6CEA5",
"9. c #CED6A5",
"0. c #D6CEB5",
"q. c #D6D6AD",
"w. c #DED6A5",
"e. c #DED6AD",
"r. c #DEDEA5",
"t. c #DEE79C",
"y. c #E7DE8C",
"u. c #E7DEAD",
"i. c #E7E78C",
"p. c #EFE78C",
"a. c #EFEF94",
"s. c #EFEF9C",
"d. c #F7EF94",
"f. c #F7F794",
"g. c #F7F79C",
"h. c #FFF79C",
"j. c #FFFF9C",
"k. c #EFEFA5",
"l. c #F7F7AD",
"z. c #FFFFA5",
"x. c None",
/* pixels */
"x.x.x.x.x.x.x.x.x.x.x.x.x.x.x.x.x.x.x.x.x.x.x.x.x.x.x.x.x.x.x.x.",
"x.x.x.x.x.x.x.x.x.x.x.x.x.x.x.x.x.x.x.x.x.x.x.x.x.x.x.x.x.x.x.x.",
"x.x.x.x.x.x.x.x.x.x.x.x.x.x.x.x.x.x.x.x.x.x.x.x.x.x.x.x.x.x.x.x.",
"x.x.x.x.W W W W W W W W W . x.x.x.x.x.x.x.x.x.x.x.x.x.x.x.x.x.x.",
"x.x.x.W 3.4.y.i.p.a.d.g.h.W . x.x.x.x.x.x.x.x.x.x.x.x.x.x.x.x.x.",
"x.x.W / 3.4.y.i.p.a.d.g.h.j.W . x.x.x.x.x.x.x.x.x.x.x.x.x.x.x.x.",
"x.W Q / 1.4.5.i.i.a.a.f.g.j.z.W . x.x.x.x.x.x.x.x.x.x.x.x.x.x.x.",
"W ^ ^ ^ ^ ^ ^ ^ ^ ^ ^ ^ ^ ^ ^ ^ W W W W W W W W W W W W W W x.x.",
"W Q ~ / 1.1.3.3.4.4.y.y.i.i.i.p.a.a.a.d.d.f.g.g.h.j.j.j.z.z.  x.",
"W Q ~ / 1.1.3.3.4.4.y.y.i.i.i.p.a.w.&.e.d.f.g.g.h.j.j.j.z.z.^ . ",
"W Q ~ / 1.1.3.3.,.#.I @.5.i.i.p.a.*.d C r.f.g.g.h.j.j.j.z.z.^ X ",
"W Q ~ / 1.1.3.! X.H r w ` i.i.p.a.I y j t.f.g.g.h.j.j.j.z.z.^ X ",
"W Q ~ / 1.1.3.3.4.( q p A ` 6.6.0.L V 7.d.f.g.g.h.j.j.j.z.z.^ X ",
"W Q ~ / 1.1.3.3.4.:.k p i t < , G r z d.d.f.g.g.h.j.j.j.z.z.^ X ",
"W Q ~ / 1.1.3.3.4.4.c i e 9 9 9 9 9 q ) d.$.f J u.j.j.j.z.z.^ X ",
"W Q ~ / 1.1.3.3.4.o.u e 9 9 9 9 9 9 ; - S y * 1 ;.j.j.j.z.z.^ X ",
"W Q ~ / 1.1.3.3.O.P s 9 9 9 9 9 9 ; = = % $ m 8.h.j.j.j.z.z.^ X ",
"W Q ~ / 1.1.3. .K a 9 9 9 9 9 9 ; = = % % x k.g.h.j.j.j.z.z.^ X ",
"W Q ~ / 1.1.3.Z 0 9 9 9 9 9 9 = = % % % % U g.g.h.j.j.j.z.z.^ X ",
"W Q ~ / 1.1.3.h 2 2 q 9 9 9 = = % % % % + n k.g.h.j.j.j.z.z.^ X ",
"W Q ~ / 1.1.3.=.[ [ N : ; = = % % % % o + 5 F %.l.j.j.j.z.z.^ X ",
"W Q ~ / 1.1.3.3.4.4.y.M = = % % % % + + O @ # 8 +.j.j.j.z.z.^ X ",
"W Q ~ / 1.1.3.3.4.4.1.R * % % % % + + O b 9.4 T h.j.j.j.z.z.^ X ",
"W Q ~ / 1.1.3.3.4.>.R : & > > & + + + 7 q.f.g.g.h.j.j.j.z.z.^ X ",
"W Q ~ / 1.1.3.3.4.-.B > l { ..v g @ + + D s.g.g.h.j.j.j.z.z.^ X ",
"W Q ~ / 1.1.3.3.4.4.| ' 2.i.i.p.<._ 3 6 Y f.g.g.h.j.j.j.z.z.^ X ",
"W Q ~ / 1.1.3.3.4.4.y.y.i.i.i.p.a.a.} ] d.f.g.g.h.j.j.j.z.z.^ X ",
"W Q ~ / 1.1.3.3.4.4.y.y.i.i.i.p.a.a.a.d.d.f.g.g.h.j.j.j.z.z.^ X ",
"W ^ ^ ^ ^ ^ ^ ^ ^ ^ ^ ^ ^ ^ ^ ^ ^ ^ ^ ^ ^ ^ ^ ^ ^ ^ ^ ^ ^ ^ ^ X ",
"x.X X X X X X X X X X X X X X X X X X X X X X X X X X X X X X x.",
"x.x.x.x.x.x.x.x.x.x.x.x.x.x.x.x.x.x.x.x.x.x.x.x.x.x.x.x.x.x.x.x.",
"x.x.x.x.x.x.x.x.x.x.x.x.x.x.x.x.x.x.x.x.x.x.x.x.x.x.x.x.x.x.x.x."
};
