/* XPM */
static char *xpm_57[] = {
/* columns rows colors chars-per-pixel */
"16 16 58 1",
"  c #292900",
". c #313118",
"X c #422118",
"o c #4A3929",
"O c #4A4A00",
"+ c #4A4A18",
"@ c #525200",
"# c #524A39",
"$ c #636318",
"% c #7B7B31",
"& c #6B524A",
"* c #6B5A52",
"= c #6B6B4A",
"- c #73734A",
"; c #846B63",
": c #847B73",
"> c magenta",
", c #848418",
"< c #B5B539",
"1 c #94945A",
"2 c #9C9C73",
"3 c #CECE52",
"4 c #CECE6B",
"5 c #CECE7B",
"6 c #D6D66B",
"7 c #D6D673",
"8 c #D6D67B",
"9 c #DEDE73",
"0 c #DEDE7B",
"q c #E7DE73",
"w c #E7E77B",
"e c #8C8C94",
"r c #8C9494",
"t c #9C9C8C",
"y c #9C9494",
"u c gray61",
"i c #9CADB5",
"p c #A5AD8C",
"a c #ADAD94",
"s c #A5A5A5",
"d c #A5ADAD",
"f c #ADB5B5",
"g c #ADBDB5",
"h c #ADBDBD",
"j c #ADC6C6",
"k c #CECE84",
"l c #C6CE9C",
"z c #D6D684",
"x c #DEDE84",
"c c #E7DE84",
"v c #E7E784",
"b c #E7E78C",
"n c #EFEF8C",
"m c #EFEF94",
"M c #F7F794",
"N c #F7F79C",
"B c #FFFF9C",
"V c None",
/* pixels */
"VVVVVVVVVVVVVVVV",
"VVOOOO VVVVVVVVV",
"V,8xbmq VVVVVVVV",
"%46790w3@OOOOOOV",
"<588xxvbbnmMNBB.",
"<58zxjjtzpkMNBB%",
"<58zahdufhj2NBB%",
"<58zgjdeffh*NBB%",
"<58zhhdifjj-NBB%",
"<58lfhuhhf:MNBB%",
"<58yysrhjf#MNBB%",
"<58z=XX&;d=MNBB%",
"<58zxxbb1omMNBB%",
"<588xxcbbnmMMBB%",
"$%%%%%%%%%%%%%%+",
"VVVVVVVVVVVVVVVV"
};
