/* XPM */
static char *xpm_6_big[] = {
/* columns rows colors chars-per-pixel */
"32 32 218 2",
"   c #181010",
".  c #291000",
"X  c #211010",
"o  c #211818",
"O  c #291010",
"+  c #390800",
"@  c #311010",
"#  c #391010",
"$  c #313110",
"%  c #292121",
"&  c #312929",
"*  c #393131",
"=  c #393939",
"-  c #004A00",
";  c #005A00",
":  c #184200",
">  c #184218",
",  c #184A18",
"<  c #185200",
"1  c #185A18",
"2  c #006300",
"3  c #006B00",
"4  c #007300",
"5  c #007B00",
"6  c #106300",
"7  c #106B00",
"8  c #186B00",
"9  c #186310",
"0  c #186318",
"q  c #186B10",
"w  c #186B18",
"e  c #187300",
"r  c #107310",
"t  c #107B10",
"y  c #187318",
"u  c #187B18",
"i  c #214A00",
"p  c #294210",
"a  c #294A10",
"s  c #295200",
"d  c #215210",
"f  c #215A18",
"g  c #295210",
"h  c #295A10",
"j  c #295A18",
"k  c #315210",
"l  c #294229",
"z  c #295A29",
"x  c #314221",
"c  c #394A39",
"v  c #395239",
"b  c #395A39",
"n  c #216B00",
"m  c #296310",
"M  c #217300",
"N  c #297310",
"B  c #297B18",
"V  c #316310",
"C  c #316B10",
"Z  c #296B21",
"A  c #296B29",
"S  c #217321",
"D  c #217B21",
"F  c #297329",
"G  c #297B29",
"H  c #316B31",
"J  c #317331",
"K  c #317B31",
"L  c #397B39",
"P  c #421010",
"I  c #421810",
"U  c #4A1810",
"Y  c #5A0810",
"T  c #521810",
"R  c #521818",
"E  c #5A1010",
"W  c #5A1810",
"Q  c #5A1818",
"!  c #422118",
"~  c #4A2110",
"^  c #5A2110",
"/  c #5A2118",
"(  c #5A2918",
")  c #523118",
"_  c #422121",
"`  c #423939",
"'  c #5A3931",
"]  c #6B1800",
"[  c #631010",
"{  c #631810",
"}  c #631818",
"|  c #6B1018",
" . c #6B1810",
".. c #6B1818",
"X. c #7B0810",
"o. c #731010",
"O. c #731018",
"+. c #731810",
"@. c #7B1018",
"#. c #7B1810",
"$. c #632110",
"%. c #632118",
"&. c #6B2110",
"*. c #6B3110",
"=. c #732110",
"-. c #732118",
";. c #732918",
":. c #7B2918",
">. c #732121",
",. c #7B2129",
"<. c #7B2929",
"1. c #424A10",
"2. c #4A4218",
"3. c #4A5218",
"4. c #524A18",
"5. c #424221",
"6. c #4A5239",
"7. c #5A4239",
"8. c #5A5A29",
"9. c #4A7B10",
"0. c #426329",
"q. c #426331",
"w. c #735210",
"e. c #634239",
"r. c #7B4229",
"t. c #7B4A29",
"y. c #4A424A",
"u. c gray29",
"i. c #524242",
"p. c #5A4A4A",
"a. c #524A52",
"s. c #5A525A",
"d. c #4A634A",
"f. c #5A7B42",
"g. c #5A7B5A",
"h. c #635252",
"j. c #73524A",
"k. c #635A63",
"l. c #6B735A",
"z. c #736B73",
"x. c #008400",
"c. c #008C00",
"v. c #009400",
"b. c #009C00",
"n. c #108410",
"m. c #188C10",
"M. c #188C18",
"N. c #189418",
"B. c #00A500",
"V. c #00AD00",
"C. c #00B500",
"Z. c #00BD00",
"A. c #18BD00",
"S. c #299400",
"D. c #219C10",
"F. c #298429",
"G. c #298C29",
"H. c #219C21",
"J. c #399C39",
"K. c #21BD21",
"L. c #4A8C29",
"P. c #42AD42",
"I. c #738C73",
"U. c #739473",
"Y. c #840010",
"T. c #840810",
"R. c #8C0810",
"E. c #841010",
"W. c #841810",
"Q. c #8C1010",
"!. c #8C1018",
"~. c #8C1818",
"^. c #941010",
"/. c #941810",
"(. c #9C1010",
"). c #9C1810",
"_. c #8C2100",
"`. c #842918",
"'. c #8C2910",
"]. c #942100",
"[. c #942110",
"{. c #942118",
"}. c #9C2910",
"|. c #9C3118",
" X c #8C2121",
".X c #842931",
"XX c #843939",
"oX c #A51810",
"OX c #AD2900",
"+X c #A52110",
"@X c #A52918",
"#X c #AD2110",
"$X c #AD2910",
"%X c #A53110",
"&X c #AD3118",
"*X c #AD3910",
"=X c #AD3918",
"-X c #B52900",
";X c #B52110",
":X c #B52910",
">X c #BD2910",
",X c #BD3100",
"<X c #B53110",
"1X c #BD3110",
"2X c #BD3910",
"3X c #844218",
"4X c #9C4A21",
"5X c #A54A29",
"6X c #AD4A31",
"7X c #A55239",
"8X c #C63100",
"9X c #C63900",
"0X c #CE3900",
"qX c #C63110",
"wX c #CE3110",
"eX c #D63900",
"rX c magenta",
"tX c None",
/* pixels */
"tXtXtXtXtXtXtXtXtXtXtXtXtXtXtXtXtXtXtXtXtXtXtXtXtXtXtXtXtXtXtXtX",
"tXtXtXtXtXtXtXtXtXtXtXtXtXtXz 5 1 b g.I.U.tXtXtXtXtXtXtXtXtXtXtX",
"tXtXtXtXtXtXtXtXtXtXtXtXtXc V.Z.C.C.V.V.A tXtXtXtXtXtXtXtXtXtXtX",
"tXtXtXtXtXtXtXtXtXtXtXtXtX3 C.C.C.C.V.0 tXtXtXtXtXtXtXtXtXtXtXtX",
"tXtXtXtXtXtXtXtXtXtXtXtXtXb.C.C.C.C.F tXtXtXtXtXtXtXtXtXtXtXtXtX",
"tXtXtXtXtXtX, Z.V.J.U.tXv V.C.C.C.5 tXtXtXtXtXtXtXtXtXtXtXtXtXtX",
"tXtXtXtXtXtX- C.C.C.V.N.> B.C.V.B.d.tXtXtXtXtXtXtXtXtXtXtXtXtXtX",
"tXtXtXtXtXtX- V.C.C.C.C.B.- B.V.n.tXtXtXS 4 5 B.B.n.tXtXtXtXtXtX",
"tXtXtXtXtX- B.v.- - B.V.V.B.- B.y 6.M.x.F.- l v.B.B.F tXtXtXtXtX",
"tXtXtXtXtX- b.V.X.X.- - B.5 5 5 - 0 G - - X.7.- B.B.t tXtXtXtXtX",
"tXtXk.` I *X4X0.u 5 5 2 - ; 5 x.; J - m.L.X.X.- B.b.r e.tXtXtXtX",
"= } }.8XeX0Xw.9.D.A.K.P.A B.B.- 7Xf.x.c.x.4 - c.b.c.H r.$.j.tXtX",
"s.O.Y.Y.T./.1.S.v.B.V.- b.B.v.- 9X2X5Xt.8.q.Z w K F.H.8 }.$X$X_ ",
"tXY X.X.X.X.i x.x.x.L - B.B.- 6X9X,X,X-XOX+X3Xx.x.x.x.3 =XwXqXi.",
"tXP X.X.X.X.5.x.x.x.- B.B.B.-  X+X;X:X>XqXqX].B x.x.x.2 <XqX<Xk.",
"tXO X.X.X.X.) x.x.G.- b.b.b.- .X#XqXqXqXqXqX_.q x.x.x.j 1XqX%XtX",
"tX  X.X.X.X.( 5 5 u - b.b.b.- ,.#X>X>X>X>X>X[.6 5 5 5 k 1X>X'.tX",
"tXo @.X.X.X.R 5 5 r - b.b.b.c.- +X>X>X>X>X>X|.; 5 5 5 4.>X>X=.tX",
"tXtX| X.X.X.Q M 5 r - b.v.v.v.- +X:X:X:X:X:X&Xg 5 5 5 2.:X:X/ tX",
"tXtXE X.X.X.E N 5 D - v.v.c.5 - @X;X;X;X;X;X&Xk 5 5 4 *.#X#X' tX",
"tXtXR o.o.o.E 9 5 t - - - - <.XX).#X#X#X#X#X<Xp 4 4 4 :.oXoXh.tX",
"tXtX= ..o.o. .s 5 4 f %.o.o.o.o.).#X#X#XoXoXoX( 4 4 4 `.oX+XtXtX",
"tXtXtXW o.o.o./ e 4 C + o.o.o.o.Q.).).).).).).;.e 4 n W.).{.tXtX",
"tXtXtXU +.+.+.T 7 4 C U +.+.+.+.Q.(.(.(.(.(.(.;.8 4 m {.(.#.tXtX",
"tXtXtXI +.+.+.T 6 4 C U  . . . .Q.^.^.^.^.^.^. .8 4 < ).^.-.tXtX",
"tXtXtX. ] ] ] %.h 3 V U ] ] ] ] Q.^.^.^.^.^.^.[ 7 3 3.~.W p.tXtX",
"tXtXtXX W  .] { d 3 V U ] ] ] ] Q.R.R.R.R.R.R.>.6 7 x z.tXtXtXtX",
"tXtXtXtXtX& @ I : 7 V ~ ] ] ] ] E.R.R.R.R.R.R...a l.tXtXtXtXtXtX",
"tXtXtXtXtXtXtXtX%   $ I &.] ] ] E.R.R.R.!.[ ! tXtXtXtXtXtXtXtXtX",
"tXtXtXtXtXtXtXtXtXtXtXy.  @ ^ &.E.R.| I * tXtXtXtXtXtXtXtXtXtXtX",
"tXtXtXtXtXtXtXtXtXtXtXtXtXtXu.X # X a.tXtXtXtXtXtXtXtXtXtXtXtXtX",
"tXtXtXtXtXtXtXtXtXtXtXtXtXtXtXtXtXtXtXtXtXtXtXtXtXtXtXtXtXtXtXtX"
};
