/* XPM */
static char *xpm_58_big[] = {
/* columns rows colors chars-per-pixel */
"32 32 38 1",
"  c black",
". c gray3",
"X c #313100",
"o c #6B8C42",
"O c #7B9C4A",
"+ c magenta",
"@ c #9C9C00",
"# c #849C4A",
"$ c #849C5A",
"% c #8CAD52",
"& c #94AD5A",
"* c #9CC65A",
"= c #ADCE6B",
"- c #A5D663",
"; c #ADDE63",
": c #BDEF6B",
"> c #BDE773",
", c #CECE63",
"< c #CECE73",
"1 c #CECE7B",
"2 c #D6CE7B",
"3 c #D6D67B",
"4 c #CEFF7B",
"5 c #D6FF73",
"6 c #DEFF7B",
"7 c #D6D684",
"8 c #DED684",
"9 c #DEDE84",
"0 c #E7DE84",
"q c #E7E78C",
"w c #EFE78C",
"e c #EFEF8C",
"r c #EFEF94",
"t c #F7EF94",
"y c #F7F794",
"u c #F7F79C",
"i c #FFFF9C",
"p c None",
/* pixels */
"pppppppppppppppppppppppppppppppp",
"pppppppppppppppppppppppppppppppp",
"pppppppppppppppppppppppppppppppp",
"pppp@@@@@@@@@.pppppppppppppppppp",
"ppp@399qqeryy@.ppppppppppppppppp",
"pp@23890qwryyi@.pppppppppppppppp",
"p@<13799qqrryui@.ppppppppppppppp",
"@,,,,,,,,,,,,,,,@@@@@@@@@@@@@@pp",
"@111333799999qqqqeerrtyyyuiiii p",
"@111333789999qqqqeerrryyyuiiii,.",
"@<11333789999qqqqeerrryyyuiiii,X",
"@<11333789999qqqqeerrryyyuiiii,X",
"@.............................,X",
"@.............................,X",
"@.;%;..::o.:...-.5o..%:.5o..%:,X",
"@:..%.;..:.:...*.:*..::.:*..::,X",
"@OO...5....:...;.O:..;:.::..*:,X",
"@.O6%.:....:...:.:%.-o:.:%.#o:,X",
"@...&.4..=.4...*.-.;>.4.4.&>.:,X",
"@:..$.=..>.:..o*.:.**.:.#..*.:,X",
"@.5::..:>...*:*..#..o.:.:..o.:,X",
"@.............................,X",
"@.............................,X",
"@.............................,X",
"@111333799999qqqqeerrtyyyuiiii,X",
"@111333789999qqqqeerrryyyuiiii,X",
"@<11333789999qqqqeerrryyyuiiii,X",
"@<11333789999qqqqeerrryyyuiiii,X",
"@,,,,,,,,,,,,,,,,,,,,,,,,,,,,,,X",
"pXXXXXXXXXXXXXXXXXXXXXXXXXXXXXXp",
"pppppppppppppppppppppppppppppppp",
"pppppppppppppppppppppppppppppppp"
};
