/* XPM */
static char *xpm_11[] = {
/* columns rows colors chars-per-pixel */
"16 16 118 2",
"   c #101042",
".  c #10104A",
"X  c #101842",
"o  c #10184A",
"O  c #181842",
"+  c #181052",
"@  c #18185A",
"#  c #182152",
"$  c #21184A",
"%  c #21186B",
"&  c #291863",
"*  c #29214A",
"=  c #292152",
"-  c #39215A",
";  c #39314A",
":  c #21316B",
">  c #39216B",
",  c #392963",
"<  c #39296B",
"1  c #312173",
"2  c #312973",
"3  c #392173",
"4  c #392973",
"5  c #52295A",
"6  c #42216B",
"7  c #422963",
"8  c #42296B",
"9  c #4A296B",
"0  c #42297B",
"q  c #4A2973",
"w  c #4A297B",
"e  c #423173",
"r  c #4A3173",
"t  c #4A317B",
"y  c #522973",
"u  c #523173",
"i  c #52317B",
"p  c #52397B",
"a  c #5A397B",
"s  c #63395A",
"d  c #63317B",
"f  c #63397B",
"g  c #6B426B",
"h  c #63427B",
"j  c #7B6B6B",
"k  c #522984",
"l  c #523184",
"z  c #5A3184",
"x  c #5A318C",
"c  c #5A3984",
"v  c #63318C",
"b  c #63319C",
"n  c #6B3994",
"m  c #73399C",
"M  c #7B399C",
"N  c #4A4294",
"B  c #5A428C",
"V  c #63428C",
"C  c #634A8C",
"Z  c #6B4284",
"A  c #6B428C",
"S  c #6B4294",
"D  c #6B4A94",
"F  c #6B528C",
"G  c #6B529C",
"H  c #6B5A94",
"J  c #734A8C",
"K  c #734294",
"L  c #734A9C",
"P  c #73528C",
"I  c #73529C",
"U  c #7B529C",
"Y  c #7342A5",
"T  c #7B42A5",
"R  c #7B42AD",
"E  c #7B4AA5",
"W  c #7B4AAD",
"Q  c #7352A5",
"!  c #7B52A5",
"~  c #844A6B",
"^  c #84527B",
"/  c #946B7B",
"(  c #9C6373",
")  c #8439B5",
"_  c #9C39CE",
"`  c #A539CE",
"'  c #AD39D6",
"]  c #845294",
"[  c #845A9C",
"{  c #8442AD",
"}  c #8C4AB5",
"|  c #8452AD",
" . c #845AA5",
".. c #845AAD",
"X. c #8C5AAD",
"o. c #8452B5",
"O. c #8C52B5",
"+. c #9442BD",
"@. c #944ABD",
"#. c #9452BD",
"$. c #8C6384",
"%. c #8C6394",
"&. c #946B94",
"*. c #8463AD",
"=. c #946BAD",
"-. c #9C73BD",
";. c #BD63AD",
":. c #9C42C6",
">. c #9C4AC6",
",. c #9452C6",
"<. c #A542CE",
"1. c #A54AC6",
"2. c #A54ACE",
"3. c #A542D6",
"4. c #AD42D6",
"5. c #AD42DE",
"6. c magenta",
"7. c None",
/* pixels */
"7.7.^ _ d %.7.7.7.7.7.u U %.7.7.",
"7.7.h <.M &.7.7.7.7.%.S } %.7.7.",
"7.7.%.Y R ! ~ ( ;.$.J T 3.{ / 7.",
"7.7.7.%., @.' ) ` ` m q A 5 7.7.",
"7.7.7.7.j b >.L i O.>.H %.7.7.7.",
"7.7.7.7.7.. % 3 x x 1 %.7.7.7.7.",
"7.7.7.7.7.  @ 4 N 2 + %.7.7.7.7.",
"7.7.7.7.[ p $ # : # > P 7.7.7.7.",
"7.7.7.X.E S | I I G Q O.=.7.7.7.",
"7.7.-.+.k n ,.I V S c 2.:.F 7.7.",
"7.*.4.0 l ,.| q 6 q 9 S 2.I C 7.",
"%.} ) < W 4.| i % i l a @.3.0 %.",
"%.K 8 e O.2.D i o t i = L 5.v & ",
"7.7.; B 2.,.z i X 4 r $ c #.o.g ",
"7.7.7.[ 1...z w O , 7 * y |  .7.",
"7.7.7.7.7.] f - 7.7.7.%.s Z 7.7."
};
