/* XPM */
static char *xpm_9_big[] = {
/* columns rows colors chars-per-pixel */
"32 32 88 1",
"  c #291000",
". c #311800",
"X c #311818",
"o c #391818",
"O c #422900",
"+ c #4A3100",
"@ c #4A3131",
"# c #523939",
"$ c #524200",
"% c #5A4200",
"& c #5A4A00",
"* c #5A4239",
"= c #735A00",
"- c #736300",
"; c #7B6B29",
": c #736331",
"> c #7B6331",
", c #7B7321",
"< c #5A4A42",
"1 c #6B5252",
"2 c #736342",
"3 c #7B6363",
"4 c #7B6B6B",
"5 c #736B73",
"6 c #847300",
"7 c #847B00",
"8 c #8C7B00",
"9 c #8C7B29",
"0 c #847331",
"q c #84735A",
"w c #847373",
"e c #847B84",
"r c magenta",
"t c #8C8C00",
"y c #948C00",
"u c #948C18",
"i c #9C9400",
"p c #9C9C00",
"a c #948C21",
"s c #A59C00",
"d c #A5A500",
"f c #ADAD00",
"g c #BDB500",
"h c #BDBD00",
"j c #B5B510",
"k c #948C4A",
"l c #948C5A",
"z c #948C6B",
"x c #9C947B",
"c c #C6C600",
"v c #CECE00",
"b c #CED600",
"n c #D6D600",
"m c #DEDE00",
"M c #E7E700",
"N c #E7EF00",
"B c #EFEF00",
"V c #EFF700",
"C c #F7F700",
"Z c #948C84",
"A c #A59CA5",
"S c #B59CAD",
"D c #ADA5A5",
"F c #B5ADA5",
"G c #BDA5B5",
"H c #BDADBD",
"J c #BDB5BD",
"K c #BDBDB5",
"L c #C6ADBD",
"P c #C6BDBD",
"I c #CEC6C6",
"U c #D6CECE",
"Y c #D6CED6",
"T c #D6D6CE",
"R c #DEDED6",
"E c gray87",
"W c #E7D6E7",
"Q c #E7DEE7",
"! c #EFDEEF",
"~ c #EFE7E7",
"^ c #EFE7EF",
"/ c #EFEFEF",
"( c #F7E7F7",
") c #F7EFF7",
"_ c #FFEFFF",
"` c #FFF7FF",
"' c gray100",
"] c None",
/* pixels */
"]]]]]]]]]]]]]]]]]]]]]]]]]]]]]]]]",
"]eAAAAAAAAAAAAAAAAAAAAAAAAAAAe]]",
"]AYWWWQQQQ!!!!^^^(((())))___YA]]",
"]AJ      G!!!^^Q   G)Q      JA]]",
"]AJ      G!!!^^Q   Z+%%%%O@ JA5]",
"]AWWWQQQ!!!!^^^^((~knCCCCyI`WA5]",
"]AWWQQQQ!!!^^^^(((I8CCCCnl/`WA5]",
"]AJo         G^Q   iBCCCj ``WA5]",
"]AJo         G(Q  %BBBVC< ``WA5]",
"]AWQQQ!!!!^^^Pw(()%BBBBiK```WA5]",
"]AWQQ!!!!^^^^Zi* 4vBBBB&````WA5]",
"]AJ        GI6MMp%MNBm9    oWA5]",
"]AJ        GI6mMMMMMMgZ    oWA5]",
"]AWQ!!!!^^^(2cmmMMMMM>E'````WA5]",
"]AW!!!!^^^^($mmncmMMv3`````'WA5]",
"]AJ       DD7mmf#afM$Q    ``WA5]",
"]AJ      OyOnnm;TPx=xQ    ``WA5]",
"]AW!!^^^3hnhnnv1___R```````'WA5]",
"]AW!!^^^<vbbnn$)___````````'WA5]",
"]AJ     <vvttdzQ   G`Q      WA5]",
"]AJ    Fuvt  OIQ   G`Q      WA5]",
"]AW^^^^Zsc,T))____```````'''WA5]",
"]AW^^^(ZpsZ)))___````````'''WA5]",
"]AJ    0g:   G_U   G`Q     QWA5]",
"]AJ    -&    G_Q X G`Q     QWA5]",
"]AW^((I&2)))___```````''''''WA5]",
"]AW^((q$I))____```````''''''WA5]",
"]AJ   .      G`G   G`Q    L'YA5]",
"]AJ          G`S   G`Q   XQ'YA5]",
"]AH))))))))))))'''''''''''''HA5]",
"]eAAAAAAAAAAAAAAAAAAAAAAAAAAAe5]",
"]]]]55555555555555555555555555]]"
};
