/* XPM */
static char *xpm_38[] = {
/* columns rows colors chars-per-pixel */
"16 16 70 1",
"  c #633129",
". c #6B3121",
"X c #733921",
"o c #7B4229",
"O c #7B4231",
"+ c #7B4A31",
"@ c #7B4A39",
"# c #736363",
"$ c #736B6B",
"% c #844229",
"& c #844A29",
"* c #8C4A29",
"= c #844A39",
"- c #8C4A31",
"; c #944A31",
": c #945231",
"> c #9C5A31",
", c #9C5A39",
"< c #A55A39",
"1 c #AD6339",
"2 c #945A42",
"3 c #945A4A",
"4 c #8C6352",
"5 c #9C634A",
"6 c #846363",
"7 c #8C6B63",
"8 c #847373",
"9 c #8C7B7B",
"0 c #94736B",
"q c #947B73",
"w c #A56342",
"e c #AD6342",
"r c #AD6B42",
"t c #AD735A",
"y c #B56342",
"u c #B56B42",
"i c #B56B4A",
"p c #B57352",
"a c #BD7352",
"s c #A57B6B",
"d c #AD7B6B",
"f c #CE7B4A",
"g c #C67352",
"h c #C67B52",
"j c #CE7B52",
"k c #D67B52",
"l c magenta",
"z c #AD846B",
"x c #A5847B",
"c c #B58473",
"v c #CE845A",
"b c #D6845A",
"n c #948C84",
"m c #9C8C84",
"M c #9C8C8C",
"N c #9C948C",
"B c #A58484",
"V c #AD8C84",
"C c #A5948C",
"Z c #AD948C",
"A c #AD9C8C",
"S c #B5948C",
"D c #B59C8C",
"F c #BD948C",
"G c #BD9C8C",
"H c #B5A58C",
"J c #BDA58C",
"K c #C6A58C",
"L c #CEA58C",
"P c None",
/* pixels */
"PPPPPPPPPPPPPPPP",
"PPP*%%oooX. PPPP",
"PPP*;,,,,,wOPPPP",
"PPP-;25535i+PPPP",
"PPP-:dKHCFp@PPPP",
"PPP:,zLDAGa@PPPP",
"PPP:,zKDDSa@PPPP",
"PPP:,sJDZSg@PPPP",
"PPP:MsAZCDh@PPPP",
"PPP:K6Cmmxh@PPPP",
"PPP:=4NmnVv=PPPP",
"PPP:e0n99Bv@PPPP",
"PPP-r78$#qb@PPPP",
"PPP-utcddcb@PPPP",
"PPP-ukkkjfj&PPPP",
"PPP&>y111<u%PPPP"
};
