/* XPM */
static char *xpm_16[] = {
/* columns rows colors chars-per-pixel */
"16 16 26 1",
"  c black",
". c #082121",
"X c #397B7B",
"o c #427B8C",
"O c #319C9C",
"+ c #5A8C8C",
"@ c #4AA5A5",
"# c #739C9C",
"$ c #63B5B5",
"% c #7BBDBD",
"& c magenta",
"* c gray71",
"= c #9CCEC6",
"- c #A5CEC6",
"; c #A5D6C6",
": c #A5D6CE",
"> c #ADD6CE",
", c #B5D6CE",
"< c #B5DECE",
"1 c #B5DED6",
"2 c #BDDED6",
"3 c #CECECE",
"4 c #C6DED6",
"5 c #C6DEDE",
"6 c #C6E7DE",
"7 c None",
/* pixels */
"7777777777777777",
"74$221<$>>$#;-=7",
"74$22%<$%>$ ;%=7",
"75$22X1$$>$ ;$=7",
"75OX$ 1$$>O $$=7",
"7$O $ $$O$O $$$7",
"7$O   .$O$O $$$7",
"7$  $ $$O$O $$$7",
"7oo o ooooo ooo7",
"7O$ $  $,O$ $$O7",
"7O    O<,   $$O7",
"7$5 2 OO 3  :$O7",
"7%5 2%@ *  @:%@7",
"765+22$   O$:;$7",
"765$2211,>>$:;;7",
"7777777777777777"
};
