/* XPM */
static char *xpm_4_big[] = {
/* columns rows colors chars-per-pixel */
"32 32 20 1",
"  c gray45",
". c #7B7B7B",
"X c magenta",
"o c #848484",
"O c gray58",
"+ c gray61",
"@ c #A5A5A5",
"# c gray68",
"$ c gray71",
"% c #BDB5BD",
"& c gray74",
"* c #C6C6C6",
"= c #CECECE",
"- c gray84",
"; c gray87",
": c #E7E7E7",
"> c #EFEFEF",
", c gray97",
"< c gray100",
"1 c None",
/* pixels */
"11111111111111111111111111111111",
"1..............................1",
"1...:,,,,,,,,,,,,,,,,,,,,,,:...1",
"1.@. <:::::::>>>>>,,,,,,,,<..@.1",
"1.-$.+<:::::::>>>>>,,,,,,<+.$-.1",
"1.-=+.O>>>>>>>>>>>>>>>>>>+.+<-.1",
"1.-;=.....................o<<-.1",
"1.-;;*.#---------------=#.&,,-.1",
"1.-;;-.-;;:::::>>>>>>>>,-.-,,-.1",
"1.-;;-.-;;::::::>>>>>>>,-.-,,-.1",
"1.--;-.-;;;::::::>>>>>>>-.-,,-.1",
"1.----.-;;;;::::::>>>>>>-.-,,-.1",
"1.----.-;;;;;;;:::::>>>>-.->,-.1",
"1.----.-;;;;;;;::::::>>>-.->>-.1",
"1.----.--;;;;;;:::::::>>-.->>-.1",
"1.----.---;;;;;::::::::>-.->>-.1",
"1.----.----;;;;;::::::::-.->>-.1",
"1.-=--.-----;;;;;:::::::-.->>-.1",
"1.-==-.------;;;;;::::::-.->>-.1",
"1.-==-.-------;;;;;:::::-.->>-.1",
"1.-==-.-------;;;;;;::::-.->>-.1",
"1.-==-.--------;;;;;;:::-.-:>-.1",
"1.-==-.--------;;;;;;:::-.-:>-.1",
"1.-==-.-=------;;;;;;;::-.-::-.1",
"1.-==*.#---------------=#.%::-.1",
"1.-==.....................o-:-.1",
"1.-=+.@========----------O.+--.1",
"1.-$.+======------;;;;;;;-+.$-.1",
"1.@. ========------;;;;;;;-+.@.1",
"1...=*========-----;;;;;;;;-...1",
"1..............................1",
"11111111111111111111111111111111"
};
