/* XPM */
static char *xpm_58[] = {
/* columns rows colors chars-per-pixel */
"16 16 55 1",
"  c #292900",
". c #313118",
"X c gray13",
"o c #394229",
"O c #4A4A00",
"+ c #4A4A18",
"@ c #525200",
"# c #424A31",
"$ c #425231",
"% c #4A5239",
"& c #526339",
"* c #636318",
"= c #737B10",
"- c #7B7B31",
"; c #6B7B42",
": c #6B7B4A",
"> c #738C4A",
", c #7B9452",
"< c #7B9C52",
"1 c magenta",
"2 c #848418",
"3 c #848C18",
"4 c #B5B539",
"5 c #849C52",
"6 c #849C5A",
"7 c #84A552",
"8 c #8CA55A",
"9 c #8CAD5A",
"0 c #94B55A",
"q c #9CBD63",
"w c #A5C66B",
"e c #A5CE6B",
"r c #CECE52",
"t c #CECE6B",
"y c #CECE7B",
"u c #D6D66B",
"i c #D6D673",
"p c #D6D67B",
"a c #DEDE73",
"s c #DEDE7B",
"d c #CEFF7B",
"f c #E7DE73",
"g c #E7E77B",
"h c #DEDE84",
"j c #D6FF84",
"k c #DEFF8C",
"l c #E7DE84",
"z c #E7E784",
"x c #E7E78C",
"c c #EFEF8C",
"v c #EFEF94",
"b c #F7F794",
"n c #F7F79C",
"m c #FFFF9C",
"M c None",
/* pixels */
"MMMMMMMMMMMMMMMM",
"MMOOOO MMMMMMMMM",
"M2phxvf MMMMMMMM",
"2tuiasgr@OOOOOOM",
"4ypphhzxxcvbnmm.",
"4ypphhlxxcvbbmm-",
"@XXXXXXXXXXXXXX-",
"3>>7e8X,9;,8jXk-",
"=q$9X8X7>,q8k#d-",
"3X:869X05,<9,w8-",
"@9&&&X<%#Xo&&o&-",
"@XXXXXXXXXXXXXX-",
"4ypphhzxxcvbnmm-",
"4ypphhlxxcvbbmm-",
"*--------------+",
"MMMMMMMMMMMMMMMM"
};
