/* XPM */
static char *xpm_39_big[] = {
/* columns rows colors chars-per-pixel */
"32 32 71 1",
"  c black",
". c #000800",
"X c #100810",
"o c #101010",
"O c #101018",
"+ c #181818",
"@ c #101821",
"# c #181821",
"$ c #211821",
"% c gray13",
"& c #212129",
"* c #292129",
"= c gray16",
"- c #312931",
"; c #313131",
": c #313139",
"> c #393139",
", c #393939",
"< c #393942",
"1 c #314252",
"2 c #314A5A",
"3 c #394A5A",
"4 c #394A63",
"5 c #395263",
"6 c #39526B",
"7 c #423939",
"8 c #423942",
"9 c #42424A",
"0 c #4A424A",
"q c gray29",
"w c #425A6B",
"e c #4A5A6B",
"r c #426373",
"t c #42637B",
"y c #4A6373",
"u c #4A637B",
"i c #4A6B7B",
"p c #526B7B",
"a c gray42",
"s c #736B73",
"d c gray45",
"f c #73737B",
"g c #4A6B84",
"h c magenta",
"j c #8C848C",
"k c gray55",
"l c #8C8C94",
"z c #948C94",
"x c gray58",
"c c #9C949C",
"v c gray61",
"b c #A59CA5",
"n c #A5A5A5",
"m c #ADA5AD",
"M c #B5ADB5",
"N c gray71",
"B c gray74",
"V c #C6C6C6",
"C c #CEC6CE",
"Z c #CECECE",
"A c #D6CECE",
"S c #D6CED6",
"D c gray84",
"F c #E7DEE7",
"G c #E7E7E7",
"H c #EFE7EF",
"J c #EFEFEF",
"K c #F7EFF7",
"L c gray97",
"P c #FFF7FF",
"I c None",
/* pixels */
"IIIIIIIIIIIIIIIIIIIIIIIIIIIIIIII",
"IIIIIIIIIIIIIIIIIIIIIIIIIIIIIIII",
"IIIX;>oX;,,,,,,,,,,,,,,>X.OO.III",
"II==II,*nCVVVVVVVVVVVVVN-6pr5*II",
"II=-II8;DJJKKKKKLLLLLPPG,6pr5*II",
"II=wwww-DJJJKKKKKKLLLLPG>6pr5*II",
"II=wppw-DJJJJJJKKKKLLLLG>6pr5*II",
"II=wppw-DHHJJJJJKKKKLLLG>6pr5*II",
"II=wppw-DHHHJJJJJKKKKKLG>6pr5*II",
"II=wppw-DHHHHJJJJJJKKKKG>6pr5*II",
"II=wppw-DGHHHHHHJJJJKKKG>6pr5*II",
"II=wppw-DGHHHHHHJJJJKKKG>6pr5*II",
"II=wppw-DGGHHHHHHJJJJKKG>6pr5*II",
"II=wppw-DGGGGHHHHHJJJJJG>6pr5*II",
"II=wppw-DFGGGGGHHHHHJJJG>6pr5*II",
"II=wppw:MAAAAAASSAZAAAAB>6pr5*II",
"II=wppw4987778888877778936pr5*II",
"II=wpiut5444524444444445rupr5*II",
"II=wppuuuuuupyuuuuurrrrruppr5*II",
"II=wpprjjkzxxcvvvvcxxzkjuppr5*II",
"II=wpprjjkzxcvbbbbvcxzkjrppr5*II",
"II=wpprjjppppvnnnbvcxzkjrppr5*II",
"II=wpprjjppppvnmnbvcxzkjrppr5*II",
"II=wpprjjppppvnnnbvcxzkjrppr5*II",
"II=wpprjjppppvbbbbvcxzkjrppr5*II",
"II=wpprjjppptcvvvvcxxzkjrpur5*II",
"II=wpprjjttttlkkkkkkkkkkrtg65$II",
"II=O1erafwwwwfsddddddddsw563,qII",
"II* O#$%&&&&%%%%%%%%%%%%#@@<%III",
"III$%%%%%%%%%%%%%%%%%%%%%%+0IIII",
"IIIIIIIIIIIIIIIIIIIIIIIIIIIIIIII",
"IIIIIIIIIIIIIIIIIIIIIIIIIIIIIIII"
};
