/* XPM */
static char *xpm_55_big[] = {
/* columns rows colors chars-per-pixel */
"32 32 63 1",
"  c black",
". c gray3",
"X c #181808",
"o c #101010",
"O c #181810",
"+ c #292918",
"@ c #313100",
"# c gray13",
"$ c gray16",
"% c #313121",
"& c #393921",
"* c #393929",
"= c #313131",
"- c #393939",
"; c #424229",
": c #4A4A31",
"> c #525231",
", c #5A5A31",
"< c #5A5A39",
"1 c #636339",
"2 c gray26",
"3 c gray29",
"4 c #5A5A4A",
"5 c gray32",
"6 c #5A5A5A",
"7 c #636342",
"8 c #63634A",
"9 c #73734A",
"0 c #737352",
"q c gray39",
"w c gray42",
"e c gray45",
"r c #7B7B7B",
"t c magenta",
"y c #9C9C00",
"u c #848452",
"i c #9C9C63",
"p c #A5A563",
"a c #CECE63",
"s c #C6C673",
"d c #C6C67B",
"f c #CECE73",
"g c #CECE7B",
"h c #D6CE7B",
"j c #D6D67B",
"k c #848484",
"l c gray55",
"z c gray58",
"x c gray61",
"c c #A5A5A5",
"v c #D6D684",
"b c #DED684",
"n c #DEDE84",
"m c #E7DE84",
"M c #E7E78C",
"N c #EFE78C",
"B c #EFEF8C",
"V c #EFEF94",
"C c #F7EF94",
"Z c #F7F794",
"A c #F7F79C",
"S c #FFFF9C",
"D c None",
/* pixels */
"DDDDDDDDDDDDDDDDDDDDDDDDDDDDDDDD",
"DDDDDDDDDDDDDDDDDDDDDDDDDDDDDDDD",
"DDDDDDDDDDDDDDDDDDDDDDDDDDDDDDDD",
"DDDDyyyyyyyyy.DDDDDDDDDDDDDDDDDD",
"DDDyjnnMMBVZZy.DDDDDDDDDDDDDDDDD",
"DDyhjbnmMNVZZSy.DDDDDDDDDDDDDDDD",
"DyfgjvnnMMVVZASy.DDDDDDDDDDDDDDD",
"yaaaaaaaaaaaaaaayyyyyyyyyyyyyyDD",
"ygggjjjvnnnnnMMMMBBVVCZZAASSSS D",
"ygggjjj%7=5533333333$7nAAASSSSa.",
"ygggjjj<g6ccxxxzzzzl368gAASSSSa@",
"ygggjjjO;6xxxxzzzzll5=#%AASSSSa@",
"ygggjjj .6xxxzzzzllll3. AASSSSa@",
"ygggjjj>s6xxzzzzllllk3s<AASSSSa@",
"ygggjjj;p5xzzzzllllkk3p:AASSSSa@",
"ygggjjj  5zzzzlllkkkk3  AASSSSa@",
"ygggjjj%05zzllllkkkkr39%AASSSSa@",
"ygggjjj,g5zllllkkkkrr3g1AASSSSa@",
"ygggjjjX&5llllkkkkrrr2&OAASSSSa@",
"ygggjjjo#5lllkkkkrrrr2#oAASSSSa@",
"ygggjjj>d3llkkkkrrree2d<AASSSSa@",
"ygggjjj;i3kkkkrrrreee2i;AASSSSa@",
"ygggjjj  2kkkrrrreeee-  AASSSSa@",
"ygggjjj+13kkrrrreeeew21+AASSSSa@",
"ygggjjj<g3krrrreeeeww-g7AASSSSa@",
"ygggjjjO;-wwqqqqq6666=*OAASSSSa@",
"ygggjjju4333333333333333AASSSSa@",
"ygggjjjvnnnnnMMMMBBVVCZZAASSSSa@",
"yaaaaaaaaaaaaaaaaaaaaaaaaaaaaaa@",
"D@@@@@@@@@@@@@@@@@@@@@@@@@@@@@@D",
"DDDDDDDDDDDDDDDDDDDDDDDDDDDDDDDD",
"DDDDDDDDDDDDDDDDDDDDDDDDDDDDDDDD"
};
