/* XPM */
static char *xpm_3[] = {
/* columns rows colors chars-per-pixel */
"16 16 156 2",
"   c #310000",
".  c #310800",
"X  c #390000",
"o  c #310810",
"O  c #311010",
"+  c #391821",
"@  c #312129",
"#  c #392121",
"$  c #392129",
"%  c #392929",
"&  c #392931",
"*  c #393131",
"=  c #393939",
"-  c #4A0800",
";  c #521018",
":  c #5A1821",
">  c #4A2129",
",  c #423139",
"<  c #522129",
"1  c #5A2931",
"2  c #523939",
"3  c #630800",
"4  c #6B0000",
"5  c #6B0800",
"6  c #6B0810",
"7  c #6B1818",
"8  c #7B0000",
"9  c #731818",
"0  c #633131",
"q  c #732129",
"w  c #7B2129",
"e  c #423942",
"r  c #4A3942",
"t  c gray26",
"y  c #4A424A",
"u  c #524A52",
"i  c gray32",
"p  c #5A525A",
"a  c #6B4242",
"s  c #634A52",
"d  c #6B5A5A",
"f  c #734A52",
"g  c #7B5252",
"h  c #635A63",
"j  c #6B6363",
"k  c #6B636B",
"l  c #7B6363",
"z  c #7B6B73",
"x  c #7B7373",
"c  c #840000",
"v  c #8C0000",
"b  c #8C1010",
"n  c #940000",
"m  c #9C0000",
"M  c #841821",
"N  c #8C2929",
"B  c #843131",
"V  c #843939",
"C  c #8C3139",
"Z  c #9C2929",
"A  c #942931",
"S  c #A50000",
"D  c #AD0000",
"F  c #A50810",
"G  c #B50810",
"H  c #AD2931",
"J  c #AD3939",
"K  c #B53939",
"L  c #BD3939",
"P  c #844A4A",
"I  c #8C525A",
"U  c #846B6B",
"Y  c #847373",
"T  c #8C7B7B",
"R  c #9C6B73",
"E  c #A55252",
"W  c #AD525A",
"Q  c #AD5A63",
"!  c #AD7B7B",
"~  c #C60000",
"^  c #C60800",
"/  c #CE0000",
"(  c #C61018",
")  c #D60000",
"_  c #DE0800",
"`  c #E70800",
"'  c #EF1010",
"]  c #F71018",
"[  c #F71818",
"{  c #EF3139",
"}  c #FF2929",
"|  c #FF2931",
" . c #FF3131",
".. c #FF3939",
"X. c #C64A52",
"o. c #D64242",
"O. c #DE5A5A",
"+. c #DE5A63",
"@. c #CE6363",
"#. c #CE636B",
"$. c #DE636B",
"%. c #D67373",
"&. c #D6737B",
"*. c #DE7373",
"=. c #DE737B",
"-. c #F7525A",
";. c #FF5A5A",
":. c #E76B6B",
">. c #FF737B",
",. c #9C7B84",
"<. c #A57B84",
"1. c magenta",
"2. c #948C8C",
"3. c #9C848C",
"4. c #9C949C",
"5. c gray61",
"6. c #B58C8C",
"7. c #B58C94",
"8. c #BD9494",
"9. c #A59CA5",
"0. c #AD9CA5",
"q. c #ADA5A5",
"w. c #ADA5AD",
"e. c #B5ADB5",
"r. c gray71",
"t. c #C68C94",
"y. c #C6949C",
"u. c #CE9C9C",
"i. c #DE8C8C",
"p. c #DE949C",
"a. c #C6A5A5",
"s. c #CEA5AD",
"d. c #C6BDBD",
"f. c #D6A5AD",
"g. c #DEA5A5",
"h. c #F7848C",
"j. c #E7A5AD",
"k. c #E7ADAD",
"l. c #EFB5BD",
"z. c #F7ADAD",
"x. c #F7ADB5",
"c. c #F7B5B5",
"v. c #F7B5BD",
"b. c #C6BDC6",
"n. c #E7BDC6",
"m. c #C6C6C6",
"M. c #D6CED6",
"N. c #DED6DE",
"B. c #E7D6D6",
"V. c #F7D6D6",
"C. c #E7E7E7",
"Z. c #EFE7E7",
"A. c #EFE7EF",
"S. c #F7EFF7",
"D. c gray97",
"F. c None",
/* pixels */
"F.F.F.F.F.F.F.F.F.F.F.F.F.F.F.F.",
"F.F.F.F.u.O.$.n.*.@.a.u.F.F.F.F.",
"F.F.F.:.' h.A.C.+.) ( ! <.F.F.F.",
"F.F.l.V.-.h.v.k._ / ^ q.4.w F.F.",
"F.i.S.x.] |  .c.g.#.L 0.4.P q F.",
"p.B.Z.{ } ;.>.D.M.b.6.F A V 3 3.",
"=.p.j.` [ ..z.N.b.r.Q m v 9 p 2 ",
"X./ %.f.&.o.s.d.e.w.Z v 8 7 u % ",
"K ~ t.m.b.8.G H E R b c 4 : e @ ",
"J D 7.e.e.W S m n N Y f 1 > * + ",
"y.Z ,.9.5.Z n v c g k p t .   l ",
"F.z C B I M 8 8 6 h i t #   o F.",
"F.4.a 4 5 j s 0 < r = &     T F.",
"F.F.2.; - y y , X   o $ + U F.F.",
"F.F.F.F.d $ % o   O * x F.F.F.F.",
"F.F.F.F.F.F.F.F.F.F.F.F.F.F.F.F."
};
