/* XPM */
static char *xpm_34_big[] = {
/* columns rows colors chars-per-pixel */
"32 32 150 2",
"   c #102118",
".  c #083129",
"X  c #003131",
"o  c #083939",
"O  c #103129",
"+  c #183129",
"@  c #103939",
"#  c #183131",
"$  c #392100",
"%  c #293129",
"&  c #393929",
"*  c #007B00",
"=  c #087B08",
"-  c #106300",
";  c #315A08",
":  c #216B00",
">  c #296B08",
",  c #217300",
"<  c #104242",
"1  c #087B7B",
"2  c #107B7B",
"3  c #187373",
"4  c #187B73",
"5  c #214A4A",
"6  c #295252",
"7  c #395A5A",
"8  c #316B5A",
"9  c #316B63",
"0  c #422108",
"q  c #4A2100",
"w  c #4A2108",
"e  c #522910",
"r  c #523110",
"t  c #633108",
"y  c #633118",
"u  c #6B3918",
"i  c #733910",
"p  c #733918",
"a  c #7B3918",
"s  c #6B3921",
"d  c #7B3939",
"f  c #631863",
"g  c #733142",
"h  c #7B395A",
"j  c #525A10",
"k  c #525A18",
"l  c #4A4239",
"z  c #5A4229",
"x  c #426310",
"c  c #4A6310",
"v  c #6B5218",
"b  c #7B4218",
"n  c #735218",
"m  c #634221",
"M  c #6B4221",
"N  c #6B4A39",
"B  c #734221",
"V  c #734A29",
"C  c #7B4221",
"Z  c #7B4A29",
"A  c #7B5221",
"S  c #735231",
"D  c #425A4A",
"F  c #4A5A4A",
"G  c #525A42",
"H  c #635A42",
"J  c #73634A",
"K  c #5200AD",
"L  c #5A00B5",
"P  c #73188C",
"I  c #7B188C",
"U  c #7308A5",
"Y  c #632994",
"T  c #6300C6",
"R  c #6300CE",
"E  c #7310D6",
"W  c #7329C6",
"Q  c #7B29CE",
"!  c #008400",
"~  c #298429",
"^  c #298C29",
"/  c #319431",
"(  c #08847B",
")  c #42847B",
"_  c #398C8C",
"`  c #8C3939",
"'  c #BD1810",
"]  c #B53921",
"[  c #BD3929",
"{  c #843942",
"}  c #8C4A18",
"|  c #9C4218",
" . c #844221",
".. c #844229",
"X. c #844A21",
"o. c #844A29",
"O. c #8C4A21",
"+. c #844231",
"@. c #844239",
"#. c #8C4231",
"$. c #845221",
"%. c #8C5221",
"&. c #944221",
"*. c #944A21",
"=. c #9C4A21",
"-. c #945221",
";. c #945229",
":. c #9C5221",
">. c #9C5229",
",. c #945A31",
"<. c #A54218",
"1. c #B55218",
"2. c #A55221",
"3. c #A55229",
"4. c #A55A29",
"5. c #AD5221",
"6. c #AD5A29",
"7. c #B54231",
"8. c #BD6329",
"9. c #8C6342",
"0. c #8C7352",
"q. c #C61810",
"w. c #DE2118",
"e. c #CE3921",
"r. c #DE3931",
"t. c #EF3129",
"y. c #F73129",
"u. c #FF3129",
"i. c #FF3939",
"p. c #D65A18",
"a. c #D66318",
"s. c #CE6329",
"d. c #DE6321",
"f. c #DE6B29",
"g. c #E76B21",
"h. c #EF6B21",
"j. c #E77321",
"k. c #F77B31",
"l. c #FF7B31",
"z. c #DE4A42",
"x. c magenta",
"c. c #FF8431",
"v. c #8CA59C",
"b. c #94BDBD",
"n. c #94C6C6",
"m. c #9CCECE",
"M. c #A5C6C6",
"N. c #C6C6C6",
"B. c #C6D6D6",
"V. c None",
/* pixels */
"V.V.V.V.V.V.V.V.V.V.V.V.V.V.V.V.V.V.V.V.V.V.V.V.V.V.V.V.V.C C V.",
"V.V.V.V.V.V.V.V.V.V.V.V.V.V.V.V.V.V.V.V.V.V.V.V.V.V.V.p C C C V.",
"V.V.V.V.V.V.V.V.V.V.V.V.V.V.V.V.V.V.V.V.V.V.V.V.V.V.V.p C C C V.",
"V.V.V.V.V.V.V.V.V.V.V.V.V.b b b O.*. .Z b b V.V.V.V.C C C Z V.V.",
"V.V.V.V.V.V.V.V.V.V.b b *.*.*.*.*.-.:.:.:.:.b b V.V.C C C V.V.V.",
"V.V.V.V.V.V.V.V.b  .O.*.*.*.*.*.-.-.:.:.:.:.:.O.b B.J C V.V.V.V.",
"V.V.V.V.V.V.V.X.O.j , : c -.*.*.-.:.:.:.:.:.:.,.v.m.M.V.V.V.V.V.",
"V.V.V.V.V.V.O.*.> ! ! ! * x -.-.-.:.:.:.:.:.M @ n.b.N.V.V.V.V.V.",
"V.V.V.V.V.O.O.O.~ ! ! ! * ; -.-.:.:.:.:.:.m X X 6 0.N V.V.V.V.V.",
"V.V.V.V.O.O.O.O.k ^ / = - $.-.-.:.:.:.:.V 7 X X % 3.b b V.V.V.V.",
"V.V.V.O.S 9 1 2 8 A v n *.*.-.:.:.:.:.X.o < X O ;.3.:.b V.V.V.V.",
"V.V.p O.4 ( ( ( ( F *.*.*.*.-.:.:.:.-.# o X O %.3.3. .b V.V.V.V.",
"V.u O.o._ ( ( ( 1 G *.*.*.-.-.:.:.:.& X X O X.3.3.3.w V.V.V.V.V.",
"V.u O.O.H ) _ 3 D -.*.*.*.-.:.:.:.B X X + O.3.3.-.t V.V.V.V.V.V.",
"V.u *.` I U P { -.*.*.*.-.-.:.*.y . X & :.3.3.} q V.V.V.V.V.V.V.",
"V.p @.T R R R L #.*.*.*.-.:.:.e   o & 0 2.3.:.q V.V.V.V.V.V.V.V.",
"V.u h E R R R L @.*.*.*.-.:.:.s 5 V.V.$ p 3.i V.V.V.V.V.V.V.V.V.",
"V.u ..Y W Q K f -.*.*.-.:.:.:.:.9.V.V.z b 3.r V.V.V.V.V.V.V.V.V.",
"V.u O.O.d g +.*.*.*.*.-.:.:.:.:.:.>.:.2.3.3.b V.V.V.V.V.V.V.V.V.",
"V.u y O.O.*.e.y.u.t.<.:.:.:.:.:.:.>.3.3.3.3.4.b V.V.V.V.V.V.V.V.",
"V.V.u O.O.] u.u.u.u.w.=.:.:.:.:.>.3.3.3.3.3.4.6.b V.V.V.V.V.V.V.",
"V.V.u u *.7.i.u.u.u.q.:.:.:.:.:.>.3.3.3.3.4.4.6.6.b V.V.V.V.V.V.",
"V.V.V.u u &.[ z.r.' | :.:.8.s.6.3.3.3.3.3.4.4.6.6.6.b V.V.V.V.V.",
"V.V.V.V.u u *.*.*.-.:.4.k.c.c.c.8.3.3.3.4.4.6.6.6.6.6.C V.V.V.V.",
"V.V.V.V.V.u b b -.:.:.f.c.c.c.c.j.2.3.3.4.4.6.6.6.6.6.u V.V.V.V.",
"V.V.V.V.V.V.u u b :.:.d.c.c.c.l.a.3.3.4.4.6.6.6.6.6.O.u V.V.V.V.",
"V.V.V.V.V.V.l u u u b 1.a.g.h.p.5.3.3.4.4.6.6.6.6.a u u V.V.V.V.",
"V.V.V.V.V.X X X u u u u 2.5.5.2.3.3.4.4.6.6.6.*.u u u V.V.V.V.V.",
"V.V.V.V.X o X V.V.V.u u u u b 3.3.3.4.4.:.u u u u V.V.V.V.V.V.V.",
"V.V.V.X X X V.V.V.V.V.V.u u u u u u u u u u u V.V.V.V.V.V.V.V.V.",
"V.V.X 7 X V.V.V.V.V.V.V.V.V.V.u u u u u V.V.V.V.V.V.V.V.V.V.V.V.",
"V.V.V.V.V.V.V.V.V.V.V.V.V.V.V.V.V.V.V.V.V.V.V.V.V.V.V.V.V.V.V.V."
};
