/* XPM */
static char *xpm_32[] = {
/* columns rows colors chars-per-pixel */
"16 16 17 1",
"  c black",
". c gray3",
"X c #101010",
"o c #181818",
"O c #313131",
"+ c #393939",
"@ c gray29",
"# c gray42",
"$ c gray45",
"% c #7B7B7B",
"& c magenta",
"* c #848484",
"= c gray55",
"- c gray58",
"; c gray61",
": c #A5A5A5",
"> c None",
/* pixels */
"XXXXXXXXXXXX>>>>",
"X>o::;;;---O#>>>",
"X>o:;;;---=+X.>>",
"Xoo;;;---===ooX>",
"X>o;;---===*o>X>",
"X>o;---===**o>X>",
"XOo---===***oOX>",
"X>o--===***%o>X>",
"X>o-===***%%o>X>",
"X@o===***%%%o@X>",
"X>o==***%%%$X>X>",
"X>X****%%%$$X>X>",
"X X***%%%$$$X X>",
"X>X**%%%$$$#X>X>",
"X>XXXXXXXXXXX>X>",
">**************>"
};
