/* XPM */
static char *xpm_19_big[] = {
/* columns rows colors chars-per-pixel */
"32 32 110 2",
"   c #291000",
".  c #311818",
"X  c #391818",
"o  c #312121",
"O  c #312129",
"+  c #392121",
"@  c #392931",
"#  c #422118",
"$  c #4A2118",
"%  c #522118",
"&  c #423131",
"*  c #523129",
"=  c #5A3929",
"-  c #523939",
";  c #5A3931",
":  c #633931",
">  c #6B3931",
",  c #524A39",
"<  c #6B4239",
"1  c gray26",
"2  c #524A52",
"3  c #634A4A",
"4  c #6B4A42",
"5  c #73524A",
"6  c #7B524A",
"7  c #7B5A52",
"8  c #73635A",
"9  c #6B6363",
"0  c #7B6B63",
"q  c #736B73",
"w  c #846B63",
"e  c #846B6B",
"r  c #8C7B7B",
"t  c #947B7B",
"y  c #847B84",
"u  c magenta",
"i  c #8C8C7B",
"p  c #8C8C84",
"a  c gray55",
"s  c #8C8C9C",
"d  c #8C949C",
"f  c #948C8C",
"g  c #949C8C",
"h  c #9C948C",
"j  c #9C9C8C",
"k  c gray58",
"l  c #94949C",
"z  c #949C94",
"x  c #9C9494",
"c  c #9C949C",
"v  c #9C9C94",
"b  c gray61",
"n  c #9C9CA5",
"m  c #9CA594",
"M  c #9CA59C",
"N  c #9CAD9C",
"B  c #9CA5A5",
"V  c #9CADA5",
"C  c #9CADAD",
"Z  c #9CB5B5",
"A  c #A59C94",
"S  c #A59CA5",
"D  c #B59CAD",
"F  c #A5A59C",
"G  c #A5AD9C",
"H  c #A5A5A5",
"J  c #A5ADA5",
"K  c #A5ADAD",
"L  c #ADA5AD",
"P  c gray68",
"I  c #A5ADB5",
"U  c #A5B5AD",
"Y  c #ADB5AD",
"T  c #A5B5B5",
"R  c #A5BDB5",
"E  c #ADB5B5",
"W  c #ADB5BD",
"Q  c #ADBDB5",
"!  c #ADBDBD",
"~  c #BDA5B5",
"^  c #BDADBD",
"/  c #B5BDBD",
"(  c #BDB5BD",
")  c #ADC6BD",
"_  c #B5C6B5",
"`  c #B5C6BD",
"'  c #B5C6C6",
"]  c #B5CEC6",
"[  c #C6ADBD",
"{  c #C6C6B5",
"}  c #C6CEC6",
"|  c #CECECE",
" . c #CED6D6",
".. c #CEDED6",
"X. c #D6CECE",
"o. c #D6CED6",
"O. c gray87",
"+. c #E7D6E7",
"@. c #E7DEE7",
"#. c #EFDEEF",
"$. c #EFE7EF",
"%. c #EFEFE7",
"&. c #EFEFEF",
"*. c #EFF7EF",
"=. c #F7E7F7",
"-. c #F7EFF7",
";. c #FFEFFF",
":. c #FFF7FF",
">. c gray100",
",. c None",
/* pixels */
",.,.,.,.,.,.,.,.,.,.,.,.,.,.,.,.,.,.,.,.,.,.,.,.,.,.,.,.,.,.,.,.",
",.y S S S S S S S S S S S S S S S S S S S S S S S S S S S y ,.,.",
",.S o.+.+.+.@.@.@.@.#.#.#.#.$.$.$.=.=.=.=.-.-.-.-.;.;.;.o.S ,.,.",
",.S (             ~ #.#.#.$.$.@.      ~ -.@.            ( S ,.,.",
",.S (             ~ #.#.#.$.$.@.      ~ -.@.            ( S q ,.",
",.S +.+.+.@.@.@.#.#.#.#.$.$.$.$.=.=.=.-.-.-.-.;.;.;.;.:.+.S q ,.",
",.S +.+.@.@.@.@.#... . . ...` &.=.=.=.-.-.-.-.;.;.;.:.:.+.S q ,.",
",.S ( X           ) ] ] ] ] Q p       j m g %.%.    :.:.+.S q ,.",
",.S ( X         K Q ) ] ] ) Q K L   ` ] ] ' G N |   :.:.+.S q ,.",
",.S +.@.@.@.#.Y U E Q ' ) K J H l C ] ' ' ' ] ! U { :.:.+.S q ,.",
",.S +.@.@.#.#.V ' ' ] ) P K H M k ! ` E ! R ` ` ] V ; X.+.S q ,.",
",.S (         J ! T ] ' ' I H b n ' ] ' ' ! U U ` g * X.+.S q ,.",
",.S (       } ` ] ' ` P P K H d W P ` Y E ' ' ' ] M * X.+.S q ,.",
",.S +.@.#.#._ R U ' ' ' E H b d ] ' ' ' ! U U ) ] = v :.+.S q ,.",
",.S +.#.#.&.` ) ) ' E / W H c K ! / E ' ] ) ) ' ! + x >.+.S q ,.",
",.S (       Q W ! ' / ! K H l ! ` ' / ] ' ! ) ] ` 2 &.:.+.S q ,.",
",.S (       ! W W ! / E J n B ! ' / / ] ' ! ! Z 1 a :.:.+.S q ,.",
",.S +.#.*.! ) ) ' W E H H s T ! ' E E ' ) ) ) i @ :.:.>.+.S q ,.",
",.S +.#.*.R U U ! ' / H H d T ' ] ' ' ' U R ! 0 O :.:.>.+.S q ,.",
",.S (   ! ' ' ) U H H H a T E E ` P ` ' ] ) U 9         +.S q ,.",
",.S (   B B B B M H H H a W ' ' ' ' ] T E V p ,         +.S q ,.",
",.S +.$.> > > > 4 x H c k K P P P ! ] ' ' R w + | >.>.>.+.S q ,.",
",.S +.$.$.$.& O + : < < < 6 t A H K K E ! h * v :.>.>.>.+.S q ,.",
",.S (             - + + + % % 5 7 7 7 F K r # z       @.+.S q ,.",
",.S (             O.| | | + o o o + + 8 e 5 3 &.      @.+.S q ,.",
",.S +.$.=.=.=.=.-.-.-.-.;.;.;.:.1 1 1 # $ # f >.>.>.>.>.+.S q ,.",
",.S +.$.=.=.=.-.-.-.-.;.;.;.;.:.:.:.:.v k k >.>.>.>.>.>.+.S q ,.",
",.S (                     ~ :.~       ~ :.@.        [ >.o.S q ,.",
",.S (                     ~ :.D       ~ :.@.      . @.>.o.S q ,.",
",.S ^ -.-.-.-.-.-.-.-.-.-.-.-.>.>.>.>.>.>.>.>.>.>.>.>.>.^ S q ,.",
",.y S S S S S S S S S S S S S S S S S S S S S S S S S S S y q ,.",
",.,.,.,.q q q q q q q q q q q q q q q q q q q q q q q q q q ,.,."
};
