/* XPM */
static char *xpm_50[] = {
/* columns rows colors chars-per-pixel */
"16 16 85 1",
"  c #187308",
". c #187B08",
"X c #187310",
"o c #217B08",
"O c #525A08",
"+ c #5A5A08",
"@ c #427308",
"# c #427B10",
"$ c #5A6308",
"% c #4A7321",
"& c #635208",
"* c #636310",
"= c #009410",
"- c #009C18",
"; c #089418",
": c #108C18",
"> c #188410",
", c #188418",
"< c #009C21",
"1 c #089C21",
"2 c #00A521",
"3 c #00A529",
"4 c #00AD29",
"5 c #08A529",
"6 c #00AD31",
"7 c #08A531",
"8 c #08AD31",
"9 c #00B531",
"0 c #00B539",
"q c #00BD39",
"w c #218421",
"e c #318C21",
"r c #399439",
"t c #10BD42",
"y c #29AD42",
"u c #00C642",
"i c #00CE4A",
"p c #00CE52",
"a c #08CE52",
"s c #00D652",
"d c #00D65A",
"f c #00DE5A",
"g c #10C652",
"h c #429C39",
"j c #5A8431",
"k c #529C31",
"l c #529C52",
"z c #73945A",
"x c #6BA563",
"c c #6BAD6B",
"v c #6BB573",
"b c #943910",
"n c #8C5A10",
"m c #945229",
"M c #946310",
"N c #A54A00",
"B c #A54A10",
"V c #B54208",
"C c #BD4208",
"Z c #B54210",
"A c #BD4A10",
"S c #BD4A18",
"D c #BD5210",
"F c #AD5A31",
"G c #AD5A39",
"H c #946342",
"J c #9C7B5A",
"K c #B56B42",
"L c #C64A10",
"P c #C65A10",
"I c #CE5210",
"U c #CE5A10",
"Y c #CE6318",
"T c #CE7318",
"R c #D66310",
"E c #D66318",
"W c #DE6310",
"Q c #DE6B18",
"! c #E76318",
"~ c #E76B18",
"^ c #EF7318",
"/ c #F77318",
"( c magenta",
") c #A59473",
"_ c None",
/* pixels */
"________________",
"____v   ____b___",
"____3ddj3B_b^b__",
"_bb+7hay0B_b^b__",
"bFVN:tag0__bE!b_",
"bGZC+5kB6z)bE^b_",
"_bbbHXe*q<oM~/Ib",
"____J 4qdu4#T^Ib",
"bYYP&;idqdi-@WAb",
"KQQLO2sdiss9 DSb",
"_bbb%2sfiifq.Pb_",
"____x2ifssd9.Rb_",
"___bn>4ppiq=$b__",
"__bUA+,8q91rb___",
"___bbm_lwwc_____",
"________________"
};
