/* XPM */
static char *xpm_25[] = {
/* columns rows colors chars-per-pixel */
"16 16 32 1",
"  c #3139BD",
". c #2929C6",
"X c #2929CE",
"o c #2921DE",
"O c #2929D6",
"+ c #2939C6",
"@ c #2939CE",
"# c #3121CE",
"$ c #3129CE",
"% c #3121D6",
"& c #3921D6",
"* c #3131C6",
"= c #3939CE",
"- c #2921E7",
"; c #2942BD",
": c #294ABD",
"> c #2942C6",
", c #294AC6",
"< c #294ACE",
"1 c #4A21BD",
"2 c #4A21C6",
"3 c #4221D6",
"4 c #4221DE",
"5 c #5221D6",
"6 c #5221DE",
"7 c #4221F7",
"8 c #5231EF",
"9 c #5A31F7",
"0 c #5A39FF",
"q c #6342FF",
"w c magenta",
"e c None",
/* pixels */
"eeeeeeeeeeeeeeee",
"ee07Oeeee;;eeeee",
"eO%4Oeeee8#;eeee",
"eeO66XXX14;eeeee",
"eee=533333;ee;;e",
"eeO5333333%;24%;",
"eOq333333%%%#.;e",
"O943333&%%%#*;ee",
"o43333&%%### eee",
"...33&%%###$>;ee",
"eee.%%%###$XX<<;",
"eeee@%###XXX;;,;",
"eee2%###XXX;e;;e",
"ee.%...:+XX-.eee",
"eee..eee..,-.eee",
"eeeeeeeeee..eeee"
};
