/* XPM */
static char *xpm_0_big[] = {
/* columns rows colors chars-per-pixel */
"32 32 3 1",
"  c black",
". c magenta",
"X c None",
/* pixels */
"XXXXXXXXXXXXXXXXXXXXXXXXXXXXXXXX",
"XXXXXXXXXXXXXX     XXXXXXXXXXXXX",
"XXXXXXXXXXX     XX   XXXXXXXXXXX",
"XXXXXXXXX  X XXX        XXXXXXXX",
"XXXXXXX  XXX XX    XX     XXXXXX",
"XXXXXX         XXXXXX XXX  XXXXX",
"XXXXX  XXXXX  X    XXX XX   XXXX",
"XXXXX  XXXX X XXXXX    X XX XXXX",
"XXXX  XXXX XXX XXXXXXX  XXX  XXX",
"XXX X XX  XXXX XXXXXXX   XX  XXX",
"XXX X X XXXXXX XXXXXX X X XX  XX",
"XX XX  XXXXXXX XXXXX XX XX X  XX",
"XX    XXXXXXXX XXXX XXX XXX  X X",
"XX X  XXXXXXXX XXX XXXXX XXX   X",
"XX X X    XXXXX X XXXXXX XXX   X",
"X  X  XXXX    X  XXXXXXX X  X  X",
"X X   XXXXXXXX            XXX  X",
"X X XX XXXXXXX  XXXXXXX   XXX  X",
"X   XX XXXXXX X XXXXXX X  XXX  X",
"XX  XX XXXXX XX XXXXX XX X X X X",
"XX  XXX XXX XXX XXXX XXX XX   XX",
"XXX   X XX XXXXX XXX XX XXX   XX",
"XXX  X    XXXXXX XX XXX XXX  XXX",
"XXX  XXX   XXXXX X XXXX X    XXX",
"XXXX XX X X    X  XX     X  XXXX",
"XXXX   XXX XXXX     XXX X X XXXX",
"XXXXX  XXXX XXXX  XXXX X X XXXXX",
"XXXXXXX   XX XX XX  XX    XXXXXX",
"XXXXXXXXX     X XXXX    XXXXXXXX",
"XXXXXXXXXXX           XXXXXXXXXX",
"XXXXXXXXXXXXXXXXX   XXXXXXXXXXXX",
"XXXXXXXXXXXXXXXXXXXXXXXXXXXXXXXX"
};
