/* XPM */
static char *xpm_7[] = {
/* columns rows colors chars-per-pixel */
"16 16 65 1",
"  c #392118",
". c #212129",
"X c #292121",
"o c #292129",
"O c gray16",
"+ c #00107B",
"@ c #10217B",
"# c #18317B",
"$ c #4A2108",
"% c #4A2110",
"& c #522108",
"* c #423929",
"= c #5A4239",
"- c #634229",
"; c #634231",
": c #735A4A",
"> c #7B6B4A",
", c #7B735A",
"< c #737363",
"1 c #000084",
"2 c #001084",
"3 c #102984",
"4 c #393994",
"5 c #42528C",
"6 c #4A528C",
"7 c #4A5294",
"8 c #5A6B8C",
"9 c #63639C",
"0 c #737394",
"q c #7B949C",
"w c #739CA5",
"e c #846B63",
"r c #847B6B",
"t c magenta",
"y c #848494",
"u c #8C8C94",
"i c #948C9C",
"p c #9C9494",
"a c #9C9C94",
"s c gray61",
"d c #8494AD",
"f c #9C9CA5",
"g c #9CA594",
"h c #9CA5AD",
"j c #9CA5BD",
"k c #9CB5AD",
"l c #A59CA5",
"z c #A5A5A5",
"x c #A5ADA5",
"c c #A5ADAD",
"v c #ADA5AD",
"b c #ADADB5",
"n c #A5B5B5",
"m c #ADB5B5",
"M c #ADBDB5",
"N c #ADBDBD",
"B c #B5BDBD",
"V c #ADBDC6",
"C c #ADC6BD",
"Z c #B5C6BD",
"A c #ADC6C6",
"S c #B5C6C6",
"D c #B5CEC6",
"F c #B5CECE",
"G c None",
/* pixels */
"GGGGGGGGGGGGGGGG",
"GGGAAAAGGGGGGGGG",
"GGrFFFFzGsFN,GGG",
"GGgmFA97iCSSAmGG",
"G>NcFm4#hBBNcF-G",
"GgFFzmlybBmSFF;G",
"GxcANd3@SSSmm.XG",
"GmcANm51ZmDNF.GG",
"MFFzzv81BmDNk.GG",
"NcmAzf61jVVma.GG",
"mmczz022+wNN<*GG",
"&&&zzuqqqFNn%GGG",
"Goo$$$&pppNeOGGG",
"GGGGGG... :=GGGG",
"GGGGGGGGGG..GGGG",
"GGGGGGGGGGGGGGGG"
};
