/* XPM */
static char *xpm_46_big[] = {
/* columns rows colors chars-per-pixel */
"32 32 3 1",
"  c black",
". c magenta",
"X c None",
/* pixels */
"XXXXXXXXXXXXXXXXXXXXXXXXXXXXXXXX",
"XXXXXXXXXXXXXXXXXXX   XXXXXXXXXX",
"XXXX    XXXXXXXXXXX XX XXXXXXXXX",
"XXX XXXX XXXXXXXXX XXXX XXXXXXXX",
"XXX XXXXX XXXXXXXX XXX XXXXXXXXX",
"XXXX XXXX XXXXXXXX XX XXXXXXXXXX",
"XXXXX XXXX  XXXXX XXX XXXXXXXXXX",
"XXXXX XXXXXX     XXX XXXXXXXXXXX",
"XXXXXX XXXXXXXXXXXXX XXXXXXXXXXX",
"XXXXXX XXXXXXXXXXXXXX XXXX    XX",
"XXXXX XXXXXXXXXXXXXXXX XX XXXX X",
"XXXXX XXXXXXXXXXXXXXXXX  XXXXX X",
"XXXX XXXXXXXXXXXXXXXXXXXXXXX  XX",
"XXX XXXXXXXXXXXXXXXXXXXXXXX XXXX",
"XX XXXXXXXXXXXXXXXXXXXXXXX XXXXX",
"X XXXXXXXXXXXXXXXXXXXXXXX XXXXXX",
" XXXXXXXXXXXXXXXXXXXXXXXX XXXXXX",
" XXXXXXXXXXXXXXXXXXXXXXXX XXXXXX",
" XXXXXXXXXXXXXXXXXXXXXXXX XXXXXX",
"X     XXXXXXXXXXXXXXXXXXXX XXXXX",
"XXXXXX XXXXXXXXXXXXXXXXXXXX   XX",
"XXXXXXX XXXXXXXXXXXXXXXXXXXXXX X",
"XXXXXXXX XXXXXXXXXXXXXXXX XXXX X",
"XXXXXXXX XXXXXXXXXXXXXXX X XX XX",
"XXXXXXX XXXXXXXXXXXXXXX XXX  XXX",
"XXXXXX XXXXXXXXXXXXXXX XXXXXXXXX",
"XXXXX XXXX     XXXXXXXX XXXXXXXX",
"XXXXX XXX  XXXX  XXXXXXX XXXXXXX",
"XXXXXX   XXXXXXXX  XXXXX XXXXXXX",
"XXXXXXXXXXXXXXXXXXX XXX XXXXXXXX",
"XXXXXXXXXXXXXXXXXXXX   XXXXXXXXX",
"XXXXXXXXXXXXXXXXXXXXXXXXXXXXXXXX"
};
