/* XPM */
static char *xpm_28_big[] = {
/* columns rows colors chars-per-pixel */
"32 32 9 1",
"  c #100010",
". c #4A424A",
"X c #736B73",
"o c #C64A39",
"O c magenta",
"+ c DarkOrange",
"@ c #9C949C",
"# c #BDB5B5",
"$ c None",
/* pixels */
"$$$$$$$$$$$$$$$$$$$$$$$$$$$$$$$$",
"$$$$$$$$$$$$$$$$$$$$$$$$$$$$$$$$",
"$$$$$$$$$$$$$$$$$$$$$$$$$$$$$$$$",
"$$$$$$$$$$$$$$$$$$$$$$$$$$$$$$$$",
"$$$$$$$$$$$$$$$$$$$$$$$$$$$$$$$$",
"$$$$$$$$$$$$$$$$$$$$$$$$$$$$$$$$",
"$$$$$+++++$$$$$###$$$$$$$$$$$$$$",
"$$$++ooooo++$#@@@@##$$$$$$$$$$$$",
"$$+oo$$$$$oo+@@@@@@@$$$$$$$$$$$$",
"$+o$$$$$$$$$o+ @@@@@###########$",
"$+$$$$$$$$$$@o@@@@@@@@@@@@@@@@@$",
"o$$$$$$$$$$$@@@@@@@@$$$$$$$@@@$$",
"o$$$$$$$$$$$X@@@@@@@$$$$$$$@@@$$",
"o$$$$$$$$$$$X@@@@@@@$$$$$$$$$$$$",
"o$$$$$$$$$$$XXX@@@XXX#$$$$$$$$$$",
"o$$$$$$$$$$..XXXXXXXXXX###$$$$$$",
"o+$$$$$$$$$..XXXXX.X$XXXXXX###$$",
"$+$$$$$$$$$....XX..X$$$$XXXXXX$$",
"$o+$$$$$$$$$......X$$$$$$X$XXX$$",
"$$o++$$$$$++......X$$$$$$$$$$$$$",
"$$$oo+++++ooo$$$$..X$$$$$$$$$$$$",
"$$$$$ooooo$$$$$$$..X$$$$$$$$$$$$",
"$$$$$$$$$$$$$$$$$...X$$$$$$$$$$$",
"$$$$$$$$$$$$$$$$....X$$$$$$$$$$$",
"$$$$$$$$$$$$$$$$.$...X$$$$$$$$$$",
"$$$$$$$$$$$$$$$$$$...X$$$$$$$$$$",
"$$$$$$$$$$$$$$$$$.....X$$$$$$$$$",
"$$$$$$$$$$$$$$$$$..$..$$$$$$$$$$",
"$$$$$$$$$$$$$$$$$$$$$$$$$$$$$$$$",
"$$$$$$$$$$$$$$$$$$$$$$$$$$$$$$$$",
"$$$$$$$$$$$$$$$$$$$$$$$$$$$$$$$$",
"$$$$$$$$$$$$$$$$$$$$$$$$$$$$$$$$"
};
