/* XPM */
static char *xpm_1[] = {
/* columns rows colors chars-per-pixel */
"16 16 42 1",
"  c black",
". c #100810",
"X c #101010",
"o c #181018",
"O c #181818",
"+ c #211821",
"@ c #313131",
"# c #31297B",
"$ c #39317B",
"% c #423942",
"& c #42397B",
"* c #524A52",
"= c #736B73",
"- c gray45",
"; c #7B737B",
": c #7B7B7B",
"> c #00008C",
", c #000894",
"< c #100894",
"1 c #18108C",
"2 c #211884",
"3 c #292984",
"4 c #31298C",
"5 c #393184",
"6 c #63638C",
"7 c #6B6384",
"8 c #6B6394",
"9 c #7B738C",
"0 c #7B7B8C",
"q c #7B7394",
"w c #847B84",
"e c magenta",
"r c #848484",
"t c #84848C",
"y c #8C848C",
"u c gray55",
"i c #948C94",
"p c gray58",
"a c #9C949C",
"s c gray61",
"d c #A5A5A5",
"f c None",
/* pixels */
"OOOOOOOOOOOOffff",
"Of+dddsssap@=fff",
"Of+ddsssapp%X.ff",
"OOOdssq<&iiuOOOf",
"OfOsss8,4uuuOfOf",
"OfOsspt69uuyOfOf",
"O@Oapp#23urrO@Of",
"OfOppi731urrOfOf",
"OfOpiui$1ur:OfOf",
"O*Oiuuu$1y::O*Of",
"OfOuuy0519::OfOf",
"OfOuyr>>>>;-OfOf",
"O Oyrrw::;--O Of",
"OfOrrw::;---ofOf",
"OfOOOOOOOOOOofOf",
"frrrrrrrrrrrrrrf"
};
