/* XPM */
static char *xpm_2_big[] = {
/* columns rows colors chars-per-pixel */
"32 32 11 1",
"  c black",
". c #E7736B",
"X c magenta",
"o c #D6AD84",
"O c #DEB594",
"+ c #D6C6B5",
"@ c #FFEFD6",
"# c #FFEFDE",
"$ c #FFF7E7",
"% c gray100",
"& c None",
/* pixels */
"&&&&&&&&&&&&&&&&&&&&&&&&&&&&&&&&",
"&&&&&&&&&&&&&&&&&&&&&&ooo&&&&&&&",
"&&&&&ooo&&&&&&&&&&&&&o###o&&&&&&",
"&&&oo@@@oo&&&&&&&&&&o#####o&&&&&",
"&&o@@@@@@@o&&&&&&&&&o###O#o&&&&&",
"&&o@@@@@@@@o&&&&&&&&o###O##o&&&&",
"&&o@@@O.@@@o&&&&&&&&o###O.#o&&&&",
"&&&o@@@O.@@@o&&&&&&&&o##O.#o&&&&",
"&&&&o@@@O.@@o&&&&&&&&o##O.#o&&&&",
"&&&&&o@@@O.@@o&&&&&&&o##O.#o&&&&",
"&&&&&&o@@O.@@o&&&&&&&&o#O.#o&&&&",
"&&&&&&&o@@O.@o&&&&&&&&o##.+o&&&&",
"&&&&&&&&o@@O.$o&&&&&&&o##.+o&&&&",
"&&&&&&&&o@@O.$o&&&&&&&o##.+o&&&&",
"&&&&&&&&&o@#O.o&&&&&&&o##.+o&&&&",
"&&&&&&&&&&o#O.o&&&&&&&o##.+o&&&&",
"&&&&&&&&&&o##.oo&&&&&&o#$.o&&&&&",
"&&&&&&&&&&&o###o&&&&&&o#$oo&&&&&",
"&&&&&&&&&&&o###oooooooooo$o&&&&&",
"&&&&&&&&&&&&o#########$$$oo&&&&&",
"&&&&&&&&&&&&o#########$$$$$o&&&&",
"&&&&&&&&&&&o#########$$$$$$$o&&&",
"&&&&&&&&&&o####+ ###$$$$$$+ $o&&",
"&&&&&&&&&&o####+ ###$$$$$$+ $o&&",
"&&&&&&&&&&o########$$$..$$$$$o&&",
"&&&&&&&&&&o####OOOOOOOOOOOOO$o&&",
"&&&&&&&&&&o###O%%%%%%%%%%%%%oo&&",
"&&&&&&&&&&&o##O+%+%%+%%+%%+%o&&&",
"&&&&&&&&&&&&oo$o+%++%++%++%o&&&&",
"&&&&&&&&&&&&&&oooo%%%%%%%oo&&&&&",
"&&&&&&&&&&&&&&&&&oooooooo&&&&&&&",
"&&&&&&&&&&&&&&&&&&&&&&&&&&&&&&&&"
};
