/* XPM */
static char *xpm_31_big[] = {
/* columns rows colors chars-per-pixel */
"32 32 41 1",
"  c black",
". c #000008",
"X c #393939",
"o c gray32",
"O c gray39",
"+ c #737B7B",
"@ c #7B7B7B",
"# c #7B8484",
"$ c magenta",
"% c #848484",
"& c #8C8C94",
"* c #8C9494",
"= c gray58",
"- c gray61",
"; c #9C9CA5",
": c #A5A5A5",
"> c gray68",
", c #A5ADB5",
"< c #ADADB5",
"1 c gray71",
"2 c #B5B5BD",
"3 c #B5BDBD",
"4 c #BDBDC6",
"5 c #BDC6C6",
"6 c #C6C6C6",
"7 c #CECECE",
"8 c #CECED6",
"9 c #D6DEDE",
"0 c gray87",
"q c #D6DEE7",
"w c #DEDEE7",
"e c #DEE7E7",
"r c #DEE7EF",
"t c #E7E7E7",
"y c #E7E7EF",
"u c #E7EFEF",
"i c #E7EFF7",
"p c #EFEFF7",
"a c #EFF7F7",
"s c #EFF7FF",
"d c None",
/* pixels */
"dddddddddddddddddddddddddddddddd",
"dqqqqqqwwerrrrrryuuiiii 5paass2d",
"dqqqqqqwwerrrrrryyuiiii 5paass2d",
"dqqqqqqwwerrrrrryyuiiii 5paass2d",
"dqqqqqqwwerrrrrryyuiiii 5paass2d",
"d2222222222222222222222 2222222d",
"dqqqqqqqwer rrrryyuiiii 5ppaas2d",
"dqqqqqqqwer rrrryyuiiii 5ppaas2d",
"dqqqqqq wee rrrryyuuiii 2rpaas2d",
"dqqqqq3 5e=   rryyuuiii 5ppaas2d",
"d222222 @&    222222222 5222222d",
"d9qqqq,      1rryrrrrrr 2ppaas2d",
"d9qq2       3rrrrru5555 5ppaas2d",
"d9qq2   >0; 7rrrr55oo   5ppaas2d",
"d9qqqq: 2e1 7rrr5 oooo  5ppaas2d",
"d9qqqq1 1e1 7rr5 o%@o   5ppaas2d",
"d222222 282   25 -tO   52222222d",
"d9qqqq1 *     r o6%    iippaas2d",
"d9qqqq<     4rr oOO   5iippaas2d",
"d9qq2     # 7rr5oo  55iiippaas2d",
"d9qq2   -w2 6rrrryyuiiiiippaas2d",
"d222222 22222222222222222222222d",
"d                              d",
"d   qX    eX 2+ +yyu2   Xi     d",
"d   qqX  weX 2+ +2  +2  Xi     d",
"d   qqX  weX 2+ +2   +2 Xi     d",
"d   qXqXsXeX 2+ +2   +2 Xi     d",
"d   qX sX eX 2+ +2   +2 Xi     d",
"d   q     eX 2+ +2  +2  Xi     d",
"d   qX    eX 2+ +ryu2   Xi     d",
"d ...........................  d",
"dddddddddddddddddddddddddddddddd"
};
