/* XPM */
static char *xpm_52[] = {
/* columns rows colors chars-per-pixel */
"16 16 48 1",
"  c black",
". c #100810",
"X c #101010",
"o c #181818",
"O c #211821",
"+ c #292129",
"@ c gray16",
"# c #312931",
"$ c #313131",
"% c #393139",
"& c #393939",
"* c #423942",
"= c #4A424A",
"- c #524A52",
"; c gray32",
": c #5A525A",
"> c gray39",
", c gray42",
"< c #736B73",
"1 c #7B7B7B",
"2 c magenta",
"3 c #848484",
"4 c #8C848C",
"5 c gray55",
"6 c #948C94",
"7 c gray58",
"8 c #9C949C",
"9 c gray61",
"0 c #A59CA5",
"q c #A5A5A5",
"w c #ADA5AD",
"e c gray68",
"r c gray71",
"t c gray74",
"y c #C6BDC6",
"u c #C6C6C6",
"i c #CEC6CE",
"p c #D6CED6",
"a c gray84",
"s c #DED6DE",
"d c #E7DEE7",
"f c #E7E7E7",
"g c #EFE7EF",
"h c #F7EFF7",
"j c gray97",
"k c #FFF7FF",
"l c gray100",
"z c None",
/* pixels */
"zzzzzllllllzzzzz",
"zzzlli0rpllllzzz",
"zzlw09y;0lllllzz",
"zllta1f<*e7llllz",
"zlh9ls-j:O8ke8lz",
"lle7<,ul&ql1hlll",
"ld3>lr;5%g84ltwl",
"llls1k4 ;4deg7ll",
"lwalf60 @ka,:fll",
"ll7::.  =f#,alll",
"llltp0$  X1lllll",
"zlllll8  0lllllz",
"zlllllj  plllllz",
"zzlllllo fllllzz",
"zzzllll+Xhlllzzz",
"zzzzzllllllzzzzz"
};
