/* XPM */
static char *xpm_54_big[] = {
/* columns rows colors chars-per-pixel */
"32 32 150 2",
"   c black",
".  c #101010",
"X  c #313100",
"o  c #4A424A",
"O  c gray29",
"+  c #524A4A",
"@  c #5A5252",
"#  c #5A525A",
"$  c #5A5A52",
"%  c #635A5A",
"&  c #635A63",
"*  c #6B5A6B",
"=  c #636352",
"-  c #6B6B5A",
";  c #73735A",
":  c gray42",
">  c #736B6B",
",  c #736B73",
"<  c #7B737B",
"1  c #84634A",
"2  c #946B52",
"3  c #9C635A",
"4  c #847B7B",
"5  c #BD735A",
"6  c #DE5A29",
"7  c #D65A31",
"8  c #CE6329",
"9  c #D66329",
"0  c #D67B39",
"q  c #DE7B31",
"w  c #DE7B39",
"e  c #EF7318",
"r  c #FF7B10",
"t  c #E76B21",
"y  c #E77321",
"u  c #EF7321",
"i  c #C66342",
"p  c #CE6B42",
"a  c #CE7B4A",
"s  c #CE7B52",
"d  c #847384",
"f  c #847B84",
"g  c magenta",
"h  c #A5A500",
"j  c #8C8C6B",
"k  c #8C8473",
"l  c #8C847B",
"z  c #9C9C6B",
"x  c #A59C73",
"c  c #ADAD73",
"v  c #BDBD7B",
"b  c #FF8410",
"n  c #EF8429",
"m  c #EF9431",
"M  c #EF9C31",
"N  c #EF9C39",
"B  c #F79429",
"V  c #EFAD39",
"C  c #F7AD39",
"Z  c #CE8452",
"A  c #CE945A",
"S  c #D68442",
"D  c #DE9452",
"F  c #C6A552",
"G  c #CEAD6B",
"H  c #CEBD6B",
"J  c #CEBD73",
"K  c #D6A56B",
"L  c #D6AD6B",
"P  c #D6BD63",
"I  c #D6B57B",
"U  c #DEBD73",
"Y  c #EFAD42",
"T  c #E7BD52",
"R  c #F7AD42",
"E  c #CEC673",
"W  c #CECE7B",
"Q  c #CED67B",
"!  c #D6C663",
"~  c #D6C66B",
"^  c #DEC66B",
"/  c #D6CE73",
"(  c #D6CE7B",
")  c #DECE7B",
"_  c #D6D663",
"`  c #D6D67B",
"'  c #EFC65A",
"]  c #EFC663",
"[  c #E7D67B",
"{  c #8C848C",
"}  c #948484",
"|  c #948C94",
" . c #9C8C94",
".. c gray58",
"X. c #9C9494",
"o. c #9C949C",
"O. c gray61",
"+. c #A59CA5",
"@. c #ADA584",
"#. c #ADA58C",
"$. c #B5AD94",
"%. c #BDB584",
"&. c #BDBD8C",
"*. c #B5B59C",
"=. c #ADA5AD",
"-. c #B5ADB5",
";. c #BDB5A5",
":. c #BDB5AD",
">. c #C6BD8C",
",. c #C6C684",
"<. c #CECE84",
"1. c #CECE8C",
"2. c #CECE94",
"3. c #D6CE84",
"4. c #D6CE8C",
"5. c #D6D684",
"6. c #D6DE84",
"7. c #DED684",
"8. c #DEDE84",
"9. c #DEDE8C",
"0. c #D6D694",
"q. c #D6D69C",
"w. c #DEDE94",
"e. c #C6C6A5",
"r. c #C6C6AD",
"t. c #CECEAD",
"y. c #C6C6B5",
"u. c #D6CEAD",
"i. c #D6D6AD",
"p. c #DED6A5",
"a. c #DED6AD",
"s. c #E7DE8C",
"d. c #E7DE94",
"f. c #E7DE9C",
"g. c #E7E78C",
"h. c #EFE78C",
"j. c #E7E794",
"k. c #E7E79C",
"l. c #EFEF94",
"z. c #EFEF9C",
"x. c #F7EF94",
"c. c #F7EF9C",
"v. c #F7F794",
"b. c #F7F79C",
"n. c #FFF79C",
"m. c #FFFF9C",
"M. c #E7E7A5",
"N. c #EFEFAD",
"B. c #FFFFA5",
"V. c None",
/* pixels */
"V.V.V.V.V.V.V.V.V.V.V.V.V.V.V.V.V.V.V.V.V.V.V.V.V.V.V.V.V.V.V.V.",
"V.V.V.V.V.V.V.V.V.V.V.V.V.V.V.V.V.V.V.V.V.V.V.V.V.V.V.V.V.V.V.V.",
"V.V.V.V.V.V.V.V.V.V.V.V.V.V.V.V.V.V.V.V.V.V.V.V.V.V.V.V.V.V.V.V.",
"V.V.V.V.h h h h h h h h h . V.V.V.V.V.V.V.V.V.V.V.V.V.V.V.V.V.V.",
"V.V.V.h 7.8.s.g.h.l.x.b.n.h . V.V.V.V.V.V.V.V.V.V.V.V.V.V.V.V.V.",
"V.V.h ` 7.8.s.g.h.l.x.b.n.m.h . V.V.V.V.V.V.V.V.V.V.V.V.V.V.V.V.",
"V.h W ` 5.8.9.g.g.l.l.v.b.m.B.h . V.V.V.V.V.V.V.V.V.V.V.V.V.V.V.",
"h _ _ _ _ _ _ _ _ _ _ _ _ _ _ _ h h h h h h h h h h h h h h V.V.",
"h W ( ` 5.5.7.7.8.8.s.s.g.g.g.h.l.l.l.x.x.v.b.b.n.m.m.m.B.B.  V.",
"h W ( ` 5./ ^ b r r r ] [ s.w.:.-.r.k.x.x.v.b.b.n.m.m.m.B.B._ . ",
"h W ( ` ~ m e a s Z Z u n I O.o.o.O.=.f.x.v.b.b.n.m.m.m.B.B._ X ",
"h W ( ~ m S A ` 6.8.8.K D q 1 { o.o.o.e.i.i.i.i.i.a.a.a.B.B._ X ",
"h W ( ! B E ` 5.6.8.8.9.3.5 3 | o.o.o.O.+.+.+.+.+.+.+.+.;.B._ X ",
"h W ( p / Q ` 5.6.8.8.9.1. .X.o.o.o.o.0.z.z.z.c.z.o.o.q.B.B._ X ",
"h W ( i Q Q ` 5.6.8.8.9.,.f o.o.o.o.o.w.x.v.b.b.n.*.*.M.B.B._ X ",
"h W ( i Q Q ` 5.6.8.8.9.,.< { ..o.| { #.p.v.b.b.n.m.m.m.B.B._ X ",
"h W ( i Q Q ` 5.6.8.8.6.; & , d f < , , { $.t.u.n.m.m.m.B.B._ X ",
"h W ( 7 Y Q ` 5.6.8.8.5.o # , , , * & >.< < f f } y.y.N.B.B._ X ",
"h W ( P M / ` 5.6.8.8.5.$ o o & & o > 0.x.v.>.< l , , 2.B.B._ X ",
"h W ( J 0 N T ` 6.6.8.' F o o o o # %.x.x.v.b.>.z.@.@.f.B.B._ X ",
"h W ( ` H w t V C R R y 8 2 z z j O k d.x.v.b.b.n.m.m.m.B.B._ X ",
"h W ( ` 5.J G 9 6 6 6 L U ) g.h.<.o & 4.x.v.b.b.n.m.m.m.B.B._ X ",
"h W ( ` 5.5.7.( ( ( ) s.g.g.g.h.v o o > l.v.b.b.n.m.m.m.B.B._ X ",
"h W ( ` 5.5.7.7.8.8.s.s.g.g.g.h.+ = o & 1.v.b.b.n.m.m.m.B.B._ X ",
"h W ( ` 5.5.7.7.8.8.s.s.g.g.g.h.x c o o 4 v.b.b.n.m.m.m.B.B._ X ",
"h W ( ` 5.5.7.7.8.8.s.s.g.g.g.h.5.- o o % &.b.b.n.m.m.m.B.B._ X ",
"h W ( ` 5.5.7.7.8.8.s.s.g.g.g.h.<.o O.: @ j.b.b.n.m.m.m.B.B._ X ",
"h W ( ` 5.5.7.7.8.8.s.s.g.g.g.h.l.l.l.x.x.v.b.b.n.m.m.m.B.B._ X ",
"h _ _ _ _ _ _ _ _ _ _ _ _ _ _ _ _ _ _ _ _ _ _ _ _ _ _ _ _ _ _ X ",
"V.X X X X X X X X X X X X X X X X X X X X X X X X X X X X X X V.",
"V.V.V.V.V.V.V.V.V.V.V.V.V.V.V.V.V.V.V.V.V.V.V.V.V.V.V.V.V.V.V.V.",
"V.V.V.V.V.V.V.V.V.V.V.V.V.V.V.V.V.V.V.V.V.V.V.V.V.V.V.V.V.V.V.V."
};
