/* XPM */
static char *xpm_1_big[] = {
/* columns rows colors chars-per-pixel */
"32 32 39 1",
"  c black",
". c #000800",
"X c #100810",
"o c #101010",
"O c #181018",
"+ c #181818",
"@ c #211821",
"# c gray13",
"$ c gray16",
"% c #312931",
"& c #313131",
"* c #423942",
"= c #423973",
"- c gray26",
"; c #524A52",
": c gray32",
"> c #5A5A5A",
", c gray39",
"< c gray42",
"1 c #736B73",
"2 c gray45",
"3 c #7B737B",
"4 c #7B7B7B",
"5 c #00008C",
"6 c #00009C",
"7 c #181884",
"8 c #847B84",
"9 c magenta",
"0 c #848484",
"q c #8C848C",
"w c gray55",
"e c #948C94",
"r c gray58",
"t c #9C949C",
"y c gray61",
"u c #A59CA5",
"i c #A5A5A5",
"p c #ADA5AD",
"a c None",
/* pixels */
"aaaaaaaaaaaaaaaaaaaaaaaaaaaaaaaa",
"aa+++++++++++++++++++++++aaaaaaa",
"aa.aa@ppiiiiuuyyyyttrrr&>+aaaaaa",
"aa.aa@iiiiiuuyyyyttrrrr&>1+aaaaa",
"aa.aa@iiiiuyyyyyttrrrre&:,,oaaaa",
"aa   @iiiuyyyyyttrrrree*#oXX aaa",
"aa   +iiuyyyyyttrrrreewww+   aaa",
"aa +++iuyyyyttrrrreeewwww+O+ 4aa",
"aa.aa+uyyyyytrw661ewwwwwq+aao4aa",
"aa.aa+yyyyytrr6655wwwwwqq+aa+4aa",
"aa aa+yyyytrrr6655wwwwqq0+aao4aa",
"aa   +yyytrrrrw66wwwwqq00+   4aa",
"aa   +yytrrrrewwwwwqqq000+   4aa",
"aa &%+ytrrrre=====qqq0000+$& 4aa",
"aa.aa+trrrrrw=5555q000008+aao4aa",
"aa.aa+rrrrrew==7550000088+aa+4aa",
"aa aa+rrrrewwww=550000884+aa.4aa",
"aa   +rrrewwwwq=550008844+   4aa",
"aa   +reewwwwq0=550884444+   4aa",
"aa ;-+eewwwwq00=558444444+-;.4aa",
"aa.aa+ewwwwq000=554444443+aao4aa",
"aa.aa+wwwwqq000=554444432+aa+4aa",
"aa aa+wwwqq02555555544322+aa.4aa",
"aa   +wwqq002555555523222+   4aa",
"aa    wqq0000222222222222    4aa",
"aa   +qq000084444444<2222+   4aa",
"aa.aa+q000088444443222221+aa.4aa",
"aa.aa+000088444433222221<Oaa+4aa",
"aa.aa+00088444433222221<<Oaa+4aa",
"aa X++0088444433222221<<<O.+ 4aa",
"aa                           4aa",
"aaaa00000000000000000000000000aa"
};
