/* XPM */
static char *xpm_51[] = {
/* columns rows colors chars-per-pixel */
"16 16 55 1",
"  c #21737B",
". c #217384",
"X c #217B84",
"o c #297B84",
"O c #297B8C",
"+ c #397384",
"@ c #42738C",
"# c #29848C",
"$ c #318494",
"% c #42848C",
"& c #428C8C",
"* c #4A8C94",
"= c #4A9494",
"- c #4A949C",
"; c #528C9C",
": c #5A849C",
"> c #5A9C9C",
", c #63849C",
"< c #638C9C",
"1 c #639C9C",
"2 c #6BA59C",
"3 c #63A5A5",
"4 c #63A5AD",
"5 c #6BA5A5",
"6 c #6BA5AD",
"7 c #6BADAD",
"8 c #6BADB5",
"9 c #73A5A5",
"0 c #73A5AD",
"q c #73ADAD",
"w c #7BA5AD",
"e c #73ADB5",
"r c #7BB5B5",
"t c magenta",
"y c #849CAD",
"u c #84BDB5",
"i c #8CBDBD",
"p c #9CBDBD",
"a c #94BDC6",
"s c #94C6BD",
"d c #9CC6BD",
"f c #94C6C6",
"g c #9CCEC6",
"h c #A5D6C6",
"j c #A5D6CE",
"k c #ADD6CE",
"l c #B5D6CE",
"z c #B5D6D6",
"x c #B5DED6",
"c c #BDDED6",
"v c #BDDEDE",
"b c #C6DED6",
"n c #C6DEDE",
"m c #C6E7DE",
"M c None",
/* pixels */
"MMMMMMMMMMMMMMMM",
"MmpcccxizkkkjjhM",
"Mm5cccx1zkkzjjhM",
"Mm5vc5x33kkzj>hM",
"Mm*fs5x55kuzu3hM",
"MgX676z7-i3z33uM",
"MrO777aeO77z777M",
"Mr#;we8e$q7z777M",
"M+<+<+@<y@:<,@@M",
"MoqOf4O7xO8e77$M",
"M 0Oz7.xx.6666OM",
"MqbOvq xz 5zk3.M",
"Mdm=vs%zz5zkku&M",
"Mmm9vc5zzikkkj>M",
"Mmm2ncccxxlkkkjM",
"MMMMMMMMMMMMMMMM"
};
