/* XPM */
static char *xpm_36[] = {
/* columns rows colors chars-per-pixel */
"16 16 39 1",
"  c #00187B",
". c #00217B",
"X c #002973",
"o c #6B214A",
"O c #00008C",
"+ c #001884",
"@ c #8C3139",
"# c #B51818",
"$ c #BD1818",
"% c #AD1821",
"& c #AD1831",
"* c #B51821",
"= c #BD1821",
"- c #B51831",
"; c #BD1831",
": c #BD2118",
"> c #BD2918",
", c #B53118",
"< c #B53918",
"1 c #842142",
"2 c #9C3942",
"3 c #AD4218",
"4 c #B54218",
"5 c #C61818",
"6 c #C62918",
"7 c #CE2918",
"8 c #C63918",
"9 c #CE3918",
"0 c #D62918",
"q c #DE3939",
"w c #C64A18",
"e c #CE4A18",
"r c #DE4A29",
"t c #E74218",
"y c #E75229",
"u c #EF5229",
"i c #EF5A39",
"p c magenta",
"a c None",
/* pixels */
"aaaaaaaaaaaaaaaa",
"aaut5aaaa&&aaaaa",
"a5695aaaar>&aaaa",
"aa5ee$<o39&aaaaa",
"aaa$w8o+18&aa&&a",
"aa5w88<1486&<96&",
"a5i8888<<666>#&a",
"5y9888.+166>#&aa",
"7988881+o>>>%aaa",
"###8866+o>>>*&aa",
"aaa#66> o>:::;q&",
"aaaa=2OOOX::&&-&",
"aaa<6,@@@2:&a&&a",
"aa#6###&*::0#aaa",
"aaa##aaa##--#aaa",
"aaaaaaaaaa##aaaa"
};
