/* XPM */
static char *xpm_5_big[] = {
/* columns rows colors chars-per-pixel */
"32 32 89 1",
"  c gray29",
". c gray39",
"X c #00008C",
"o c #00088C",
"O c #10088C",
"+ c #101084",
"@ c #10108C",
"# c #181084",
"$ c #181884",
"% c #18188C",
"& c #181094",
"* c #181894",
"= c #211894",
"- c #292184",
"; c #212194",
": c #292194",
"> c #29219C",
", c #292994",
"< c #312984",
"1 c #31299C",
"2 c #31319C",
"3 c #39319C",
"4 c #42399C",
"5 c #4239A5",
"6 c #4A4A84",
"7 c #524A84",
"8 c #4242A5",
"9 c #4A42A5",
"0 c #4A4AA5",
"q c #4A4AAD",
"w c #5A52AD",
"e c #5A5AA5",
"r c #5A52B5",
"t c #5A5AB5",
"y c #635AB5",
"u c #6B63B5",
"i c #6B63BD",
"p c #6B6BB5",
"a c #7373B5",
"s c #7373BD",
"d c #7B73B5",
"f c #7B7BC6",
"g c #847BBD",
"h c magenta",
"j c gray61",
"k c #8C84B5",
"l c #9C94BD",
"z c #9C9CBD",
"x c gray68",
"c c #BDB5BD",
"v c #8C8CCE",
"b c #948CC6",
"n c #A59CC6",
"m c #ADA5C6",
"M c #ADA5CE",
"N c #ADA5D6",
"B c #BDADC6",
"V c #B5ADD6",
"C c #B5ADDE",
"Z c #BDB5C6",
"A c #BDB5CE",
"S c #BDB5D6",
"D c #C6B5C6",
"F c #C6BDC6",
"G c #C6BDCE",
"H c #CEBDCE",
"J c #C6BDD6",
"K c #CEC6CE",
"L c #CEC6D6",
"P c #CEC6DE",
"I c #D6C6D6",
"U c #D6CED6",
"Y c #D6CEDE",
"T c #DED6DE",
"R c gray87",
"E c #CECEE7",
"W c #DED6E7",
"Q c #E7DEE7",
"! c #E7DEEF",
"~ c #E7E7E7",
"^ c #EFE7EF",
"/ c #EFEFEF",
"( c #E7E7F7",
") c #EFEFF7",
"_ c #F7EFF7",
"` c gray97",
"' c #FFF7FF",
"] c gray100",
"[ c None",
/* pixels */
"[[[[[[[[[[[[[[[[[[[[[[[[[[[[[[[[",
"xxxxxxxxxxxxxxxxxx[[[[[[[[[[[[[[",
"xFFKUUTTQ~^/_']]]x.[[[[[[[[[[[[[",
"xFFKIUTTQQ^/_'']]x.[[xxxxxxxx[[[",
"xFFKIUTTQQ^/_'']]x.[[xKURQ_'x.[[",
"xDFKKUTTQQ^/_`']]x.[[xGmdf^'x.[[",
"xDFKKUUTQQ^^_`']]x.[[74@X*P`x.[[",
"xDFKKUUTQQ^^_`']]x r=XXO3gW_x.[[",
"xDFKKUUTRQ^^__!Ci#XXO$ezLR^_x.[[",
"xDFHKUUTTQ^WVy>oXX1f[jFKUTQ/x.[[",
"xcFHKUUTYMp2OXo>ux.[[xxxxxxxx.[[",
"xcFHGKma1OXX=wN(]x.[[[........[[",
"xcFZk9@XX*0bE)']]x.[[[[[[[[[[[[[",
"xcFkXXoggJQ^/_'']x.[[[[[[[[[[[[[",
"xcFl9XX9nWQ^/_`']x.[[[[[[[[[[[[[",
"xcDFB9OX@dY^^_`']x.[[[[[[[[[[[[[",
"xcDFKKk,XX8S^_`']x.[[[[[[[[[[[[[",
"xxxxxxxx<XX+6xxxxx.[[[[[[[[[[[[[",
"[.........;Xot.....[[[[[[[[[[[[[",
"[[[[[[[[[[[qXX2[[[[[xxxxxxxxxxx[",
"[[[[[[[[[[[[v&XOs[[[xKIUTQ^_']x.",
"[[[[[[[[[[[[[[5XX5[[xHKUTQ^_`]x.",
"[[[[[[[[[[[[[[[sOX&vjFKUTQ^/`'x.",
"[[[[[[[[[[[[[[[[[2XX-lK9TQ~^_'x.",
"[[[[[[[[[[[[[[[[[[toX%9,lRQ^_'x.",
"[[[[[[[[[[[[[[[[[[[[+X%X,TQ^_'x.",
"[[[[[[[[[[[[[[[[[[[[j3XX,AQ^_'x.",
"[[[[[[[[[[[[[[[[[[[[9,,@:dQ^_`x.",
"[[[[[[[[[[[[[[[[[[[[xDv5,,A^/`x.",
"[[[[[[[[[[[[[[[[[[[[xcFKUvQ~/_x.",
"[[[[[[[[[[[[[[[[[[[[xxxxxxxxxxx.",
"[[[[[[[[[[[[[[[[[[[[[..........."
};
