/* XPM */
static char *xpm_20[] = {
/* columns rows colors chars-per-pixel */
"16 16 47 1",
"  c #291000",
". c #5A5A39",
"X c #524A42",
"o c #6B6342",
"O c #7B7B52",
"+ c #736B73",
"@ c magenta",
"# c #949C5A",
"$ c #ADB56B",
"% c #BDBD63",
"& c #BDBD6B",
"* c #BDC673",
"= c #C6C652",
"- c #CEC65A",
"; c #D6D66B",
": c #D6D673",
"> c #D6D67B",
", c #DEDE73",
"< c #DEDE7B",
"1 c #E7E77B",
"2 c #8C848C",
"3 c #BDA5B5",
"4 c #C6C684",
"5 c #D6D684",
"6 c #DEDE84",
"7 c #C6C6A5",
"8 c #CECEB5",
"9 c #D6D6B5",
"0 c #DEE78C",
"q c #E7DE8C",
"w c #E7E78C",
"e c #E7EF8C",
"r c #EFEF94",
"t c #F7F794",
"y c #FFFF9C",
"u c #EFEFB5",
"i c #E7D6E7",
"p c #E7DEE7",
"a c #EFDEEF",
"s c #EFE7EF",
"d c #F7E7F7",
"f c #F7EFF7",
"g c #FFEFFF",
"h c #F7F7E7",
"j c #FFF7FF",
"k c gray100",
"l c None",
/* pixels */
"llllllllllllllll",
"l22222222222222l",
"l2ippassddffgj2l",
"l2p  hhhp f  j2l",
"l2ppu:<,7ffgjj2+",
"l2p =><<<;;14j2+",
"l2pa-566eqXy&j2+",
"l2a -5*#0qXy&j2+",
"l2as-5Oo5XXy&j2+",
"l2a -5#.XXwy&k2+",
"l2ss=5$>wwrt%k2+",
"l2ss9&&&&&&&8k2+",
"l2s    3g j  k2+",
"l2sddffgjjjkkk2+",
"l22222222222222+",
"ll++++++++++++++"
};
