/* XPM */
static char *xpm_14[] = {
/* columns rows colors chars-per-pixel */
"16 16 59 1",
"  c #291000",
". c #292163",
"X c #31216B",
"o c #39317B",
"O c #42296B",
"+ c #4A297B",
"@ c #52317B",
"# c #523973",
"$ c #634A73",
"% c #736B73",
"& c #63318C",
"* c #633994",
"= c #6B3994",
"- c #73399C",
"; c #6B39A5",
": c #7B39AD",
"> c #6B4294",
", c #7B4A8C",
"< c #734294",
"1 c #734A9C",
"2 c #7342A5",
"3 c #734AA5",
"4 c #84399C",
"5 c #8C4AB5",
"6 c #944AAD",
"7 c #9C4AAD",
"8 c #9442B5",
"9 c #944ABD",
"0 c #84739C",
"q c #8C73A5",
"w c #8C73AD",
"e c #946BAD",
"r c #A563B5",
"t c #A57BB5",
"y c #9C4AC6",
"u c #AD73C6",
"i c magenta",
"p c #8C848C",
"a c #948CB5",
"s c #A594BD",
"d c #B5ADBD",
"f c #BDA5B5",
"g c #B594CE",
"h c #BD9CCE",
"j c #BD9CD6",
"k c #CEBDD6",
"l c #D6C6DE",
"z c #E7DEDE",
"x c #E7D6E7",
"c c #E7DEE7",
"v c #EFDEEF",
"b c #E7E7EF",
"n c #EFE7EF",
"m c #F7E7F7",
"M c #F7EFF7",
"N c #FFEFFF",
"B c #FFF7FF",
"V c gray100",
"C c None",
/* pixels */
"CCCCCCCCCCCCCCCC",
"CppppppppppppppC",
"CpxccvnnmmMMNBpC",
"Cpc  fnnc M  BpC",
"Cpccvr,nmMetBBp%",
"Cpc  k>876=4zBp%",
"Cpcvnnd**2wbBBp%",
"Cpv   s.oXq BBp%",
"Cpvnnj-51>9gBBp%",
"Cpv h:;9+@<9aVp%",
"CpnntOy3O+O9&Vp%",
"Cpnnmku>#0$<lVp%",
"Cpn    fN B  Vp%",
"CpnmmMMNBBBVVVp%",
"Cpppppppppppppp%",
"CC%%%%%%%%%%%%%%"
};
