/* XPM */
static char *xpm_24[] = {
/* columns rows colors chars-per-pixel */
"16 16 23 1",
"  c black",
". c gray3",
"X c #101010",
"o c #181818",
"O c gray13",
"+ c #313131",
"@ c #393939",
"# c gray26",
"$ c gray29",
"% c gray32",
"& c #5A5A5A",
"* c gray39",
"= c gray42",
"- c gray45",
"; c #7B7B7B",
": c magenta",
"> c #848484",
", c gray55",
"< c gray58",
"1 c gray61",
"2 c #A5A5A5",
"3 c gray74",
"4 c None",
/* pixels */
"XXXXXXXXXXXX4444",
"X4o22111<<<+=444",
"X4o2111<<<,@X.44",
"Xoo111<<<%,,ooX4",
"X4o11<<<,O,>o4X4",
"X4o1<<<,,O>>o4X4",
"X+o<<<,,>O>>o+X4",
"X4o<,,,>>O>;o4X4",
"X4o<,,>>>O;;o4X4",
"X$o,,>O%O$;;o$X4",
"X4o,>&3+ ;--X4X4",
"X4X>>o* #---X4X4",
"X X>>>;;;---X X4",
"X4X>>;;;---=X4X4",
"X4XXXXXXXXXXX4X4",
"4>>>>>>>>>>>>>>4"
};
