/* XPM */
static char *xpm_45[] = {
/* columns rows colors chars-per-pixel */
"16 16 8 1",
"  c black",
". c gray42",
"X c magenta",
"o c #A5A5A5",
"O c gray71",
"+ c gray87",
"@ c gray100",
"# c None",
/* pixels */
"################",
"################",
"################",
"################",
"@@@@@@@@@@@@@@@@",
"   +.O@@O .@+ + ",
" +o .O@@O .++ + ",
"   +.O@O +O.+   ",
" ++ .O@O   .+ + ",
"   +.  O @O.+ + ",
"@@@@@@@@@@@@@@@@",
"################",
"################",
"################",
"################",
"################"
};
