/* XPM */
static char *xpm_42_big[] = {
/* columns rows colors chars-per-pixel */
"32 32 58 1",
"  c #002173",
". c #002973",
"X c #00297B",
"o c #005221",
"O c #005229",
"+ c #005A29",
"@ c #007B00",
"# c #006329",
"$ c #006B29",
"% c #006B31",
"& c #004242",
"* c #00424A",
"= c #004A4A",
"- c #004A52",
"; c #005252",
": c #000894",
"> c #00089C",
", c #0008A5",
"< c #0008AD",
"1 c #0008B5",
"2 c #0008BD",
"3 c #002984",
"4 c #00298C",
"5 c #0008C6",
"6 c #008400",
"7 c #4A9400",
"8 c #4A9C00",
"9 c #4AA500",
"0 c #52A500",
"q c #52AD00",
"w c #73AD00",
"e c #73B500",
"r c #73BD00",
"t c magenta",
"y c #9CBD00",
"u c #9CC600",
"i c #A5C600",
"p c #A5CE00",
"a c #ADCE00",
"s c #ADD600",
"d c #B5D600",
"f c #B5DE00",
"g c #C6C600",
"h c #CEC600",
"j c #CECE00",
"k c #D6CE00",
"l c #D6D600",
"z c #DED600",
"x c #DEDE00",
"c c #E7DE00",
"v c #E7E700",
"b c #EFE700",
"n c #EFEF00",
"m c #F7EF00",
"M c #F7F700",
"N c #FFF700",
"B c yellow",
"V c None",
/* pixels */
"VVVVVVVVVVVVVVVVVVVVVVVVVVVVVVVV",
"VVVVVVVVVVVVVVVVVVVVVVVVVVVVVVVV",
"VVVBBNMnbvcxfddssaapirrrreeeeeVV",
"VVVBBMmnvvxzfdssaapiirrrreeeeeVV",
"VVVBMMnbvxxldssaaapiirrreeeeeeVV",
"VVVNMnnvcxlldssaapiiirrreeeeeeVV",
"VVVMmnvvxzljssaappiiirreeeeeeeVV",
"VVVMnbvcxlkjssaapiiiureeeeeeewVV",
"VVVmnvvxzljhsaapiiiiyreeeeeeewVV",
"VVVnbvxxlkjgaaapiiiyyeeeeeeewwVV",
"VVVnvcxlljhgaapiiiuyyeeeeeeewwVV",
"VVVq00099988666666@@@%$####+++VV",
"VVVq0099988866666@@@@%#####+++VV",
"VVV0099998886666@@@@@#####++++VV",
"VVV0099988886666@@@@@####+++++VV",
"VVV099998888666@@@@@@####+++++VV",
"VVV099988888666@@@@@@###+++++OVV",
"VVV99988888866@@@@@@@###++++OOVV",
"VVV9998888886@@@@@@@@##+++++OoVV",
"VVV9988888876@@@@@@@@##++++OooVV",
"VVV;;--=====43333XXXX52211<<<,VV",
"VVV;;--=====33333XXXX22211<<,,VV",
"VVV;--=====*3333XXXXX2211<<,,,VV",
"VVV;-=====**3333XXXX.2111<<,,>VV",
"VVV--=====*&333XXXXX.211<<,,,>VV",
"VVV-=====**&33XXXXX..11<<<,,>>VV",
"VVV-=====*&&33XXXX...11<<,,>>>VV",
"VVV=====**&&3XXXXX...1<<<,,>>:VV",
"VVV====**&&&3XXXX... 1<<,,>>>:VV",
"VVVVVVVVVVVVVVVVVVVVVVVVVVVVVVVV",
"VVVVVVVVVVVVVVVVVVVVVVVVVVVVVVVV",
"VVVVVVVVVVVVVVVVVVVVVVVVVVVVVVVV"
};
