/* XPM */
static char *xpm_22[] = {
/* columns rows colors chars-per-pixel */
"16 16 80 1",
"  c #633129",
". c #6B3121",
"X c #732921",
"o c #7B2921",
"O c #733921",
"+ c #7B4229",
"@ c #7B4231",
"# c #7B4A31",
"$ c #7B4A39",
"% c #736363",
"& c #736B6B",
"* c #8C0000",
"= c #940000",
"- c #9C0000",
"; c #A50000",
": c #AD0000",
"> c #B50000",
", c #BD0000",
"< c #844229",
"1 c #844A29",
"2 c #8C4A29",
"3 c #844A39",
"4 c #8C4A31",
"5 c #944A31",
"6 c #945231",
"7 c #9C5A31",
"8 c #9C5A39",
"9 c #A55A39",
"0 c #AD6339",
"q c #945A42",
"w c #945A4A",
"e c #8C6352",
"r c #9C634A",
"t c #846363",
"y c #8C6B63",
"u c #847373",
"i c #8C7B7B",
"p c #94736B",
"a c #947B73",
"s c #A56342",
"d c #AD6342",
"f c #AD6B42",
"g c #AD735A",
"h c #B56342",
"j c #B56B42",
"k c #B56B4A",
"l c #B57352",
"z c #BD7352",
"x c #A57B6B",
"c c #AD7B6B",
"v c #C60000",
"b c #CE7B4A",
"n c #C67352",
"m c #C67B52",
"M c #CE7B52",
"N c #D67B52",
"B c magenta",
"V c #AD846B",
"C c #A5847B",
"Z c #B58473",
"A c #CE845A",
"S c #D6845A",
"D c #948C84",
"F c #9C8C84",
"G c #9C8C8C",
"H c #9C948C",
"J c #A58484",
"K c #AD8C84",
"L c #A5948C",
"P c #AD948C",
"I c #AD9C8C",
"U c #B5948C",
"Y c #B59C8C",
"T c #BD948C",
"R c #BD9C8C",
"E c #B5A58C",
"W c #BDA58C",
"Q c #C6A58C",
"! c #CEA58C",
"~ c None",
/* pixels */
"~~~~~~~~~~~~~~~~",
"~~~~~~~2<<+++O. ",
"~~~~~~~2588888s@",
"~~~~~~~45qrrwrk#",
"~~~~~~~46cQELTl$",
"~~~v~~~68V!YIRz$",
"~~,,~~~68VQYYUz$",
"~>>>>:X68xWYPUn$",
">::::;X6GxIPLYm$",
":;;;;-o6QtLFFCm$",
"~-----o63eHFDKA3",
"~~==~~~6dpDiiJA$",
"~~~*~~~4fyu&%aS$",
"~~~~~~~4jgZccZS$",
"~~~~~~~4jNNNMbM1",
"~~~~~~~17h0009j<"
};
