/* XPM */
static char *xpm_18_big[] = {
/* columns rows colors chars-per-pixel */
"32 32 138 2",
"   c #291000",
".  c #311818",
"X  c #391818",
"o  c #6B3939",
"O  c #733129",
"+  c #7B3129",
"@  c #733131",
"#  c #5A4A42",
"$  c #63424A",
"%  c #634A42",
"&  c #6B424A",
"*  c #6B4252",
"=  c #735A6B",
"-  c #7B636B",
";  c #736B73",
":  c #7B6B84",
">  c #843929",
",  c #843931",
"<  c #844239",
"1  c #8C4231",
"2  c #8C4239",
"3  c #8C4A39",
"4  c #944239",
"5  c #944A31",
"6  c #944A39",
"7  c #9C4A39",
"8  c #844A42",
"9  c #8C4A42",
"0  c #8C4A4A",
"q  c #8C5242",
"w  c #8C524A",
"e  c #944A42",
"r  c #944A4A",
"t  c #9C4A42",
"y  c #945242",
"u  c #94524A",
"i  c #9C5242",
"p  c #945A5A",
"a  c #9C6352",
"s  c #846B73",
"d  c #846B7B",
"f  c #8C6B73",
"g  c #8C6B7B",
"h  c #8C7373",
"j  c #8C737B",
"k  c #9C7373",
"l  c #9C737B",
"z  c #A54A42",
"x  c #A55242",
"c  c #A5524A",
"v  c #A55A42",
"b  c #A55A4A",
"n  c #AD5242",
"m  c #AD5A42",
"M  c #AD5A4A",
"N  c #B55A42",
"B  c #B55A4A",
"V  c #B55A52",
"C  c #A5635A",
"Z  c #B56342",
"A  c #B5634A",
"S  c #BD634A",
"D  c #BD6B4A",
"F  c #B56352",
"G  c #B56B5A",
"H  c #BD6B52",
"J  c #BD6B5A",
"K  c #A56B63",
"L  c #A56B6B",
"P  c #A5736B",
"I  c #AD736B",
"U  c #A57373",
"Y  c #A57B7B",
"T  c #AD7373",
"R  c #B5736B",
"E  c #B57B6B",
"W  c #BD7363",
"Q  c #B57B73",
"!  c #C66B52",
"~  c #C66B5A",
"^  c #C6735A",
"/  c #D67B52",
"(  c #D67B5A",
")  c #DE7B5A",
"_  c #C67B73",
"`  c #DE7B63",
"'  c #847B84",
"]  c #947B84",
"[  c #947B8C",
"{  c #9C7B84",
"}  c #9C7B8C",
"|  c magenta",
" . c #C6846B",
".. c #CE846B",
"X. c #C68473",
"o. c #CE8473",
"O. c #DE8463",
"+. c #D68473",
"@. c #D68C7B",
"#. c #9C848C",
"$. c #A58484",
"%. c #A58C8C",
"&. c #AD8484",
"*. c #AD848C",
"=. c #A58494",
"-. c #A58C94",
";. c #AD8C94",
":. c #A59494",
">. c #AD9494",
",. c #B58C8C",
"<. c #B58C94",
"1. c #B59494",
"2. c #B59C94",
"3. c #BD9494",
"4. c #BD9C94",
"5. c #A59CA5",
"6. c #B59CAD",
"7. c #BDA5B5",
"8. c #BDADBD",
"9. c #BDB5BD",
"0. c #C69C8C",
"q. c #C69494",
"w. c #C69C94",
"e. c #CE9C94",
"r. c #C6A594",
"t. c #CEA594",
"y. c #C6ADBD",
"u. c #D6CED6",
"i. c #E7D6E7",
"p. c #E7DEE7",
"a. c #EFDEEF",
"s. c #EFE7EF",
"d. c #F7E7F7",
"f. c #F7EFF7",
"g. c #FFEFFF",
"h. c #FFF7FF",
"j. c gray100",
"k. c None",
/* pixels */
"k.k.k.k.k.k.k.k.k.k.k.k.k.k.k.k.k.k.k.k.k.k.k.k.k.k.k.k.k.k.k.k.",
"k.' 5.5.5.5.5.5.5.5.5.5.5.5.5.5.5.5.5.5.5.5.5.5.5.5.5.5.5.' k.k.",
"k.5.u.i.i.i.p.p.p.p.a.a.a.a.s.s.s.d.d.d.d.f.f.f.f.g.g.g.u.5.k.k.",
"k.5.9.            7.a.a.a.s.s.p.      7.f.p.            9.5.k.k.",
"k.5.9.            7.a.a.a.s.s.p.      7.f.p.            9.5.; k.",
"k.5.i.i.i.p.p.p.a.5 5 2 6 6 3 3 3 2 1 , > @ : g.g.g.g.h.i.5.; k.",
"k.5.i.i.p.p.p.p.a.4 6 x n x x x x x x M m < & g.g.g.h.h.i.5.; k.",
"k.5.9.X           7 4 z c b b b b c b V F 8 &       h.h.i.5.; k.",
"k.5.9.X           x 6 i C Q Q Q T U T W F 9 &       h.h.i.5.; k.",
"k.5.i.p.p.p.a.a.a.t 6 x I 0.w.4.>.;.,._ G 9 & g.h.h.h.h.i.5.; k.",
"k.5.i.p.p.a.a.a.a.x 7 v E e.t.4.2.1.3.X.J 9 & g.h.h.h.h.i.5.; k.",
"k.5.9.            x 7 v E e.t.t.4.1.1.o.J 0 *         X i.5.; k.",
"k.5.9.            x 7 v E w.r.w.w.1.3.o.J q $         X i.5.; k.",
"k.5.i.p.a.a.a.a.s.x 7 v R w.r.w.3.1.<.o.J 0 $ j.h.h.h.h.i.5.; k.",
"k.5.i.a.a.a.a.s.s.x 7 v R q.w.w.1.1.3.o.~ 9 # h.h.h.h.j.i.5.; k.",
"k.5.9.            n 7 M I 1.1.3.1.;.1.o.~ u #       h.h.i.5.; k.",
"k.5.9.            v L { l ;.>.;.=.#.Y  .J w %       h.h.i.5.; k.",
"k.5.i.a.a.s.s.s.s.x p f h -.-.-.#.#.$.o.^ u % h.h.h.h.j.i.5.; k.",
"k.5.i.a.a.s.s.s.d.x y a k -.:.-.=.#.*.@.^ y % h.h.h.h.j.i.5.; k.",
"k.5.9.            x i F T %.#.[ [ } &.+.^ r $           i.5.; k.",
"k.5.9.            x i F T ] ] d s g l +.^ q &           i.5.; k.",
"k.5.i.s.s.s.s.d.d.7 i A K j j f = - k ..^ e & h.h.j.j.j.i.5.; k.",
"k.5.i.s.s.s.d.d.d.6 i A G T T P T T Q ..^ e & h.h.j.j.j.i.5.; k.",
"k.5.9.            6 y H ( O.O.O.O.O.O.( ^ 9 o         p.i.5.; k.",
"k.5.9.            5 i ! ) ` ) ) ( / / ( ^ 3 O         p.i.5.; k.",
"k.5.i.s.d.d.d.d.f.5 6 m S S S N Z N N B A 1 + j.j.j.j.j.i.5.; k.",
"k.5.i.s.d.d.d.f.f.S S S H H H S D S S H H A j j.j.j.j.j.i.5.; k.",
"k.5.9.                    7.h.7.      7.h.p.        y.j.u.5.; k.",
"k.5.9.                    7.h.6.      7.h.p.      . p.j.u.5.; k.",
"k.5.8.f.f.f.f.f.f.f.f.f.f.f.f.j.j.j.j.j.j.j.j.j.j.j.j.j.8.5.; k.",
"k.' 5.5.5.5.5.5.5.5.5.5.5.5.5.5.5.5.5.5.5.5.5.5.5.5.5.5.5.' ; k.",
"k.k.k.k.; ; ; ; ; ; ; ; ; ; ; ; ; ; ; ; ; ; ; ; ; ; ; ; ; ; k.k."
};
