/* XPM */
static char *xpm_60[] = {
/* columns rows colors chars-per-pixel */
"16 16 21 1",
"  c gray3",
". c #313100",
"X c magenta",
"o c #9C9C00",
"O c #CECE63",
"+ c #CECE73",
"@ c #CECE7B",
"# c #D6CE7B",
"$ c #D6D67B",
"% c #D6D684",
"& c #DED684",
"* c #DEDE84",
"= c #E7DE84",
"- c #E7E78C",
"; c #EFE78C",
": c #EFEF8C",
"> c #EFEF94",
", c #F7F794",
"< c #F7F79C",
"1 c #FFFF9C",
"2 c None",
/* pixels */
"2222222222222222",
"22oooo 222222222",
"2#&=;,1 22222222",
"OOOOOOOOooooooo2",
"@@$%**--:>>,<11 ",
"@@$%**--:>>,<11 ",
"@@$%**--:>>,<11 ",
"@@$%**--:>>,<11.",
"@@$%**--:>>,<11.",
"@@$%**--:>>,<11.",
"@@$%**--:>>,<11.",
"@@$%**--:>>,<11.",
"@@$%**--:>>,<11.",
"+@$%**--:>>,<11.",
"...............2",
"2222222222222222"
};
