/* XPM */
static char *xpm_13[] = {
/* columns rows colors chars-per-pixel */
"16 16 25 1",
"  c black",
". c #291000",
"X c #736B73",
"o c #525AFF",
"O c #5A5AFF",
"+ c #5A63FF",
"@ c #6363FF",
"# c #636BFF",
"$ c #6B6BFF",
"% c #7373FF",
"& c #737BFF",
"* c #7B7BFF",
"= c magenta",
"- c #8C848C",
"; c #BDA5B5",
": c #E7D6E7",
"> c #E7DEE7",
", c #EFDEEF",
"< c #EFE7EF",
"1 c #F7E7F7",
"2 c #F7EFF7",
"3 c #FFEFFF",
"4 c #FFF7FF",
"5 c gray100",
"6 c None",
/* pixels */
"6666666666666666",
"6--------------6",
"6-:>>,<<112234-6",
"6->..;<<>.2..4-6",
"6->>>      <44-X",
"6->.. %$@+  .4-X",
"6->,>    +o 44-X",
"6-,.  %$@+o 44-X",
"6-,< &%  @o 44-X",
"6-,. *%  @O .5-X",
"6-<<  %$#@O 55-X",
"6-<<<       45-X",
"6-<....;3.4..5-X",
"6-<11223444555-X",
"6--------------X",
"66XXXXXXXXXXXXXX"
};
