/* XPM */
static char *xpm_33[] = {
/* columns rows colors chars-per-pixel */
"16 16 87 1",
"  c #003918",
". c #102918",
"X c #103121",
"o c #183121",
"O c #292129",
"+ c #312931",
"@ c #313939",
"# c #393139",
"$ c #393939",
"% c #005A29",
"& c #184A29",
"* c #105A29",
"= c #185229",
"- c #105A31",
"; c #106B31",
": c #314A39",
"> c #315242",
", c #296B42",
"< c #423942",
"1 c #4A424A",
"2 c #42524A",
"3 c #524A52",
"4 c #5A525A",
"5 c #5A5A5A",
"6 c #7B5A5A",
"7 c #635A63",
"8 c #6B636B",
"9 c #736B6B",
"0 c #7B636B",
"q c #736B73",
"w c gray45",
"e c #009410",
"r c #009418",
"t c #009C10",
"y c #009C18",
"u c #008439",
"i c #009421",
"p c #009C21",
"a c #009C29",
"s c #009439",
"d c #009C31",
"f c #00A518",
"g c #00A521",
"h c #00A531",
"j c #00A539",
"k c #00AD31",
"l c #009C42",
"z c #009452",
"x c #00945A",
"c c #009C52",
"v c #009C5A",
"b c #10944A",
"n c #00A542",
"m c #00AD4A",
"M c #00AD52",
"N c #00AD5A",
"B c #00B54A",
"V c #00BD4A",
"C c #00B552",
"Z c #00B55A",
"A c #00AD63",
"S c #00B563",
"D c #298C52",
"F c #00CE6B",
"G c #18C66B",
"H c #10CE73",
"J c #18D67B",
"K c #21C65A",
"L c #21D67B",
"P c #73847B",
"I c #9C2929",
"U c #AD0800",
"Y c #A51000",
"T c #A51010",
"R c #B50800",
"E c #BD2118",
"W c #BD3931",
"Q c #944242",
"! c #84737B",
"~ c #AD4A52",
"^ c #BD7373",
"/ c #C61000",
"( c #847B84",
") c magenta",
"_ c #AD8484",
"` c #A5949C",
"' c None",
/* pixels */
"''''''''''''''''",
"''JFk''''rr'''''",
"'kmZk''''Gnr''''",
"''kSShvxxZr'''''",
"'''hANNNNMr''rr'",
"''kANb>3wPDrcC&r",
"'kLNz$4!`^_2+,r'",
"kHZN=16YE/W(.r''",
"BZNNo<9IUR~wi'''",
"dddMX#8(QT!5pr''",
"'''d%O#7q04:jfKr",
"''''g O+<<@srrtr",
"'''cmlu-*;sr'rr'",
"''dmdddeahhVd'''",
"'''dd'''ddytd'''",
"''''''''''dd''''"
};
