/* XPM */
static char *xpm_2[] = {
/* columns rows colors chars-per-pixel */
"16 16 42 1",
"  c #7B6B6B",
". c #C67B6B",
"X c magenta",
"o c #CE8C7B",
"O c #D68473",
"+ c #D6847B",
"@ c #CE9484",
"# c #D69C84",
"$ c #DE9484",
"% c #C6A58C",
"& c #CEAD94",
"* c #CEAD9C",
"= c #CEB59C",
"- c #D6AD94",
"; c #DEA594",
": c #D6B59C",
"> c #DEB59C",
", c #CEBDA5",
"< c #CEBDAD",
"1 c #D6BDAD",
"2 c #DEBDA5",
"3 c #DEBDAD",
"4 c #E7B59C",
"5 c #E7B5A5",
"6 c #DEC6AD",
"7 c #D6C6BD",
"8 c #DEC6B5",
"9 c #E7C6AD",
"0 c #EFC6AD",
"q c #E7C6B5",
"w c #E7CEB5",
"e c #E7CEBD",
"r c #EFCEB5",
"t c #EFCEBD",
"y c #EFD6BD",
"u c #D6CEC6",
"i c #E7D6C6",
"p c #EFD6C6",
"a c #EFD6CE",
"s c #EFDECE",
"d c gray100",
"f c None",
/* pixels */
"ffffffffffffffff",
"f%9%fffffff%%fff",
"-y0y%fffff%3>%ff",
"%w#4q%ffff%3O%ff",
"f%9@5%ffff%2O%ff",
"ff%2:$%fff%r+%ff",
"fff%9.%fff%r+%ff",
"ffff%;%fff%tofff",
"ffff%r9%%%%%%fff",
"fffff%yyyyps8%ff",
"ffff%ye ypssa %f",
"ffff%ye ys$.i %f",
"ffff%y6,,,=*,1%f",
"fffff%*ddudud7%f",
"ffffff&%<d7d%%ff",
"ffffffff%%%%ffff"
};
