/* XPM */
static char *xpm_15_big[] = {
/* columns rows colors chars-per-pixel */
"32 32 50 1",
"  c black",
". c #100810",
"X c #181018",
"o c #181818",
"O c gray13",
"+ c gray16",
"@ c #312931",
"# c #393139",
"$ c #393939",
"% c #423942",
"& c gray26",
"* c #4A424A",
"= c gray29",
"- c #5A525A",
"; c #5A5A5A",
": c #635A63",
"> c gray42",
", c #736B73",
"< c gray45",
"1 c #7B737B",
"2 c #7B7B7B",
"3 c #847B84",
"4 c magenta",
"5 c #848484",
"6 c gray55",
"7 c #948C94",
"8 c gray61",
"9 c #A59CA5",
"0 c #A5A5A5",
"q c #ADA5AD",
"w c gray68",
"e c #B5ADB5",
"r c gray71",
"t c gray74",
"y c #C6C6C6",
"u c #CEC6CE",
"i c #CECECE",
"p c #D6CED6",
"a c gray84",
"s c #DED6DE",
"d c gray87",
"f c #E7DEE7",
"g c #E7E7E7",
"h c #EFE7EF",
"j c #EFEFEF",
"k c #F7EFF7",
"l c gray97",
"z c #FFF7FF",
"x c gray100",
"c c None",
/* pixels */
"cccccccccccccccccccccccccccccccc",
"ccccccccccccc>>>>>>ccccccccccccc",
"ccccccccccc#@      @#ccccccccccc",
"cccccccc o##:jhhggf:##o cccccccc",
"cccccc& >qkkjjhhggffddq> &cccccc",
"ccccc& 3llkkjjhhggffddss3 &>cccc",
"cccc -axllkkjjhhggffddssaa- :ccc",
"ccc :xzzllkkjjhhggffddssaap: >cc",
"cc&-xxzp3fkkjjha1pffddsr$7pp-&cc",
"c& axxz& 2kkjjh* <f9 :s, #ppa &c",
"c 3xxxz& 2kkjjh  <f2 &s, #ppi3 c",
" orxxxz& 2kkjjh  0ffqus, #ppiro ",
" >xxxxz& 2kkjjh  wft<us, #ppii> ",
" >xxxxz& 2kkjpe  wf$ ,s, #ppii> ",
" >xxxxz& %=+     wf$ ,s, #ppii> ",
" >xxxxz&         wf$ ,s, #ppii> ",
" >xxxxz& O<5rph  wf$ ,s, #ppii> ",
" @uxxxzo 2kkjjh  wf$ ,s1 &ppiu@ ",
"c 9xxxz  2kkjjh  wf$ ,ss,yppi9 c",
"cO axxz  2kkjjh  wf$ ,s1 ;ppa Oc",
"cc@3xxz# ekkjjh+Xuf: 8srX;pp3@cc",
"cc> 6xzzllkkjjhhggffddssaap6 >cc",
"ccc@.#rzllkkjjhhggffddssar#.@ccc",
"cccccO >llkkjjhhggffddsdq Occccc",
"cccccc >llkkjjhhggff999Oo>cccccc",
"cccccc >llaa>>>>>>>>   ccccccccc",
"ccccc >axa>         cccccccccccc",
"ccccc >x>  ccccccccccccccccccccc",
"cccc aa  ccccccccccccccccccccccc",
"cccc   ccccccccccccccccccccccccc",
"ccc  ccccccccccccccccccccccccccc",
"cccccccccccccccccccccccccccccccc"
};
