/* XPM */
static char *xpm_35_big[] = {
/* columns rows colors chars-per-pixel */
"32 32 129 2",
"   c #00187B",
".  c #00297B",
"X  c #314A7B",
"o  c #6B3121",
"O  c #6B3929",
"+  c #633131",
"@  c #633931",
"#  c #6B3931",
"$  c #6B3939",
"%  c #733121",
"&  c #733921",
"*  c #7B3929",
"=  c #6B4239",
"-  c #7B4229",
";  c #4A4A42",
":  c #52424A",
">  c #524A42",
",  c #5A424A",
"<  c #5A4A52",
"1  c #635263",
"2  c #6B5A63",
"3  c #735A63",
"4  c #736363",
"5  c #73636B",
"6  c #7B636B",
"7  c #7B6B6B",
"8  c #7B6B73",
"9  c #00008C",
"0  c #000884",
"q  c #001084",
"w  c #001884",
"e  c #29218C",
"r  c #524284",
"t  c #524A84",
"y  c #525A84",
"u  c #63528C",
"i  c #6B5A8C",
"p  c #636384",
"a  c #6B6384",
"s  c #736B84",
"d  c #737384",
"f  c #7B7B84",
"g  c #844229",
"h  c #8C4229",
"j  c #8C4A29",
"k  c #844231",
"l  c #8C4231",
"z  c #8C4A31",
"x  c #8C4A39",
"c  c #944A31",
"v  c #945231",
"b  c #945239",
"n  c #9C5239",
"m  c #9C5A39",
"M  c #A55239",
"N  c #A55A39",
"B  c #AD5A39",
"V  c #AD6339",
"C  c #8C5242",
"Z  c #8C5A4A",
"A  c #945A4A",
"S  c #9C5242",
"D  c #9C5A42",
"F  c #8C635A",
"G  c #9C6B5A",
"H  c #846B73",
"J  c #847373",
"K  c #8C737B",
"L  c #8C7B7B",
"P  c #A55242",
"I  c #AD5A42",
"U  c #AD6342",
"Y  c #AD634A",
"T  c #B56342",
"R  c #B5634A",
"E  c #B56B4A",
"W  c #BD6B4A",
"Q  c #BD6B52",
"!  c #BD734A",
"~  c #BD7352",
"^  c #BD735A",
"/  c #C6734A",
"(  c #CE734A",
")  c #CE7B4A",
"_  c #C67352",
"`  c #C6735A",
"'  c #C67B5A",
"]  c #CE7B52",
"[  c #CE7B5A",
"{  c #D67B52",
"}  c #D67B5A",
"|  c #8C7B84",
" . c #947B84",
".. c magenta",
"X. c #AD8473",
"o. c #B5846B",
"O. c #B58C7B",
"+. c #D6845A",
"@. c #DE845A",
"#. c #D68463",
"$. c #DE8C63",
"%. c #DE9473",
"&. c #E79473",
"*. c #948484",
"=. c #94848C",
"-. c #9C8484",
";. c #9C848C",
":. c #9C8C8C",
">. c #9C948C",
",. c #849CB5",
"<. c #A58C8C",
"1. c #AD8484",
"2. c #A5948C",
"3. c #AD948C",
"4. c #AD9C8C",
"5. c #BD8C84",
"6. c #B5948C",
"7. c #B59C8C",
"8. c #BD9484",
"9. c #BD9C8C",
"0. c #B5949C",
"q. c #BDA58C",
"w. c #C6948C",
"e. c #C69C8C",
"r. c #CE9C8C",
"t. c #D69C8C",
"y. c #C6A58C",
"u. c #CEA58C",
"i. c None",
/* pixels */
"i.i.i.i.i.i.i.i.i.i.i.i.i.i.i.i.i.i.i.i.i.i.i.i.i.i.i.i.i.i.i.i.",
"i.i.i.i.i.i.j j g g g g g - - - - * * % % o o + ,.i.i.i.i.i.i.i.",
"i.i.i.i.i.i.g j l N B N N N N N N N N N N I g + , i.i.i.i.i.i.i.",
"i.i.i.i.i.i.c g l n n n n n n n n n n n n ~ b + , i.i.i.i.i.i.i.",
"i.i.i.i.i.i.n k l M n n n n n n n n n S P ~ b @ , i.i.i.i.i.i.i.",
"i.i.i.i.i.i.n k l N x G G G G G F F F o.R ^ m # , i.i.i.i.i.i.i.",
"i.i.i.i.i.i.n z z N A 9.y.q.q.q.2.3.<.r.W ^ b # , i.i.i.i.i.i.i.",
"i.i.i.i.i.i.n k z V A y.u.y.4.7.2.2.<.t.E ^ D @ , i.i.i.i.i.i.i.",
"i.i.i.i.i.i.n z z V A y.u.u.4.3.7.3.3.t.E ' D @ , i.i.i.i.i.i.i.",
"i.i.i.i.i.i.n z z U A y.u.u.i 0 p 4.2.e.! ` b = , i.i.i.i.i.i.i.",
"i.i.i.i.i.i.M z z T A y.y.y.9 q . 2.2.r.! ` D = , i.i.i.i.i.i.i.",
"i.i.i.i.i.i.M z z T A q.y.y.u 0 y 6.3.w.! ' D @ : i.i.i.i.i.i.i.",
"i.i.i.i.i.i.M z z T A 9.q.q.-.|  .6.<.w.! ` D = ; i.i.i.i.i.i.i.",
"i.i.i.i.i.i.N z z T A 9.9.9.9.7.3.2.<.w._ [ b $ ; i.i.i.i.i.i.i.",
"i.i.i.i.i.i.N z z T A 9.9.X       3.3.e._ [ D @ ; i.i.i.i.i.i.i.",
"i.i.i.i.i.i.B z z W A 6.2.X w 0 9 ;.2.e._ [ D = ; i.i.i.i.i.i.i.",
"i.i.i.i.i.i.N z 0.L Z 3.2.4.s q 9 2.J O._ [ b = ; i.i.i.i.i.i.i.",
"i.i.i.i.i.i.N z 0.L < 3.<.<.f   9 *.J e._ [ m = ; i.i.i.i.i.i.i.",
"i.i.i.i.i.i.M z < 8 < 2.2.2.d   9 :.=.e.[ #.D = ; i.i.i.i.i.i.i.",
"i.i.i.i.i.i.M z b / Z 2.>.>.a q 9 *.K e.[ #.D # ; i.i.i.i.i.i.i.",
"i.i.i.i.i.i.n z b ( Z :.>.e 9 9 9 9 . w.[ #.b $ > i.i.i.i.i.i.i.",
"i.i.i.i.i.i.n z b ) Z :.*.p t t t r i 5.[ #.D = , i.i.i.i.i.i.i.",
"i.i.i.i.i.i.n z b ) Z ;.H L J 2 6 6 5 8.[ #.D @ , i.i.i.i.i.i.i.",
"i.i.i.i.i.i.c z b ] C *.8 J K 2 1 4 7 X.+.#.n # , i.i.i.i.i.i.i.",
"i.i.i.i.i.i.c z b { C H 7 H 3 6 6 6 8 1.+.#.n # , i.i.i.i.i.i.i.",
"i.i.i.i.i.i.c k b { E &.&.&.&.&.&.&.%.$./ #.D @ , i.i.i.i.i.i.i.",
"i.i.i.i.i.i.c k b { { { { { { { ] ] ( ) ) #.b O @ i.i.i.i.i.i.i.",
"i.i.i.i.i.i.z g b { { } @.{ { { ] ] ] ( ( #.b & o i.i.i.i.i.i.i.",
"i.i.i.i.i.i.j g n { @.@.@.{ { { { ] ] ( / +.b o o i.i.i.i.i.i.i.",
"i.i.i.i.i.i.z z g j h h j h h h j h h g g Y v % % i.i.i.i.i.i.i.",
"i.i.i.i.i.i.W ~ W ~ _ ~ ~ ~ Q ~ ~ ~ Q ~ ~ ~ Q ~ ,.i.i.i.i.i.i.i.",
"i.i.i.i.i.i.i.i.i.i.i.i.i.i.i.i.i.i.i.i.i.i.i.i.i.i.i.i.i.i.i.i."
};
