/* XPM */
static char *xpm_33_big[] = {
/* columns rows colors chars-per-pixel */
"32 32 138 2",
"   c black",
".  c #001000",
"X  c #001810",
"o  c #100810",
"O  c #101010",
"+  c #181018",
"@  c #002110",
"#  c #002918",
"$  c #003921",
"%  c #211821",
"&  c #292129",
"*  c #312931",
"=  c #392939",
"-  c #313139",
";  c #393139",
":  c #004A21",
">  c #005221",
",  c #184231",
"<  c #184A31",
"1  c #007331",
"2  c #007B31",
"3  c #214A31",
"4  c #294231",
"5  c #294A39",
"6  c #215239",
"7  c #215A39",
"8  c #295239",
"9  c #295A39",
"0  c #314A39",
"q  c #216339",
"w  c #187342",
"e  c #187B42",
"r  c #315242",
"t  c #31634A",
"y  c #423142",
"u  c #423942",
"i  c #4A394A",
"p  c #4A424A",
"a  c gray29",
"s  c #524A52",
"d  c #524A5A",
"f  c gray32",
"g  c #5A525A",
"h  c #635A63",
"j  c gray39",
"k  c #6B636B",
"l  c #6B6B73",
"z  c #637B6B",
"x  c #736B73",
"c  c #008C00",
"v  c #009439",
"b  c #00A500",
"n  c #00BD00",
"m  c #00A531",
"M  c #00A539",
"N  c #00AD39",
"B  c #10AD39",
"V  c #009442",
"C  c #009C42",
"Z  c #18944A",
"A  c #00A542",
"S  c #00A54A",
"D  c #00AD42",
"F  c #00AD4A",
"G  c #00AD52",
"H  c #00AD5A",
"J  c #00B54A",
"K  c #00B55A",
"L  c #18BD4A",
"P  c #18BD52",
"I  c #18BD5A",
"U  c #00AD63",
"Y  c #00B563",
"T  c #00B56B",
"R  c #00BD63",
"E  c #00BD6B",
"W  c #00B57B",
"Q  c #21844A",
"!  c #218C4A",
"~  c #21BD52",
"^  c #00C66B",
"/  c #00DE73",
"(  c #10C66B",
")  c #18C663",
"_  c #18C66B",
"`  c #18C67B",
"'  c #18CE73",
"]  c #21C673",
"[  c #29C67B",
"{  c #29CE7B",
"}  c #31C67B",
"|  c #428C63",
" . c #529C73",
".. c #5ACE7B",
"X. c #7B8484",
"o. c #4AD68C",
"O. c #4AD694",
"+. c #4AD69C",
"@. c #52C684",
"#. c #7BDEAD",
"$. c #9C2121",
"%. c #9C3939",
"&. c #A50800",
"*. c #AD0800",
"=. c #A51010",
"-. c #A51818",
";. c #AD1010",
":. c #B50800",
">. c #BD1000",
",. c #A52118",
"<. c #BD3129",
"1. c #8C5A63",
"2. c #945A63",
"3. c #8C636B",
"4. c #8C6B73",
"5. c #84737B",
"6. c #8C737B",
"7. c #BD4A4A",
"8. c #C61000",
"9. c #C61810",
"0. c #C62118",
"q. c #C62921",
"w. c #C63129",
"e. c #C65A5A",
"r. c #847B84",
"t. c #BD7B84",
"y. c magenta",
"u. c #8C848C",
"i. c #948494",
"p. c #9C8C9C",
"a. c #A5949C",
"s. c #BD949C",
"d. c #A594A5",
"f. c #B5A5AD",
"g. c #B5A5B5",
"h. c #B5ADB5",
"j. c #BDB5BD",
"k. c None",
/* pixels */
"k.k.k.k.k.k.k.k.k.k.k.k.k.k.k.k.k.k.k.k.k.k.k.k.k.k.k.k.k.k.k.k.",
"k.k.k.k.k.k.k.k.k.k.k.k.k.k.k.k.k.k.k./ / / k.k.k.k.k.k.k.k.k.k.",
"k.k.k.k./ / / / k.k.k.k.k.k.k.k.k.k.k.o.( K b k.k.k.k.k.k.k.k.k.",
"k.k.k./ +.` ^ _ b k.k.k.k.k.k.k.k.k./ { K K b c k.k.k.k.k.k.k.k.",
"k.k.k./ W K K K K b k.k.k.k.k.k.k.k./ E H H c k.k.k.k.k.k.k.k.k.",
"k.k.k.k.c K K K K b k.k.k.k.k.k.k.k.o.K H c k.k.k.k.k.k.k.k.k.k.",
"k.k.k.k.k.c K T Y Y b b k.k.k.k.k.#.] H c k.k.k.k.k.k.k.k.k.k.k.",
"k.k.k.k.k.c T Y Y Y U U b c c c @.} H H c k.k.k.k.k.k.k.k.k.k.k.",
"k.k.k.k.k.k.c Y Y U U H H H H H H H H H c k.k.k.k.k.k.k.k.k.k.k.",
"k.k.k.k.k.k.b Y U U H H H H H H H G G G G c k.k.k.k./ / / / k.k.",
"k.k.k.k.k.b Y U U H H C e r y u k k k | ! D c k.k./ _ V e e A k.",
"k.k.k.k.k.b U U H H H 9 u a f x r.u.p.p.l Q F F w  .C , + + > k.",
"k.k.k.k./ / U H H H 8 u s f x r.u.d.h.j.g.X.t 5 - d z $ 2 2 1 k.",
"k.k.k./ O.[ H H H 6 = p g x 5.6.a.f.e.0.w.h.x u * o 0 A k.k.k.k.",
"k.k./ ' E H H H v 4 u f k 4.,.*.q.7.8.8.9.s.p.k +   : k.k.k.k.k.",
"k./ ' R H H H H : & = f k %.&.*.>.8.8.8.8.<.p.k < > k.k.k.k.k.k.",
"/ _ R H H H H H : & = f k 3.-.&.*.:.>.8.9.t.u.k Z c k.k.k.k.k.k.",
"c F H H H H H H : & = f k r.4.=.&.&.*.*.;.i.r.k Z c k.k.k.k.k.k.",
"c H H H H H G G : & = s j r.r.6.-.=.&.&.6.r.x f Z c k.k.k.k.k.k.",
"k.c c c c c H G : + * ; s k r.r.r.1.-.$.6.r.h a M b c k.k.k.k.k.",
"k.k.k.k.k.k.c D 2 X * * ; s k x r.r.2.4.x h i 8 M M b b ../ k.k.",
"k.k.k.k.k.k.k.c D # O * * ; s g h h h h f ; = w M M m m B ~ / k.",
"k.k.k.k.k.k.k.k.c F . O * * = ; f f f u ; y 7 M M m m m m b c k.",
"k.k.k.k.k.k.k.k.n A F @ O & * * * * * * * q F M c k.c c b c k.k.",
"k.k.k.k.k.k.k./ P A A S A @ + % % % % 3 q M M c k.k.k.c c k.k.k.",
"k.k.k.k.k.k./ ) J A A A A A A A M M M M M M b k.k.k.k.k.k.k.k.k.",
"k.k.k.k.k./ I A A A c c c c c M M M M M m m m / k.k.k.k.k.k.k.k.",
"k.k.k.k.k.c A A A c c k.k.k.c c c M M m m m N L / k.k.k.k.k.k.k.",
"k.k.k.k.k.k.c c c k.k.k.k.k.k.k.k.c c m m m m b c k.k.k.k.k.k.k.",
"k.k.k.k.k.k.k.k.k.k.k.k.k.k.k.k.k.k.k.c c b b c k.k.k.k.k.k.k.k.",
"k.k.k.k.k.k.k.k.k.k.k.k.k.k.k.k.k.k.k.k.c c c k.k.k.k.k.k.k.k.k.",
"k.k.k.k.k.k.k.k.k.k.k.k.k.k.k.k.k.k.k.k.k.k.k.k.k.k.k.k.k.k.k.k."
};
