/* XPM */
static char *xpm_32_big[] = {
/* columns rows colors chars-per-pixel */
"32 32 23 1",
"  c black",
". c gray3",
"X c #101010",
"o c #181818",
"O c gray13",
"+ c gray16",
"@ c #313131",
"# c #393939",
"$ c gray26",
"% c gray29",
"& c gray32",
"* c #5A5A5A",
"= c gray39",
"- c gray42",
"; c gray45",
": c #7B7B7B",
"> c magenta",
", c #848484",
"< c gray55",
"1 c gray58",
"2 c gray61",
"3 c #A5A5A5",
"4 c None",
/* pixels */
"44444444444444444444444444444444",
"44XXXXXXXXXXXXXXXXXXXXXXX4444444",
"44.44o33333222222111111@*X444444",
"44.44o3333222222111111<@*-X44444",
"44 44o332222222111111<<@&==.4444",
"44   o32222222111111<<<#OX.. 444",
"44   o2222222111111<<<<<<o   444",
"44 oXo222222111111<<<<<<,oXo ;44",
"44.44o22222111111<<<<<<,,o44.;44",
"44.44o2221111111<<<<<<,,,o44o;44",
"44 44o22111111<<<<<<<,,,,o44X;44",
"44   o2111111<<<<<<<,,,,,o   ;44",
"44   o111111<<<<<<,,,,,,,o   ;44",
"44 @+o11111<<<<<<,,,,,,,:o+@ ;44",
"44.44o1111<<<<<<,,,,,,,::o44X;44",
"44.44o111<<<<<<,,,,,,,:::o44o;44",
"44 44o11<<<<<<,,,,,,,::::o44.;44",
"44   o1<<<<<<,,,,,,::::::o   ;44",
"44   o<<<<<<,,,,,,:::::::o   ;44",
"44 %$o<<<<<,,,,,,::::::;;o$% ;44",
"44.44o<<<<,,,,,,::::::;;;X44X;44",
"44.44o<<<,,,,,,::::::;;;;X44o;44",
"44 44X<<,,,,,,::::::;;;;;X44 ;44",
"44   X<,,,,,,::::::;;;;;;X   ;44",
"44    ,,,,,,::::::;;;;;;-    ;44",
"44   X,,,,,::::::;;;;;;--X   ;44",
"44 44X,,,,::::::;;;;;;---X44.;44",
"44.44X,,,::::::;;;;;;----X44X;44",
"44.44X,,::::::;;;;;;-----X44o;44",
"44 .XX,::::::;;;;;;------X.X ;44",
"44                           ;44",
"4444,,,,,,,,,,,,,,,,,,,,,,,,,,44"
};
