/* XPM */
static char *xpm_27_big[] = {
/* columns rows colors chars-per-pixel */
"32 32 34 1",
"  c black",
". c gray3",
"X c #101010",
"o c #181818",
"O c gray13",
"+ c gray16",
"@ c #313131",
"# c #393939",
"$ c gray26",
"% c gray29",
"& c gray32",
"* c #5A5A5A",
"= c gray39",
"- c gray42",
"; c gray45",
": c #7B7B7B",
"> c magenta",
", c #848484",
"< c gray55",
"1 c gray58",
"2 c gray61",
"3 c #A5A5A5",
"4 c gray68",
"5 c gray71",
"6 c gray74",
"7 c #C6C6C6",
"8 c #CECECE",
"9 c gray84",
"0 c gray87",
"q c #E7E7E7",
"w c #EFEFEF",
"e c gray97",
"r c gray100",
"t c None",
/* pixels */
"tttttttttttttttttttttttttttttttt",
"tttttttttttttttttttttttttttttttt",
"tttttttttttttttttttttttttttttttt",
"tttttttttttttttttttttttttttttttt",
"++++++++++++++++++++++++++++++++",
"++++++++++++++++++++++++++++++++",
"@+++O*;;OO;:-o:,O$1$X-96+o%1<11%",
"+++O.7rr@Orre rro:r=%rrre ;rrrr;",
"+Oo&+5rr&@rrw rrX-r&4r<0r$*rw13%",
"@OX7;2rr,$rrw rro;r*8r ;r:%r0 X ",
"+OO+.4rr4-rre rrO=r=8r&O,#*rq   ",
"+OOo.4q09<9qe rrO=r=<rro  *rq   ",
"+OX#X4q5e55wr rr+=r;OrreO *rre9 ",
"+X-rO3w<rr,wr erO&r, ;rrq &rrrw ",
"O&=r 3e=rr&er er+*r,X.;rr-$re%& ",
"+o-7 2r#rr+er erO&r,.o 2r9@re   ",
"+.e#.2rorrXrr er+%r:,w#.rw@re   ",
"O#r X1r.rr er qr@%r;,r=Xrw+rr   ",
"o4-*X<r qr rr 4r90r%%rw8r4+rrwr4",
"Or6&X1r 8w rr.#rrrwXX8rrr #rrrr6",
"+5@ .o$X++ #%o.@;-OoXo=;O  #@## ",
"&,%9995-4900:*w987O7000&<w006*=2",
"-62rrrr#rrrr2<rrrr-rrrr;9rrrw+=6",
"&w*rrrr,rrrr8*rrrr;rrrr,wrrrw@;8",
"&6*rwqw,q00q1&q980;9879-;9885-:2",
"+++OoooooOooOOooXXOooXoOoXXXXOoO",
"++++++++++++++++++++++++++++++++",
"tttttttttttttttttttttttttttttttt",
"tttttttttttttttttttttttttttttttt",
"tttttttttttttttttttttttttttttttt",
"tttttttttttttttttttttttttttttttt",
"tttttttttttttttttttttttttttttttt"
};
