/* XPM */
static char *xpm_26[] = {
/* columns rows colors chars-per-pixel */
"16 16 50 1",
"  c #00187B",
". c #00217B",
"X c #002973",
"o c #005263",
"O c #00526B",
"+ c #005A73",
"@ c #007B52",
"# c #006363",
"$ c #006B63",
"% c #00008C",
"& c #001084",
"* c #001884",
"= c #009410",
"- c #009418",
"; c #009C10",
": c #009C18",
"> c #009421",
", c #009C21",
"< c #009C29",
"1 c #009C31",
"2 c #00A518",
"3 c #00A521",
"4 c #00A531",
"5 c #00A539",
"6 c #00AD31",
"7 c #00844A",
"8 c #009C42",
"9 c #009452",
"0 c #00945A",
"q c #009C52",
"w c #009C5A",
"e c #00A542",
"r c #00A54A",
"t c #00AD4A",
"y c #00AD52",
"u c #00AD5A",
"i c #00B54A",
"p c #00BD4A",
"a c #00B552",
"s c #00B55A",
"d c #00AD63",
"f c #00B563",
"g c #00CE6B",
"h c #18C66B",
"j c #10CE73",
"k c #18D67B",
"l c #21C65A",
"z c #21D67B",
"x c magenta",
"c c None",
/* pixels */
"cccccccccccccccc",
"cckg6cccc--ccccc",
"c6ts6cccche-cccc",
"cc6ff4w+0s-ccccc",
"ccc4du+*$y-cc--c",
"cc6duuwOwyt-qat-",
"c6zuuuuwwttte1-c",
"6jsuuy.*#tte1-cc",
"isuuyy$&Oree>ccc",
"111yytt*oeee,-cc",
"ccc1ttr oe5552l-",
"cccc39%%%X55--;-",
"cccqt8@@@75-c--c",
"cc1t111=<44p1ccc",
"ccc11ccc11:;1ccc",
"cccccccccc11cccc"
};
