/* XPM */
static char *xpm_3_big[] = {
/* columns rows colors chars-per-pixel */
"32 32 257 2",
"   c #310000",
".  c #310800",
"X  c #390000",
"o  c #310810",
"O  c #390810",
"+  c #311010",
"@  c #311018",
"#  c #311818",
"$  c #391010",
"%  c #391018",
"&  c #391818",
"*  c #391821",
"=  c #311821",
"-  c #392121",
";  c #392129",
":  c #312326",
">  c #392931",
",  c #312931",
"<  c #393131",
"1  c #393139",
"2  c #393939",
"3  c #420000",
"4  c #420810",
"5  c #4A0810",
"6  c #421010",
"7  c #421018",
"8  c #520000",
"9  c #5A0000",
"0  c #5A0800",
"q  c #520810",
"w  c #521010",
"e  c #561418",
"r  c #462525",
"t  c #422931",
"y  c #4A2931",
"u  c #4A3939",
"i  c #463539",
"p  c #522929",
"a  c #563539",
"s  c #630000",
"d  c #6B0000",
"f  c #630810",
"g  c #6B1010",
"h  c #730000",
"j  c #7B0000",
"k  c #770810",
"l  c #771014",
"z  c #6B1821",
"x  c #652326",
"c  c #653136",
"v  c #7B2629",
"b  c #732931",
"n  c #7B3139",
"m  c #423942",
"M  c #4A3942",
"N  c #523942",
"B  c gray26",
"V  c #4A424A",
"C  c #4A4747",
"Z  c #564648",
"A  c #524A52",
"S  c #5A4A52",
"D  c #5A525A",
"F  c #575656",
"G  c #6B424A",
"H  c #6B4A52",
"J  c #655858",
"K  c #73424A",
"L  c #735252",
"P  c #635A63",
"I  c #696363",
"U  c #776567",
"Y  c #796B73",
"T  c #7B7373",
"R  c #840000",
"E  c #8C0000",
"W  c #880800",
"Q  c #840810",
"!  c #940000",
"~  c #9C0000",
"^  c #841818",
"/  c #8C1821",
"(  c #9C1821",
")  c #8C2129",
"_  c #843135",
"`  c #982129",
"'  c #942931",
"]  c #9C3139",
"[  c #A50000",
"{  c #A50800",
"}  c #AD0000",
"|  c #AD0800",
" . c #A50810",
".. c #B50000",
"X. c #BD0000",
"o. c #BD1010",
"O. c #B51821",
"+. c #A92125",
"@. c #AD2931",
"#. c #BD2125",
"$. c #BD3939",
"%. c #993942",
"&. c #8C4447",
"*. c #844A52",
"=. c #885256",
"-. c #944246",
";. c #9C4A52",
":. c #845A63",
">. c #945A63",
",. c #896868",
"<. c #8C6B73",
"1. c #877479",
"2. c #946B6B",
"3. c #986B73",
"4. c #AD5252",
"5. c #B54242",
"6. c #B54A52",
"7. c #AA5A63",
"8. c #AB696B",
"9. c #AD6B73",
"0. c #AD7373",
"q. c #B5656B",
"w. c #B96B73",
"e. c #BD777B",
"r. c #C60000",
"t. c #C60800",
"y. c #CE0000",
"u. c #C60810",
"i. c #C61010",
"p. c #CE1018",
"a. c #D60000",
"s. c #DE0000",
"d. c #DE0800",
"f. c #DE1010",
"g. c #CE2121",
"h. c #CE3535",
"j. c #D62121",
"k. c #DE2121",
"l. c #DE3539",
"z. c #E70000",
"x. c #EF0000",
"c. c #EF0800",
"v. c #E70810",
"b. c #EF0810",
"n. c #E71018",
"m. c #F70000",
"M. c #F70800",
"N. c #F70810",
"B. c #F71010",
"V. c #F71018",
"C. c #F71818",
"Z. c #FF1018",
"A. c #FF1818",
"S. c #F71821",
"D. c #FF1821",
"F. c #EC2323",
"G. c #EF3139",
"H. c #FF2129",
"J. c #FF2931",
"K. c #FF3139",
"L. c #F73942",
"P. c #CE424A",
"I. c #CE4A52",
"U. c #CE525A",
"Y. c #D84247",
"T. c #DA4A52",
"R. c #D6525A",
"E. c #CE5A63",
"W. c #C6636B",
"Q. c #CE737B",
"!. c #DE6568",
"~. c #DE6B73",
"^. c #E7525A",
"/. c #FF4242",
"(. c #FF424A",
"). c #F74242",
"_. c #FF5252",
"`. c #EB5A63",
"'. c #FF5A63",
"]. c #F75A63",
"[. c #EF636B",
"{. c #EB7777",
"}. c #FF6868",
"|. c #F97878",
" X c #887B84",
".X c #987B84",
"XX c magenta",
"oX c #C67B84",
"OX c #8A8486",
"+X c #99898C",
"@X c #948C94",
"#X c #9C979A",
"$X c #AA898C",
"%X c #A58C94",
"&X c #A9969A",
"*X c #B9848C",
"=X c #B7999C",
"-X c #A59CA5",
";X c #A5A5A5",
":X c #ADA5AD",
">X c gray68",
",X c #B6A6A9",
"<X c #B5ADB5",
"1X c gray71",
"2X c #BDB5BD",
"3X c gray74",
"4X c #C68C8C",
"5X c #DE8484",
"6X c #D68C94",
"7X c #DC9898",
"8X c #CA9CA5",
"9X c #D69CA5",
"0X c #C6A5AD",
"qX c #C6ADB5",
"wX c #C6B5B7",
"eX c #DEA9A9",
"rX c #D6B5B5",
"tX c #EC898C",
"yX c #F99999",
"uX c #EF8C90",
"iX c #F79CA5",
"pX c #E7ADAD",
"aX c #EBA5AD",
"sX c #E7ADB5",
"dX c #EBB9B9",
"fX c #FFB9B9",
"gX c #C6BDC6",
"hX c #CEBDC6",
"jX c #EFBDC6",
"kX c #F7BDC6",
"lX c #C6C6C6",
"zX c #CEC6CE",
"xX c #CECECE",
"cX c #D6C6CA",
"vX c #D6CED6",
"bX c #DED6DE",
"nX c gray84",
"mX c #E7CACE",
"MX c #E7CED6",
"NX c #E7DEDE",
"BX c #EBD6DA",
"VX c #FFC6C6",
"CX c #F7D6D6",
"ZX c #E7DEE7",
"AX c #EFDEE7",
"SX c #F7DEE7",
"DX c #E7E7E7",
"FX c #EFE7EF",
"GX c #EFEFEF",
"HX c #F7E7E7",
"JX c #F7EFEF",
"KX c #FFE7EF",
"LX c #F7EFF7",
"PX c gray97",
"IX c #FFF7FF",
"UX c gray100",
"YX c None",
/* pixels */
"YXYXYXYXYXYXYXYXYXYXYXYXYXYXYXYXYXYXYXYXYXYXYXYXYXYXYXYXYXYXYXYX",
"YXYXYXYXYXYXYXYXYXYXYXYXYXwXZXPXJXNXwXYXYXYXYXYXYXYXYXYXYXYXYXYX",
"YXYXYXYXYXYXYXYXYXYXYX7.U.T.eX7XT.g.$.=X-XYXYXYXYXYXYXYXYXYXYXYX",
"YXYXYXYXYXYXYXYX$X{.F.N.).pXFXNXmX7XY.Q.8Xe.@.0.YXYXYXYXYXYXYXYX",
"YXYXYXYXYXYXhXtXF.x.N.|.SXGXFXDXmXY.a.y.i.#.7.%.&.YXYXYXYXYXYXYX",
"YXYXYXYXYXmX`.M.z.C.iXLXLXGXFXZX!.s.a.y.r.i.,X:X%X2.3.YXYXYXYXYX",
"YXYXYXYXuXdXkXiX[.}.CXHXLXLXFXdXf.s.a.y.r.i.,X>X;X.X^ b YXYXYXYX",
"YXYXYX[.aXPXPXIX|.N.S.L.}.yXjX^.d.a.a.a.r.i.,X:X;X#X&.j *.YXYXYX",
"YXYXQ.tXLXLXPXfXC.N.Z.H.H.A.].jXtXR.j.u.y.O.:X:X-X#X1.k h <.YXYX",
"YXYXY.FXGXLXFXF.B.D.K.(.(./.VXGXbXnXzX0Xe.4.=X-X-X@XOXv d e +XYX",
"YXR.aXFXGXLXyXM.A.K._.'.'.}.UXGXbXxXlX3X2Xw.| +.-.<. Xn d 9 G YX",
"YXP.MXDXFXBXG.M.A.K._.'.'.fXUXDXvXzXgX2X<X4.[ [ ! ! Q v z 0 7 YX",
"7X5XbXZXDXsXv.c.Z.J./._.}.KXGXbXxXgX2X1X<X` [ ~ ! E j b I Z t T ",
"7Xh.l.~.eX`.a.z.v.V.H.J.{.GXNXxXgX2X1X<X&X{ ~ ~ E W j b P A 2 e ",
"8Xp.a.a.p.pX7X[.l.k.n.n.7XvXzXgX2X1X>X;X8.~ ! ! E j h x D A 2 # ",
"oXt.a.y.h.vXnXvXcXrX6XU.4XqXwX1X1X:X:X-X%.~ ! R j j d c D B 1 # ",
"w.r.r.r.I.zXzXzXzXlXlX4Xo.O.5.q.$X&X&X%X( ! E R j d s a C 2 1 # ",
"8...X.r.W.3XgX3X3X3X1X6.....} [  .( ] =./ Q j j h s 0 M m 1 1 @ ",
"0.| ....9.2X1X2X2X1X>X+.} [ [ [ ~ ! ! &. XU K b g 0 q C 2 2 > O ",
"q. .[ } 8.<X<X>X:X:X$X{ [ [ ~ ! ! ! W :.T Y Y P D Z r ; > < , 8 ",
"YX` ~ [ 8.-X-X;X;X-X7.~ ! ! ! ! E R v Y Y U I F D 2 6     . = >.",
"YX.X,.] >.#X#X#X#X@X-.! ! ! R R j j K Y I F D A B t         i YX",
"YX,.1.OX;.) *.3.+XOX' E R R E j j h I P F D A B 2 &   X   o S YX",
"YXYXH  X=.R R W ^ _ _ l j j h d d x J D F V m 2 :         - YXYX",
"YXYX:XP U g h j j k U U L c z q s N D C B 2 2 < o       + &XYXYX",
"YXYXYXJ F c s s s f P P J D F S p r t < 1 1 < #       o Z YXYXYX",
"YXYXYXYXT V 5 8 9 q S F F A V M $ X   . o + ; + 4 . . J YXYXYXYX",
"YXYXYXYXYXOXG 3 3 5 2 m m 2 2 *   . X     # < 1 < y U YXYXYXYXYX",
"YXYXYXYXYXYXYXu - + > 1 1 1 :           * < 1 C N YXYXYXYXYXYXYX",
"YXYXYXYXYXYXYXYXYXT ; + # ; o   X   $ : < m I YXYXYXYXYXYXYXYXYX",
"YXYXYXYXYXYXYXYXYXYXYX=X+Xu u r & & 1.S YXYXYXYXYXYXYXYXYXYXYXYX",
"YXYXYXYXYXYXYXYXYXYXYXYXYXYXYXYXYXYXYXYXYXYXYXYXYXYXYXYXYXYXYXYX"
};
