/* XPM */
static char *xpm_43_big[] = {
/* columns rows colors chars-per-pixel */
"32 32 72 1",
"  c #6B0000",
". c #730000",
"X c #7B0000",
"o c #7B0800",
"O c #7B2129",
"+ c #840000",
"@ c #840800",
"# c #8C0000",
"$ c #8C0800",
"% c #8C1818",
"& c #940000",
"* c #940800",
"= c #9C0800",
"- c #842121",
"; c #A50800",
": c #AD0800",
"> c #AD1000",
", c #B50800",
"< c #BD0800",
"1 c #B51000",
"2 c #BD1000",
"3 c #BD1810",
"4 c #BD2110",
"5 c #BD2118",
"6 c #BD2921",
"7 c #B53931",
"8 c #9C4242",
"9 c #BD4A4A",
"0 c #C60800",
"q c #C61000",
"w c #CE1000",
"e c #CE1800",
"r c #D61000",
"t c #D61800",
"y c #DE1800",
"u c #DE2110",
"i c #DE2918",
"p c #DE3121",
"a c #DE3129",
"s c #DE3929",
"d c #DE3931",
"f c #CE4239",
"g c #DE4231",
"h c #DE4239",
"j c #DE4A39",
"k c #E74239",
"l c #CE4A42",
"z c #DE4A42",
"x c #D6524A",
"c c #DE5242",
"v c #DE524A",
"b c #DE5A52",
"n c #C65A63",
"m c #C66B73",
"M c #E75A52",
"N c #E76352",
"B c #E7635A",
"V c #E76363",
"C c #E76B63",
"Z c #E76B6B",
"A c #E77363",
"S c #E7736B",
"D c #EF736B",
"F c #E77B73",
"G c #E77B7B",
"H c magenta",
"J c #DE948C",
"K c #EF948C",
"L c #E7ADA5",
"P c #EFADA5",
"I c #F7D6CE",
"U c None",
/* pixels */
"UUUUUUUUUUUUUUUUUUUUUUUUUUUUUUUU",
"UUUUUUUUUUUUUUUUUUUUUUUUUUUUUUUU",
"UUUUUUUUUUUUUUUUUUUUUUUUUUUUUUUU",
"UUUUUUUUUUUUUUUUUUUUUUUUUUUUUUUU",
"UUUUUUUUUUUUUUUUUUUUUUUUUUUUUUUU",
"UUUUUUUUUUUUUUUUUUgVsyyUUUUUUUUU",
"UUUUUUUUUUUUUUUUUDKCttttUUUUUUUU",
"UUUUUUUUUUUhSSUUFyvhq<,,wwqqUUUU",
"UUUUUUUUUUZbssxmliiut0,,<@X@$UUU",
"UUUUUUUUUUdpyyidvBsytq,,,+.>1UUU",
"UUUUUUUUUyyyttttpzpyw<,,*;>tyUUU",
"UUUUUUUUUyyytwwwyyyyq,,==ejuyyUU",
"UUUUUUUUyyyyw,,qwwww<,,X2dBuyyUU",
"UUUUUUUUyyyyw,,,,,,,,,;.2GpyywUU",
"UUUUUUUUyyytq,:;;;;;;;X@fCiyy<UU",
"UUUUUUUUyyyw<,&.+$$$$%-7Lcyyr<UU",
"UUUUUUUyyyyw,=X.*34569nJIgytq,,U",
"UUUUUUUyyyyw;.$1qhCKPBhMBiyq<,,U",
"UUUUUUUyyyr:X@qdVvjNApywqqq<,,,U",
"UUUUUUxytq,Xo2yavpyyyyyq,,,,,,#U",
"UUUUUUewq:#X>tyyuyyyyyw<,,,,,= U",
"UUUUU8w,;=$;tyyyyyyrwwq,,,,,;.UU",
"UUUUU1:=X*qwtttttttq<<<,,,,:X UU",
"UUUkd:.+::<<<<<<<<<<,,,,,,,X  UU",
"UUOXX.  ..........=,,,,+...  UUU",
"UUUUUUUUUUUUUUU   .XXXX    UUUUU",
"UUUUUUUUUUUUUUUUUUU    UUUUUUUUU",
"UUUUUUUUUUUUUUUUUUUUUUUUUUUUUUUU",
"UUUUUUUUUUUUUUUUUUUUUUUUUUUUUUUU",
"UUUUUUUUUUUUUUUUUUUUUUUUUUUUUUUU",
"UUUUUUUUUUUUUUUUUUUUUUUUUUUUUUUU",
"UUUUUUUUUUUUUUUUUUUUUUUUUUUUUUUU"
};
