/* XPM */
static char *xpm_37_big[] = {
/* columns rows colors chars-per-pixel */
"32 32 111 2",
"   c #633939",
".  c #6B3939",
"X  c #733929",
"o  c #7B3121",
"O  c #5A4239",
"+  c #634239",
"@  c #735A63",
"#  c #73636B",
"$  c #7B6B73",
"%  c #9C3918",
"&  c #9C3921",
"*  c #A51839",
"=  c #A53918",
"-  c #AD3918",
";  c #BD2118",
":  c #BD2918",
">  c #B53918",
",  c #BD1842",
"<  c #8C4229",
"1  c #8C4231",
"2  c #8C4A31",
"3  c #8C4A39",
"4  c #945A39",
"5  c #9C5231",
"6  c #9C5A39",
"7  c #AD4218",
"8  c #A55A39",
"9  c #AD5A39",
"0  c #AD6339",
"q  c #8C5A4A",
"w  c #945A42",
"e  c #9C5A42",
"r  c #9C5A4A",
"t  c #9C6342",
"y  c #9C6B5A",
"u  c #8C6B6B",
"i  c #847373",
"p  c #8C7373",
"a  c #8C7B73",
"s  c #947B73",
"d  c #947B7B",
"f  c #A55A42",
"g  c #A56342",
"h  c #A5634A",
"j  c #AD634A",
"k  c #AD6B42",
"l  c #B56B4A",
"z  c #BD6B4A",
"x  c #BD735A",
"c  c #BD7B5A",
"v  c #BD7B63",
"b  c #C61818",
"n  c #C62918",
"m  c #CE2918",
"M  c #C63918",
"N  c #CE3918",
"B  c #D63118",
"V  c #D63918",
"C  c #C62931",
"Z  c #D62929",
"A  c #D63929",
"S  c #D63939",
"D  c #D6184A",
"F  c #C64A18",
"G  c #CE4A18",
"H  c #CE5A18",
"J  c #D64A18",
"K  c #DE4218",
"L  c #DE4A29",
"P  c #DE5A29",
"I  c #F75218",
"U  c #E75A29",
"Y  c #E75A39",
"T  c #C6734A",
"R  c #CE7B4A",
"E  c #C67B5A",
"W  c #CE7B52",
"Q  c #CE7B5A",
"!  c #D67B52",
"~  c #C67B63",
"^  c #EF735A",
"/  c #8C7B84",
"(  c magenta",
")  c #AD846B",
"_  c #A58473",
"`  c #A58C7B",
"'  c #AD8473",
"]  c #AD8C73",
"[  c #AD947B",
"{  c #BD846B",
"}  c #B58C73",
"|  c #BD9C7B",
" . c #C6846B",
".. c #CE8463",
"X. c #948484",
"o. c #948C84",
"O. c #9C8C84",
"+. c #9C8C8C",
"@. c #9C9484",
"#. c #A58484",
"$. c #A58C84",
"%. c #A58C8C",
"&. c #AD8C84",
"*. c #A5948C",
"=. c #AD9C8C",
"-. c #B5948C",
";. c #B59C8C",
":. c #BD9C8C",
">. c #BDA58C",
",. c #C6A58C",
"<. c None",
/* pixels */
"<.<.<.<.<.<.<.<.<.<.<.<.<.<.<.<.<.<.<.<.<.<.<.<.<.<.<.<.<.<.<.<.",
"<.<.<.<.<.<.<.<.<.<.<.<.<.<.<.<.<.<.<.I I I <.<.<.<.<.<.<.<.<.<.",
"<.<.<.<.I I I I <.<.<.<.<.<.<.<.<.<.<.^ L N , <.<.<.<.<.<.<.<.<.",
"<.<.<.I J P K L , <.<.<.<.<.<.<.<.<.I Y N N , * <.<.<.<.<.<.<.<.",
"<.<.<.I H N N N N , <.<.<.<.<.<.<.<.I J M M * <.<.<.<.<.<.<.<.<.",
"<.<.<.<.* N N N N , <.<.<.<.<.<.<.<.J N M * <.<.<.<.<.<.<.<.<.<.",
"<.<.<.<.<.* N G G G , , <.<.<.<.<.J M M * <.<.<.<.<.<.<.<.<.<.<.",
"<.<.<.<.<.* G G G G F F , * * * J M M M * <.<.<.<.<.<.<.<.<.<.<.",
"<.<.<.<.<.<.* G G F F M M M M M M M M M * <.<.<.<.<.<.<.<.<.<.<.",
"<.<.<.<.<.<., G F F 7 - - = = = = % & > M * <.<.<.<.I I I I <.<.",
"<.<.<.<.<., G F F M < 5 5 5 5 5 5 8 3 . M n * <.<.I L B V : : <.",
"<.<.<.<.<., F F M M 1 5 4 e e w w j e   n n n * I L M : : : : <.",
"<.<.<.<.I J F M M M 2 6 ) | [ ` &.x e + n n n n : : : : * * <.<.",
"<.<.<.I J J M M M M 2 6 } ,.=.=.-.E e + n n n : : : : * <.<.<.<.",
"<.<.I U J M M M M M 2 f } ,.:.=.-.c e + n n : : : : * <.<.<.<.<.",
"<.I U J M M M M M M 2 f ] >.;.-.-.c r + n : : : : * <.<.<.<.<.<.",
"I L J M M M M M M M 2 f ' ;.;.*.-.~ e O : : : : : * <.<.<.<.<.<.",
"* n M M M M M M M M w y _ *.*.+.$.E e O : : : : : * <.<.<.<.<.<.",
"* M M M M M M M M M q $ a %.O.X.#...t O : : : : ; * <.<.<.<.<.<.",
"<.* * * * * M M M M 3 g s @.o.X.#...h + : : : ; ; , * <.<.<.<.<.",
"<.<.<.<.<.<.* n M n 2 k s / i i d ..h + : : ; ; ; ; , , J I <.<.",
"<.<.<.<.<.<.<.* n n 2 l u i # @ p ..f + : ; ; ; ; ; ; ; C S I <.",
"<.<.<.<.<.<.<.<.* n 2 z v  . . .{ Q h . ; ; ; ; ; ; ; ; ; , * <.",
"<.<.<.<.<.<.<.<.D : 2 T ! ! ! W R R f X ; ; ; ; * <.* * , * <.<.",
"<.<.<.<.<.<.<.I A : 2 8 0 0 9 0 8 0 6 o ; ; ; * <.<.<.* * <.<.<.",
"<.<.<.<.<.<.I L m : : : : : : : ; ; ; ; ; ; , <.<.<.<.<.<.<.<.<.",
"<.<.<.<.<.I A : : : * * * * * ; ; ; ; ; ; ; ; I <.<.<.<.<.<.<.<.",
"<.<.<.<.<.* : : : * * <.<.<.* * * ; ; ; ; ; b Z I <.<.<.<.<.<.<.",
"<.<.<.<.<.<.* * * <.<.<.<.<.<.<.<.* * ; ; ; ; , * <.<.<.<.<.<.<.",
"<.<.<.<.<.<.<.<.<.<.<.<.<.<.<.<.<.<.<.* * , , * <.<.<.<.<.<.<.<.",
"<.<.<.<.<.<.<.<.<.<.<.<.<.<.<.<.<.<.<.<.* * * <.<.<.<.<.<.<.<.<.",
"<.<.<.<.<.<.<.<.<.<.<.<.<.<.<.<.<.<.<.<.<.<.<.<.<.<.<.<.<.<.<.<."
};
