/* XPM */
static char *xpm_54[] = {
/* columns rows colors chars-per-pixel */
"16 16 75 1",
"  c #101010",
". c #313100",
"X c gray29",
"o c #524A52",
"O c #5A5A5A",
"+ c #635A63",
"@ c #73735A",
"# c #737363",
"$ c #7B7B63",
"% c #7B737B",
"& c #84734A",
"* c #847B7B",
"= c #947B73",
"- c magenta",
"; c #A5A500",
": c #94946B",
"> c #A5A57B",
", c #E78C39",
"< c #D69452",
"1 c #D69C5A",
"2 c #CE9C63",
"3 c #DEA54A",
"4 c #D6A552",
"5 c #DEBD5A",
"6 c #CEA573",
"7 c #D6A563",
"8 c #E78C42",
"9 c #E79C42",
"0 c #E7B55A",
"q c #CECE7B",
"w c #CED67B",
"e c #D6C673",
"r c #D6CE73",
"t c #D6CE7B",
"y c #D6D663",
"u c #D6D67B",
"i c #DED67B",
"p c #9C948C",
"a c gray58",
"s c #9C949C",
"d c #A59C84",
"f c #ADA59C",
"g c #B5AD84",
"h c #B5AD9C",
"j c #BDB584",
"k c #BDB58C",
"l c #BDB594",
"z c #BDBD94",
"x c #ADA5A5",
"c c #ADADA5",
"v c #BDBDA5",
"b c #CECE8C",
"n c #CECE9C",
"m c #D6D684",
"M c #D6DE84",
"N c #DED684",
"B c #DEDE84",
"V c #DEDE9C",
"C c #D6D6A5",
"Z c #DEE78C",
"A c #E7DE8C",
"S c #E7DEA5",
"D c #E7E78C",
"F c #EFE78C",
"G c #E7E794",
"H c #EFE79C",
"J c #EFEF94",
"K c #F7EF94",
"L c #F7F794",
"P c #F7F79C",
"I c #FFF79C",
"U c #FFFF9C",
"Y c #F7F7A5",
"T c #FFFFA5",
"R c None",
/* pixels */
"RRRRRRRRRRRRRRRR",
"RR;;;; RRRRRRRRR",
"RuBDJPU RRRRRRRR",
"yyyyyyyy;;;;;;;R",
"tumBBADFJKLPUUT ",
"tur9,,0hxVPUTTT ",
"tu3eMB6=sfvvcCT ",
"tu2uMBgaazPUnYT.",
"tu<uMB#%%*plSTT.",
"tu45Mi&XobPkdHT.",
"tuq1,87m$>PITTT.",
"tuqumBZD@OGITTT.",
"tuqwmBZD:+jITTT.",
"qumNBADFJKLPUUT.",
"...............R",
"RRRRRRRRRRRRRRRR"
};
