/* XPM */
static char *xpm_50_big[] = {
/* columns rows colors chars-per-pixel */
"32 32 156 2",
"   c #087300",
".  c #087308",
"X  c #087B08",
"o  c #106300",
"O  c #106B00",
"+  c #186300",
"@  c #186B08",
"#  c #107308",
"$  c #187B08",
"%  c #107B10",
"&  c #315A08",
"*  c #395A00",
"=  c #216300",
"-  c #216308",
";  c #296300",
":  c #296308",
">  c #297B08",
",  c #297318",
"<  c #316B08",
"1  c #317B29",
"2  c #425A00",
"3  c #425A08",
"4  c #4A5208",
"5  c #4A5A08",
"6  c #5A4A10",
"7  c #426B08",
"8  c #527308",
"9  c #427321",
"0  c #6B4A08",
"q  c #6B4210",
"w  c #7B4A10",
"e  c #6B7329",
"r  c #737329",
"t  c #088408",
"y  c #008C10",
"u  c #088410",
"i  c #088C10",
"p  c #088C18",
"a  c #009410",
"s  c #009418",
"d  c #009C18",
"f  c #108410",
"g  c #009C21",
"h  c #009C29",
"j  c #00A518",
"k  c #00A521",
"l  c #00AD21",
"z  c #00AD29",
"x  c #00B529",
"c  c #00B531",
"v  c #00B539",
"b  c #00BD39",
"n  c #218421",
"m  c #299429",
"M  c #318429",
"N  c #319431",
"B  c #399C31",
"V  c #00BD42",
"C  c #21BD4A",
"Z  c #29B54A",
"A  c #29BD4A",
"S  c #39A542",
"D  c #00C642",
"F  c #00C64A",
"G  c #00CE4A",
"H  c #00CE52",
"J  c #00D652",
"K  c #00D65A",
"L  c #00DE5A",
"P  c #10C652",
"I  c #4A9C39",
"U  c #529C39",
"Y  c #638431",
"T  c #7B8C31",
"R  c #4A944A",
"E  c #8C3910",
"W  c #8C3918",
"Q  c #943910",
"!  c #9C3910",
"~  c #A53908",
"^  c #AD3900",
"/  c #844218",
"(  c #845200",
")  c #845208",
"_  c #944210",
"`  c #944218",
"'  c #9C4210",
"]  c #9C4218",
"[  c #9C4A18",
"{  c #8C4A29",
"}  c #8C5231",
"|  c #945A39",
" . c #9C5A31",
".. c #9C5A39",
"X. c #946B10",
"o. c #AD4200",
"O. c #A54210",
"+. c #A54A18",
"@. c #AD4210",
"#. c #AD4A18",
"$. c #B54A00",
"%. c #B54210",
"&. c #B54A10",
"*. c #BD4210",
"=. c #BD4A10",
"-. c #BD5210",
";. c #A55A31",
":. c #AD5A39",
">. c #BD6B18",
",. c #B57310",
"<. c #BD6339",
"1. c #9C6342",
"2. c #9C6B4A",
"3. c #AD6342",
"4. c #AD6B42",
"5. c #AD7352",
"6. c #B57352",
"7. c #AD7B63",
"8. c #C62900",
"9. c #D63908",
"0. c #E73100",
"q. c #C64208",
"w. c #C64A10",
"e. c #C65A10",
"r. c #C65A18",
"t. c #CE5210",
"y. c #DE4208",
"u. c #D65A10",
"i. c #CE6318",
"p. c #D66310",
"a. c #D66318",
"s. c #DE6310",
"d. c #D67318",
"f. c #C66B31",
"g. c #F74200",
"h. c #E76B18",
"j. c #EF6B18",
"k. c #EF7318",
"l. c #F77318",
"z. c magenta",
"x. c #BD846B",
"c. c #B58473",
"v. c #BD947B",
"b. c #CE8C6B",
"n. c gray55",
"m. c gray58",
"M. c gray61",
"N. c #A5A5A5",
"B. c #C6A594",
"V. c #CEAD9C",
"C. c #CEB5A5",
"Z. c #C6C6C6",
"A. c #E7E7E7",
"S. c gray97",
"D. c gray100",
"F. c None",
/* pixels */
"F.F.F.F.F.F.F.F.F.F.F.F.F.F.F.F.F.F.F.F.F.F.F.F.F.F.F.F.F.F.F.F.",
"F.F.F.F.F.F.F.F.F.F.F.F.F.F.F.F.F.F.F.F.F.F.F.F.F.F.F.F.F.F.F.F.",
"F.F.F.F.F.F.F.F.F.F.F.F.F.F.F.F.F.F.F.F.F.F.F.F.F.F.F.F.F.F.F.F.",
"F.F.F.F.F.F.F.F.F.F.O O O @ F.F.F.F.F.F.F.F.F.F.F.F.F.F.F.F.F.F.",
"F.F.F.F.F.F.F.F.F.N t t t u F.F.F.F.F.F.F.F.F.F.F.F.F.F.F.F.F.F.",
"F.F.F.F.F.F.F.F.n k c c c x X F.F.F.F.F.+.+.' F.F.F.F.F.F.F.F.F.",
"F.F.F.F.F.F.F.O g G L L K C l . F.F.F.[ l.l.w.Q F.F.F.F.F.F.F.F.",
"F.F.F.F.F.F.F.O F L L L Z 8.L . $.F.F.[ l.l.w.Q F.F.F.F.F.F.F.F.",
"F.F.F.F.F.F.F.O F S Z L P r L . o.F.F.[ l.l.u.@.F.F.F.F.F.F.F.F.",
"F.F.F.x.Q Q ! O V e I L L L L .  .F.F.4.a.l.l.t.! F.F.F.F.F.F.F.",
"F.F.7.O.*.q.g.O s F L L L L L . F.F.F.F.W l.l.t.! F.F.F.F.F.F.F.",
"F.F.7.O.*.q.y.( $ z G A T Y L . F.F.F.F.W l.l.s.&.3.F.F.F.F.F.F.",
"F.F.B.:.@.@.@.9.4 % v U 0.8.D u 3 6 w +.W l.l.l.u.O.1.F.F.F.F.F.",
"F.F.F.V........./ & h B ^ ~ l l u   8 >.] l.l.l.u.O.} M.M.F.F.F.",
"F.F.F.F.F.F.F.F.| & u j j j L L x j i 7 l.l.l.l.u.O.2.D.D.m.F.F.",
"F.F.F.F.F.F.F.F.{ & u l c b L L D c k > X.l.l.l.u.O.2.D.D.m.F.F.",
"F.F.6.[ [ [ [ Q q : s b L K G K L L D s # ,.k.h.t.O.2.D.D.m.F.F.",
"F...i.l.l.l.k.*.; y b L L K j J L L D j d O d.t.*.O.2.D.D.m.F.F.",
"F...i.l.l.j.u.*.; y b L L K b J L L G c d O e.w.*.<.C.D.D.m.F.F.",
"F.v.f.i.i.r.@.@.= y b L L L L F J L L G d O -.%.@.b.D.D.D.m.F.F.",
"F.F.v...........- y b L L L L z G L L G d O d.#.E c.D.S.A.N.F.F.",
"F.F.F.F.F.F.F.F.1 y b L L L L L L L L G d O d.t.! c.D.S.n.F.F.F.",
"F.F.F.F.F.F.F.F., y x G L L L D J L H b d O d.t.! c.D.S.n.F.F.F.",
"F.F.F.F.F.F.[ [ 5 f d z G L L c G J b d i * p.=.;.B.D.S.n.F.F.F.",
"F.F.F.F.F.` l.l.w.2 u j z L L L L b j a + *.*.Q B.D.D.S.n.F.F.F.",
"F.F.F.F.F._ u.u.*.) < u p b b b b z a X o O.O.F.F.Z.Z.Z.Z.F.F.F.",
"F.F.F.F.F.5.@.@.@.@.0 9 R y y y y y m F.F.F.F.F.F.F.F.F.F.F.F.F.",
"F.F.F.F.F.F...........F.F.M M M M M F.F.F.F.F.F.F.F.F.F.F.F.F.F.",
"F.F.F.F.F.F.F.F.F.F.F.F.F.F.F.F.F.F.F.F.F.F.F.F.F.F.F.F.F.F.F.F.",
"F.F.F.F.F.F.F.F.F.F.F.F.F.F.F.F.F.F.F.F.F.F.F.F.F.F.F.F.F.F.F.F.",
"F.F.F.F.F.F.F.F.F.F.F.F.F.F.F.F.F.F.F.F.F.F.F.F.F.F.F.F.F.F.F.F.",
"F.F.F.F.F.F.F.F.F.F.F.F.F.F.F.F.F.F.F.F.F.F.F.F.F.F.F.F.F.F.F.F."
};
