/* XPM */
static char *xpm_36_big[] = {
/* columns rows colors chars-per-pixel */
"32 32 37 1",
"  c #002973",
". c #00297B",
"X c #73214A",
"o c #00008C",
"O c #001084",
"+ c #8C3139",
"@ c #A51839",
"# c #BD2118",
"$ c #BD2918",
"% c #9C3942",
"& c #BD1842",
"* c #B5424A",
"= c #C61818",
"- c #C62918",
"; c #CE2918",
": c #C63918",
"> c #CE3918",
", c #D63118",
"< c #D63918",
"1 c #C62931",
"2 c #D62929",
"3 c #D63929",
"4 c #D63939",
"5 c #D6184A",
"6 c #C64A18",
"7 c #CE4A18",
"8 c #CE5A18",
"9 c #D64A18",
"0 c #DE4218",
"q c #DE4A29",
"w c #DE5A29",
"e c #F75218",
"r c #E75A29",
"t c #E75A39",
"y c #EF735A",
"u c magenta",
"i c None",
/* pixels */
"iiiiiiiiiiiiiiiiiiiiiiiiiiiiiiii",
"iiiiiiiiiiiiiiiiiiieeeiiiiiiiiii",
"iiiieeeeiiiiiiiiiiiyq>&iiiiiiiii",
"iiie9w0q&iiiiiiiiiet>>&@iiiiiiii",
"iiie8>>>>&iiiiiiiie9::@iiiiiiiii",
"iiii@>>>>&iiiiiiii9>:@iiiiiiiiii",
"iiiii@>777&&iiiii9::@iiiiiiiiiii",
"iiiii@777766&@@@9:::@iiiiiiiiiii",
"iiiiii@7766:::::::::@iiiiiiiiiii",
"iiiiii&766:::+ooX::::@iiiieeeeii",
"iiiii&766::::oo..::::-@iieq,<$$i",
"iiiii&66:::::oo..:::---@eq:$$$$i",
"iiiie96::::::+ooX::-----$$$$@@ii",
"iiie99::::::::::::-----$$$$@iiii",
"iier9:::::::.....-----$$$$@iiiii",
"ier9::::::::.oooo----$$$$@iiiiii",
"eq9:::::::::..Ooo--$$$$$$@iiiiii",
"@-:::::::::::-.oo-$$$$$$$@iiiiii",
"@:::::::::::--.oo$$$$$$$#@iiiiii",
"i@@@@@:::::---.oo$$$$$$##&@iiiii",
"iiiiii@-:-----.oo$$$$$####&&9eii",
"iiiiiii@-----$ oo$$$$#######14ei",
"iiiiiiii@--%ooooooo+#########&@i",
"iiiiiiii5$-%ooooooo+####@i@@&@ii",
"iiiiiiie3$$*+++++++%###@iii@@iii",
"iiiiiieq;$$$$$$$######&iiiiiiiii",
"iiiiie3$$$@@@@@########eiiiiiiii",
"iiiii@$$$@@iii@@@#####=2eiiiiiii",
"iiiiii@@@iiiiiiii@@####&@iiiiiii",
"iiiiiiiiiiiiiiiiiii@@&&@iiiiiiii",
"iiiiiiiiiiiiiiiiiiii@@@iiiiiiiii",
"iiiiiiiiiiiiiiiiiiiiiiiiiiiiiiii"
};
