/* XPM */
static char *xpm_26_big[] = {
/* columns rows colors chars-per-pixel */
"32 32 55 1",
"  c #002973",
". c #00297B",
"X c #005263",
"o c #005A6B",
"O c #007B4A",
"+ c #007B5A",
"@ c #006B6B",
"# c #00008C",
"$ c #001084",
"% c #008C00",
"& c #00A500",
"* c #00BD00",
"= c #00A531",
"- c #00A539",
"; c #00AD39",
": c #10AD39",
"> c #00944A",
", c #00A542",
"< c #00A54A",
"1 c #00AD42",
"2 c #00AD4A",
"3 c #00AD52",
"4 c #00AD5A",
"5 c #00B54A",
"6 c #00B55A",
"7 c #00BD5A",
"8 c #18BD4A",
"9 c #18BD52",
"0 c #18BD5A",
"q c #00AD63",
"w c #00B563",
"e c #00B56B",
"r c #00BD63",
"t c #00BD6B",
"y c #00B57B",
"u c #21BD52",
"i c #00C66B",
"p c #00DE73",
"a c #10C66B",
"s c #18C663",
"d c #18C66B",
"f c #18C67B",
"g c #18CE73",
"h c #21C673",
"j c #29C67B",
"k c #29CE7B",
"l c #31C67B",
"z c #5ACE7B",
"x c #4AD68C",
"c c #4AD694",
"v c #4AD69C",
"b c #52C684",
"n c #7BDEAD",
"m c magenta",
"M c None",
/* pixels */
"MMMMMMMMMMMMMMMMMMMMMMMMMMMMMMMM",
"MMMMMMMMMMMMMMMMMMMpppMMMMMMMMMM",
"MMMMppppMMMMMMMMMMMxa6&MMMMMMMMM",
"MMMpvfid&MMMMMMMMMpk66&%MMMMMMMM",
"MMMpy6666&MMMMMMMMpt44%MMMMMMMMM",
"MMMM%6666&MMMMMMMMx64%MMMMMMMMMM",
"MMMMM%6eww&&MMMMMnh4%MMMMMMMMMMM",
"MMMMM%ewwwqq&%%%bl44%MMMMMMMMMMM",
"MMMMMM%wwqq444444444%MMMMMMMMMMM",
"MMMMMM&wqq444@##o3333%MMMMppppMM",
"MMMMM&wqq4444##..33331%MMpd77,,M",
"MMMMM&qq44444##..333222%pd3<,,,M",
"MMMMppq444444@##@3322222<<,,%%MM",
"MMMpcj44444433333322222<<,,%MMMM",
"MMpgt4444443.....22222<<,,%MMMMM",
"Mpgr44444433.####2222<<,,%MMMMMM",
"pdr444444333..$##22<<,,,,%MMMMMM",
"%2444444333332.##2<<,,,,,%MMMMMM",
"%4444433333222.##<,,,,,,-%MMMMMM",
"M%%%%%43333222.##,,,,,,--&%MMMMM",
"MMMMMM%132222<.##,,,,,----&&zpMM",
"MMMMMMM%1222<< ##,,-------==:upM",
"MMMMMMMM%22+#######X-----====&%M",
"MMMMMMMM*,2+#######X----%M%%&%MM",
"MMMMMMMp9,,>XXXXXXXO---%MMM%%MMM",
"MMMMMMps5,,,,,,,,,,,,-&MMMMMMMMM",
"MMMMMp0,,,%%%%%-----===pMMMMMMMM",
"MMMMM%,,,%%MMM%%%--===;8pMMMMMMM",
"MMMMMM%%%MMMMMMMM%%====&%MMMMMMM",
"MMMMMMMMMMMMMMMMMMM%%&&%MMMMMMMM",
"MMMMMMMMMMMMMMMMMMMM%%%MMMMMMMMM",
"MMMMMMMMMMMMMMMMMMMMMMMMMMMMMMMM"
};
