/* XPM */
static char *xpm_10_big[] = {
/* columns rows colors chars-per-pixel */
"32 32 185 2",
"   c black",
".  c #100000",
"X  c #100800",
"o  c #180800",
"O  c #180810",
"+  c #290800",
"@  c #291800",
"#  c #311800",
"$  c #211821",
"%  c #312110",
"&  c #101842",
"*  c #10184A",
"=  c #18184A",
"-  c #18185A",
";  c #181063",
":  c #002973",
">  c #00297B",
",  c #21185A",
"<  c #291852",
"1  c #211863",
"2  c #21186B",
"3  c #29186B",
"4  c #291873",
"5  c #21214A",
"6  c #292142",
"7  c #31295A",
"8  c #39215A",
"9  c #39295A",
"0  c #393152",
"q  c #393952",
"w  c #292173",
"e  c #392163",
"r  c #39216B",
"t  c #392963",
"y  c #392173",
"u  c #39297B",
"i  c #005263",
"p  c #523918",
"a  c #4A2139",
"s  c #4A2952",
"d  c #4A295A",
"f  c #4A315A",
"g  c #5A295A",
"h  c #5A3152",
"j  c #422163",
"k  c #422963",
"l  c #4A296B",
"z  c #422973",
"x  c #42297B",
"c  c #4A2973",
"v  c #4A297B",
"b  c #423963",
"n  c #42317B",
"m  c #52296B",
"M  c #522973",
"N  c #523163",
"B  c #52316B",
"V  c #5A396B",
"C  c #52317B",
"Z  c #52397B",
"A  c #5A3173",
"S  c #5A317B",
"D  c #63394A",
"F  c #6B395A",
"G  c #63396B",
"H  c #5A425A",
"J  c #5A4A63",
"K  c #634A42",
"L  c #7B5A5A",
"P  c #63427B",
"I  c #6B5273",
"U  c #734A6B",
"Y  c #73427B",
"T  c #7B5273",
"R  c #00008C",
"E  c #001084",
"W  c #4A2984",
"Q  c #523184",
"!  c #523984",
"~  c #5A3184",
"^  c #5A318C",
"/  c #5A3984",
"(  c #5A398C",
")  c #63318C",
"_  c #633984",
"`  c #63398C",
"'  c #633994",
"]  c #6B3194",
"[  c #6B3994",
"{  c #73399C",
"}  c #7329AD",
"|  c #7331A5",
" . c #7B39A5",
".. c #524284",
"X. c #5A428C",
"o. c #5A4294",
"O. c #63428C",
"+. c #6B4A8C",
"@. c #6B4294",
"#. c #6B4A94",
"$. c #6B4A9C",
"%. c #734284",
"&. c #734A8C",
"*. c #73429C",
"=. c #734A9C",
"-. c #73528C",
";. c #735294",
":. c #73529C",
">. c #7B529C",
",. c #734AA5",
"<. c #7B42A5",
"1. c #7352A5",
"2. c #7B52A5",
"3. c #7B5AA5",
"4. c #7B5AAD",
"5. c #7B6384",
"6. c #844252",
"7. c #844A63",
"8. c #844A73",
"9. c #845263",
"0. c #8C526B",
"q. c #8C5A6B",
"w. c #84527B",
"e. c #845A73",
"r. c #845A7B",
"t. c #8C5A73",
"y. c #8C634A",
"u. c #8C6352",
"i. c #8C6363",
"p. c #8C637B",
"a. c #94637B",
"s. c #94737B",
"d. c #A5736B",
"f. c #8439AD",
"g. c #9439B5",
"h. c #A539CE",
"j. c #8C5A94",
"k. c #844AAD",
"l. c #8C42BD",
"z. c #8C4ABD",
"x. c #8452AD",
"c. c #845AA5",
"v. c #845AAD",
"b. c #8452B5",
"n. c #8C52B5",
"m. c #8C5AB5",
"M. c #944ABD",
"N. c #9452BD",
"B. c #945ABD",
"V. c #8C6B8C",
"C. c #8C639C",
"Z. c #8C6B9C",
"A. c #946384",
"S. c #946B9C",
"D. c #9C7B8C",
"F. c #9C739C",
"G. c #8463AD",
"H. c #8C63A5",
"J. c #8C6BA5",
"K. c #8C63B5",
"L. c #A55ABD",
"P. c #9C42C6",
"I. c #9C42CE",
"U. c #9C4AC6",
"Y. c #945AC6",
"T. c #9C52C6",
"R. c #9C52CE",
"E. c #A542CE",
"W. c #A54ACE",
"Q. c #A542D6",
"!. c #A54AD6",
"~. c #AD4AD6",
"^. c #AD4ADE",
"/. c #A552C6",
"(. c #A552CE",
"). c #B542DE",
"_. c #B54ADE",
"`. c #B542E7",
"'. c #BD42E7",
"]. c #BD42EF",
"[. c magenta",
"{. c #C67B9C",
"}. c #C673AD",
"|. c gray100",
" X c None",
/* pixels */
" X X X X X X X X X X X X X X+ .  X X X X X X X X X X X X X X X X",
" X X X X X X X X X X X X X+  X X.  X X X X X X X X X X X X X X X",
" X X X X X X X X X X X X X X X X#  X X X X X X X X X X X X X X X",
" X X X X X X X X X X X X X% . + + o o +  X X X X X X X X X X X X",
" X X X X X X X X X X X X+  X X X X X X X+  X X X X X X X X X X X",
" X X X X X X X X X X+ + X   . O $ $ o .   o  X X X X X X X X X X",
" X X X X X X X&.Y a p +  X X X X X X X X X+ @ G %.0. X X X X X X",
" X X X X XA.w.h.h.] V t. X X X X X X X X X X8 #.2.>.8. X X X X X",
" X X X X Xe.W ].(.P.l.>.a. X X X X X X X X9.=.U.!.U.2.a. X X X X",
" X X X X X XU } v.z.z.G.=.7.u.d.{.}.D.s.p.#.=.U._.).R.' q. X X X",
" X X X X X X XJ :.( X.K.T. .| f.|.|.f.| { :.C #.M.E.g.S U  X X X",
" X X X X X X X Xr.9 t x.].].`.|.R R |.`.h.] Q c O.+.s D  X X X X",
" X X X X X X X X XK 7 ' `.`.|.R R > > |.`.).^ A B N h  X X X X X",
" X X X X X X X X X Xy.4 K.K.|.R R > > |.K.v.2  X X X X X X X X X",
" X X X X X X X X X X X* 2 2 2 |.R R |.' Q 2 2  X X X X X X X X X",
" X X X X X X X X X X X& 2 2 |.|.|.|.|.x 1 * *  X X X X X X X X X",
" X X X X X X X X X XI & = |.> > > > > |.; 1 e  X X X X X X X X X",
" X X X X X X X X XS.3...z |.> R R R R |., z #.5. X X X X X X X X",
" X X X X X X X XH.K.v.,.=.|.> > E R R |.Z #.K.=.Z. X X X X X X X",
" X X X X X X X=.N.n.=.~ K.Y.|.|.> R R |.2.K.T.T.B.J. X X X X X X",
" X X X X X XK.B.Q. .C M B.~.T.|.> R R |./ 2._.'.!.k.C  X X X X X",
" X X X X X=.B.).*.x y ) ].B.v.|.> R R |.M l v.~.'.h.~ C  X X X X",
" X X X X2.T.`.$.w W *.m.].B.@.|.> R R |.M l ' v.(.^.G.C C  X X X",
" X X X%.2.T.`.$.w o.T.'.].B.|.|.: R R |.|.|.l 2.(.'.'.G.u y  X X",
" X X%.c.W.I.[ 5 Q ,.T.'.m.|.R R R R R R R i |.@.x.T.'.K./ y r  X",
" X X2.G.<.) c & #.v.T.`.K.|.R R R R R R R i |.l #.B.'.^.] y 2  X",
" X X XV.P k < - 1.T.^.`.K.|.i i i i i i i |.& e ` x.T.].k.( B  X",
" X X X Xi.H 0 x 4.!.).(.K./ |.|.|.|.|.|.|.c & e C #.K.].B.=.T  X",
" X X X X X XL =.v.!.~.K.K./ ~ Q r & - n ! r & e c _ K.~.b.j. X X",
" X X X X X X XF.F.L./.G.4./ Q v 3 6 q b b f 6 d m S 4.v.;. X X X",
" X X X X X X X X X XV.C.&.%.l j g  X X X X X X6.F G %.-. X X X X",
" X X X X X X X X X X X X X X X X X X X X X X X X X X X X X X X X"
};
