/* XPM */
static char *xpm_39[] = {
/* columns rows colors chars-per-pixel */
"16 16 37 1",
"  c #101018",
". c #211821",
"X c gray13",
"o c #292129",
"O c gray16",
"+ c #312931",
"@ c #394A5A",
"# c #394A63",
"$ c #395263",
"% c #39526B",
"& c #423939",
"* c #423942",
"= c #42424A",
"- c #4A424A",
"; c gray29",
": c #425A6B",
"> c #4A5A6B",
", c #426373",
"< c #4A637B",
"1 c #526B7B",
"2 c #736B73",
"3 c gray45",
"4 c #73737B",
"5 c #426384",
"6 c #526B84",
"7 c magenta",
"8 c #8C848C",
"9 c gray55",
"0 c gray58",
"q c #9C949C",
"w c #E7DEE7",
"e c #E7E7E7",
"r c #EFE7EF",
"t c #EFEFEF",
"y c #F7EFF7",
"u c gray97",
"i c None",
/* pixels */
"iiiiiiiiiiiiiiii",
"iO............oi",
"i.i+ttyyyuue%,oi",
"i.1+rtttyyue%,oi",
"i.1+rrtttyye%,oi",
"i.1+rrtttyye%,oi",
"i.1+errrttye%,oi",
"i.1+weerrrte%,oi",
"i.1#*&***&&=%,oi",
"i.1<,,,,,,,,1,oi",
"i.1,890qq0981,oi",
"i.1,866qq0981,oi",
"i.1,865qq0981,oi",
"i >,4::23332$@;i",
"i.XXXXXXXXXXX-ii",
"iiiiiiiiiiiiiiii"
};
