/* XPM */
static char *xpm_47[] = {
/* columns rows colors chars-per-pixel */
"16 16 11 1",
"  c #8C0000",
". c #940000",
"X c #9C0000",
"o c #A50000",
"O c #AD0000",
"+ c #B50000",
"@ c #BD0000",
"# c #C60000",
"$ c #CE0000",
"% c magenta",
"& c None",
/* pixels */
"&&&&&&&&&&&&&&&&",
"&&&&&..XXo&&&&&&",
"&&& ..XXooOO&&&&",
"&&  ..XXooOO+&&&",
"&& ..X&&oOO++&&&",
"&&&.&&&&&O++@&&&",
"&&&&&&&&&++@@&&&",
"&&&&&&&&++@@#&&&",
"&&&&&&O++@@#&&&&",
"&&&&&OO++@@&&&&&",
"&&&&&O++&&&&&&&&",
"&&&&&&+@&&&&&&&&",
"&&&&&&&&&&&&&&&&",
"&&&&&@##$&&&&&&&",
"&&&&&@##$&&&&&&&",
"&&&&&&&&&&&&&&&&"
};
