/* XPM */
static char *xpm_52_big[] = {
/* columns rows colors chars-per-pixel */
"32 32 64 1",
"  c black",
". c #000800",
"X c #100810",
"o c #101010",
"O c #181018",
"+ c #181818",
"@ c #211821",
"# c gray13",
"$ c #292129",
"% c gray16",
"& c #312931",
"* c #313131",
"= c #393139",
"- c #393939",
"; c #423942",
": c gray26",
"> c #4A424A",
", c gray29",
"< c #524A52",
"1 c gray32",
"2 c #5A525A",
"3 c #5A5A5A",
"4 c #635A63",
"5 c gray39",
"6 c #6B636B",
"7 c gray42",
"8 c #736B73",
"9 c gray45",
"0 c #7B737B",
"q c #7B7B7B",
"w c #847B84",
"e c magenta",
"r c #848484",
"t c #8C848C",
"y c gray55",
"u c #948C94",
"i c gray58",
"p c #9C949C",
"a c gray61",
"s c #A59CA5",
"d c #A5A5A5",
"f c #ADA5AD",
"g c gray68",
"h c #B5ADB5",
"j c gray71",
"k c #BDB5BD",
"l c gray74",
"z c #C6BDC6",
"x c #C6C6C6",
"c c #CEC6CE",
"v c #CECECE",
"b c #D6CED6",
"n c gray84",
"m c #DED6DE",
"M c gray87",
"N c #E7DEE7",
"B c #E7E7E7",
"V c #EFE7EF",
"C c #EFEFEF",
"Z c #F7EFF7",
"A c gray97",
"S c #FFF7FF",
"D c gray100",
"F c None",
/* pixels */
"FFFFFFFFFFFFDDDDDDDDFFFFFFFFFFFF",
"FFFFFFFFFDDDDDDDDDDDDDDFFFFFFFFF",
"FFFFFFFDDDll5z7DDDDDDDDDDFFFFFFF",
"FFFFFFDBDDMclduNppDDDDDDDDFFFFFF",
"FFFFFDzyDDVrk:*0D:DDDDDDDDDFFFFF",
"FFFFDD6C;;,kDDq%D=ZDDVDDDDDDFFFF",
"FFFDDD9DM8XsDDx p,bDq0DDDDDDDFFF",
"FFDzDD9DDDZ2hm6tX p>azDDDDDDDDFF",
"FFDsDD7DDDDh;:cDu   ,-DDSy;$7DFF",
"FDDjkDwtDDDd kDDx  7mDDM;VDZmDDF",
"FDDDppC XaDw0DDDt $DDDD3xDDDDDDF",
"FDDDDwD4k5+.pDDD3 6DDD<=SDDDDDDF",
"DDDDD<y8DDl@ObDk $SDDkXbDDDSagDD",
"DDDw,6:1DDDA>+8  fMxq$*DDDf:azDD",
"DDDDDDS3=CDDb   +mOdnv<DDS@CDDDD",
"DDDDDDDDf#nDD>  @-5DDM1DDp-DDDDD",
"DD9cDDDDDu5DD4   XvDDn2DZ#aDDDDD",
"DDNw>DDDDZXvZ&   uDDD8 <%OADDDDD",
"DDDDt=djka#.o    kDDf  *6BDDDDDD",
"DDDDDy           4Dr  9DDDDDDDDD",
"FDDDDDq6as6o      o  2DDDDDDDDDF",
"FDDDDDDDDDDDz      &pDDDDDDDDDDF",
"FDDDDDDDDDDDDo    #SDDDDDDDDDDDF",
"FFDDDDDDDDDDD>    5DDDDDDDDDDDFF",
"FFDDDDDDDDDDDc    iDDDDDDDDDDDFF",
"FFFDDDDDDDDDDDo   fDDDDDDDDDDFFF",
"FFFFDDDDDDDDDDo   jDDDDDDDDDFFFF",
"FFFFFDDDDDDDDD1   nDDDDDDDDFFFFF",
"FFFFFFDDDDDDDD1   nDDDDDDDFFFFFF",
"FFFFFFFDDDDDDD=..&VDDDDDDFFFFFFF",
"FFFFFFFFFDDDDDDDDDDDDDDFFFFFFFFF",
"FFFFFFFFFFFFDDDDDDDDFFFFFFFFFFFF"
};
