/* XPM */
static char *xpm_27[] = {
/* columns rows colors chars-per-pixel */
"16 16 32 1",
"  c black",
". c gray3",
"X c #101010",
"o c #181818",
"O c gray13",
"+ c gray16",
"@ c #313131",
"# c #393939",
"$ c gray26",
"% c gray32",
"& c #5A5A5A",
"* c gray39",
"= c gray42",
"- c gray45",
"; c #7B7B7B",
": c magenta",
"> c #848484",
", c gray58",
"< c gray61",
"1 c #A5A5A5",
"2 c gray68",
"3 c gray71",
"4 c gray74",
"5 c #C6C6C6",
"6 c #CECECE",
"7 c gray84",
"8 c gray87",
"9 c #E7E7E7",
"0 c #EFEFEF",
"q c gray97",
"w c gray100",
"e c None",
/* pixels */
"eeeeeeeeeeeeeeee",
"eeeeeeeeeeeeeeee",
"++++++++++++++++",
"+O5wOw q,*ww ww-",
"O5<w$w q,5w-;w  ",
"Oo28q9 q,5wo w  ",
"Xw1q<0 q,>-w ww ",
"o5q#;q q,>o<5w  ",
">8q.;q q,-wX0w  ",
">8q <3q8>X6w ww4",
">===7=&==5=%==&<",
"0ww>ww&wwww>ww@6",
"+OooOoOoXoXOXXOO",
"eeeeeeeeeeeeeeee",
"eeeeeeeeeeeeeeee",
"eeeeeeeeeeeeeeee"
};
