/* XPM */
static char *xpm_18[] = {
/* columns rows colors chars-per-pixel */
"16 16 53 1",
"  c #291000",
". c #7B4A42",
"X c #7B4A4A",
"o c #7B524A",
"O c #736B73",
"+ c #7B6373",
"@ c #844A39",
"# c #944A31",
"$ c #944A39",
"% c #9C4A39",
"& c #9C5239",
"* c #844A4A",
"= c #9C4A42",
"- c #94524A",
"; c #9C5242",
": c #9C635A",
"> c #846B73",
", c #94737B",
"< c #A55242",
"1 c #AD635A",
"2 c #BD634A",
"3 c #BD6B52",
"4 c #A56B63",
"5 c #A56B6B",
"6 c #AD7B73",
"7 c #BD6B63",
"8 c #B5736B",
"9 c #B57B6B",
"0 c #C66B52",
"q c #D67B5A",
"w c #9C7B8C",
"e c magenta",
"r c #C68473",
"t c #CE8473",
"y c #DE8463",
"u c #8C848C",
"i c #9C848C",
"p c #AD9494",
"a c #B59494",
"s c #BD9494",
"d c #BD9C94",
"f c #C6A594",
"g c #CEA594",
"h c #E7D6E7",
"j c #E7DEE7",
"k c #EFDEEF",
"l c #EFE7EF",
"z c #F7E7F7",
"x c #F7EFF7",
"c c #FFEFFF",
"v c #FFF7FF",
"b c gray100",
"n c None",
/* pixels */
"nnnnnnnnnnnnnnnn",
"nuuuuuuuuuuuuuun",
"nuhjjkllzzxxcvun",
"nuj  #;;=%X  vun",
"nujjk%1857*cvvuO",
"nuj  %9gar*  vuO",
"nujkl%9fsr*vvvuO",
"nuk  &9dat. vvuO",
"nukll:,pirovvvuO",
"nuk  ;6iwt*  buO",
"nulll&4>+r*vbbuO",
"nullz$qyyq@vvbuO",
"nul  <0223-  buO",
"nulzzxxcvvvbbbuO",
"nuuuuuuuuuuuuuuO",
"nnOOOOOOOOOOOOOO"
};
