/* XPM */
static char *xpm_16_big[] = {
/* columns rows colors chars-per-pixel */
"32 32 41 1",
"  c black",
". c #007321",
"X c #005A5A",
"o c #085A5A",
"O c #086363",
"+ c #106363",
"@ c #10636B",
"# c #106B6B",
"$ c #186B73",
"% c #186B7B",
"& c #18737B",
"* c #21737B",
"= c gray32",
"- c #4A637B",
"; c gray39",
": c #7B7B7B",
"> c #217384",
", c #217B84",
"< c #297B84",
"1 c #297B8C",
"2 c #29848C",
"3 c #298494",
"4 c #318494",
"5 c magenta",
"6 c #848484",
"7 c gray61",
"8 c #9CCEC6",
"9 c #A5CEC6",
"0 c #A5D6C6",
"q c #A5D6CE",
"w c #ADD6CE",
"e c #B5D6CE",
"r c #B5DECE",
"t c #B5DED6",
"y c #BDDED6",
"u c #C6C6C6",
"i c #C6DED6",
"p c #C6DEDE",
"a c #C6E7DE",
"s c #E7E7E7",
"d c None",
/* pixels */
"dddddddddddddddddddddddddddddddd",
"dpiyyyyyytttreewwwwwwqq00008888d",
"dpiyyyyyytttreewwwwwwqq00008888d",
"dpiyyOyyytttrrOwwwwwwqq0000888Od",
"dpiyy+yyyttttr+wwwwwwq .000888+d",
"dpiyy@yyyttttr@wwwwwww .000988@d",
"d#iyy#yyyy#ttr#ew#wwww .00#988#d",
"d$piy$yyyy$ttr$ew$wwww .00$988$d",
"d$piy$yyyy$ tr$ew$wwww .00$088$d",
"d&pi&&&y&y& tr&ew&ww&w .&0&088&d",
"d*pi*** *y* tr*ew*ww*w .*0*088*d",
"d<<i<<< <yX   <e<<<w<w .<0<08<<d",
"d11i111 Xy    1e111w1w .1010911d",
"d22i22X      22e222w2w .2020922d",
"d44p4       844e444w4w .4040944d",
"d44p4   4y4 844e444w4w .4040044d",
"d------ --- ---------- .-------d",
"da111yX y11 X1r1ew1128 .q334448d",
"da,,,yX y<8   r1ew1118 .q101238d",
"da>>>yX y     t,ew1118 .q101118d",
"da***yX     X>trew,,,0 .q<01118d",
"da&&*     y **treeX ;  .q,0,,,8d",
"daa%p   yyy **trX ;;;  .q00>>>8d",
"daa$pi$ yyy %&t =6:=   wq00***8d",
"daa$pi$ yyy$$$t 7s;   Xwqq0&**8d",
"daappiy yyyy$tX=u6   Xwwqq00%08d",
"daappiy$yyyy#tX=;;  Xwwwqq00$08d",
"daappiy@yyyy@tt   Xwwwwwqq00$08d",
"daaapiyOyyyyytttreewwwwwwq00009d",
"daaappioyyyyytttreewwwwwwq00009d",
"daaappiyyyyyytttreewwwwwwq00000d",
"dddddddddddddddddddddddddddddddd"
};
