/* XPM */
static char *xpm_12[] = {
/* columns rows colors chars-per-pixel */
"16 16 98 2",
"   c black",
".  c #000800",
"X  c #101000",
"o  c #101010",
"O  c #002900",
"+  c #102100",
"@  c #102900",
"#  c #212900",
"$  c #293110",
"%  c #293918",
"&  c #313100",
"*  c #393910",
"=  c #313931",
"-  c #005200",
";  c #005A00",
":  c #104200",
">  c #104A00",
",  c #184A00",
"<  c #105200",
"1  c #185A00",
"2  c #006300",
"3  c #106B00",
"4  c #107300",
"5  c #107B00",
"6  c #214A00",
"7  c #294A10",
"8  c #215200",
"9  c #215A00",
"0  c #295A10",
"q  c #315A10",
"w  c #395A18",
"e  c #216300",
"r  c #216B10",
"t  c #217B00",
"y  c #217B10",
"u  c #396B10",
"i  c #397310",
"p  c #424210",
"a  c #427318",
"s  c #427B10",
"d  c #526318",
"f  c #5A7318",
"g  c #635A18",
"h  c #636B18",
"j  c #637B18",
"k  c #6B7B18",
"l  c #737318",
"z  c #737B18",
"x  c #218410",
"c  c #218C10",
"v  c #428410",
"b  c #4A8410",
"n  c #4A8418",
"m  c #4A8C10",
"M  c #4A8C18",
"N  c #529418",
"B  c #529C10",
"V  c #529C18",
"C  c #52A518",
"Z  c #5AA518",
"A  c #6B8418",
"S  c #7B8C18",
"D  c #6B8421",
"F  c #738421",
"G  c #738C21",
"H  c #7B8421",
"J  c #7B9421",
"K  c #7B9C21",
"L  c magenta",
"P  c #848418",
"I  c #948C10",
"U  c #84A521",
"Y  c #8CA521",
"T  c #8CAD21",
"R  c #94B529",
"E  c #9CBD29",
"W  c #9CBD31",
"Q  c #A5A518",
"!  c #A5AD29",
"~  c #ADBD21",
"^  c #A5CE31",
"/  c #ADCE31",
"(  c #ADD631",
")  c #C6C621",
"_  c #C6D621",
"`  c #CED629",
"'  c #CEDE29",
"]  c #CEDE31",
"[  c #DEDE21",
"{  c #D6DE31",
"}  c #D6E731",
"|  c #E7DE21",
" . c #E7E729",
".. c #EFE729",
"X. c #EFEF31",
"o. c #F7EF31",
"O. c #F7F739",
"+. c None",
/* pixels */
"+.+.+.+.+.+.+.+.+.+.+.+.+.+.+.+.",
"+.+.+.+.+.+.. . . = +.+.+.+.+.+.",
"+.+.+.  $ f W K s B q % o +.+.+.",
"+.+.  D ( / / J s Z Z C a o +.+.",
"+.X ! H R / ^ J s Z Z m 8 r . +.",
"+.h } ' S T ^ J s Z b 9 c x , +.",
". ] ' ' _ h W J s N 6 c c x t . ",
"* { ' ` _ ~ k F u 0 y c x x x @ ",
"g I I I I I I & @ ; 2 ; ; ; - O ",
"p O.o. .| ) z A i e 4 5 5 4 4 O ",
"  X.X. .[ h R G s V , 5 4 4 3 . ",
"+.l ..| P U E D i V s < 4 4 : +.",
"+.  Q P Y E R D i N N s > 1 . +.",
"+.+.  j E R R D u N M n w o +.+.",
"+.+.+.  # d K j u v 7 +   +.+.+.",
"+.+.+.+.+.+.        +.+.+.+.+.+."
};
