/* XPM */
static char *xpm_14_big[] = {
/* columns rows colors chars-per-pixel */
"32 32 211 2",
"   c #291000",
".  c #311818",
"X  c #391818",
"o  c #18184A",
"O  c #181852",
"+  c #181063",
"@  c #18215A",
"#  c #182163",
"$  c #211852",
"%  c #21185A",
"&  c #29185A",
"*  c #291863",
"=  c #292952",
"-  c #312152",
";  c #31215A",
":  c #39215A",
">  c #29316B",
",  c #312163",
"<  c #31216B",
"1  c #392963",
"2  c #39296B",
"3  c #31217B",
"4  c #392173",
"5  c #522939",
"6  c #422163",
"7  c #42216B",
"8  c #4A2163",
"9  c #4A216B",
"0  c #422173",
"q  c #42297B",
"w  c #4A2973",
"e  c #4A297B",
"r  c #42316B",
"t  c #4A316B",
"y  c #4A317B",
"u  c #4A397B",
"i  c #5A2963",
"p  c #522973",
"a  c #52297B",
"s  c #5A396B",
"d  c #52317B",
"f  c #5A317B",
"g  c #5A397B",
"h  c #6B315A",
"j  c #633973",
"k  c #6B3973",
"l  c #73397B",
"z  c #5A5273",
"x  c #634A5A",
"c  c #634A73",
"v  c #6B4A7B",
"b  c #734A7B",
"n  c #7B4A7B",
"m  c #736373",
"M  c #736B73",
"N  c #4A2984",
"B  c #4A3184",
"V  c #4A3994",
"C  c #522984",
"Z  c #52298C",
"A  c #5A298C",
"S  c #523184",
"D  c #5A3184",
"F  c #5A318C",
"G  c #5A3984",
"H  c #5A398C",
"J  c #5A3994",
"K  c #633184",
"L  c #63318C",
"P  c #633984",
"I  c #63398C",
"U  c #6B3984",
"Y  c #6B398C",
"T  c #633994",
"R  c #6B3994",
"E  c #73319C",
"W  c #6B39A5",
"Q  c #7B39AD",
"!  c #4A429C",
"~  c #5A4284",
"^  c #63428C",
"/  c #6B428C",
"(  c #634A94",
")  c #6B4294",
"_  c #6B4A9C",
"`  c #734284",
"'  c #73428C",
"]  c #734A84",
"[  c #734A8C",
"{  c #7B428C",
"}  c #73429C",
"|  c #734A9C",
" . c #7B4A9C",
".. c #7B5A8C",
"X. c #7B5294",
"o. c #7B5A94",
"O. c #7342A5",
"+. c #734AA5",
"@. c #7B42A5",
"#. c #7B4AA5",
"$. c #7352A5",
"%. c #7B52A5",
"&. c #7B52AD",
"*. c #7B5AAD",
"=. c #8439A5",
"-. c #8439AD",
";. c #8C39AD",
":. c #8C31BD",
">. c #8C39B5",
",. c #8C39BD",
"<. c #9C39C6",
"1. c #9C39CE",
"2. c #A539C6",
"3. c #A539D6",
"4. c #84428C",
"5. c #844294",
"6. c #84528C",
"7. c #84529C",
"8. c #8C5A9C",
"9. c #8442A5",
"0. c #844AA5",
"q. c #844AAD",
"w. c #844AB5",
"e. c #8C42B5",
"r. c #8C42BD",
"t. c #8C4AB5",
"y. c #8452A5",
"u. c #8452AD",
"i. c #845AAD",
"p. c #8C52AD",
"a. c #8C5AAD",
"s. c #845AB5",
"d. c #8C52B5",
"f. c #8C52BD",
"g. c #8C5ABD",
"h. c #9C4AA5",
"j. c #9C4AAD",
"k. c #944ABD",
"l. c #9C42BD",
"z. c #9452BD",
"x. c #9C52BD",
"c. c #846B9C",
"v. c #8C6394",
"b. c #847B84",
"n. c #847B9C",
"m. c #946384",
"M. c #94739C",
"N. c #9C739C",
"B. c #9C7B9C",
"V. c #8C6BA5",
"C. c #9463A5",
"Z. c #946BAD",
"A. c #946BB5",
"S. c #9C73AD",
"D. c #A57B8C",
"F. c #A57B9C",
"G. c #9C42C6",
"H. c #9C4AC6",
"J. c #9C4ACE",
"K. c #9452C6",
"L. c #9C52C6",
"P. c #9C73C6",
"I. c #A542CE",
"U. c #A54ACE",
"Y. c #AD42CE",
"T. c #A542D6",
"R. c #AD42D6",
"E. c #AD42DE",
"W. c #AD4AD6",
"Q. c #A552C6",
"!. c #B54AC6",
"~. c #B542E7",
"^. c #A573C6",
"/. c magenta",
"(. c #9C8C9C",
"). c #9C8CA5",
"_. c #A58C9C",
"`. c #AD9C94",
"'. c #A594AD",
"]. c #A59CA5",
"[. c #B59CAD",
"{. c #B59CBD",
"}. c #BDA5B5",
"|. c #BDADBD",
" X c #BDB5BD",
".X c #ADADC6",
"XX c #B5ADCE",
"oX c #B5B5C6",
"OX c #C6ADBD",
"+X c #CEB5C6",
"@X c #CEBDD6",
"#X c #DEC6C6",
"$X c #D6CED6",
"%X c #EFC6D6",
"&X c #E7DEDE",
"*X c #E7D6E7",
"=X c #E7DEE7",
"-X c #E7DEEF",
";X c #EFDEEF",
":X c #E7E7E7",
">X c #E7E7EF",
",X c #EFE7EF",
"<X c #EFE7F7",
"1X c #EFEFF7",
"2X c #F7EFEF",
"3X c #F7E7F7",
"4X c #F7EFF7",
"5X c #FFEFFF",
"6X c #FFF7FF",
"7X c gray100",
"8X c None",
/* pixels */
"8X8X8X8X8X8X8X8X8X8X8X8X8X8X8X8X8X8X8X8X8X8X8X8X8X8X8X8X8X8X8X8X",
"8Xb.].].].].].].].].].].].].].].].].].].].].].].].].].].].b.8X8X",
"8X].$X*X*X*X=X=X=X=X;X;X;X;X,X,X,X3X3X3X3X4X4X4X4X5X5X5X$X].8X8X",
"8X]. X            }.;X;X;X,X,X=X      }.4X=X             X].8X8X",
"8X]. X            }.;X;X;X,X,X=X      }.4X=X             X].M 8X",
"8X].*X*X*X=X2X8.l 5 `.;X,X,X,X,X3X3X3X1XM.` m.4X5X5X5X6X*X].M 8X",
"8X].*X*X=X+Xn 2.<.E ] +X,X,X,X3X3X3X3X).Y w.0.N.2X5X6X6X*X].M 8X",
"8X]. XX     ..:.z.r.q.6.  }.#X%X      [ t.W.I.0.F.  6X6X*X].M 8X",
"8X]. XX       [  .) %.d.5.4.h.!.j.5.{ / } l.Y.-.k   6X6X*X].M 8X",
"8X].*X=X=X=X;X:Xb 1 ^ I.E.3.=.:.I.3.>.L d Y ' i _.6X6X6X*X].M 8X",
"8X].*X=X=X;X;X;X&Xx d 1.E.f.) f | Q.E.-.P v v B.6X6X6X6X*X].M 8X",
"8X]. X              c J _ _ T R  .&.+.B XX=X          X *X].M 8X",
"8X]. X              n.% * 4 Z R R F 4 % .X=X          X *X].M 8X",
"8X].*X=X;X;X;X;X,X=Xz O $ < B ! V < + & oX5X6X7X6X6X6X6X*X].M 8X",
"8X].*X;X;X;X;X,X4XS.~ 2 o O # > > @ * y c.1X6X6X6X6X6X7X*X].M 8X",
"8X]. X          Z.i.#.} g u u u u u G $.%.V.        6X6X*X].M 8X",
"8X]. X        a.k.@.I %.K.g.s.s.s.$.+.f.J.L.Z.      6X6X*X].M 8X",
"8X].*X;X;X-X^.H.>.A a e.H.d.| ) %.) D 9.R.E.;.X.=X6X6X7X*X].M 8X",
"8X].*X;X<XP.H.e.N C R T.z.} K p P D p D t.U.G./ o.-X6X7X*X].M 8X",
"8X]. X4XZ.d.E.O.3 W J.~.z.I f 7 w d D f ) x.E.H.^ (     *X].M 8X",
"8X]. X8.p.G.Q 1 F q.W.L.s.T D 4 0 G P p G 0.J.W._ q u   *X].M 8X",
"8X].*XA.7.Y w $ | d.R.K.+.K D , , S P 6 : I z.E.,.N < 7X*X].M 8X",
"8X].*X,X(.s : , &.U.R.z.^ D a ; % e G , & f #.J.I.} j 7X*X].M 8X",
"8X]. X      m P u.R.U.g.H D e & % y S ; & w ) K.J.y.  =X*X].M 8X",
"8X]. X        M.C.Q.z.*.H C 0 $ = r t - - 9 P i.u.    =X*X].M 8X",
"8X].*X,X3X3X3X4X4X@Xv.X.U 9 8 '.:X>X>X:XD.h k [ {.7X7X7X*X].M 8X",
"8X].*X,X3X3X3X4X4X4X4X5X5X5X5X6X6X6X6X6X6X6X7X7X7X7X7X7X*X].M 8X",
"8X]. X                    }.6X}.      }.6X=X        OX7X$X].M 8X",
"8X]. X                    }.6X[.      }.6X=X      . =X7X$X].M 8X",
"8X].|.4X4X4X4X4X4X4X4X4X4X4X4X7X7X7X7X7X7X7X7X7X7X7X7X7X|.].M 8X",
"8Xb.].].].].].].].].].].].].].].].].].].].].].].].].].].].b.M 8X",
"8X8X8X8XM M M M M M M M M M M M M M M M M M M M M M M M M M 8X8X"
};
