/* XPM */
static char *xpm_42[] = {
/* columns rows colors chars-per-pixel */
"16 16 53 1",
"  c #002973",
". c #00297B",
"X c #005221",
"o c #005229",
"O c #005A29",
"+ c #006B18",
"@ c #007B00",
"# c #007318",
"$ c #006329",
"% c #004242",
"& c #00424A",
"* c #004A4A",
"= c #004A52",
"- c #000894",
"; c #00089C",
": c #001894",
"> c #00189C",
", c #0008A5",
"< c #0008AD",
"1 c #0008B5",
"2 c #0008BD",
"3 c #002984",
"4 c #008400",
"5 c #398418",
"6 c #398C18",
"7 c #4A9C00",
"8 c #429410",
"9 c #529C00",
"0 c #4AA500",
"q c #52A500",
"w c #5AA500",
"e c #73AD00",
"r c #73B500",
"t c #73BD00",
"y c magenta",
"u c #84AD00",
"i c #84BD00",
"p c #8CBD00",
"a c #94BD00",
"s c #9CC600",
"d c #A5C600",
"f c #A5CE00",
"g c #ADCE00",
"h c #ADD600",
"j c #B5D600",
"k c #C6C600",
"l c #CECE00",
"z c #D6D600",
"x c #DEDE00",
"c c #E7E700",
"v c #EFEF00",
"b c #F7F700",
"n c None",
/* pixels */
"nnnnnnnnnnnnnnnn",
"nbbvcxjhgfptrrrn",
"nbbcxzhgfdptrrrn",
"nbvczlhgfdprrrrn",
"nbcxzkgfddirrren",
"nssapuwqq986665n",
"n0q07744@@#$$OOn",
"n0007744@@#$OOOn",
"n007774@@@+$OOon",
"n00777@@@@+OOOXn",
"n==***33..>21<,n",
"n==**&33..:1<,,n",
"n=***%3.. :1<,;n",
"n=**&%3.. :<,;-n",
"n====%33..:<;;;n",
"nnnnnnnnnnnnnnnn"
};
