/* XPM */
static char *xpm_40[] = {
/* columns rows colors chars-per-pixel */
"16 16 90 1",
"  c black",
". c #000010",
"X c #000839",
"o c #001031",
"O c #101831",
"+ c #003900",
"@ c #003910",
"# c #002129",
"$ c #002929",
"% c #292129",
"& c #292931",
"* c #312131",
"= c #000042",
"- c #00004A",
"; c #000052",
": c #00005A",
"> c #000852",
", c #001852",
"< c #000063",
"1 c #00006B",
"2 c #000073",
"3 c #00007B",
"4 c #393152",
"5 c #004200",
"6 c #294A10",
"7 c #215200",
"8 c #215A00",
"9 c #295A00",
"0 c #295A18",
"q c #314A29",
"w c #396B00",
"e c #4A0000",
"r c #421010",
"t c #5A0800",
"y c #521000",
"u c #522121",
"i c #6B0000",
"p c #6B0800",
"a c #730000",
"s c #6B3121",
"d c #4A5200",
"f c #525221",
"g c #5A6B10",
"h c #7B4A31",
"j c #737329",
"k c gray26",
"l c #7B737B",
"z c #5A8421",
"x c #73944A",
"c c #840000",
"v c #940800",
"b c #8C2900",
"n c #A50800",
"m c #B50800",
"M c #BD1000",
"N c #BD1818",
"B c #8C3942",
"V c #9C4A18",
"C c #844229",
"Z c #9C5A29",
"A c #AD4A39",
"S c #845A4A",
"D c #B54A4A",
"F c #A56B42",
"G c #AD6B6B",
"H c #AD7373",
"J c #C62118",
"K c #CE5242",
"L c #D65A5A",
"P c #C67352",
"I c #DE6B52",
"U c #D66B6B",
"Y c #D67B73",
"T c #E75A52",
"R c #E7735A",
"E c #E77B5A",
"W c #E77363",
"Q c #F77B6B",
"! c #FF7B63",
"~ c #FF7B6B",
"^ c magenta",
"/ c #94AD7B",
"( c #CE847B",
") c #EF846B",
"_ c #8C948C",
"` c #9C8484",
"' c #A58484",
"] c #BD8C8C",
"[ c #EF948C",
"{ c None",
/* pixels */
"{{{{{{{{{{{{{{{{",
"{{{MMaG{{{{{{{{{",
"{{UMMmi'{{{{{{{{",
"{{LKTAvi{{{McB{{",
"{{{D~[V]{{NJna`{",
"{{{EY(Z{{{{QWbH{",
"{{{{!I{{{{{)PF{{",
"{{{/0d_{{{{{R{{{",
"{{z7@6#8{{{qgO{{",
"{{w531-95{w$3X8{",
"{xf,3--+j{r12-4{",
"{{u><--o*{{11;-{",
"{{{22<:={{{.&%l{",
"{{{  %%k{{{h{s{{",
"{{{C{{S{{{{{{{{{",
"{{pt{eey{{{{{{{{"
};
