/* XPM */
static char *xpm_56[] = {
/* columns rows colors chars-per-pixel */
"16 16 67 1",
"  c gray3",
". c #313100",
"X c #213931",
"o c #393929",
"O c #296B08",
"+ c #316B5A",
"@ c #73395A",
"# c #7B3163",
"$ c #4A4A18",
"% c #5A6321",
"& c #735218",
"* c #734A21",
"= c #7B4A29",
"- c #52427B",
"; c #738452",
": c #7B847B",
"> c #BD3921",
", c #842963",
"< c #844A21",
"1 c #8C4A21",
"2 c #8C5221",
"3 c #8C5229",
"4 c #944A21",
"5 c #9C4A21",
"6 c #9C5221",
"7 c #946339",
"8 c #947B39",
"9 c #A55221",
"0 c #A55229",
"q c #A55A29",
"w c #AD5221",
"e c #AD5A21",
"r c #8C7B4A",
"t c #9C7B42",
"y c #A57B4A",
"u c #B57B42",
"i c #DE3929",
"p c #F77B31",
"a c magenta",
"s c #9C9C00",
"d c #849C63",
"f c #AD844A",
"g c #B5844A",
"h c #B59452",
"j c #BDAD63",
"k c #BDB563",
"l c #B5BD73",
"z c #C6B56B",
"x c #CEBD6B",
"c c #CEBD73",
"v c #CECE63",
"b c #CEC673",
"n c #CECE73",
"m c #CECE7B",
"M c #D6C67B",
"N c #D6CE7B",
"B c #D6D67B",
"V c #DED684",
"C c #DEDE84",
"Z c #E7DE84",
"A c #E7E78C",
"S c #EFE78C",
"D c #EFEF8C",
"F c #EFEF94",
"G c #F7F794",
"H c #FFFF9C",
"J c None",
/* pixels */
"JJJJJJJJJJJJJJJJ",
"JJssss JJJJJJJJJ",
"JNVZSGH JJJJJJJJ",
"vvvvvvvvsssssssJ",
"mmBBCCZAADFcSHH ",
"mmBBCVzfghM7DHH ",
"mmBBB8O&6<:SGHH ",
"mmBNr+%21X=xGHH.",
"mmBk@-14o*fGGHH.",
"mmBj#,54y1SGGHH.",
"mmBN3i>990uFGHH.",
"mmBBb<wpeq0zGHH.",
"mmBBd;t442hSGHH.",
"nmBBlCZVcAFGGHH.",
"...............$",
"JJJJJJJJJJJJJJJJ"
};
