/* XPM */
static char *xpm_9[] = {
/* columns rows colors chars-per-pixel */
"16 16 25 1",
"  c black",
". c #291000",
"X c #525200",
"o c #7B7B39",
"O c #736B73",
"+ c magenta",
"@ c #CECE00",
"# c #D6D600",
"$ c #D6DE00",
"% c #DEE700",
"& c #E7E700",
"* c #EFEF00",
"= c #F7F700",
"- c #8C848C",
"; c #BDA5B5",
": c #E7D6E7",
"> c #E7DEE7",
", c #EFDEEF",
"< c #EFE7EF",
"1 c #F7E7F7",
"2 c #F7EFF7",
"3 c #FFEFFF",
"4 c #FFF7FF",
"5 c gray100",
"6 c None",
/* pixels */
"6666666666666666",
"6--------------6",
"6-:>>,<<1XXXX4-6",
"6->..;<.X===X4-6",
"6->>,<<1X**$X4-O",
"6->...XXX%**X4-O",
"6->,<<X@#&XX44-O",
"6-,...X@#XX.44-O",
"6-,<<<X##X4444-O",
"6-,.XX##oX4..5-O",
"6-<<X##XX44455-O",
"6-<<X#X2344445-O",
"6-<. # .3.4..5-O",
"6-<<1X23444555-O",
"6--------------O",
"66OOOOOOOOOOOOOO"
};
