/* XPM */
static char *xpm_4[] = {
/* columns rows colors chars-per-pixel */
"16 16 24 1",
"  c #181821",
". c #212129",
"X c #393942",
"o c gray26",
"O c #4A424A",
"+ c #5A5A5A",
"@ c #6B6B73",
"# c #736B73",
"$ c gray45",
"% c #7B7B7B",
"& c magenta",
"* c #848484",
"= c #84848C",
"- c gray55",
"; c gray58",
": c gray74",
"> c #C6C6C6",
", c #CECECE",
"< c gray84",
"1 c gray87",
"2 c #E7E7E7",
"3 c #EFEFEF",
"4 c gray97",
"5 c None",
/* pixels */
"5555555555555555",
"5.++++++++++++.5",
"5++1222334442++5",
"5+>o;;;;;=%;o2+5",
"5+1$,111112,#4+5",
"5+1%<1223332%4+5",
"5+<%<1122331%4+5",
"5+<%<1122231%4+5",
"5+,%<<<12221%3+5",
"5+,%<<<11221%3+5",
"5+,%<<<11121%2+5",
"5+,$><<<<<1,@2+5",
"5+:O***--%$*X,+5",
"5++:,,,<<111,++5",
"5 ++++++++++++ 5",
"5555555555555555"
};
