/* XPM */
static char *xpm_56_big[] = {
/* columns rows colors chars-per-pixel */
"32 32 144 2",
"   c black",
".  c gray3",
"X  c #183129",
"o  c #103931",
"O  c #103939",
"+  c #313100",
"@  c #213121",
"#  c #293129",
"$  c #293929",
"%  c #213931",
"&  c #184239",
"*  c #007B00",
"=  c #316308",
"-  c #396B10",
";  c #087B7B",
":  c #107B7B",
">  c #296B63",
",  c #316363",
"<  c #733918",
"1  c #7B314A",
"2  c #7B3152",
"3  c #732963",
"4  c #733163",
"5  c #5A5A10",
"6  c #4A4229",
"7  c #5A4A31",
"8  c #526310",
"9  c #5A6318",
"0  c #427321",
"q  c #526339",
"w  c #7B4218",
"e  c #735218",
"r  c #6B4229",
"t  c #635A39",
"y  c #6B5A39",
"u  c #7B4221",
"i  c #7B4A21",
"p  c #7B4A29",
"a  c #7B5229",
"s  c #5A5A5A",
"d  c #426B5A",
"f  c #635A42",
"g  c #317384",
"h  c #6B08A5",
"j  c #6B08B5",
"k  c #6300C6",
"l  c #6B10C6",
"z  c #6B845A",
"x  c #BD3929",
"c  c #843942",
"v  c #8C3942",
"b  c #844218",
"n  c #845218",
"m  c #844221",
"M  c #844A21",
"N  c #844A29",
"B  c #8C4A21",
"V  c #845229",
"C  c #8C5229",
"Z  c #944A21",
"A  c #9C4A21",
"S  c #945221",
"D  c #945229",
"F  c #9C5221",
"G  c #8C6331",
"H  c #8C6B39",
"J  c #946331",
"K  c #946B39",
"L  c #9C6331",
"P  c #9C6B39",
"I  c #9C7339",
"U  c #9C7B39",
"Y  c #A55218",
"T  c #A54221",
"R  c #A54A21",
"E  c #A55221",
"W  c #A55229",
"Q  c #A55A29",
"!  c #AD5221",
"~  c #AD5A29",
"^  c #B54229",
"/  c #B55A21",
"(  c #B55A29",
")  c #A56331",
"_  c #BD6321",
"`  c #8C6B4A",
"'  c #8C7342",
"]  c #A57342",
"[  c #C62918",
"{  c #DE3929",
"}  c #E72921",
"|  c #E73931",
" . c #FF3129",
".. c #C66329",
"X. c #CE6321",
"o. c #F77329",
"O. c #F77B29",
"+. c #FF7B31",
"@. c magenta",
"#. c #9C9C00",
"$. c #9C844A",
"%. c #8C9C63",
"&. c #949463",
"*. c #94A563",
"=. c #A58C4A",
"-. c #AD8C4A",
";. c #A58C52",
":. c #AD9452",
">. c #AD9C52",
",. c #AD9C5A",
"<. c #BDA55A",
"1. c #B5AD63",
"2. c #FF8431",
"3. c #C6AD63",
"4. c #C6AD73",
"5. c #C6B56B",
"6. c #C6BD6B",
"7. c #CEB56B",
"8. c #CEBD6B",
"9. c #CEBD73",
"0. c #CECE63",
"q. c #CEC673",
"w. c #CEC67B",
"e. c #CECE73",
"r. c #CECE7B",
"t. c #D6C673",
"y. c #D6C67B",
"u. c #D6CE7B",
"i. c #D6D67B",
"p. c #8C9484",
"a. c #9CB5B5",
"s. c #D6D684",
"d. c #DED684",
"f. c #DEDE84",
"g. c #E7D684",
"h. c #E7DE84",
"j. c #E7E78C",
"k. c #EFE78C",
"l. c #EFEF8C",
"z. c #EFEF94",
"x. c #F7F794",
"c. c #F7F79C",
"v. c #FFFF9C",
"b. c None",
/* pixels */
"b.b.b.b.b.b.b.b.b.b.b.b.b.b.b.b.b.b.b.b.b.b.b.b.b.b.b.b.b.b.b.b.",
"b.b.b.b.b.b.b.b.b.b.b.b.b.b.b.b.b.b.b.b.b.b.b.b.b.b.b.b.b.b.b.b.",
"b.b.b.b.b.b.b.b.b.b.b.b.b.b.b.b.b.b.b.b.b.b.b.b.b.b.b.b.b.b.b.b.",
"b.b.b.b.#.#.#.#.#.#.#.#.#.. b.b.b.b.b.b.b.b.b.b.b.b.b.b.b.b.b.b.",
"b.b.b.#.i.f.f.j.j.l.z.x.x.#.. b.b.b.b.b.b.b.b.b.b.b.b.b.b.b.b.b.",
"b.b.#.u.i.d.f.h.j.k.z.x.x.v.#.. b.b.b.b.b.b.b.b.b.b.b.b.b.b.b.b.",
"b.#.e.r.i.s.f.f.j.j.z.z.x.c.v.#.. b.b.b.b.b.b.b.b.b.b.b.b.b.b.b.",
"#.0.0.0.0.0.0.0.0.0.0.0.0.0.0.0.#.#.#.#.#.#.#.#.#.#.#.#.#.#.b.b.",
"#.e.r.r.i.i.i.s.d.f.f.f.f.j.j.j.j.l.l.z.z.z.x.x.x.c.v.v.v.v.  b.",
"#.e.r.r.i.i.i.s.d.f.f.f.f.j.j.j.j.l.l.z.z.z.7.J 3.c.v.v.v.v.0.. ",
"#.e.r.r.i.i.i.s.d.f.f.f.f.j.9.5.8.8.8.h.z.j.C i y.c.v.v.v.v.0.+ ",
"#.e.r.r.i.i.i.s.d.f.f.u.<.P D B Z Z Z L <.4.p 7.x.c.v.v.v.v.0.+ ",
"#.e.r.r.i.i.i.s.d.f.u.J 5 8 n Z S F F F ` a.w.x.x.c.v.v.v.v.0.+ ",
"#.e.r.r.i.i.i.s.d.q.L 9 * * = S F F S 6 , p.x.x.x.c.v.v.v.v.0.+ ",
"#.e.r.r.i.i.i.s.q.H f q 0 - e S F F 7 O $ D ] x.x.c.v.v.v.v.0.+ ",
"#.e.r.r.i.i.i.6.G d ; : t B Z S F r o % C Z -.x.x.c.v.v.v.v.0.+ ",
"#.e.r.r.i.i.i.=.m s g > V Z Z S M X $ N F U x.x.x.c.v.v.v.v.0.+ ",
"#.e.r.r.i.i.i.;.1 h j 2 Z Z S b @ # M F G z.x.x.x.c.v.v.v.v.0.+ ",
"#.e.r.r.i.i.i.=.4 l k 3 Z Z F B &.1.< M z.z.x.x.x.c.v.v.v.v.0.+ ",
"#.e.r.r.i.i.i.=.u c v ^ T A F F Q ) F D d.z.x.x.x.c.v.v.v.v.0.+ ",
"#.e.r.r.i.i.i.6.i Z {  .} R F F F W W W L g.x.x.x.c.v.v.v.v.0.+ ",
"#.e.r.r.i.i.i.s.$.w x | [ A ~ ( W W W Q ~ ) h.x.x.c.v.v.v.v.0.+ ",
"#.e.r.r.i.i.i.s.d.=.w Z F ..+.2._ W W Q ~ ~ I x.x.c.v.v.v.v.0.+ ",
"#.e.r.r.i.i.i.s.d.f.' < B X.O.o./ W Q ~ ~ Z K x.x.c.v.v.v.v.0.+ ",
"#.e.r.r.i.i.i.s.d.*.& y a w Y ! E W E F b G t.x.x.c.v.v.v.v.0.+ ",
"#.e.r.r.i.i.i.s.*.& z f.q.:.i u w w M a 5.z.x.x.x.c.v.v.v.v.0.+ ",
"#.e.r.r.i.i.i.s.%.%.f.f.f.j.f.5.>.,.d.z.z.z.x.x.x.c.v.v.v.v.0.+ ",
"#.e.r.r.i.i.i.s.d.f.f.f.f.j.j.j.j.l.l.z.z.z.x.x.x.c.v.v.v.v.0.+ ",
"#.0.0.0.0.0.0.0.0.0.0.0.0.0.0.0.0.0.0.0.0.0.0.0.0.0.0.0.0.0.0.+ ",
"b.+ + + + + + + + + + + + + + + + + + + + + + + + + + + + + + b.",
"b.b.b.b.b.b.b.b.b.b.b.b.b.b.b.b.b.b.b.b.b.b.b.b.b.b.b.b.b.b.b.b.",
"b.b.b.b.b.b.b.b.b.b.b.b.b.b.b.b.b.b.b.b.b.b.b.b.b.b.b.b.b.b.b.b."
};
