/* XPM */
static char *xpm_28[] = {
/* columns rows colors chars-per-pixel */
"16 16 64 1",
"  c #4A424A",
". c gray29",
"X c #524A52",
"o c gray32",
"O c #5A525A",
"+ c #6B5A52",
"@ c #635A63",
"# c gray39",
"$ c #736373",
"% c #736B73",
"& c #7B6B7B",
"* c #7B737B",
"= c #7B7B7B",
"- c #846B63",
"; c #E76B21",
": c #847B84",
"> c magenta",
", c #E78442",
"< c #EF8C5A",
"1 c #F79452",
"2 c #F79C52",
"3 c #E78C6B",
"4 c #FFA55A",
"5 c #FFBD73",
"6 c #848484",
"7 c #9C8C8C",
"8 c #948C94",
"9 c #9C8C94",
"0 c #9C949C",
"q c gray61",
"w c #B59C9C",
"e c #ADA5A5",
"r c #ADA5AD",
"t c #B5ADB5",
"y c gray71",
"u c #BDB5BD",
"i c gray74",
"p c #E79C8C",
"a c #E7A59C",
"s c #F7B594",
"d c #EFB5B5",
"f c #FFD69C",
"g c #F7C6BD",
"h c #FFE7BD",
"j c #CEC6C6",
"k c #CEC6CE",
"l c #CECECE",
"z c #D6CECE",
"x c #D6CED6",
"c c gray84",
"v c #DED6DE",
"b c #E7DEDE",
"n c #F7CECE",
"m c #F7D6D6",
"M c #FFDEDE",
"N c #E7DEE7",
"B c #FFE7CE",
"V c #EFE7EF",
"C c #EFEFEF",
"Z c #FFEFE7",
"A c gray97",
"S c #FFF7FF",
"D c gray100",
"F c None",
/* pixels */
"FFFFFFFFFFFFFFFF",
"FFFFFFFFFFFFFFFF",
"DDDDDDDDDDDDDDDD",
"DB4;;5ZkezSDDDDD",
"B<nDDd,-00jbbbbb",
"sDDDDDw700illk0y",
"aDDDDD0000NDDDlC",
"aDDDDV%*6**tbADD",
"2DDDDk.@$oku8&9x",
"m1hDDf+  :DDDNuN",
"DM3;;pgDvXvDDDDD",
"DDDDDDDDr *DDDDD",
"DDDDDDDDc=.xDDDD",
"DDDDDDDDvO#qDDDD",
"FFFFFFFFFFFFFFFF",
"FFFFFFFFFFFFFFFF"
};
