/* XPM */
static char *xpm_45_big[] = {
/* columns rows colors chars-per-pixel */
"32 32 33 1",
"  c black",
". c gray3",
"X c #101010",
"o c #181818",
"O c gray16",
"+ c #313131",
"@ c #393939",
"# c gray26",
"$ c gray29",
"% c gray32",
"& c #5A5A5A",
"* c gray39",
"= c gray42",
"- c gray45",
"; c #7B7B7B",
": c magenta",
"> c #848484",
", c gray55",
"< c gray58",
"1 c gray61",
"2 c #A5A5A5",
"3 c gray68",
"4 c gray71",
"5 c gray74",
"6 c #C6C6C6",
"7 c #CECECE",
"8 c gray84",
"9 c gray87",
"0 c #E7E7E7",
"q c #EFEFEF",
"w c gray97",
"e c gray100",
"r c None",
/* pixels */
"rrrrrrrrrrrrrrrrrrrrrrrrrrrrrrrr",
"rrrrrrrrrrrrrrrrrrrrrrrrrrrrrrrr",
"rrrrrrrrrrrrrrrrrrrrrrrrrrrrrrrr",
"rrrrrrrrrrrrrrrrrrrrrrrrrrrrrrrr",
"rrrrrrrrrrrrrrrrrrrrrrrrrrrrrrrr",
"rrrrrrrrrrrrrrrrrrrrrrrrrrrrrrrr",
"rrrrrrrrrrrrrrrrrrrrrrrrrrrrrrrr",
"rrrrrrrrrrrrrrrrrrrrrrrrrrrrrrrr",
"rrrrrrrrrrrrrrrrrrrrrrrrrrrrrrrr",
"qqqqqqqqqqqqqqqqqqqqqqqqqqqqqqqq",
"8$$$$%5qw%$7qqqqqw&$-eqq,$,qq;$<",
"5     o0q. 4qqqqq7  owqq% &qq# =",
"5      2q. 4qqqqq1   9qq% &qq# =",
"5  09X ;q. 4qqqqq*   2qq% &qq# =",
"5  qeO <q. 4qqqqe+ $ =qq% $88@ =",
"5  <, .7q. 4qqqq0X., @eq% .XX  =",
"5     %qq. 4qqqq5 O6 Xqq%      =",
"5  XX .3q. 4qqqq> $qX 7q%      =",
"5  67# %q. 4qqqq% +>X <q% #66+ =",
"5  qe> Oq. 3eeeeO     &e% &qq# =",
"5  12O +q. +##%7.     Oe% &qq# =",
"5      =q.    X1 X,1= .0% &qq# =",
"5     X6q.    X* Oeq8  5% &qq# =",
"9====>7qw-====;<=1qqw;=61=2qq<=3",
"qqqqqqqqqqqqqqqqqqqqqqqqqqqqqqqq",
"rrrrrrrrrrrrrrrrrrrrrrrrrrrrrrrr",
"rrrrrrrrrrrrrrrrrrrrrrrrrrrrrrrr",
"rrrrrrrrrrrrrrrrrrrrrrrrrrrrrrrr",
"rrrrrrrrrrrrrrrrrrrrrrrrrrrrrrrr",
"rrrrrrrrrrrrrrrrrrrrrrrrrrrrrrrr",
"rrrrrrrrrrrrrrrrrrrrrrrrrrrrrrrr",
"rrrrrrrrrrrrrrrrrrrrrrrrrrrrrrrr"
};
