/* XPM */
static char *xpm_31[] = {
/* columns rows colors chars-per-pixel */
"16 16 22 1",
"  c black",
". c gray3",
"X c #393939",
"o c gray42",
"O c #737B7B",
"+ c magenta",
"@ c #B5B5BD",
"# c #C6C6C6",
"$ c #C6C6CE",
"% c #D6D6DE",
"& c #D6DEDE",
"* c #D6DEE7",
"= c #DEDEE7",
"- c #DEE7E7",
"; c #DEE7EF",
": c #E7E7EF",
"> c #E7EFEF",
", c #E7EFF7",
"< c #EFEFF7",
"1 c #EFF7F7",
"2 c #EFF7FF",
"3 c None",
/* pixels */
"3333333333333333",
"3**=-;;;>,, <1%3",
"3%%%%%%%%%% %%$3",
"3**=- ;;:>, <1%3",
"3** - ;;:>, <1%3",
"3%%    %%%% %%$3",
"3&  2 2;;;; ,<%3",
"3&* 2 ;;@X  ,<%3",
"3%% %  ; # X%%$3",
"3&    %o   ;,<%3",
"3%% % %%OO%%%%$3",
"3.%%O% % %%  % 3",
"3.%O%% % % % % 3",
"3.%  % % % % % 3",
"3.%  % % %%  % 3",
"3333333333333333"
};
