/* XPM */
static char *xpm_20_big[] = {
/* columns rows colors chars-per-pixel */
"32 32 98 2",
"   c black",
".  c #100810",
"X  c #291000",
"o  c #211818",
"O  c #311818",
"+  c #391818",
"@  c #292118",
"#  c #312931",
"$  c #393929",
"%  c #423942",
"&  c #4A4229",
"*  c #4A4A31",
"=  c #524A31",
"-  c #525231",
";  c #5A5A39",
":  c #635A39",
">  c #6B6329",
",  c #5A5A5A",
"<  c #635A5A",
"1  c #6B6342",
"2  c #736B42",
"3  c #736B4A",
"4  c #73734A",
"5  c #7B735A",
"6  c #7B7B52",
"7  c #6B6B63",
"8  c #736B73",
"9  c #7B7363",
"0  c #7B7B7B",
"q  c #847B52",
"w  c #847B63",
"e  c #847B84",
"r  c magenta",
"t  c #ADAD39",
"y  c #B5B529",
"u  c #B5B539",
"i  c #BDBD39",
"p  c #848C52",
"a  c #848C5A",
"s  c #8C8C5A",
"d  c #949C5A",
"f  c #9C9C63",
"g  c #9CA563",
"h  c #ADB56B",
"j  c #B5B56B",
"k  c #BDBD7B",
"l  c #C6BD73",
"z  c #C6CE4A",
"x  c #C6C652",
"c  c #CECE52",
"v  c #CED652",
"b  c #D6D652",
"n  c #CECE63",
"m  c #CECE6B",
"M  c #C6C673",
"N  c #C6C67B",
"B  c #CECE7B",
"V  c #D6D66B",
"C  c #D6D673",
"Z  c #D6D67B",
"A  c #D6DE73",
"S  c #DEDE73",
"D  c #A59CA5",
"F  c #B59CAD",
"G  c #BDA5B5",
"H  c #BDADBD",
"J  c #BDB5BD",
"K  c #C6ADBD",
"L  c #C6CE84",
"P  c #CED68C",
"I  c #D6D684",
"U  c #D6DE84",
"Y  c #DEDE84",
"T  c #DEDE8C",
"R  c #E7E784",
"E  c #E7E78C",
"W  c #EFEF8C",
"Q  c #E7E794",
"!  c #EFEF94",
"~  c #F7F78C",
"^  c #F7F794",
"/  c #F7FF9C",
"(  c #FFFF9C",
")  c #E7E7A5",
"_  c #FFFFA5",
"`  c #D6CED6",
"'  c gray87",
"]  c #E7D6E7",
"[  c #E7DEE7",
"{  c #EFDEEF",
"}  c #F7F7D6",
"|  c #EFE7EF",
" . c #F7E7F7",
".. c #F7EFF7",
"X. c #FFEFFF",
"o. c #FFF7FF",
"O. c gray100",
"+. c None",
/* pixels */
"+.+.+.+.+.+.+.+.+.+.+.+.+.+.+.+.+.+.+.+.+.+.+.+.+.+.+.+.+.+.+.+.",
"+.e D D D D D D D D D D D D D D D D D D D D D D D D D D D e +.+.",
"+.D ` ] ] ] [ [ [ [ { { { { | | |  . . . .........X.X.X.` D +.+.",
"+.D J X X X X X X G { { { | | [ X X X G ..[ X X X X X X J D +.+.",
"+.D J X X X X X X G { { { | | [ X X X G ..[ X X X X X X J D 8 +.",
"+.D ] ] ] [ [ [ { { { { | | | |  . . .........X.X.X.X.o.] D 8 +.",
"+.D ] ] [ [ ) i i i i i u 9 |  . . . .........X.X.X.o.o.] D 8 +.",
"+.D J + X X x U R E ! ^ ^ t 5 [ X X X G ..[ X X X X o.o.] D 8 +.",
"+.D J + X x C U Y R E W W W u w X X X G } [ X X X X o.o.] D 8 +.",
"+.D ] [ y V C C C A A S S S S z z c c c c c v b j ' o.o.] D 8 +.",
"+.D ] [ y Z Z I I U U E E E E ! ! ! f E ^ / / _ E 1 o.o.] D 8 +.",
"+.D J X y Z Z I I U U E E E E ! ! ! s T ^ / / _ ~ > X + ] D 8 +.",
"+.D J X y Z Z I I U U E R E E ! ! ! s T ^ / / _ ~ > X + ] D 8 +.",
"+.D ] [ y Z Z I I U U E h Y E ! ! ! s T ^ / / _ ~ > o.o.] D 8 +.",
"+.D ] { y Z Z I I U h I q B E ! ! ! s T ^ / / _ ~ > o.O.] D 8 +.",
"+.D J X y Z Z I I U a l 2 4 B ! ! ! s T ^ / / _ ~ > o.o.] D 8 +.",
"+.D J X y Z Z I I U 6 ; @ & Z ! ! ! s T ^ / / _ ~ > o.o.] D 8 +.",
"+.D ] { y Z Z I I q o - $ N E Q P k * Y ^ / / _ ~ > o.O.] D 8 +.",
"+.D ] { y Z Z I I N 3 M 6 B E a 7 %   I ^ / / _ ~ > o.O.] D 8 +.",
"+.D J X y Z Z I I U p d = & f , 0 . : ! ^ / / _ ~ > X X ] D 8 +.",
"+.D J X y Z Z I I h * @ @ g d < # ; B ^ ^ / / _ ~ > X X ] D 8 +.",
"+.D ] | y Z Z I I d $ l 4 Y Y P L E ^ ^ ^ / / ( ~ > O.O.] D 8 +.",
"+.D ] | y B Z I I U g E E E E ! ! ! ^ ^ ^ / / ( ~ > O.O.] D 8 +.",
"+.D J X y n n m m m m m m m m m m V V V V V V C V > X [ ] D 8 +.",
"+.D J X X w w w w w w w w w w w w w w w w w w w w X X [ ] D 8 +.",
"+.D ] |  . . . .........X.X.X.o.o.o.o.o.o.o.O.O.O.O.O.O.] D 8 +.",
"+.D ] |  . . .........X.X.X.X.o.o.o.o.o.o.o.O.O.O.O.O.O.] D 8 +.",
"+.D J X X X X X X X X X X G o.G X X X G o.[ X X X X K O.` D 8 +.",
"+.D J X X X X X X X X X X G o.F X X X G o.[ X X X O [ O.` D 8 +.",
"+.D H ........................O.O.O.O.O.O.O.O.O.O.O.O.O.H D 8 +.",
"+.e D D D D D D D D D D D D D D D D D D D D D D D D D D D e 8 +.",
"+.+.+.+.8 8 8 8 8 8 8 8 8 8 8 8 8 8 8 8 8 8 8 8 8 8 8 8 8 8 +.+."
};
