/* XPM */
static char *xpm_38_big[] = {
/* columns rows colors chars-per-pixel */
"32 32 112 2",
"   c #6B3121",
".  c #6B3929",
"X  c #633131",
"o  c #633931",
"O  c #6B3931",
"+  c #6B3939",
"@  c #733121",
"#  c #733921",
"$  c #7B3929",
"%  c #6B4239",
"&  c #7B4229",
"*  c #4A4A42",
"=  c #52424A",
"-  c #524A42",
";  c #5A424A",
":  c #5A4A52",
">  c #635263",
",  c #6B5A63",
"<  c #735A63",
"1  c #736363",
"2  c #73636B",
"3  c #7B636B",
"4  c #7B6B6B",
"5  c #7B6B73",
"6  c #844229",
"7  c #8C4229",
"8  c #8C4A29",
"9  c #844231",
"0  c #8C4231",
"q  c #8C4A31",
"w  c #8C4A39",
"e  c #944A31",
"r  c #945231",
"t  c #945239",
"y  c #9C5239",
"u  c #9C5A39",
"i  c #A55239",
"p  c #A55A39",
"a  c #AD5A39",
"s  c #AD6339",
"d  c #8C5242",
"f  c #8C5A4A",
"g  c #945A4A",
"h  c #9C5242",
"j  c #9C5A42",
"k  c #8C635A",
"l  c #9C6B5A",
"z  c #846B73",
"x  c #847373",
"c  c #84737B",
"v  c #8C737B",
"b  c #8C7B7B",
"n  c #A55242",
"m  c #AD5A42",
"M  c #AD6342",
"N  c #AD634A",
"B  c #B56342",
"V  c #B5634A",
"C  c #B56B4A",
"Z  c #BD6B4A",
"A  c #BD6B52",
"S  c #BD734A",
"D  c #BD7352",
"F  c #BD735A",
"G  c #C6734A",
"H  c #CE734A",
"J  c #CE7B4A",
"K  c #C67352",
"L  c #C6735A",
"P  c #C67B5A",
"I  c #CE7B52",
"U  c #CE7B5A",
"Y  c #D67B52",
"T  c #D67B5A",
"R  c #8C7B84",
"E  c #947B84",
"W  c magenta",
"Q  c #AD8473",
"!  c #B5846B",
"~  c #B58C7B",
"^  c #D6845A",
"/  c #DE845A",
"(  c #D68463",
")  c #DE8C63",
"_  c #DE9473",
"`  c #E79473",
"'  c #948484",
"]  c #94848C",
"[  c #948C84",
"{  c #9C848C",
"}  c #9C8C8C",
"|  c #9C948C",
" . c #849CB5",
".. c #A58C8C",
"X. c #AD8484",
"o. c #A5948C",
"O. c #AD948C",
"+. c #AD9C8C",
"@. c #BD8C84",
"#. c #B5948C",
"$. c #B59C8C",
"%. c #BD9484",
"&. c #BD9C8C",
"*. c #B5949C",
"=. c #BDA58C",
"-. c #C6948C",
";. c #C69C8C",
":. c #CE9C8C",
">. c #D69C8C",
",. c #C6A58C",
"<. c #CEA58C",
"1. c None",
/* pixels */
"1.1.1.1.1.1.1.1.1.1.1.1.1.1.1.1.1.1.1.1.1.1.1.1.1.1.1.1.1.1.1.1.",
"1.1.1.1.1.1.8 8 6 6 6 6 6 & & & & $ $ @ @     X  .1.1.1.1.1.1.1.",
"1.1.1.1.1.1.6 8 0 p a p p p p p p p p p p m 6 X ; 1.1.1.1.1.1.1.",
"1.1.1.1.1.1.e 6 0 y y y y y y y y y y y y D t X ; 1.1.1.1.1.1.1.",
"1.1.1.1.1.1.y 9 0 i y y y y y y y y y h n D t o ; 1.1.1.1.1.1.1.",
"1.1.1.1.1.1.y 9 0 p w l l l l l k k k ! V F u O ; 1.1.1.1.1.1.1.",
"1.1.1.1.1.1.y q q p g &.,.=.=.=.o.O...:.Z F t O ; 1.1.1.1.1.1.1.",
"1.1.1.1.1.1.y 9 q s g ,.<.,.+.$.o.o...>.C F j o ; 1.1.1.1.1.1.1.",
"1.1.1.1.1.1.y q q s g ,.<.<.+.O.$.O.O.>.C P j o ; 1.1.1.1.1.1.1.",
"1.1.1.1.1.1.y q q M g ,.<.<.<.=.+.+.o.;.S L t % ; 1.1.1.1.1.1.1.",
"1.1.1.1.1.1.i q q B g ,.,.,.$.&.&.o.o.:.S L j % ; 1.1.1.1.1.1.1.",
"1.1.1.1.1.1.i q q B g =.,.,.=.&.&.#.O.-.S P j o = 1.1.1.1.1.1.1.",
"1.1.1.1.1.1.i q q B g &.=.=.=.$.O.#...-.S L j % * 1.1.1.1.1.1.1.",
"1.1.1.1.1.1.p q q B g &.&.&.&.$.O.o...-.K U t + * 1.1.1.1.1.1.1.",
"1.1.1.1.1.1.p q q B g &.&.$.&.O.o.O.O.;.K U j o * 1.1.1.1.1.1.1.",
"1.1.1.1.1.1.a q q Z g #.o.O.O.O.O.{ o.;.K U j % * 1.1.1.1.1.1.1.",
"1.1.1.1.1.1.p q *.b f O.o.+.O.} { o.x ~ K U t % * 1.1.1.1.1.1.1.",
"1.1.1.1.1.1.p q *.b : O.....} ' ' ' x ;.K U u % * 1.1.1.1.1.1.1.",
"1.1.1.1.1.1.i q : 5 : o.o.o...} } } ] ;.U ( j % * 1.1.1.1.1.1.1.",
"1.1.1.1.1.1.i q t G f o.| | | [ { ' v ;.U ( j O * 1.1.1.1.1.1.1.",
"1.1.1.1.1.1.y q t H f } | } b } b { ' -.U ( t + - 1.1.1.1.1.1.1.",
"1.1.1.1.1.1.y q t J f } ' R c c x E z @.U ( j % ; 1.1.1.1.1.1.1.",
"1.1.1.1.1.1.y q t J f { z b x , 3 3 2 %.U ( j o ; 1.1.1.1.1.1.1.",
"1.1.1.1.1.1.e q t I d ' 5 x v , > 1 4 Q ^ ( y O ; 1.1.1.1.1.1.1.",
"1.1.1.1.1.1.e q t Y d z 4 z < 3 3 3 5 X.^ ( y O ; 1.1.1.1.1.1.1.",
"1.1.1.1.1.1.e 9 t Y C ` ` ` ` ` ` ` _ ) G ( j o ; 1.1.1.1.1.1.1.",
"1.1.1.1.1.1.e 9 t Y Y Y Y Y Y Y I I H J J ( t . o 1.1.1.1.1.1.1.",
"1.1.1.1.1.1.q 6 t Y Y T / Y Y Y I I I H H ( t #   1.1.1.1.1.1.1.",
"1.1.1.1.1.1.8 6 y Y / / / Y Y Y Y I I H G ^ t     1.1.1.1.1.1.1.",
"1.1.1.1.1.1.q q 6 8 7 7 8 7 7 7 8 7 7 6 6 N r @ @ 1.1.1.1.1.1.1.",
"1.1.1.1.1.1.Z D Z D K D D D A D D D A D D D A D  .1.1.1.1.1.1.1.",
"1.1.1.1.1.1.1.1.1.1.1.1.1.1.1.1.1.1.1.1.1.1.1.1.1.1.1.1.1.1.1.1."
};
