/* XPM */
static char *xpm_35[] = {
/* columns rows colors chars-per-pixel */
"16 16 76 1",
"  c #00107B",
". c #633129",
"X c #6B3121",
"o c #733921",
"O c #7B4229",
"+ c #7B4231",
"@ c #7B4A31",
"# c #7B4A39",
"$ c #736363",
"% c #736B6B",
"& c #181884",
"* c #292184",
"= c #394284",
"- c #4A4284",
"; c #524A84",
": c #6B6384",
"> c #6B6B84",
", c #736384",
"< c #7B6B84",
"1 c #737384",
"2 c #844229",
"3 c #844A29",
"4 c #8C4A29",
"5 c #844A39",
"6 c #8C4A31",
"7 c #944A31",
"8 c #945231",
"9 c #9C5A31",
"0 c #9C5A39",
"q c #A55A39",
"w c #AD6339",
"e c #945A42",
"r c #945A4A",
"t c #9C634A",
"y c #8C6B63",
"u c #8C736B",
"i c #847373",
"p c #94736B",
"a c #947B73",
"s c #A56342",
"d c #AD6342",
"f c #AD6B42",
"g c #AD735A",
"h c #B56342",
"j c #B56B42",
"k c #B56B4A",
"l c #B57352",
"z c #BD7352",
"x c #A57B6B",
"c c #AD7B6B",
"v c #CE7B4A",
"b c #C67352",
"n c #C67B52",
"m c #CE7B52",
"M c #D67B52",
"N c magenta",
"B c #AD846B",
"V c #A5847B",
"C c #B58473",
"Z c #CE845A",
"A c #D6845A",
"S c #9C8C84",
"D c #9C8C8C",
"F c #9C948C",
"G c #A58C84",
"H c #AD8C84",
"J c #A5948C",
"K c #B5948C",
"L c #B59C8C",
"P c #BD948C",
"I c #BD9C8C",
"U c #B5A58C",
"Y c #BDA58C",
"T c #C6A58C",
"R c #CEA58C",
"E c None",
/* pixels */
"EEEEEEEEEEEEEEEE",
"EEE422OOOoX.EEEE",
"EEE4700000s+EEEE",
"EEE67ettrtk@EEEE",
"EEE68cTUJPl#EEEE",
"EEE80BR,SIz#EEEE",
"EEE80BT&>Kz#EEEE",
"EEE80xYGGKb#EEEE",
"EEE8Dx1 ;Ln#EEEE",
"EEE8TuJ=;Vn#EEEE",
"EEE85uF=-HZ5EEEE",
"EEE8dp:**<Z#EEEE",
"EEE6fyi%$aA#EEEE",
"EEE6jgCccCA#EEEE",
"EEE6jMMMmvm3EEEE",
"EEE39hwwwqj2EEEE"
};
