/* XPM */
static char *xpm_29_big[] = {
/* columns rows colors chars-per-pixel */
"32 32 256 2",
"   c #391010",
".  c #004229",
"X  c #004A31",
"o  c #005A21",
"O  c #294218",
"+  c #295A18",
"@  c #215231",
"#  c #216B00",
"$  c #217310",
"%  c #006B5A",
"&  c #007B4A",
"*  c #00735A",
"=  c #107B42",
"-  c #107363",
";  c #296B4A",
":  c #422110",
">  c #522118",
",  c #5A2118",
"<  c #5A2921",
"1  c #732910",
"2  c #7B2910",
"3  c #7B3110",
"4  c #673525",
"5  c #733131",
"6  c #5A5A21",
"7  c #4A7318",
"8  c #5A6729",
"9  c #5A7B21",
"0  c #734218",
"q  c #7B4229",
"w  c #7B5231",
"e  c #7B5239",
"r  c #737331",
"t  c #7B735A",
"y  c #31A539",
"u  c #188C42",
"i  c #31A573",
"p  c #4A9C00",
"a  c #4AA500",
"s  c #52AD00",
"d  c #5AAD00",
"f  c #5A9473",
"g  c #42BD42",
"h  c #7B946B",
"j  c #52C629",
"k  c #5ACE21",
"l  c #6BC600",
"z  c #6BCE00",
"x  c #6BD600",
"c  c #73D600",
"v  c #7BD600",
"b  c #63CE39",
"n  c #73C621",
"m  c #31AD94",
"M  c #10B5CE",
"N  c #10BDEF",
"B  c #21B5D6",
"V  c #29BDDE",
"C  c #31BDCE",
"Z  c #31BDDE",
"A  c #18C6D6",
"S  c #10C6E7",
"D  c #10CEF7",
"F  c #21C6D6",
"G  c #29C6DE",
"H  c #31CEEF",
"J  c #42A584",
"K  c #4AADAD",
"L  c #7B9CA5",
"P  c #6BA5B5",
"I  c #42BDCE",
"U  c #56BDC6",
"Y  c #4AC6CE",
"T  c #42C6D6",
"R  c #52C6C6",
"E  c #52C6CE",
"W  c #5AC6C6",
"Q  c #5AD6D6",
"!  c #42D6E7",
"~  c #63CED6",
"^  c #7BCEC6",
"/  c #6BC6C6",
"(  c #844210",
")  c #844A10",
"_  c #8C4A10",
"`  c #8C4A18",
"'  c #8C5218",
"]  c #844A29",
"[  c #945A21",
"{  c #945A31",
"}  c #946331",
"|  c #A56329",
" . c #A56B31",
".. c #B56329",
"X. c #B56B31",
"o. c #BD7339",
"O. c #847B5A",
"+. c #A9774A",
"@. c #A57B52",
"#. c #B56B52",
"$. c #CE7B39",
"%. c #CE7331",
"&. c #C65A4A",
"*. c #C86847",
"=. c #CE7342",
"-. c #CE7B42",
";. c #C67B73",
":. c #EF7B5A",
">. c #F76B52",
",. c #FF6B52",
"<. c #F77352",
"1. c #F77B52",
"2. c #F77B5A",
"3. c #FF7352",
"4. c #FF7B52",
"5. c #FF7B5A",
"6. c #EF7B63",
"7. c magenta",
"8. c #ADBD21",
"9. c #948463",
"0. c #9CA55A",
"q. c #A5845A",
"w. c #A5945A",
"e. c #B58647",
"r. c #B5845A",
"t. c #BD9954",
"y. c #B59C6B",
"u. c #BD947B",
"i. c #BDA55A",
"p. c #ADA56B",
"a. c #B5CE31",
"s. c #CE8C39",
"d. c #CE9439",
"f. c #CE844A",
"g. c #CE8C42",
"h. c #CA9446",
"j. c #C69C5A",
"k. c #CE9C52",
"l. c #C69C52",
"z. c #DE8C4A",
"x. c #D68C42",
"c. c #D69442",
"v. c #D69C4A",
"b. c #DE9C52",
"n. c #CE8473",
"m. c #C69C63",
"M. c #CEA55A",
"N. c #D6A556",
"B. c #D6A56B",
"V. c #DEAD77",
"C. c #D6B56B",
"Z. c #EF845A",
"A. c #E7945A",
"S. c #EF945A",
"D. c #EF9C52",
"F. c #F78C42",
"G. c #FF8C4A",
"H. c #F7845A",
"J. c #FF8452",
"K. c #FF845A",
"L. c #FF8C52",
"P. c #FF8C5A",
"I. c #F79442",
"U. c #F7944A",
"Y. c #FF9442",
"T. c #FF944A",
"R. c #FF9C42",
"E. c #FF9C4A",
"W. c #F79C52",
"Q. c #FF945A",
"!. c #FF9C52",
"~. c #FF9C5A",
"^. c #FF8C63",
"/. c #FF8C6B",
"(. c #FF9463",
"). c #FF9C63",
"_. c #FF9C6B",
"`. c #EFAD5A",
"'. c #EFB55A",
"]. c #FFA542",
"[. c #FFA54A",
"{. c #FFA552",
"}. c #FFA55A",
"|. c #FFAD52",
" X c #FFAD5A",
".X c #FFB55A",
"XX c #FFBD5A",
"oX c #E7AD63",
"OX c #EFA563",
"+X c #E7B563",
"@X c #EFBD73",
"#X c #FFA56B",
"$X c #FFAD63",
"%X c #F7B56B",
"&X c #F7BD6B",
"*X c #FFB563",
"=X c #FFBD63",
"-X c #FFBD6B",
";X c #CEC66B",
":X c #DEC67B",
">X c #D6EF73",
",X c #E7CE7B",
"<X c #F7C663",
"1X c #FFC663",
"2X c #FFC66B",
"3X c #FFCE6B",
"4X c #F7CE7B",
"5X c #FFC673",
"6X c #FFC67B",
"7X c #FFCE73",
"8X c #FFCE7B",
"9X c #FFD673",
"0X c #FFD67B",
"qX c #FFDE7B",
"wX c #E7E77B",
"eX c #EFE77B",
"rX c #9C8C8C",
"tX c #948C9C",
"yX c #94B5A5",
"uX c #A58C94",
"iX c #A5948C",
"pX c #A59898",
"aX c #B59C8C",
"sX c #9CC69C",
"dX c #8CD6BD",
"fX c #A5D6AD",
"gX c #E7B584",
"hX c #CEDA98",
"jX c #DEDE84",
"kX c #DEF7AD",
"lX c #E7CE8C",
"zX c #F7DE84",
"xX c #FFDE84",
"cX c #FFDE8C",
"vX c #EFE78C",
"bX c #E7E794",
"nX c #EFE79C",
"mX c #F7E78C",
"MX c #FFE784",
"NX c #FFE78C",
"BX c #FFEF8C",
"VX c #F7E794",
"CX c #F7E79C",
"ZX c #FFE794",
"AX c #FFE79C",
"SX c #FFEF94",
"DX c #FFEF9C",
"FX c #FFF79C",
"GX c #EFF7AD",
"HX c #FFEFA5",
"JX c #FFF7A5",
"KX c #FFF7AD",
"LX c #FFFFA5",
"PX c #FFFFAD",
"IX c #E7EFAD",
"UX c None",
/* pixels */
"UXUXUXUXUXUXUXUXUXUXUXUXUXUXUXUXUXUXUXUXUXUXUXUXUXUXUXUXUXUXUXUX",
"UXUXUXUXUXUXUXUXUXUXUXUXUXUXUXUXUXUXUXUXUXUXUXUXUXUXUXUXUXUXUXUX",
"UXUXUXUXUXUXUXUXUXUXUXUXUXUXUXUXUXUXUXUXUXUXUXUXUXUXUXUXUXUXUXUX",
"UXUXUXUXUXUXUXUXUXUXUXUXUXUXUXUXUXUXUXUXUXUXUXUXUXUXUXUXUXUXUXUX",
"UXUXUXUXUXUXUXUXUXUXUXUXUXUXUXUXUXUXUXUXUXUXUXUXUXUXUXUXUXUXUXUX",
"UXUXUXUXUXUXUXUXUXUXUXUXUXUXUXUXUXUXUXUXUXUXUXUXUXUXUXUXUXKXUXUX",
"O.t UXUXUXUXUXUXUXUXUXUXUXUXUXUXUXUXUXUXUXUXUXUXUXUXUXUXUXUXnXUX",
"9.t.UXUXUXUX] =.&.&.&.UX{ $.$.$.k.M.M.*.-.$.UXX.$.$.$.$.$.*.JX0 ",
"9.j.} @.q.+.b.!.4.J.~.m.`..X.X.X|.|.~.L.|..Xy. X.X.X.X.X.X<.JX` ",
"9.j.g.qXSXqX3X=X).}.1XSXxX7X7X7X.X X(. X7X0XFX9X7X7X7X7X7X(.LX` ",
"9.j.s.xXJXcXxXvXjXwXeXFXBXMXMXxXxXxXMXmXFXJXNXMXbXxXxXxXxXBXVX` ",
"9.j.%.2X_.>.>.P % p x >X0X1X1X[.Y.3.$XiX%XR.DX3XG D.Y.Y.Y.LX( _ ",
"9.t.( N.#X,.L - & j v h.6X3X1X1X[.4.*XpXuXU.SX! X B W.XX1.JX' UX",
"9.CXe.k.9XyXV M * u k d.6X9X1X1XXXJ.*X&XU T GX; d b E.U :.JX' UX",
"9.LXj.k.NXhXY S * o $ o.6X7X1X1XyX@X7X0XT S IX+ y z 8.F 6.JX' UX",
"9.LXj.k.BXxXfXQ f 8 6 #.6X0X0X0XdXIXhXzXT E GXr = a s A Z.JX' UX",
"9.LXj.l.3XcXDXFXJXxX Xu.lXFXJXGXkXHX~ :XW ,XSXoX@ . O C E.JX' UX",
"9.LXj.( g.1XP.~.1X1XaXA.7X3X1XR N ;..X1X1XFX{.V D D 4X1XE.JX' UX",
"9.PXe.( x.1X=XP.}.1X2X|.7X7X6 i.<XH.*X1X1XFXpXtXtX@X1X5.XXPX' UX",
"UXp.HXe.c.NXFXAX8X2Xz.F.=Xa.l 7 K n.*X1X1XFXOXrXtX-X1X2.SX ._ UX",
"UX9.LXl.| +X7X2X.X|.I.Y.0.n v # h S.Q.=X1XFX|.V.V.2X~.G.JX' _ UX",
"UX9.LXC.[ c..X[.[.[.[.B.m g j 9 w.W.4.*X1XFX|.=X1X1X5.T.JX' _ UX",
"UX9.LXZXe.c.3X3X3X3X3X^ H m i ;X/ B.4.-X3XFX.X2X3X3X^.E.JX' _ UX",
"UX9.LX+.1 N.NXNXNXNXNXFXLXPXPX9X].R.4.AXPXLXPXPXPXPXPX[.JX' _ UX",
"UX9.r.3 ) ` v.3X3X3X3X3X3XFXPXPXKXKXKXPX9XJX X1X2X2XK.<.2X) _ UX",
"UXUX, 2 _ _ ..=.=.U.[.[.[.z.f.f.{.(./.5X3X.X1X3X3X3X5.5.K.'.UXUX",
"UXUXUX  : : > < < 4 q q q 4 , < < < < < < q w e e e 5 5 5 w UXUX",
"UXUXUXUXUXUXUXUXUXUXUXUXUXUXUXUXUXUXUXUXUXUXUXUXUXUXUXUXUXUXUXUX",
"UXUXUXUXUXUXUXUXUXUXUXUXUXUXUXUXUXUXUXUXUXUXUXUXUXUXUXUXUXUXUXUX",
"UXUXUXUXUXUXUXUXUXUXUXUXUXUXUXUXUXUXUXUXUXUXUXUXUXUXUXUXUXUXUXUX",
"UXUXUXUXUXUXUXUXUXUXUXUXUXUXUXUXUXUXUXUXUXUXUXUXUXUXUXUXUXUXUXUX",
"UXUXUXUXUXUXUXUXUXUXUXUXUXUXUXUXUXUXUXUXUXUXUXUXUXUXUXUXUXUXUXUX"
};
