/* XPM */
static char *xpm_21_big[] = {
/* columns rows colors chars-per-pixel */
"32 32 119 2",
"   c #6B3121",
".  c #6B3929",
"X  c #633131",
"o  c #633931",
"O  c #6B3931",
"+  c #6B3939",
"@  c #733121",
"#  c #733921",
"$  c #7B3929",
"%  c #6B4239",
"&  c #7B4229",
"*  c #4A4A42",
"=  c #52424A",
"-  c #524A42",
";  c #5A424A",
":  c #5A4A52",
">  c #635263",
",  c #6B5A63",
"<  c #735A63",
"1  c #736363",
"2  c #73636B",
"3  c #7B636B",
"4  c #7B6B6B",
"5  c #7B6B73",
"6  c #940000",
"7  c #9C0000",
"8  c #A50000",
"9  c #AD0000",
"0  c #B50000",
"q  c #BD0000",
"w  c #844229",
"e  c #8C4229",
"r  c #8C4A29",
"t  c #844231",
"y  c #8C4231",
"u  c #8C4A31",
"i  c #8C4A39",
"p  c #944A31",
"a  c #945231",
"s  c #945239",
"d  c #9C5239",
"f  c #9C5A39",
"g  c #A55239",
"h  c #A55A39",
"j  c #AD5A39",
"k  c #AD6339",
"l  c #8C5242",
"z  c #8C5A4A",
"x  c #945A4A",
"c  c #9C5242",
"v  c #9C5A42",
"b  c #8C635A",
"n  c #9C6B5A",
"m  c #846B73",
"M  c #847373",
"N  c #84737B",
"B  c #8C737B",
"V  c #8C7B7B",
"C  c #A55242",
"Z  c #AD5A42",
"A  c #AD6342",
"S  c #AD634A",
"D  c #B56342",
"F  c #B5634A",
"G  c #B56B4A",
"H  c #BD6B4A",
"J  c #BD6B52",
"K  c #BD734A",
"L  c #BD7352",
"P  c #BD735A",
"I  c #C60000",
"U  c #C6734A",
"Y  c #CE734A",
"T  c #CE7B4A",
"R  c #C67352",
"E  c #C6735A",
"W  c #C67B5A",
"Q  c #CE7B52",
"!  c #CE7B5A",
"~  c #D67B52",
"^  c #D67B5A",
"/  c #8C7B84",
"(  c #947B84",
")  c magenta",
"_  c #AD8473",
"`  c #B5846B",
"'  c #B58C7B",
"]  c #D6845A",
"[  c #DE845A",
"{  c #D68463",
"}  c #DE8C63",
"|  c #DE9473",
" . c #E79473",
".. c #948484",
"X. c #94848C",
"o. c #948C84",
"O. c #9C848C",
"+. c #9C8C8C",
"@. c #9C948C",
"#. c #849CB5",
"$. c #A58C8C",
"%. c #AD8484",
"&. c #A5948C",
"*. c #AD948C",
"=. c #AD9C8C",
"-. c #BD8C84",
";. c #B5948C",
":. c #B59C8C",
">. c #BD9484",
",. c #BD9C8C",
"<. c #B5949C",
"1. c #BDA58C",
"2. c #C6948C",
"3. c #C69C8C",
"4. c #CE9C8C",
"5. c #D69C8C",
"6. c #C6A58C",
"7. c #CEA58C",
"8. c None",
/* pixels */
"8.8.8.8.8.8.8.8.8.8.8.8.8.8.8.8.8.8.8.8.8.8.8.8.8.8.8.8.8.8.8.8.",
"8.8.8.8.8.8.8.8.8.8.8.8.8.r r w w w w w & & & & $ $ @ @     X #.",
"8.8.8.8.8.8.8.8.8.8.8.8.8.w r y h j h h h h h h h h h h Z w X ; ",
"8.8.8.8.8.8.8.8.8.8.8.8.8.p w y d d d d d d d d d d d d L s X ; ",
"8.8.8.8.8.8.8.8.8.8.8.8.8.d t y g d d d d d d d d d c C L s o ; ",
"8.8.8.8.8.8.8.8.8.8.8.8.8.d t y h i n n n n n b b b ` F P f O ; ",
"8.8.8.8.8.8.8.8.8.8.8.8.8.d u u h x ,.6.1.1.1.&.*.$.4.H P s O ; ",
"8.8.8.8.8.8.8.8.8.8.8.8.8.d t u k x 6.7.6.=.:.&.&.$.5.G P v o ; ",
"8.8.8.8.8.8.8.8.8.8.8.8.8.d u u k x 6.7.7.=.*.:.*.*.5.G W v o ; ",
"8.8.8.8.8.8.8.8.8.8.8.8.8.d u u A x 6.7.7.7.1.=.=.&.3.K E s % ; ",
"8.8.8.8.8.6 8.8.8.8.8.8.8.g u u D x 6.6.6.:.,.,.&.&.4.K E v % ; ",
"8.8.8.8.8.6 6 8.8.8.8.8.8.g u u D x 1.6.6.1.,.,.;.*.2.K W v o = ",
"8.8.8.8.8.7 7 7 8.8.8.8.8.g u u D x ,.1.1.1.:.*.;.$.2.K E v % * ",
"8 8 8 8 8 7 7 7 7 7 8.8.8.h u u D x ,.,.,.,.:.*.&.$.2.R ! s + * ",
"8 8 8 8 8 8 8 8 8 7 7 8.8.h u u D x ,.,.:.,.*.&.*.*.3.R ! v o * ",
"9 9 9 9 9 8 8 8 8 8 8 8 8.j u u H x ;.&.*.*.*.*.O.&.3.R ! v % * ",
"9 9 9 9 9 9 9 9 8 8 8 8 8 h u <.V z *.&.=.*.+.O.&.M ' R ! s % * ",
"0 0 0 0 9 9 9 9 9 9 9 9 8.h u <.V : *.$.$.+.......M 3.R ! f % * ",
"0 0 0 0 0 0 0 0 9 9 9 8.8.g u : 5 : &.&.&.$.+.+.+.X.3.! { v % * ",
"q q q q 0 0 0 0 0 0 8.8.8.g u s U z &.@.@.@.o.O...B 3.! { v O * ",
"8.8.8.8.8.q q 0 8.8.8.8.8.d u s Y z +.@.+.V +.V O...2.! { s + - ",
"8.8.8.8.8.q q 8.8.8.8.8.8.d u s T z +.../ N N M ( m -.! { v % ; ",
"8.8.8.8.8.I 8.8.8.8.8.8.8.d u s T z O.m V M , 3 3 2 >.! { v o ; ",
"8.8.8.8.8.8.8.8.8.8.8.8.8.p u s Q l ..5 M B , > 1 4 _ ] { d O ; ",
"8.8.8.8.8.8.8.8.8.8.8.8.8.p u s ~ l m 4 m < 3 3 3 5 %.] { d O ; ",
"8.8.8.8.8.8.8.8.8.8.8.8.8.p t s ~ G  . . . . . . .| } U { v o ; ",
"8.8.8.8.8.8.8.8.8.8.8.8.8.p t s ~ ~ ~ ~ ~ ~ ~ Q Q Y T T { s . o ",
"8.8.8.8.8.8.8.8.8.8.8.8.8.u w s ~ ~ ^ [ ~ ~ ~ Q Q Q Y Y { s #   ",
"8.8.8.8.8.8.8.8.8.8.8.8.8.r w d ~ [ [ [ ~ ~ ~ ~ Q Q Y U ] s     ",
"8.8.8.8.8.8.8.8.8.8.8.8.8.u u w r e e r e e e r e e w w S a @ @ ",
"8.8.8.8.8.8.8.8.8.8.8.8.8.H L H L R L L L J L L L J L L L J L #.",
"8.8.8.8.8.8.8.8.8.8.8.8.8.8.8.8.8.8.8.8.8.8.8.8.8.8.8.8.8.8.8.8."
};
