/* XPM */
static char *xpm_25_big[] = {
/* columns rows colors chars-per-pixel */
"32 32 33 1",
"  c #2929CE",
". c #2921DE",
"X c #2929D6",
"o c #3121CE",
"O c #3121D6",
"+ c #3921E7",
"@ c #2952B5",
"# c #295ACE",
"$ c #3942E7",
"% c #4221D6",
"& c #4221DE",
"* c #5221D6",
"= c #5221DE",
"- c #4221E7",
"; c #4A21E7",
": c #4A21EF",
"> c #4239E7",
", c #5221FF",
"< c #5231EF",
"1 c #5A39F7",
"2 c #6321DE",
"3 c #6331EF",
"4 c #6342EF",
"5 c #634AEF",
"6 c #634AF7",
"7 c #6B52EF",
"8 c #7B63FF",
"9 c #7B84F7",
"0 c #8C63FF",
"q c #8473EF",
"w c magenta",
"e c #AD94FF",
"r c None",
/* pixels */
"rrrrrrrrrrrrrrrrrrrrrrrrrrrrrrrr",
"rrrrrrrrrrrrrrrrrrr,,,rrrrrrrrrr",
"rrrr8888rrrrrrrrrrr <&#rrrrrrrrr",
"rrr803:<#rrrrrrrrr86&&#@rrrrrrrr",
"rrr82&&&&#rrrrrrrr8;%%@rrrrrrrrr",
"rrrr@&&&&#rrrrrrrr8&%@rrrrrrrrrr",
"rrrrr@&===##rrrrre4%@rrrrrrrrrrr",
"rrrrr@====**#@@@q7%%@rrrrrrrrrrr",
"rrrrrr@==**%%%%%%%%%@rrrrrrrrrrr",
"rrrrrr#=**%%%%%%%%%%%@rrrr,,,,rr",
"rrrrr#=**%%%%%%%%%%%%O@rr,<+-oor",
"rrrrr#**%%%%%%%%%%%%OOO@,<%oooor",
"rrrr8,*%%%%%%%%%%%%OOOOOoooo@@rr",
"rrr805%%%%%%%%%%%%OOOOOoooo@rrrr",
"rr81;%%%%%%%%%%%%OOOOOoooo@rrrrr",
"r81;%%%%%%%%%%%OOOOOOoooo@rrrrrr",
"0<;%%%%%%%%%%%OOOOOoooooo@rrrrrr",
"@O%%%%%%%%%%%OOOOOooooooo@rrrrrr",
"@%%%%%%%%%%%OOOOOooooooo @rrrrrr",
"r@@@@@%%%%%OOOOOooooooo  #@rrrrr",
"rrrrrr@O%OOOOOOooooooo    ##98rr",
"rrrrrrr@OOOOOoooooooo         8r",
"rrrrrrrr@OOOooooooo           @r",
"rrrrrrrr8oOooooooo      @r@  @rr",
"rrrrrrr8>oooooooo      @rrr@@rrr",
"rrrrrr8<.ooooooo      #rrrrrrrrr",
"rrrrr8>ooo@@@@@        8rrrrrrrr",
"rrrrr@ooo@@rrr@@@     X$8rrrrrrr",
"rrrrrr@@@rrrrrrrr@@    #@rrrrrrr",
"rrrrrrrrrrrrrrrrrrr@@ #@rrrrrrrr",
"rrrrrrrrrrrrrrrrrrrr@@@rrrrrrrrr",
"rrrrrrrrrrrrrrrrrrrrrrrrrrrrrrrr"
};
